<?xml version='1.0' encoding='utf-8'?>
<svg xmlns="http://www.w3.org/2000/svg" xmlns:xlink="http://www.w3.org/1999/xlink" id="chart-87cd702d-a2c6-4c16-bea0-758620c697f1" class="pygal-chart" viewBox="0 0 800 600"><!--Generated with pygal 2.4.0 (lxml) ©Kozea 2012-2016 on 2020-05-16--><!--http://pygal.org--><!--http://github.com/Kozea/pygal--><defs><style type="text/css">#chart-87cd702d-a2c6-4c16-bea0-758620c697f1{-webkit-user-select:none;-webkit-font-smoothing:antialiased;font-family:Consolas,"Liberation Mono",Menlo,Courier,monospace}#chart-87cd702d-a2c6-4c16-bea0-758620c697f1 .title{font-family:Consolas,"Liberation Mono",Menlo,Courier,monospace;font-size:16px}#chart-87cd702d-a2c6-4c16-bea0-758620c697f1 .legends .legend text{font-family:Consolas,"Liberation Mono",Menlo,Courier,monospace;font-size:14px}#chart-87cd702d-a2c6-4c16-bea0-758620c697f1 .axis text{font-family:Consolas,"Liberation Mono",Menlo,Courier,monospace;font-size:10px}#chart-87cd702d-a2c6-4c16-bea0-758620c697f1 .axis text.major{font-family:Consolas,"Liberation Mono",Menlo,Courier,monospace;font-size:10px}#chart-87cd702d-a2c6-4c16-bea0-758620c697f1 .text-overlay text.value{font-family:Consolas,"Liberation Mono",Menlo,Courier,monospace;font-size:16px}#chart-87cd702d-a2c6-4c16-bea0-758620c697f1 .text-overlay text.label{font-family:Consolas,"Liberation Mono",Menlo,Courier,monospace;font-size:10px}#chart-87cd702d-a2c6-4c16-bea0-758620c697f1 .tooltip{font-family:Consolas,"Liberation Mono",Menlo,Courier,monospace;font-size:14px}#chart-87cd702d-a2c6-4c16-bea0-758620c697f1 text.no_data{font-family:Consolas,"Liberation Mono",Menlo,Courier,monospace;font-size:64px}
#chart-87cd702d-a2c6-4c16-bea0-758620c697f1{background-color:rgba(249,249,249,1)}#chart-87cd702d-a2c6-4c16-bea0-758620c697f1 path,#chart-87cd702d-a2c6-4c16-bea0-758620c697f1 line,#chart-87cd702d-a2c6-4c16-bea0-758620c697f1 rect,#chart-87cd702d-a2c6-4c16-bea0-758620c697f1 circle{-webkit-transition:150ms;-moz-transition:150ms;transition:150ms}#chart-87cd702d-a2c6-4c16-bea0-758620c697f1 .graph &gt; .background{fill:rgba(249,249,249,1)}#chart-87cd702d-a2c6-4c16-bea0-758620c697f1 .plot &gt; .background{fill:rgba(255,255,255,1)}#chart-87cd702d-a2c6-4c16-bea0-758620c697f1 .graph{fill:rgba(0,0,0,.87)}#chart-87cd702d-a2c6-4c16-bea0-758620c697f1 text.no_data{fill:rgba(0,0,0,1)}#chart-87cd702d-a2c6-4c16-bea0-758620c697f1 .title{fill:rgba(0,0,0,1)}#chart-87cd702d-a2c6-4c16-bea0-758620c697f1 .legends .legend text{fill:rgba(0,0,0,.87)}#chart-87cd702d-a2c6-4c16-bea0-758620c697f1 .legends .legend:hover text{fill:rgba(0,0,0,1)}#chart-87cd702d-a2c6-4c16-bea0-758620c697f1 .axis .line{stroke:rgba(0,0,0,1)}#chart-87cd702d-a2c6-4c16-bea0-758620c697f1 .axis .guide.line{stroke:rgba(0,0,0,.54)}#chart-87cd702d-a2c6-4c16-bea0-758620c697f1 .axis .major.line{stroke:rgba(0,0,0,.87)}#chart-87cd702d-a2c6-4c16-bea0-758620c697f1 .axis text.major{fill:rgba(0,0,0,1)}#chart-87cd702d-a2c6-4c16-bea0-758620c697f1 .axis.y .guides:hover .guide.line,#chart-87cd702d-a2c6-4c16-bea0-758620c697f1 .line-graph .axis.x .guides:hover .guide.line,#chart-87cd702d-a2c6-4c16-bea0-758620c697f1 .stackedline-graph .axis.x .guides:hover .guide.line,#chart-87cd702d-a2c6-4c16-bea0-758620c697f1 .xy-graph .axis.x .guides:hover .guide.line{stroke:rgba(0,0,0,1)}#chart-87cd702d-a2c6-4c16-bea0-758620c697f1 .axis .guides:hover text{fill:rgba(0,0,0,1)}#chart-87cd702d-a2c6-4c16-bea0-758620c697f1 .reactive{fill-opacity:.7;stroke-opacity:.8}#chart-87cd702d-a2c6-4c16-bea0-758620c697f1 .ci{stroke:rgba(0,0,0,.87)}#chart-87cd702d-a2c6-4c16-bea0-758620c697f1 .reactive.active,#chart-87cd702d-a2c6-4c16-bea0-758620c697f1 .active .reactive{fill-opacity:.8;stroke-opacity:.9;stroke-width:4}#chart-87cd702d-a2c6-4c16-bea0-758620c697f1 .ci .reactive.active{stroke-width:1.5}#chart-87cd702d-a2c6-4c16-bea0-758620c697f1 .series text{fill:rgba(0,0,0,1)}#chart-87cd702d-a2c6-4c16-bea0-758620c697f1 .tooltip rect{fill:rgba(255,255,255,1);stroke:rgba(0,0,0,1);-webkit-transition:opacity 150ms;-moz-transition:opacity 150ms;transition:opacity 150ms}#chart-87cd702d-a2c6-4c16-bea0-758620c697f1 .tooltip .label{fill:rgba(0,0,0,.87)}#chart-87cd702d-a2c6-4c16-bea0-758620c697f1 .tooltip .label{fill:rgba(0,0,0,.87)}#chart-87cd702d-a2c6-4c16-bea0-758620c697f1 .tooltip .legend{font-size:.8em;fill:rgba(0,0,0,.54)}#chart-87cd702d-a2c6-4c16-bea0-758620c697f1 .tooltip .x_label{font-size:.6em;fill:rgba(0,0,0,1)}#chart-87cd702d-a2c6-4c16-bea0-758620c697f1 .tooltip .xlink{font-size:.5em;text-decoration:underline}#chart-87cd702d-a2c6-4c16-bea0-758620c697f1 .tooltip .value{font-size:1.5em}#chart-87cd702d-a2c6-4c16-bea0-758620c697f1 .bound{font-size:.5em}#chart-87cd702d-a2c6-4c16-bea0-758620c697f1 .max-value{font-size:.75em;fill:rgba(0,0,0,.54)}#chart-87cd702d-a2c6-4c16-bea0-758620c697f1 .map-element{fill:rgba(255,255,255,1);stroke:rgba(0,0,0,.54) !important}#chart-87cd702d-a2c6-4c16-bea0-758620c697f1 .map-element .reactive{fill-opacity:inherit;stroke-opacity:inherit}#chart-87cd702d-a2c6-4c16-bea0-758620c697f1 .color-0,#chart-87cd702d-a2c6-4c16-bea0-758620c697f1 .color-0 a:visited{stroke:#F44336;fill:#F44336}#chart-87cd702d-a2c6-4c16-bea0-758620c697f1 .color-1,#chart-87cd702d-a2c6-4c16-bea0-758620c697f1 .color-1 a:visited{stroke:#3F51B5;fill:#3F51B5}#chart-87cd702d-a2c6-4c16-bea0-758620c697f1 .color-2,#chart-87cd702d-a2c6-4c16-bea0-758620c697f1 .color-2 a:visited{stroke:#009688;fill:#009688}#chart-87cd702d-a2c6-4c16-bea0-758620c697f1 .color-3,#chart-87cd702d-a2c6-4c16-bea0-758620c697f1 .color-3 a:visited{stroke:#FFC107;fill:#FFC107}#chart-87cd702d-a2c6-4c16-bea0-758620c697f1 .color-4,#chart-87cd702d-a2c6-4c16-bea0-758620c697f1 .color-4 a:visited{stroke:#FF5722;fill:#FF5722}#chart-87cd702d-a2c6-4c16-bea0-758620c697f1 .text-overlay .color-0 text{fill:black}#chart-87cd702d-a2c6-4c16-bea0-758620c697f1 .text-overlay .color-1 text{fill:black}#chart-87cd702d-a2c6-4c16-bea0-758620c697f1 .text-overlay .color-2 text{fill:black}#chart-87cd702d-a2c6-4c16-bea0-758620c697f1 .text-overlay .color-3 text{fill:black}#chart-87cd702d-a2c6-4c16-bea0-758620c697f1 .text-overlay .color-4 text{fill:black}
#chart-87cd702d-a2c6-4c16-bea0-758620c697f1 text.no_data{text-anchor:middle}#chart-87cd702d-a2c6-4c16-bea0-758620c697f1 .guide.line{fill:none}#chart-87cd702d-a2c6-4c16-bea0-758620c697f1 .centered{text-anchor:middle}#chart-87cd702d-a2c6-4c16-bea0-758620c697f1 .title{text-anchor:middle}#chart-87cd702d-a2c6-4c16-bea0-758620c697f1 .legends .legend text{fill-opacity:1}#chart-87cd702d-a2c6-4c16-bea0-758620c697f1 .axis.x text{text-anchor:middle}#chart-87cd702d-a2c6-4c16-bea0-758620c697f1 .axis.x:not(.web) text[transform]{text-anchor:start}#chart-87cd702d-a2c6-4c16-bea0-758620c697f1 .axis.x:not(.web) text[transform].backwards{text-anchor:end}#chart-87cd702d-a2c6-4c16-bea0-758620c697f1 .axis.y text{text-anchor:end}#chart-87cd702d-a2c6-4c16-bea0-758620c697f1 .axis.y text[transform].backwards{text-anchor:start}#chart-87cd702d-a2c6-4c16-bea0-758620c697f1 .axis.y2 text{text-anchor:start}#chart-87cd702d-a2c6-4c16-bea0-758620c697f1 .axis.y2 text[transform].backwards{text-anchor:end}#chart-87cd702d-a2c6-4c16-bea0-758620c697f1 .axis .guide.line{stroke-dasharray:4,4}#chart-87cd702d-a2c6-4c16-bea0-758620c697f1 .axis .major.guide.line{stroke-dasharray:6,6}#chart-87cd702d-a2c6-4c16-bea0-758620c697f1 .horizontal .axis.y .guide.line,#chart-87cd702d-a2c6-4c16-bea0-758620c697f1 .horizontal .axis.y2 .guide.line,#chart-87cd702d-a2c6-4c16-bea0-758620c697f1 .vertical .axis.x .guide.line{opacity:0}#chart-87cd702d-a2c6-4c16-bea0-758620c697f1 .horizontal .axis.always_show .guide.line,#chart-87cd702d-a2c6-4c16-bea0-758620c697f1 .vertical .axis.always_show .guide.line{opacity:1 !important}#chart-87cd702d-a2c6-4c16-bea0-758620c697f1 .axis.y .guides:hover .guide.line,#chart-87cd702d-a2c6-4c16-bea0-758620c697f1 .axis.y2 .guides:hover .guide.line,#chart-87cd702d-a2c6-4c16-bea0-758620c697f1 .axis.x .guides:hover .guide.line{opacity:1}#chart-87cd702d-a2c6-4c16-bea0-758620c697f1 .axis .guides:hover text{opacity:1}#chart-87cd702d-a2c6-4c16-bea0-758620c697f1 .nofill{fill:none}#chart-87cd702d-a2c6-4c16-bea0-758620c697f1 .subtle-fill{fill-opacity:.2}#chart-87cd702d-a2c6-4c16-bea0-758620c697f1 .dot{stroke-width:1px;fill-opacity:1}#chart-87cd702d-a2c6-4c16-bea0-758620c697f1 .dot.active{stroke-width:5px}#chart-87cd702d-a2c6-4c16-bea0-758620c697f1 .dot.negative{fill:transparent}#chart-87cd702d-a2c6-4c16-bea0-758620c697f1 text,#chart-87cd702d-a2c6-4c16-bea0-758620c697f1 tspan{stroke:none !important}#chart-87cd702d-a2c6-4c16-bea0-758620c697f1 .series text.active{opacity:1}#chart-87cd702d-a2c6-4c16-bea0-758620c697f1 .tooltip rect{fill-opacity:.95;stroke-width:.5}#chart-87cd702d-a2c6-4c16-bea0-758620c697f1 .tooltip text{fill-opacity:1}#chart-87cd702d-a2c6-4c16-bea0-758620c697f1 .showable{visibility:hidden}#chart-87cd702d-a2c6-4c16-bea0-758620c697f1 .showable.shown{visibility:visible}#chart-87cd702d-a2c6-4c16-bea0-758620c697f1 .gauge-background{fill:rgba(229,229,229,1);stroke:none}#chart-87cd702d-a2c6-4c16-bea0-758620c697f1 .bg-lines{stroke:rgba(249,249,249,1);stroke-width:2px}</style><script type="text/javascript">window.pygal = window.pygal || {};window.pygal.config = window.pygal.config || {};window.pygal.config['87cd702d-a2c6-4c16-bea0-758620c697f1'] = {"allow_interruptions": false, "box_mode": "extremes", "classes": ["pygal-chart"], "css": ["file://style.css", "file://graph.css"], "defs": [], "disable_xml_declaration": false, "dots_size": 2.5, "dynamic_print_values": false, "explicit_size": false, "fill": true, "force_uri_protocol": "https", "formatter": null, "half_pie": false, "height": 600, "include_x_axis": false, "inner_radius": 0, "interpolate": null, "interpolation_parameters": {}, "interpolation_precision": 250, "inverse_y_axis": false, "js": ["//kozea.github.io/pygal.js/2.0.x/pygal-tooltips.min.js"], "legend_at_bottom": false, "legend_at_bottom_columns": null, "legend_box_size": 12, "logarithmic": false, "margin": 20, "margin_bottom": null, "margin_left": null, "margin_right": null, "margin_top": null, "max_scale": 16, "min_scale": 4, "missing_value_fill_truncation": "x", "no_data_text": "No data", "no_prefix": false, "order_min": null, "pretty_print": false, "print_labels": false, "print_values": false, "print_values_position": "center", "print_zeroes": true, "range": null, "rounded_bars": null, "secondary_range": null, "show_dots": false, "show_legend": true, "show_minor_x_labels": false, "show_minor_y_labels": true, "show_only_major_dots": false, "show_x_guides": false, "show_x_labels": true, "show_y_guides": true, "show_y_labels": true, "spacing": 10, "stack_from_top": false, "strict": false, "stroke": true, "stroke_style": null, "style": {"background": "rgba(249, 249, 249, 1)", "ci_colors": [], "colors": ["#F44336", "#3F51B5", "#009688", "#FFC107", "#FF5722", "#9C27B0", "#03A9F4", "#8BC34A", "#FF9800", "#E91E63", "#2196F3", "#4CAF50", "#FFEB3B", "#673AB7", "#00BCD4", "#CDDC39", "#9E9E9E", "#607D8B"], "font_family": "Consolas, \"Liberation Mono\", Menlo, Courier, monospace", "foreground": "rgba(0, 0, 0, .87)", "foreground_strong": "rgba(0, 0, 0, 1)", "foreground_subtle": "rgba(0, 0, 0, .54)", "guide_stroke_dasharray": "4,4", "label_font_family": "Consolas, \"Liberation Mono\", Menlo, Courier, monospace", "label_font_size": 10, "legend_font_family": "Consolas, \"Liberation Mono\", Menlo, Courier, monospace", "legend_font_size": 14, "major_guide_stroke_dasharray": "6,6", "major_label_font_family": "Consolas, \"Liberation Mono\", Menlo, Courier, monospace", "major_label_font_size": 10, "no_data_font_family": "Consolas, \"Liberation Mono\", Menlo, Courier, monospace", "no_data_font_size": 64, "opacity": ".7", "opacity_hover": ".8", "plot_background": "rgba(255, 255, 255, 1)", "stroke_opacity": ".8", "stroke_opacity_hover": ".9", "title_font_family": "Consolas, \"Liberation Mono\", Menlo, Courier, monospace", "title_font_size": 16, "tooltip_font_family": "Consolas, \"Liberation Mono\", Menlo, Courier, monospace", "tooltip_font_size": 14, "transition": "150ms", "value_background": "rgba(229, 229, 229, 1)", "value_colors": [], "value_font_family": "Consolas, \"Liberation Mono\", Menlo, Courier, monospace", "value_font_size": 16, "value_label_font_family": "Consolas, \"Liberation Mono\", Menlo, Courier, monospace", "value_label_font_size": 10}, "title": "Barcelona Air Quality - 2020 Overview", "tooltip_border_radius": 0, "tooltip_fancy_mode": true, "truncate_label": null, "truncate_legend": null, "width": 800, "x_label_rotation": 20, "x_labels": ["2020-01-07", "2020-01-08", "2020-01-09", "2020-01-10", "2020-01-11", "2020-01-12", "2020-01-13", "2020-01-14", "2020-01-15", "2020-01-16", "2020-01-17", "2020-01-18", "2020-01-19", "2020-01-20", "2020-01-21", "2020-01-22", "2020-01-23", "2020-01-24", "2020-01-27", "2020-01-28", "2020-01-29", "2020-01-30", "2020-01-31", "2020-02-01", "2020-02-02", "2020-02-03", "2020-02-04", "2020-02-05", "2020-02-06", "2020-02-07", "2020-02-08", "2020-02-09", "2020-02-10", "2020-02-11", "2020-02-12", "2020-02-13", "2020-02-14", "2020-02-15", "2020-02-16", "2020-02-17", "2020-02-18", "2020-02-19", "2020-02-20", "2020-02-21", "2020-02-22", "2020-02-23", "2020-02-24", "2020-02-25", "2020-02-26", "2020-02-27", "2020-02-28", "2020-02-29", "2020-03-01", "2020-03-02", "2020-03-03", "2020-03-04", "2020-03-05", "2020-03-06", "2020-03-07", "2020-03-08", "2020-03-09", "2020-03-10", "2020-03-11", "2020-03-12", "2020-03-13", "2020-03-14", "2020-03-15", "2020-03-16", "2020-03-17", "2020-03-18", "2020-03-19", "2020-03-20", "2020-03-21", "2020-03-22", "2020-03-23", "2020-03-24", "2020-03-25", "2020-03-26", "2020-03-27", "2020-03-28", "2020-03-29", "2020-03-30", "2020-03-31", "2020-04-01", "2020-04-02", "2020-04-03", "2020-04-04", "2020-04-05", "2020-04-06", "2020-04-07", "2020-04-08", "2020-04-09", "2020-04-10", "2020-04-11", "2020-04-12", "2020-04-13", "2020-04-14", "2020-04-15", "2020-04-16", "2020-04-17", "2020-04-18", "2020-04-19", "2020-04-20", "2020-04-21", "2020-04-22", "2020-04-23", "2020-04-24", "2020-04-25", "2020-04-26", "2020-04-27", "2020-04-28", "2020-04-29", "2020-04-30"], "x_labels_major": ["2020-01-07", "2020-01-14", "2020-01-21", "2020-01-30", "2020-02-06", "2020-02-13", "2020-02-20", "2020-02-27", "2020-03-05", "2020-03-12", "2020-03-19", "2020-03-26", "2020-04-02", "2020-04-09", "2020-04-16", "2020-04-23", "2020-04-30"], "x_labels_major_count": null, "x_labels_major_every": null, "x_title": "Average over 7 days", "xrange": null, "y_label_rotation": 0, "y_labels": null, "y_labels_major": null, "y_labels_major_count": null, "y_labels_major_every": null, "y_title": null, "zero": 0, "legends": ["NO", "NO2", "NOx", "PM10", "SO2"]}</script><script type="text/javascript" xlink:href="https://kozea.github.io/pygal.js/2.0.x/pygal-tooltips.min.js"/></defs><title>Barcelona Air Quality - 2020 Overview</title><g class="graph stackedline-graph vertical"><rect x="0" y="0" width="800" height="600" class="background"/><g transform="translate(103, 46)" class="plot"><rect x="0" y="0" width="640.0184427528454" height="477.47879140045984" class="background"/><g class="axis y always_show"><path d="M0.000000 477.478791 h640.018443" class="line"/><g class="guides"><path d="M0.000000 432.085937 h640.018443" class="guide line"/><text x="-5" y="435.5859374890438" class="">20</text><title>20</title></g><g class="guides"><path d="M0.000000 392.685326 h640.018443" class="guide line"/><text x="-5" y="396.1853256319186" class="">40</text><title>40</title></g><g class="guides"><path d="M0.000000 353.284714 h640.018443" class="guide line"/><text x="-5" y="356.78471377479343" class="">60</text><title>60</title></g><g class="guides"><path d="M0.000000 313.884102 h640.018443" class="guide line"/><text x="-5" y="317.3841019176682" class="">80</text><title>80</title></g><g class="guides"><path d="M0.000000 274.483490 h640.018443" class="major guide line"/><text x="-5" y="277.983490060543" class="major">100</text><title>100</title></g><g class="guides"><path d="M0.000000 235.082878 h640.018443" class="guide line"/><text x="-5" y="238.58287820341783" class="">120</text><title>120</title></g><g class="guides"><path d="M0.000000 195.682266 h640.018443" class="guide line"/><text x="-5" y="199.18226634629264" class="">140</text><title>140</title></g><g class="guides"><path d="M0.000000 156.281654 h640.018443" class="guide line"/><text x="-5" y="159.78165448916747" class="">160</text><title>160</title></g><g class="guides"><path d="M0.000000 116.881043 h640.018443" class="guide line"/><text x="-5" y="120.38104263204224" class="">180</text><title>180</title></g><g class="guides"><path d="M0.000000 77.480431 h640.018443" class="major guide line"/><text x="-5" y="80.98043077491707" class="major">200</text><title>200</title></g><g class="guides"><path d="M0.000000 38.079819 h640.018443" class="guide line"/><text x="-5" y="41.57981891779184" class="">220</text><title>220</title></g></g><g class="axis x"><g class="guides"><path d="M12.308047 0.000000 v477.478791" class="major line"/><text x="12.308046976016259" y="492.47879140045984" class="major" transform="rotate(20 12.308047 492.478791)">2020-01-07</text></g><g class="guides"><path d="M50.770694 0.000000 v477.478791" class="major guide line"/><text x="50.77069377606706" y="492.47879140045984" class="major" transform="rotate(20 50.770694 492.478791)">2020-01-14</text></g><g class="guides"><path d="M89.233341 0.000000 v477.478791" class="major guide line"/><text x="89.23334057611787" y="492.47879140045984" class="major" transform="rotate(20 89.233341 492.478791)">2020-01-21</text></g><g class="guides"><path d="M127.695987 0.000000 v477.478791" class="major guide line"/><text x="127.69598737616867" y="492.47879140045984" class="major" transform="rotate(20 127.695987 492.478791)">2020-01-30</text></g><g class="guides"><path d="M166.158634 0.000000 v477.478791" class="major guide line"/><text x="166.1586341762195" y="492.47879140045984" class="major" transform="rotate(20 166.158634 492.478791)">2020-02-06</text></g><g class="guides"><path d="M204.621281 0.000000 v477.478791" class="major guide line"/><text x="204.6212809762703" y="492.47879140045984" class="major" transform="rotate(20 204.621281 492.478791)">2020-02-13</text></g><g class="guides"><path d="M243.083928 0.000000 v477.478791" class="major guide line"/><text x="243.0839277763211" y="492.47879140045984" class="major" transform="rotate(20 243.083928 492.478791)">2020-02-20</text></g><g class="guides"><path d="M281.546575 0.000000 v477.478791" class="major guide line"/><text x="281.54657457637194" y="492.47879140045984" class="major" transform="rotate(20 281.546575 492.478791)">2020-02-27</text></g><g class="guides"><path d="M320.009221 0.000000 v477.478791" class="major guide line"/><text x="320.0092213764227" y="492.47879140045984" class="major" transform="rotate(20 320.009221 492.478791)">2020-03-05</text></g><g class="guides"><path d="M358.471868 0.000000 v477.478791" class="major guide line"/><text x="358.4718681764735" y="492.47879140045984" class="major" transform="rotate(20 358.471868 492.478791)">2020-03-12</text></g><g class="guides"><path d="M396.934515 0.000000 v477.478791" class="major guide line"/><text x="396.9345149765243" y="492.47879140045984" class="major" transform="rotate(20 396.934515 492.478791)">2020-03-19</text></g><g class="guides"><path d="M435.397162 0.000000 v477.478791" class="major guide line"/><text x="435.39716177657516" y="492.47879140045984" class="major" transform="rotate(20 435.397162 492.478791)">2020-03-26</text></g><g class="guides"><path d="M473.859809 0.000000 v477.478791" class="major guide line"/><text x="473.85980857662594" y="492.47879140045984" class="major" transform="rotate(20 473.859809 492.478791)">2020-04-02</text></g><g class="guides"><path d="M512.322455 0.000000 v477.478791" class="major guide line"/><text x="512.3224553766768" y="492.47879140045984" class="major" transform="rotate(20 512.322455 492.478791)">2020-04-09</text></g><g class="guides"><path d="M550.785102 0.000000 v477.478791" class="major guide line"/><text x="550.7851021767275" y="492.47879140045984" class="major" transform="rotate(20 550.785102 492.478791)">2020-04-16</text></g><g class="guides"><path d="M589.247749 0.000000 v477.478791" class="major guide line"/><text x="589.2477489767783" y="492.47879140045984" class="major" transform="rotate(20 589.247749 492.478791)">2020-04-23</text></g><g class="guides"><path d="M627.710396 0.000000 v477.478791" class="major guide line"/><text x="627.7103957768292" y="492.47879140045984" class="major" transform="rotate(20 627.710396 492.478791)">2020-04-30</text></g></g><g class="series serie-0 color-0"><path d="M12.308047 471.486549 L12.308047 429.802109 17.802711 414.282490 23.297375 406.123749 28.792038 407.689923 34.286702 411.452681 39.781366 410.252370 45.276030 409.918872 50.770694 408.805805 56.265358 409.993452 61.760021 412.937240 67.254685 408.732632 72.749349 409.309570 78.244013 412.914725 83.738677 419.079514 89.233341 430.788532 94.728004 446.977962 100.222668 453.930762 105.717332 445.893038 111.211996 444.056688 116.706660 441.516755 122.201324 429.904832 127.695987 414.776404 133.190651 399.248342 138.685315 392.436257 144.179979 400.177071 149.674643 390.803946 155.169307 391.525822 160.663970 400.168628 166.158634 409.686690 171.653298 415.064873 177.147962 423.226428 182.642626 429.323673 188.137289 435.488462 193.631953 431.131880 199.126617 434.146027 204.621281 435.767080 210.115945 437.913007 215.610609 439.718399 221.105272 441.518163 226.599936 446.052047 232.094600 451.245892 237.589264 448.611680 243.083928 447.436697 248.578592 447.080685 254.073255 446.261715 259.567919 442.897184 265.062583 434.057375 270.557247 429.102748 276.051911 431.107958 281.546575 435.703758 287.041238 441.321159 292.535902 441.371817 298.030566 444.619554 303.525230 454.824312 309.019894 460.507850 314.514558 458.011540 320.009221 455.838878 325.503885 458.530784 330.998549 460.168724 336.493213 460.233453 341.987877 458.760152 347.482541 458.273273 352.977204 458.360517 358.471868 453.455141 363.966532 450.642219 369.461196 449.945672 374.955860 450.021659 380.450523 451.986061 385.945187 453.158229 391.439851 454.549915 396.934515 460.801948 402.429179 463.499482 407.923843 464.457762 413.418506 464.775781 418.913170 464.698387 424.407834 464.739195 429.902498 466.589616 435.397162 467.827921 440.891826 468.157198 446.386489 468.043217 451.881153 467.891244 457.375817 467.888429 462.870481 467.798371 468.365145 467.915165 473.859809 468.296507 479.354472 467.746306 484.849136 467.446579 490.343800 467.456430 495.838464 467.014580 501.333128 466.699375 506.827792 466.381356 512.322455 465.954985 517.817119 466.524887 523.311783 466.686711 528.806447 466.856977 534.301111 467.433915 539.795775 467.681576 545.290438 467.559153 550.785102 467.922201 556.279766 467.635140 561.774430 467.840586 567.269094 467.867322 572.763757 467.030059 578.258421 467.063831 583.753085 467.449394 589.247749 467.201733 594.742413 466.588209 600.237077 466.299740 605.731740 466.015493 611.226404 466.126659 616.721068 466.121030 622.215732 465.667923 627.710396 465.656666 627.710396 471.486549" class="line reactive"/></g><g class="series serie-1 color-1"><path d="M12.308047 357.644110 L17.802711 334.866335 23.297375 323.079923 28.792038 320.438675 34.286702 325.334201 39.781366 321.700902 45.276030 319.363601 50.770694 316.412777 56.265358 314.468075 61.760021 314.945104 67.254685 312.592325 72.749349 311.891557 78.244013 321.388511 83.738677 338.346253 89.233341 361.859976 94.728004 390.805354 100.222668 403.346005 105.717332 391.888870 111.211996 388.043089 116.706660 379.830876 122.201324 356.153923 127.695987 332.284188 133.190651 307.940238 138.685315 298.747231 144.179979 312.599361 149.674643 299.642188 155.169307 302.601455 160.663970 316.080686 166.158634 325.210371 171.653298 327.798147 177.147962 335.356028 182.642626 341.975331 188.137289 350.936156 193.631953 344.360475 199.126617 352.429158 204.621281 355.745845 210.115945 364.004495 215.610609 370.947445 221.105272 376.649277 226.599936 383.727315 232.094600 390.879933 237.589264 382.021831 243.083928 378.271738 248.578592 374.828405 254.073255 372.077398 259.567919 361.176093 265.062583 344.671459 270.557247 336.191884 276.051911 343.191121 281.546575 356.319968 287.041238 366.534577 292.535902 367.740517 298.030566 378.446226 303.525230 401.401304 309.019894 413.916627 314.514558 407.875669 320.009221 402.400391 325.503885 410.599940 330.998549 416.992689 336.493213 414.993108 341.987877 409.519237 347.482541 404.841822 352.977204 402.892898 358.471868 392.987866 363.966532 382.307486 369.461196 378.557392 374.955860 380.562602 380.450523 388.318894 385.945187 394.608920 391.439851 400.068719 396.934515 413.602829 402.429179 422.926702 407.923843 427.854593 413.418506 431.207867 418.913170 431.199424 424.407834 433.328464 429.902498 439.463702 435.397162 442.182344 440.891826 442.701588 446.386489 441.388703 451.881153 438.574374 457.375817 437.157359 462.870481 435.124006 468.365145 435.986598 473.859809 439.028888 479.354472 437.914414 484.849136 436.532578 490.343800 437.519000 495.838464 435.008619 501.333128 432.812034 506.827792 430.272102 512.322455 426.945565 517.817119 428.313329 523.311783 429.567113 528.806447 430.932062 534.301111 435.076162 539.795775 437.247418 545.290438 437.980550 550.785102 441.208586 556.279766 441.028469 561.774430 442.949249 567.269094 443.931450 572.763757 438.487130 578.258421 437.818727 583.753085 440.407910 589.247749 437.775104 594.742413 434.803173 600.237077 433.169454 605.731740 431.894563 611.226404 434.520332 616.721068 436.495992 622.215732 435.098677 627.710396 436.173751 627.710396 465.656666 622.215732 465.667923 616.721068 466.121030 611.226404 466.126659 605.731740 466.015493 600.237077 466.299740 594.742413 466.588209 589.247749 467.201733 583.753085 467.449394 578.258421 467.063831 572.763757 467.030059 567.269094 467.867322 561.774430 467.840586 556.279766 467.635140 550.785102 467.922201 545.290438 467.559153 539.795775 467.681576 534.301111 467.433915 528.806447 466.856977 523.311783 466.686711 517.817119 466.524887 512.322455 465.954985 506.827792 466.381356 501.333128 466.699375 495.838464 467.014580 490.343800 467.456430 484.849136 467.446579 479.354472 467.746306 473.859809 468.296507 468.365145 467.915165 462.870481 467.798371 457.375817 467.888429 451.881153 467.891244 446.386489 468.043217 440.891826 468.157198 435.397162 467.827921 429.902498 466.589616 424.407834 464.739195 418.913170 464.698387 413.418506 464.775781 407.923843 464.457762 402.429179 463.499482 396.934515 460.801948 391.439851 454.549915 385.945187 453.158229 380.450523 451.986061 374.955860 450.021659 369.461196 449.945672 363.966532 450.642219 358.471868 453.455141 352.977204 458.360517 347.482541 458.273273 341.987877 458.760152 336.493213 460.233453 330.998549 460.168724 325.503885 458.530784 320.009221 455.838878 314.514558 458.011540 309.019894 460.507850 303.525230 454.824312 298.030566 444.619554 292.535902 441.371817 287.041238 441.321159 281.546575 435.703758 276.051911 431.107958 270.557247 429.102748 265.062583 434.057375 259.567919 442.897184 254.073255 446.261715 248.578592 447.080685 243.083928 447.436697 237.589264 448.611680 232.094600 451.245892 226.599936 446.052047 221.105272 441.518163 215.610609 439.718399 210.115945 437.913007 204.621281 435.767080 199.126617 434.146027 193.631953 431.131880 188.137289 435.488462 182.642626 429.323673 177.147962 423.226428 171.653298 415.064873 166.158634 409.686690 160.663970 400.168628 155.169307 391.525822 149.674643 390.803946 144.179979 400.177071 138.685315 392.436257 133.190651 399.248342 127.695987 414.776404 122.201324 429.904832 116.706660 441.516755 111.211996 444.056688 105.717332 445.893038 100.222668 453.930762 94.728004 446.977962 89.233341 430.788532 83.738677 419.079514 78.244013 412.914725 72.749349 409.309570 67.254685 408.732632 61.760021 412.937240 56.265358 409.993452 50.770694 408.805805 45.276030 409.918872 39.781366 410.252370 34.286702 411.452681 28.792038 407.689923 23.297375 406.123749 17.802711 414.282490 12.308047 429.802109" class="line reactive"/></g><g class="series serie-2 color-2"><path d="M12.308047 221.910409 L17.802711 168.183454 23.297375 140.258270 28.792038 135.829923 34.286702 147.700764 39.781366 139.798127 45.276030 134.987031 50.770694 128.471858 56.265358 125.218494 61.760021 127.748576 67.254685 120.854876 72.749349 119.726330 78.244013 140.645240 83.738677 177.888669 89.233341 231.140003 94.728004 297.613056 100.222668 326.472597 105.717332 299.286175 111.211996 290.602562 116.706660 272.846958 122.201324 219.339519 127.695987 163.546846 133.190651 106.618590 138.685315 84.530326 144.179979 116.329434 149.674643 85.480162 155.169307 91.774410 160.663970 123.317414 166.158634 146.627097 171.653298 154.618386 177.147962 174.066809 182.642626 190.523601 188.137289 211.722537 193.631953 196.146631 199.126617 213.860020 204.621281 221.355986 210.115945 239.114405 215.610609 253.955771 221.105272 266.293791 226.599936 282.827977 232.094600 299.923621 237.589264 280.790402 243.083928 272.675283 248.578592 265.529701 254.073255 259.622424 259.567919 236.074929 265.062583 198.469860 270.557247 178.921527 276.051911 193.940196 281.546575 222.649171 287.041238 246.061577 292.535902 248.498787 298.030566 271.629760 303.525230 322.846334 309.019894 350.969928 314.514558 337.586384 320.009221 325.480546 325.503885 343.426118 330.998549 357.129088 336.493213 353.229834 341.987877 341.495488 347.482541 331.863445 352.977204 328.052843 358.471868 305.688775 363.966532 282.747768 369.461196 274.781809 374.955860 278.797857 380.450523 295.529045 385.945187 308.743729 391.439851 320.375353 396.934515 350.778553 402.429179 370.882716 407.923843 381.360464 413.418506 388.365330 418.913170 388.307636 424.407834 392.665625 429.902498 405.995697 435.397162 412.056355 440.891826 413.228523 446.386489 410.433894 451.881153 404.536467 457.375817 401.589864 462.870481 397.442950 468.365145 399.262413 473.859809 405.612948 479.354472 403.139152 484.849136 400.253057 490.343800 402.277967 495.838464 397.043315 501.333128 392.385600 506.827792 387.053852 512.322455 380.127788 517.817119 383.129270 523.311783 385.680460 528.806447 388.569369 534.301111 397.237503 539.795775 401.772795 545.290438 403.122266 550.785102 409.809113 556.279766 409.294091 561.774430 413.349539 567.269094 415.411036 572.763757 404.014409 578.258421 402.687452 583.753085 408.195095 589.247749 402.757811 594.742413 396.505778 600.237077 393.017417 605.731740 390.194644 611.226404 395.464476 616.721068 399.452381 622.215732 396.390390 627.710396 398.543352 627.710396 436.173751 622.215732 435.098677 616.721068 436.495992 611.226404 434.520332 605.731740 431.894563 600.237077 433.169454 594.742413 434.803173 589.247749 437.775104 583.753085 440.407910 578.258421 437.818727 572.763757 438.487130 567.269094 443.931450 561.774430 442.949249 556.279766 441.028469 550.785102 441.208586 545.290438 437.980550 539.795775 437.247418 534.301111 435.076162 528.806447 430.932062 523.311783 429.567113 517.817119 428.313329 512.322455 426.945565 506.827792 430.272102 501.333128 432.812034 495.838464 435.008619 490.343800 437.519000 484.849136 436.532578 479.354472 437.914414 473.859809 439.028888 468.365145 435.986598 462.870481 435.124006 457.375817 437.157359 451.881153 438.574374 446.386489 441.388703 440.891826 442.701588 435.397162 442.182344 429.902498 439.463702 424.407834 433.328464 418.913170 431.199424 413.418506 431.207867 407.923843 427.854593 402.429179 422.926702 396.934515 413.602829 391.439851 400.068719 385.945187 394.608920 380.450523 388.318894 374.955860 380.562602 369.461196 378.557392 363.966532 382.307486 358.471868 392.987866 352.977204 402.892898 347.482541 404.841822 341.987877 409.519237 336.493213 414.993108 330.998549 416.992689 325.503885 410.599940 320.009221 402.400391 314.514558 407.875669 309.019894 413.916627 303.525230 401.401304 298.030566 378.446226 292.535902 367.740517 287.041238 366.534577 281.546575 356.319968 276.051911 343.191121 270.557247 336.191884 265.062583 344.671459 259.567919 361.176093 254.073255 372.077398 248.578592 374.828405 243.083928 378.271738 237.589264 382.021831 232.094600 390.879933 226.599936 383.727315 221.105272 376.649277 215.610609 370.947445 210.115945 364.004495 204.621281 355.745845 199.126617 352.429158 193.631953 344.360475 188.137289 350.936156 182.642626 341.975331 177.147962 335.356028 171.653298 327.798147 166.158634 325.210371 160.663970 316.080686 155.169307 302.601455 149.674643 299.642188 144.179979 312.599361 138.685315 298.747231 133.190651 307.940238 127.695987 332.284188 122.201324 356.153923 116.706660 379.830876 111.211996 388.043089 105.717332 391.888870 100.222668 403.346005 94.728004 390.805354 89.233341 361.859976 83.738677 338.346253 78.244013 321.388511 72.749349 311.891557 67.254685 312.592325 61.760021 314.945104 56.265358 314.468075 50.770694 316.412777 45.276030 319.363601 39.781366 321.700902 34.286702 325.334201 28.792038 320.438675 23.297375 323.079923 17.802711 334.866335 12.308047 357.644110" class="line reactive"/></g><g class="series serie-3 color-3"><path d="M12.308047 183.289367 L17.802711 124.814637 23.297375 93.709261 28.792038 90.161799 34.286702 103.231545 39.781366 93.457379 45.276030 88.063717 50.770694 80.707059 56.265358 75.776354 61.760021 77.743571 67.254685 66.836637 72.749349 64.880678 78.244013 86.770532 83.738677 125.601242 89.233341 177.921033 94.728004 239.584398 100.222668 259.010307 105.717332 213.862834 111.211996 200.977427 116.706660 182.450697 122.201324 126.908498 127.695987 73.519262 133.190651 22.160565 138.685315 13.057616 144.179979 65.679948 149.674643 33.704944 155.169307 31.868594 160.663970 63.988536 166.158634 85.578664 171.653298 94.124375 177.147962 111.968631 182.642626 125.377503 188.137289 148.371982 193.631953 138.801854 199.126617 158.108154 204.621281 167.011285 210.115945 183.247152 215.610609 197.829600 221.105272 212.520399 226.599936 228.424175 232.094600 248.719711 237.589264 227.810651 243.083928 218.156094 248.578592 211.711280 254.073255 205.094791 259.567919 177.939327 265.062583 137.919562 270.557247 111.543667 276.051911 123.320228 281.546575 152.088304 287.041238 176.086091 292.535902 165.920733 298.030566 189.589243 303.525230 245.702750 309.019894 279.117283 314.514558 268.486154 320.009221 257.385032 325.503885 279.782872 330.998549 309.772367 336.493213 309.227794 341.987877 295.852693 347.482541 282.654896 352.977204 276.533729 358.471868 252.258731 363.966532 226.503395 369.461196 216.468903 374.955860 219.910828 380.450523 237.255541 385.945187 251.269494 391.439851 265.934964 396.934515 300.376728 402.429179 323.086959 407.923843 334.158531 413.418506 339.753418 418.913170 340.599124 424.407834 345.083758 429.902498 359.840694 435.397162 367.739110 440.891826 369.547316 446.386489 368.114823 451.881153 365.017653 457.375817 363.551387 462.870481 363.431778 468.365145 364.499817 473.859809 370.616761 479.354472 367.827761 484.849136 365.982968 490.343800 369.583903 495.838464 365.165405 501.333128 360.279730 506.827792 356.816697 512.322455 349.620457 517.817119 351.997158 523.311783 352.381314 528.806447 353.559111 534.301111 362.719753 539.795775 367.269117 545.290438 365.731086 550.785102 369.274326 556.279766 367.143879 561.774430 370.540775 567.269094 375.416600 572.763757 365.660727 578.258421 367.837611 583.753085 376.086411 589.247749 374.051651 594.742413 369.744319 600.237077 368.997115 605.731740 365.071125 611.226404 367.796803 616.721068 369.673961 622.215732 366.519098 627.710396 368.401884 627.710396 398.543352 622.215732 396.390390 616.721068 399.452381 611.226404 395.464476 605.731740 390.194644 600.237077 393.017417 594.742413 396.505778 589.247749 402.757811 583.753085 408.195095 578.258421 402.687452 572.763757 404.014409 567.269094 415.411036 561.774430 413.349539 556.279766 409.294091 550.785102 409.809113 545.290438 403.122266 539.795775 401.772795 534.301111 397.237503 528.806447 388.569369 523.311783 385.680460 517.817119 383.129270 512.322455 380.127788 506.827792 387.053852 501.333128 392.385600 495.838464 397.043315 490.343800 402.277967 484.849136 400.253057 479.354472 403.139152 473.859809 405.612948 468.365145 399.262413 462.870481 397.442950 457.375817 401.589864 451.881153 404.536467 446.386489 410.433894 440.891826 413.228523 435.397162 412.056355 429.902498 405.995697 424.407834 392.665625 418.913170 388.307636 413.418506 388.365330 407.923843 381.360464 402.429179 370.882716 396.934515 350.778553 391.439851 320.375353 385.945187 308.743729 380.450523 295.529045 374.955860 278.797857 369.461196 274.781809 363.966532 282.747768 358.471868 305.688775 352.977204 328.052843 347.482541 331.863445 341.987877 341.495488 336.493213 353.229834 330.998549 357.129088 325.503885 343.426118 320.009221 325.480546 314.514558 337.586384 309.019894 350.969928 303.525230 322.846334 298.030566 271.629760 292.535902 248.498787 287.041238 246.061577 281.546575 222.649171 276.051911 193.940196 270.557247 178.921527 265.062583 198.469860 259.567919 236.074929 254.073255 259.622424 248.578592 265.529701 243.083928 272.675283 237.589264 280.790402 232.094600 299.923621 226.599936 282.827977 221.105272 266.293791 215.610609 253.955771 210.115945 239.114405 204.621281 221.355986 199.126617 213.860020 193.631953 196.146631 188.137289 211.722537 182.642626 190.523601 177.147962 174.066809 171.653298 154.618386 166.158634 146.627097 160.663970 123.317414 155.169307 91.774410 149.674643 85.480162 144.179979 116.329434 138.685315 84.530326 133.190651 106.618590 127.695987 163.546846 122.201324 219.339519 116.706660 272.846958 111.211996 290.602562 105.717332 299.286175 100.222668 326.472597 94.728004 297.613056 89.233341 231.140003 83.738677 177.888669 78.244013 140.645240 72.749349 119.726330 67.254685 120.854876 61.760021 127.748576 56.265358 125.218494 50.770694 128.471858 45.276030 134.987031 39.781366 139.798127 34.286702 147.700764 28.792038 135.829923 23.297375 140.258270 17.802711 168.183454 12.308047 221.910409" class="line reactive"/></g><g class="series serie-4 color-4"><path d="M12.308047 180.762099 L17.802711 121.676660 23.297375 90.242008 28.792038 86.705803 34.286702 99.921894 39.781366 90.229343 45.276030 84.863824 50.770694 77.419923 56.265358 72.472332 61.760021 74.253802 67.254685 63.299025 72.749349 61.309294 78.244013 83.224477 83.738677 122.088959 89.233341 174.642340 94.728004 236.922042 100.222668 256.727886 105.717332 211.298980 111.211996 198.447345 116.706660 179.906543 122.201324 123.975967 127.695987 70.319370 133.190651 18.409063 138.685315 9.182284 144.179979 62.007248 149.674643 29.553808 155.169307 27.694943 160.663970 60.155419 166.158634 81.877820 171.653298 90.727479 177.147962 108.749038 182.642626 122.276112 188.137289 145.642082 193.631953 135.998782 199.126617 155.352926 204.621281 164.343301 210.115945 180.593239 215.610609 195.234788 221.105272 210.007203 226.599936 225.865949 232.094600 246.136157 237.589264 225.018836 243.083928 215.189791 248.578592 208.519830 254.073255 201.717596 259.567919 174.291956 265.062583 134.106146 270.557247 107.730251 276.051911 119.715072 281.546575 148.705480 287.041238 173.147931 292.535902 163.190833 298.030566 187.129519 303.525230 241.211081 309.019894 274.771959 314.514558 263.994484 320.009221 252.794860 325.503885 275.170186 330.998549 305.148423 336.493213 304.544750 341.987877 293.176266 347.482541 279.908110 352.977204 273.725028 358.471868 249.205183 363.966532 223.351346 369.461196 213.291526 374.955860 216.792551 380.450523 234.480612 385.945187 248.564923 391.439851 263.413325 396.934515 298.108378 402.429179 320.694779 407.923843 331.487732 413.418506 336.789929 418.913170 337.354202 424.407834 341.557403 429.902498 356.058235 435.397162 363.754019 440.891826 365.444024 446.386489 363.960872 451.881153 360.739872 457.375817 359.262349 462.870481 359.142740 468.365145 360.244550 473.859809 366.535984 479.354472 364.065003 484.849136 362.501643 490.343800 366.412153 495.838464 362.246946 501.333128 357.642703 506.827792 354.365416 512.322455 347.287378 517.817119 349.652822 523.311783 350.121408 528.806447 351.406149 534.301111 360.606192 539.795775 365.155555 545.290438 363.679439 550.785102 367.222680 556.279766 365.173848 561.774430 368.570744 567.269094 373.446570 572.763757 363.690697 578.258421 365.867581 583.753085 374.102308 589.247749 372.067548 594.742413 367.734888 600.237077 366.951097 605.731740 363.002593 611.226404 365.728271 616.721068 367.605429 622.215732 364.464637 627.710396 366.322095 627.710396 368.401884 622.215732 366.519098 616.721068 369.673961 611.226404 367.796803 605.731740 365.071125 600.237077 368.997115 594.742413 369.744319 589.247749 374.051651 583.753085 376.086411 578.258421 367.837611 572.763757 365.660727 567.269094 375.416600 561.774430 370.540775 556.279766 367.143879 550.785102 369.274326 545.290438 365.731086 539.795775 367.269117 534.301111 362.719753 528.806447 353.559111 523.311783 352.381314 517.817119 351.997158 512.322455 349.620457 506.827792 356.816697 501.333128 360.279730 495.838464 365.165405 490.343800 369.583903 484.849136 365.982968 479.354472 367.827761 473.859809 370.616761 468.365145 364.499817 462.870481 363.431778 457.375817 363.551387 451.881153 365.017653 446.386489 368.114823 440.891826 369.547316 435.397162 367.739110 429.902498 359.840694 424.407834 345.083758 418.913170 340.599124 413.418506 339.753418 407.923843 334.158531 402.429179 323.086959 396.934515 300.376728 391.439851 265.934964 385.945187 251.269494 380.450523 237.255541 374.955860 219.910828 369.461196 216.468903 363.966532 226.503395 358.471868 252.258731 352.977204 276.533729 347.482541 282.654896 341.987877 295.852693 336.493213 309.227794 330.998549 309.772367 325.503885 279.782872 320.009221 257.385032 314.514558 268.486154 309.019894 279.117283 303.525230 245.702750 298.030566 189.589243 292.535902 165.920733 287.041238 176.086091 281.546575 152.088304 276.051911 123.320228 270.557247 111.543667 265.062583 137.919562 259.567919 177.939327 254.073255 205.094791 248.578592 211.711280 243.083928 218.156094 237.589264 227.810651 232.094600 248.719711 226.599936 228.424175 221.105272 212.520399 215.610609 197.829600 210.115945 183.247152 204.621281 167.011285 199.126617 158.108154 193.631953 138.801854 188.137289 148.371982 182.642626 125.377503 177.147962 111.968631 171.653298 94.124375 166.158634 85.578664 160.663970 63.988536 155.169307 31.868594 149.674643 33.704944 144.179979 65.679948 138.685315 13.057616 133.190651 22.160565 127.695987 73.519262 122.201324 126.908498 116.706660 182.450697 111.211996 200.977427 105.717332 213.862834 100.222668 259.010307 94.728004 239.584398 89.233341 177.921033 83.738677 125.601242 78.244013 86.770532 72.749349 64.880678 67.254685 66.836637 61.760021 77.743571 56.265358 75.776354 50.770694 80.707059 45.276030 88.063717 39.781366 93.457379 34.286702 103.231545 28.792038 90.161799 23.297375 93.709261 17.802711 124.814637 12.308047 183.289367" class="line reactive"/></g></g><g class="titles"><text x="400.0" y="26" class="title plot_title">Barcelona Air Quality - 2020 Overview</text><text x="423.60922137642274" y="580.0" class="title">Average over 7 days</text></g><g transform="translate(103, 46)" class="plot overlay"><g class="series serie-0 color-0"/><g class="series serie-1 color-1"/><g class="series serie-2 color-2"/><g class="series serie-3 color-3"/><g class="series serie-4 color-4"/></g><g transform="translate(103, 46)" class="plot text-overlay"><g class="series serie-0 color-0"/><g class="series serie-1 color-1"/><g class="series serie-2 color-2"/><g class="series serie-3 color-3"/><g class="series serie-4 color-4"/></g><g transform="translate(103, 46)" class="plot tooltip-overlay"><g transform="translate(0 0)" style="opacity: 0" class="tooltip"><rect rx="0" ry="0" width="0" height="0" class="tooltip-box"/><g class="text"/></g></g><g transform="translate(10, 56)" class="legends"><g id="activate-serie-0" class="legend reactive activate-serie"><rect x="0.0" y="1.0" width="12" height="12" class="color-0 reactive"/><text x="17.0" y="11.2">NO</text></g><g id="activate-serie-1" class="legend reactive activate-serie"><rect x="0.0" y="22.0" width="12" height="12" class="color-1 reactive"/><text x="17.0" y="32.2">NO2</text></g><g id="activate-serie-2" class="legend reactive activate-serie"><rect x="0.0" y="43.0" width="12" height="12" class="color-2 reactive"/><text x="17.0" y="53.2">NOx</text></g><g id="activate-serie-3" class="legend reactive activate-serie"><rect x="0.0" y="64.0" width="12" height="12" class="color-3 reactive"/><text x="17.0" y="74.2">PM10</text></g><g id="activate-serie-4" class="legend reactive activate-serie"><rect x="0.0" y="85.0" width="12" height="12" class="color-4 reactive"/><text x="17.0" y="95.2">SO2</text></g></g><g transform="translate(753, 56)" class="legends"/></g></svg>