<?xml version='1.0' encoding='utf-8'?>
<svg xmlns="http://www.w3.org/2000/svg" xmlns:xlink="http://www.w3.org/1999/xlink" id="chart-4bfec5fb-a8f5-4b58-a020-e5872478e3b2" class="pygal-chart" viewBox="0 0 800 600"><!--Generated with pygal 2.4.0 (lxml) ©Kozea 2012-2016 on 2021-01-21--><!--http://pygal.org--><!--http://github.com/Kozea/pygal--><defs><style type="text/css">#chart-4bfec5fb-a8f5-4b58-a020-e5872478e3b2{-webkit-user-select:none;-webkit-font-smoothing:antialiased;font-family:Consolas,"Liberation Mono",Menlo,Courier,monospace}#chart-4bfec5fb-a8f5-4b58-a020-e5872478e3b2 .title{font-family:Consolas,"Liberation Mono",Menlo,Courier,monospace;font-size:16px}#chart-4bfec5fb-a8f5-4b58-a020-e5872478e3b2 .legends .legend text{font-family:Consolas,"Liberation Mono",Menlo,Courier,monospace;font-size:14px}#chart-4bfec5fb-a8f5-4b58-a020-e5872478e3b2 .axis text{font-family:Consolas,"Liberation Mono",Menlo,Courier,monospace;font-size:10px}#chart-4bfec5fb-a8f5-4b58-a020-e5872478e3b2 .axis text.major{font-family:Consolas,"Liberation Mono",Menlo,Courier,monospace;font-size:10px}#chart-4bfec5fb-a8f5-4b58-a020-e5872478e3b2 .text-overlay text.value{font-family:Consolas,"Liberation Mono",Menlo,Courier,monospace;font-size:16px}#chart-4bfec5fb-a8f5-4b58-a020-e5872478e3b2 .text-overlay text.label{font-family:Consolas,"Liberation Mono",Menlo,Courier,monospace;font-size:10px}#chart-4bfec5fb-a8f5-4b58-a020-e5872478e3b2 .tooltip{font-family:Consolas,"Liberation Mono",Menlo,Courier,monospace;font-size:14px}#chart-4bfec5fb-a8f5-4b58-a020-e5872478e3b2 text.no_data{font-family:Consolas,"Liberation Mono",Menlo,Courier,monospace;font-size:64px}
#chart-4bfec5fb-a8f5-4b58-a020-e5872478e3b2{background-color:#fdf6e3}#chart-4bfec5fb-a8f5-4b58-a020-e5872478e3b2 path,#chart-4bfec5fb-a8f5-4b58-a020-e5872478e3b2 line,#chart-4bfec5fb-a8f5-4b58-a020-e5872478e3b2 rect,#chart-4bfec5fb-a8f5-4b58-a020-e5872478e3b2 circle{-webkit-transition:500ms ease-in;-moz-transition:500ms ease-in;transition:500ms ease-in}#chart-4bfec5fb-a8f5-4b58-a020-e5872478e3b2 .graph &gt; .background{fill:#fdf6e3}#chart-4bfec5fb-a8f5-4b58-a020-e5872478e3b2 .plot &gt; .background{fill:#eee8d5}#chart-4bfec5fb-a8f5-4b58-a020-e5872478e3b2 .graph{fill:#657b83}#chart-4bfec5fb-a8f5-4b58-a020-e5872478e3b2 text.no_data{fill:#073642}#chart-4bfec5fb-a8f5-4b58-a020-e5872478e3b2 .title{fill:#073642}#chart-4bfec5fb-a8f5-4b58-a020-e5872478e3b2 .legends .legend text{fill:#657b83}#chart-4bfec5fb-a8f5-4b58-a020-e5872478e3b2 .legends .legend:hover text{fill:#073642}#chart-4bfec5fb-a8f5-4b58-a020-e5872478e3b2 .axis .line{stroke:#073642}#chart-4bfec5fb-a8f5-4b58-a020-e5872478e3b2 .axis .guide.line{stroke:#073642}#chart-4bfec5fb-a8f5-4b58-a020-e5872478e3b2 .axis .major.line{stroke:#657b83}#chart-4bfec5fb-a8f5-4b58-a020-e5872478e3b2 .axis text.major{fill:#073642}#chart-4bfec5fb-a8f5-4b58-a020-e5872478e3b2 .axis.y .guides:hover .guide.line,#chart-4bfec5fb-a8f5-4b58-a020-e5872478e3b2 .line-graph .axis.x .guides:hover .guide.line,#chart-4bfec5fb-a8f5-4b58-a020-e5872478e3b2 .stackedline-graph .axis.x .guides:hover .guide.line,#chart-4bfec5fb-a8f5-4b58-a020-e5872478e3b2 .xy-graph .axis.x .guides:hover .guide.line{stroke:#073642}#chart-4bfec5fb-a8f5-4b58-a020-e5872478e3b2 .axis .guides:hover text{fill:#073642}#chart-4bfec5fb-a8f5-4b58-a020-e5872478e3b2 .reactive{fill-opacity:.66;stroke-opacity:.8}#chart-4bfec5fb-a8f5-4b58-a020-e5872478e3b2 .ci{stroke:#657b83}#chart-4bfec5fb-a8f5-4b58-a020-e5872478e3b2 .reactive.active,#chart-4bfec5fb-a8f5-4b58-a020-e5872478e3b2 .active .reactive{fill-opacity:.9;stroke-opacity:.9;stroke-width:4}#chart-4bfec5fb-a8f5-4b58-a020-e5872478e3b2 .ci .reactive.active{stroke-width:1.5}#chart-4bfec5fb-a8f5-4b58-a020-e5872478e3b2 .series text{fill:#073642}#chart-4bfec5fb-a8f5-4b58-a020-e5872478e3b2 .tooltip rect{fill:#eee8d5;stroke:#073642;-webkit-transition:opacity 500ms ease-in;-moz-transition:opacity 500ms ease-in;transition:opacity 500ms ease-in}#chart-4bfec5fb-a8f5-4b58-a020-e5872478e3b2 .tooltip .label{fill:#657b83}#chart-4bfec5fb-a8f5-4b58-a020-e5872478e3b2 .tooltip .label{fill:#657b83}#chart-4bfec5fb-a8f5-4b58-a020-e5872478e3b2 .tooltip .legend{font-size:.8em;fill:#073642}#chart-4bfec5fb-a8f5-4b58-a020-e5872478e3b2 .tooltip .x_label{font-size:.6em;fill:#073642}#chart-4bfec5fb-a8f5-4b58-a020-e5872478e3b2 .tooltip .xlink{font-size:.5em;text-decoration:underline}#chart-4bfec5fb-a8f5-4b58-a020-e5872478e3b2 .tooltip .value{font-size:1.5em}#chart-4bfec5fb-a8f5-4b58-a020-e5872478e3b2 .bound{font-size:.5em}#chart-4bfec5fb-a8f5-4b58-a020-e5872478e3b2 .max-value{font-size:.75em;fill:#073642}#chart-4bfec5fb-a8f5-4b58-a020-e5872478e3b2 .map-element{fill:#eee8d5;stroke:#073642 !important}#chart-4bfec5fb-a8f5-4b58-a020-e5872478e3b2 .map-element .reactive{fill-opacity:inherit;stroke-opacity:inherit}#chart-4bfec5fb-a8f5-4b58-a020-e5872478e3b2 .color-0,#chart-4bfec5fb-a8f5-4b58-a020-e5872478e3b2 .color-0 a:visited{stroke:#e86258;fill:#e86258}#chart-4bfec5fb-a8f5-4b58-a020-e5872478e3b2 .color-1,#chart-4bfec5fb-a8f5-4b58-a020-e5872478e3b2 .color-1 a:visited{stroke:#ffec12;fill:#ffec12}#chart-4bfec5fb-a8f5-4b58-a020-e5872478e3b2 .color-2,#chart-4bfec5fb-a8f5-4b58-a020-e5872478e3b2 .color-2 a:visited{stroke:#14e35d;fill:#14e35d}#chart-4bfec5fb-a8f5-4b58-a020-e5872478e3b2 .color-3,#chart-4bfec5fb-a8f5-4b58-a020-e5872478e3b2 .color-3 a:visited{stroke:#53f5ed;fill:#53f5ed}#chart-4bfec5fb-a8f5-4b58-a020-e5872478e3b2 .color-4,#chart-4bfec5fb-a8f5-4b58-a020-e5872478e3b2 .color-4 a:visited{stroke:#b753f5;fill:#b753f5}#chart-4bfec5fb-a8f5-4b58-a020-e5872478e3b2 .text-overlay .color-0 text{fill:black}#chart-4bfec5fb-a8f5-4b58-a020-e5872478e3b2 .text-overlay .color-1 text{fill:black}#chart-4bfec5fb-a8f5-4b58-a020-e5872478e3b2 .text-overlay .color-2 text{fill:black}#chart-4bfec5fb-a8f5-4b58-a020-e5872478e3b2 .text-overlay .color-3 text{fill:black}#chart-4bfec5fb-a8f5-4b58-a020-e5872478e3b2 .text-overlay .color-4 text{fill:black}
#chart-4bfec5fb-a8f5-4b58-a020-e5872478e3b2 text.no_data{text-anchor:middle}#chart-4bfec5fb-a8f5-4b58-a020-e5872478e3b2 .guide.line{fill:none}#chart-4bfec5fb-a8f5-4b58-a020-e5872478e3b2 .centered{text-anchor:middle}#chart-4bfec5fb-a8f5-4b58-a020-e5872478e3b2 .title{text-anchor:middle}#chart-4bfec5fb-a8f5-4b58-a020-e5872478e3b2 .legends .legend text{fill-opacity:1}#chart-4bfec5fb-a8f5-4b58-a020-e5872478e3b2 .axis.x text{text-anchor:middle}#chart-4bfec5fb-a8f5-4b58-a020-e5872478e3b2 .axis.x:not(.web) text[transform]{text-anchor:start}#chart-4bfec5fb-a8f5-4b58-a020-e5872478e3b2 .axis.x:not(.web) text[transform].backwards{text-anchor:end}#chart-4bfec5fb-a8f5-4b58-a020-e5872478e3b2 .axis.y text{text-anchor:end}#chart-4bfec5fb-a8f5-4b58-a020-e5872478e3b2 .axis.y text[transform].backwards{text-anchor:start}#chart-4bfec5fb-a8f5-4b58-a020-e5872478e3b2 .axis.y2 text{text-anchor:start}#chart-4bfec5fb-a8f5-4b58-a020-e5872478e3b2 .axis.y2 text[transform].backwards{text-anchor:end}#chart-4bfec5fb-a8f5-4b58-a020-e5872478e3b2 .axis .guide.line{stroke-dasharray:4,4}#chart-4bfec5fb-a8f5-4b58-a020-e5872478e3b2 .axis .major.guide.line{stroke-dasharray:6,6}#chart-4bfec5fb-a8f5-4b58-a020-e5872478e3b2 .horizontal .axis.y .guide.line,#chart-4bfec5fb-a8f5-4b58-a020-e5872478e3b2 .horizontal .axis.y2 .guide.line,#chart-4bfec5fb-a8f5-4b58-a020-e5872478e3b2 .vertical .axis.x .guide.line{opacity:0}#chart-4bfec5fb-a8f5-4b58-a020-e5872478e3b2 .horizontal .axis.always_show .guide.line,#chart-4bfec5fb-a8f5-4b58-a020-e5872478e3b2 .vertical .axis.always_show .guide.line{opacity:1 !important}#chart-4bfec5fb-a8f5-4b58-a020-e5872478e3b2 .axis.y .guides:hover .guide.line,#chart-4bfec5fb-a8f5-4b58-a020-e5872478e3b2 .axis.y2 .guides:hover .guide.line,#chart-4bfec5fb-a8f5-4b58-a020-e5872478e3b2 .axis.x .guides:hover .guide.line{opacity:1}#chart-4bfec5fb-a8f5-4b58-a020-e5872478e3b2 .axis .guides:hover text{opacity:1}#chart-4bfec5fb-a8f5-4b58-a020-e5872478e3b2 .nofill{fill:none}#chart-4bfec5fb-a8f5-4b58-a020-e5872478e3b2 .subtle-fill{fill-opacity:.2}#chart-4bfec5fb-a8f5-4b58-a020-e5872478e3b2 .dot{stroke-width:1px;fill-opacity:1}#chart-4bfec5fb-a8f5-4b58-a020-e5872478e3b2 .dot.active{stroke-width:5px}#chart-4bfec5fb-a8f5-4b58-a020-e5872478e3b2 .dot.negative{fill:transparent}#chart-4bfec5fb-a8f5-4b58-a020-e5872478e3b2 text,#chart-4bfec5fb-a8f5-4b58-a020-e5872478e3b2 tspan{stroke:none !important}#chart-4bfec5fb-a8f5-4b58-a020-e5872478e3b2 .series text.active{opacity:1}#chart-4bfec5fb-a8f5-4b58-a020-e5872478e3b2 .tooltip rect{fill-opacity:.95;stroke-width:.5}#chart-4bfec5fb-a8f5-4b58-a020-e5872478e3b2 .tooltip text{fill-opacity:1}#chart-4bfec5fb-a8f5-4b58-a020-e5872478e3b2 .showable{visibility:hidden}#chart-4bfec5fb-a8f5-4b58-a020-e5872478e3b2 .showable.shown{visibility:visible}#chart-4bfec5fb-a8f5-4b58-a020-e5872478e3b2 .gauge-background{fill:rgba(229,229,229,1);stroke:none}#chart-4bfec5fb-a8f5-4b58-a020-e5872478e3b2 .bg-lines{stroke:#fdf6e3;stroke-width:2px}</style><script type="text/javascript">window.pygal = window.pygal || {};window.pygal.config = window.pygal.config || {};window.pygal.config['4bfec5fb-a8f5-4b58-a020-e5872478e3b2'] = {"allow_interruptions": false, "box_mode": "extremes", "classes": ["pygal-chart"], "css": ["file://style.css", "file://graph.css"], "defs": [], "disable_xml_declaration": false, "dots_size": 2.5, "dynamic_print_values": false, "explicit_size": false, "fill": false, "force_uri_protocol": "https", "formatter": null, "half_pie": false, "height": 600, "include_x_axis": false, "inner_radius": 0, "interpolate": null, "interpolation_parameters": {}, "interpolation_precision": 250, "inverse_y_axis": false, "js": ["//kozea.github.io/pygal.js/2.0.x/pygal-tooltips.min.js"], "legend_at_bottom": false, "legend_at_bottom_columns": null, "legend_box_size": 12, "logarithmic": false, "margin": 20, "margin_bottom": null, "margin_left": null, "margin_right": null, "margin_top": null, "max_scale": 16, "min_scale": 4, "missing_value_fill_truncation": "x", "no_data_text": "No data", "no_prefix": false, "order_min": null, "pretty_print": false, "print_labels": false, "print_values": false, "print_values_position": "center", "print_zeroes": true, "range": null, "rounded_bars": null, "secondary_range": null, "show_dots": false, "show_legend": true, "show_minor_x_labels": false, "show_minor_y_labels": true, "show_only_major_dots": false, "show_x_guides": false, "show_x_labels": true, "show_y_guides": true, "show_y_labels": true, "spacing": 10, "stack_from_top": false, "strict": false, "stroke": true, "stroke_style": null, "style": {"background": "#fdf6e3", "ci_colors": [], "colors": ["#e86258", "#ffec12", "#14e35d", "#53f5ed", "#b753f5"], "font_family": "Consolas, \"Liberation Mono\", Menlo, Courier, monospace", "foreground": "#657b83", "foreground_strong": "#073642", "foreground_subtle": "#073642", "guide_stroke_dasharray": "4,4", "label_font_family": "Consolas, \"Liberation Mono\", Menlo, Courier, monospace", "label_font_size": 10, "legend_font_family": "Consolas, \"Liberation Mono\", Menlo, Courier, monospace", "legend_font_size": 14, "major_guide_stroke_dasharray": "6,6", "major_label_font_family": "Consolas, \"Liberation Mono\", Menlo, Courier, monospace", "major_label_font_size": 10, "no_data_font_family": "Consolas, \"Liberation Mono\", Menlo, Courier, monospace", "no_data_font_size": 64, "opacity": ".66", "opacity_hover": ".9", "plot_background": "#eee8d5", "stroke_opacity": ".8", "stroke_opacity_hover": ".9", "title_font_family": "Consolas, \"Liberation Mono\", Menlo, Courier, monospace", "title_font_size": 16, "tooltip_font_family": "Consolas, \"Liberation Mono\", Menlo, Courier, monospace", "tooltip_font_size": 14, "transition": "500ms ease-in", "value_background": "rgba(229, 229, 229, 1)", "value_colors": [], "value_font_family": "Consolas, \"Liberation Mono\", Menlo, Courier, monospace", "value_font_size": 16, "value_label_font_family": "Consolas, \"Liberation Mono\", Menlo, Courier, monospace", "value_label_font_size": 10}, "title": "Barcelona Air Quality - 2020 Overview", "tooltip_border_radius": 0, "tooltip_fancy_mode": true, "truncate_label": null, "truncate_legend": null, "width": 800, "x_label_rotation": 20, "x_labels": ["2020-01-07", "2020-01-08", "2020-01-09", "2020-01-10", "2020-01-11", "2020-01-12", "2020-01-13", "2020-01-14", "2020-01-15", "2020-01-16", "2020-01-17", "2020-01-18", "2020-01-19", "2020-01-20", "2020-01-21", "2020-01-22", "2020-01-23", "2020-01-24", "2020-01-27", "2020-01-28", "2020-01-29", "2020-01-30", "2020-01-31", "2020-02-01", "2020-02-02", "2020-02-03", "2020-02-04", "2020-02-05", "2020-02-06", "2020-02-07", "2020-02-08", "2020-02-09", "2020-02-10", "2020-02-11", "2020-02-12", "2020-02-13", "2020-02-14", "2020-02-15", "2020-02-16", "2020-02-17", "2020-02-18", "2020-02-19", "2020-02-20", "2020-02-21", "2020-02-22", "2020-02-23", "2020-02-24", "2020-02-25", "2020-02-26", "2020-02-27", "2020-02-28", "2020-02-29", "2020-03-01", "2020-03-02", "2020-03-03", "2020-03-04", "2020-03-05", "2020-03-06", "2020-03-07", "2020-03-08", "2020-03-09", "2020-03-10", "2020-03-11", "2020-03-12", "2020-03-13", "2020-03-14", "2020-03-15", "2020-03-16", "2020-03-17", "2020-03-18", "2020-03-19", "2020-03-20", "2020-03-21", "2020-03-22", "2020-03-23", "2020-03-24", "2020-03-25", "2020-03-26", "2020-03-27", "2020-03-28", "2020-03-29", "2020-03-30", "2020-03-31", "2020-04-01", "2020-04-02", "2020-04-03", "2020-04-04", "2020-04-05", "2020-04-06", "2020-04-07", "2020-04-08", "2020-04-09", "2020-04-10", "2020-04-11", "2020-04-12", "2020-04-13", "2020-04-14", "2020-04-15", "2020-04-16", "2020-04-17", "2020-04-18", "2020-04-19", "2020-04-20", "2020-04-21", "2020-04-22", "2020-04-23", "2020-04-24", "2020-04-25", "2020-04-26", "2020-04-27", "2020-04-28", "2020-04-29", "2020-04-30", "2020-05-01", "2020-05-02", "2020-05-03", "2020-05-04", "2020-05-05", "2020-05-06", "2020-05-07", "2020-05-08", "2020-05-09", "2020-05-10", "2020-05-11", "2020-05-12", "2020-05-13", "2020-05-14", "2020-05-15", "2020-05-16", "2020-05-17", "2020-05-18", "2020-05-19", "2020-05-20", "2020-05-21", "2020-05-22", "2020-05-23", "2020-05-24", "2020-05-25", "2020-05-26", "2020-05-27", "2020-05-28", "2020-05-29", "2020-05-30", "2020-05-31", "2020-06-01", "2020-06-02", "2020-06-03", "2020-06-04", "2020-06-05", "2020-06-06", "2020-06-07", "2020-06-08", "2020-06-09", "2020-06-10", "2020-06-11", "2020-06-12", "2020-06-13", "2020-06-14", "2020-06-15", "2020-06-16", "2020-06-17", "2020-06-18", "2020-06-19", "2020-06-20", "2020-06-21", "2020-06-22", "2020-06-23", "2020-06-24", "2020-06-25", "2020-06-26", "2020-06-27", "2020-06-28", "2020-06-29", "2020-06-30", "2020-07-01", "2020-07-02", "2020-07-03", "2020-07-04", "2020-07-05", "2020-07-06", "2020-07-07", "2020-07-08", "2020-07-09", "2020-07-10", "2020-07-11", "2020-07-12", "2020-07-13", "2020-07-14", "2020-07-15", "2020-07-16", "2020-07-17", "2020-07-18", "2020-07-19", "2020-07-20", "2020-07-21", "2020-07-22", "2020-07-23", "2020-07-24", "2020-07-25", "2020-07-26", "2020-07-27", "2020-07-28", "2020-07-29", "2020-07-30", "2020-07-31", "2020-08-01", "2020-08-02", "2020-08-03", "2020-08-04", "2020-08-05", "2020-08-06", "2020-08-10", "2020-08-11", "2020-08-12", "2020-08-13", "2020-08-14", "2020-08-15", "2020-08-16", "2020-08-17", "2020-08-18", "2020-08-19", "2020-08-20", "2020-08-21", "2020-08-22", "2020-08-23", "2020-08-24", "2020-08-25", "2020-08-26", "2020-08-27", "2020-08-28", "2020-08-29", "2020-08-30", "2020-08-31", "2020-09-01", "2020-09-02", "2020-09-03", "2020-09-04", "2020-09-05", "2020-09-06", "2020-09-07", "2020-09-08", "2020-09-09", "2020-09-10", "2020-09-11", "2020-09-13", "2020-09-14", "2020-09-15", "2020-09-16", "2020-09-17", "2020-09-18", "2020-09-19", "2020-09-20", "2020-09-21", "2020-09-22", "2020-09-23", "2020-09-24", "2020-09-25", "2020-09-26", "2020-09-27", "2020-09-28", "2020-09-29", "2020-09-30", "2020-10-01", "2020-10-02", "2020-10-03", "2020-10-04", "2020-10-05", "2020-10-06", "2020-10-07", "2020-10-08", "2020-10-09", "2020-10-10", "2020-10-11", "2020-10-12", "2020-10-13", "2020-10-14", "2020-10-15", "2020-10-16", "2020-10-17", "2020-10-18", "2020-10-19", "2020-10-20", "2020-10-21", "2020-10-22", "2020-10-23", "2020-10-24", "2020-10-25", "2020-10-26", "2020-10-27", "2020-10-28", "2020-10-29", "2020-10-30", "2020-10-31", "2020-11-01", "2020-11-02", "2020-11-03", "2020-11-04", "2020-11-05", "2020-11-06", "2020-11-07", "2020-11-08", "2020-11-09", "2020-11-10", "2020-11-11", "2020-11-12", "2020-11-13", "2020-11-14", "2020-11-15", "2020-11-16", "2020-11-17", "2020-11-18", "2020-11-19", "2020-11-21", "2020-11-22", "2020-11-23", "2020-11-24", "2020-11-25", "2020-11-26", "2020-11-27", "2020-12-01", "2020-12-02", "2020-12-03", "2020-12-04", "2020-12-05", "2020-12-06", "2020-12-07", "2020-12-08", "2020-12-09", "2020-12-10", "2020-12-11", "2020-12-12", "2020-12-13", "2020-12-14", "2020-12-15", "2020-12-16", "2020-12-17", "2020-12-18", "2020-12-19", "2020-12-20", "2020-12-21", "2020-12-22", "2020-12-23", "2020-12-24", "2020-12-25", "2020-12-26", "2020-12-27", "2020-12-28", "2020-12-29", "2020-12-30", "2020-12-31"], "x_labels_major": ["2020-01-07", "2020-01-21", "2020-02-06", "2020-02-20", "2020-03-05", "2020-03-19", "2020-04-02", "2020-04-16", "2020-04-30", "2020-05-14", "2020-05-28", "2020-06-11", "2020-06-25", "2020-07-09", "2020-07-23", "2020-08-06", "2020-08-23", "2020-09-06", "2020-09-21", "2020-10-05", "2020-10-19", "2020-11-02", "2020-11-16", "2020-12-04", "2020-12-18"], "x_labels_major_count": null, "x_labels_major_every": null, "x_title": "Average over 7 days", "xrange": null, "y_label_rotation": 0, "y_labels": null, "y_labels_major": null, "y_labels_major_count": null, "y_labels_major_every": null, "y_title": "micrograms per cubic meter air \u00b5g/m\u00b3", "zero": 0, "legends": ["NO", "NO2", "NOx", "PM10", "SO2"]}</script><script type="text/javascript" xlink:href="https://kozea.github.io/pygal.js/2.0.x/pygal-tooltips.min.js"/></defs><title>Barcelona Air Quality - 2020 Overview</title><g class="graph line-graph vertical"><rect x="0" y="0" width="800" height="600" class="background"/><g transform="translate(129, 46)" class="plot"><rect x="0" y="0" width="614.0184427528454" height="477.47879140045984" class="background"/><g class="axis y always_show"><path d="M0.000000 477.478791 h614.018443" class="line"/><g class="guides"><path d="M0.000000 432.545748 h614.018443" class="guide line"/><text x="-5" y="436.0457478822864" class="">10</text><title>10</title></g><g class="guides"><path d="M0.000000 393.209798 h614.018443" class="guide line"/><text x="-5" y="396.7097979487509" class="">20</text><title>20</title></g><g class="guides"><path d="M0.000000 353.873848 h614.018443" class="guide line"/><text x="-5" y="357.37384801521546" class="">30</text><title>30</title></g><g class="guides"><path d="M0.000000 314.537898 h614.018443" class="guide line"/><text x="-5" y="318.03789808168005" class="">40</text><title>40</title></g><g class="guides"><path d="M0.000000 275.201948 h614.018443" class="major guide line"/><text x="-5" y="278.70194814814454" class="major">50</text><title>50</title></g><g class="guides"><path d="M0.000000 235.865998 h614.018443" class="guide line"/><text x="-5" y="239.36599821460914" class="">60</text><title>60</title></g><g class="guides"><path d="M0.000000 196.530048 h614.018443" class="guide line"/><text x="-5" y="200.03004828107368" class="">70</text><title>70</title></g><g class="guides"><path d="M0.000000 157.194098 h614.018443" class="guide line"/><text x="-5" y="160.69409834753827" class="">80</text><title>80</title></g><g class="guides"><path d="M0.000000 117.858148 h614.018443" class="guide line"/><text x="-5" y="121.35814841400281" class="">90</text><title>90</title></g><g class="guides"><path d="M0.000000 78.522198 h614.018443" class="major guide line"/><text x="-5" y="82.02219848046735" class="major">100</text><title>100</title></g><g class="guides"><path d="M0.000000 39.186249 h614.018443" class="guide line"/><text x="-5" y="42.68624854693189" class="">110</text><title>110</title></g></g><g class="axis x"><g class="guides"><path d="M11.808047 0.000000 v477.478791" class="major line"/><text x="11.808046976016257" y="492.47879140045984" class="major" transform="rotate(20 11.808047 492.478791)">2020-01-07</text></g><g class="guides"><path d="M35.491809 0.000000 v477.478791" class="major guide line"/><text x="35.49180881902881" y="492.47879140045984" class="major" transform="rotate(20 35.491809 492.478791)">2020-01-21</text></g><g class="guides"><path d="M59.175571 0.000000 v477.478791" class="major guide line"/><text x="59.175570662041366" y="492.47879140045984" class="major" transform="rotate(20 59.175571 492.478791)">2020-02-06</text></g><g class="guides"><path d="M82.859333 0.000000 v477.478791" class="major guide line"/><text x="82.85933250505391" y="492.47879140045984" class="major" transform="rotate(20 82.859333 492.478791)">2020-02-20</text></g><g class="guides"><path d="M106.543094 0.000000 v477.478791" class="major guide line"/><text x="106.54309434806646" y="492.47879140045984" class="major" transform="rotate(20 106.543094 492.478791)">2020-03-05</text></g><g class="guides"><path d="M130.226856 0.000000 v477.478791" class="major guide line"/><text x="130.226856191079" y="492.47879140045984" class="major" transform="rotate(20 130.226856 492.478791)">2020-03-19</text></g><g class="guides"><path d="M153.910618 0.000000 v477.478791" class="major guide line"/><text x="153.91061803409156" y="492.47879140045984" class="major" transform="rotate(20 153.910618 492.478791)">2020-04-02</text></g><g class="guides"><path d="M177.594380 0.000000 v477.478791" class="major guide line"/><text x="177.5943798771041" y="492.47879140045984" class="major" transform="rotate(20 177.594380 492.478791)">2020-04-16</text></g><g class="guides"><path d="M201.278142 0.000000 v477.478791" class="major guide line"/><text x="201.2781417201167" y="492.47879140045984" class="major" transform="rotate(20 201.278142 492.478791)">2020-04-30</text></g><g class="guides"><path d="M224.961904 0.000000 v477.478791" class="major guide line"/><text x="224.96190356312923" y="492.47879140045984" class="major" transform="rotate(20 224.961904 492.478791)">2020-05-14</text></g><g class="guides"><path d="M248.645665 0.000000 v477.478791" class="major guide line"/><text x="248.64566540614177" y="492.47879140045984" class="major" transform="rotate(20 248.645665 492.478791)">2020-05-28</text></g><g class="guides"><path d="M272.329427 0.000000 v477.478791" class="major guide line"/><text x="272.3294272491544" y="492.47879140045984" class="major" transform="rotate(20 272.329427 492.478791)">2020-06-11</text></g><g class="guides"><path d="M296.013189 0.000000 v477.478791" class="major guide line"/><text x="296.01318909216684" y="492.47879140045984" class="major" transform="rotate(20 296.013189 492.478791)">2020-06-25</text></g><g class="guides"><path d="M319.696951 0.000000 v477.478791" class="major guide line"/><text x="319.6969509351794" y="492.47879140045984" class="major" transform="rotate(20 319.696951 492.478791)">2020-07-09</text></g><g class="guides"><path d="M343.380713 0.000000 v477.478791" class="major guide line"/><text x="343.380712778192" y="492.47879140045984" class="major" transform="rotate(20 343.380713 492.478791)">2020-07-23</text></g><g class="guides"><path d="M367.064475 0.000000 v477.478791" class="major guide line"/><text x="367.06447462120457" y="492.47879140045984" class="major" transform="rotate(20 367.064475 492.478791)">2020-08-06</text></g><g class="guides"><path d="M390.748236 0.000000 v477.478791" class="major guide line"/><text x="390.7482364642171" y="492.47879140045984" class="major" transform="rotate(20 390.748236 492.478791)">2020-08-23</text></g><g class="guides"><path d="M414.431998 0.000000 v477.478791" class="major guide line"/><text x="414.43199830722966" y="492.47879140045984" class="major" transform="rotate(20 414.431998 492.478791)">2020-09-06</text></g><g class="guides"><path d="M438.115760 0.000000 v477.478791" class="major guide line"/><text x="438.1157601502422" y="492.47879140045984" class="major" transform="rotate(20 438.115760 492.478791)">2020-09-21</text></g><g class="guides"><path d="M461.799522 0.000000 v477.478791" class="major guide line"/><text x="461.79952199325476" y="492.47879140045984" class="major" transform="rotate(20 461.799522 492.478791)">2020-10-05</text></g><g class="guides"><path d="M485.483284 0.000000 v477.478791" class="major guide line"/><text x="485.4832838362673" y="492.47879140045984" class="major" transform="rotate(20 485.483284 492.478791)">2020-10-19</text></g><g class="guides"><path d="M509.167046 0.000000 v477.478791" class="major guide line"/><text x="509.1670456792799" y="492.47879140045984" class="major" transform="rotate(20 509.167046 492.478791)">2020-11-02</text></g><g class="guides"><path d="M532.850808 0.000000 v477.478791" class="major guide line"/><text x="532.8508075222924" y="492.47879140045984" class="major" transform="rotate(20 532.850808 492.478791)">2020-11-16</text></g><g class="guides"><path d="M556.534569 0.000000 v477.478791" class="major guide line"/><text x="556.534569365305" y="492.47879140045984" class="major" transform="rotate(20 556.534569 492.478791)">2020-12-04</text></g><g class="guides"><path d="M580.218331 0.000000 v477.478791" class="major guide line"/><text x="580.2183312083175" y="492.47879140045984" class="major" transform="rotate(20 580.218331 492.478791)">2020-12-18</text></g></g><g class="series serie-0 color-0"><path d="M11.808047 388.649637 L13.499744 357.661338 15.191442 341.370635 16.883139 344.497843 18.574836 352.011010 20.266533 349.614327 21.958231 348.948425 23.649928 346.725944 25.341625 349.097340 27.033322 354.975255 28.725020 346.579839 30.416717 347.731820 32.108414 354.930299 33.800112 367.239642 35.491809 390.619245 37.183506 422.944966 38.875203 436.827747 40.566901 420.778679 42.258598 417.112007 43.950295 412.040479 45.641992 388.854746 47.333690 358.647547 49.025387 327.642389 50.717084 314.040579 52.408782 329.496798 54.100479 310.781315 55.792176 312.222696 57.483873 329.479940 59.175571 348.484823 60.867268 359.223537 62.558965 375.519859 64.250662 387.694336 65.942360 400.003678 67.634057 391.304814 69.325754 397.323214 71.017452 400.560001 72.709149 404.844810 74.400846 408.449669 76.092543 412.043289 77.784241 421.096177 79.475938 431.466819 81.167635 426.207041 82.859333 423.860932 84.551030 423.150075 86.242727 421.514824 87.934424 414.796805 89.626122 397.146203 91.317819 387.253211 93.009516 391.257049 94.701213 400.433564 96.392911 411.649929 98.084608 411.751079 99.776305 418.235891 101.468003 438.611913 103.159700 449.960335 104.851397 444.975908 106.543094 440.637715 108.234792 446.012691 109.926489 449.283195 111.618186 449.412441 113.309883 446.470674 115.001581 445.498514 116.693278 445.672716 118.384975 435.878065 120.076673 430.261453 121.768370 428.870646 123.460067 429.022371 125.151764 432.944727 126.843462 435.285216 128.535159 438.064020 130.226856 450.547564 131.918553 455.933780 133.610251 457.847193 135.301948 458.482187 136.993645 458.327653 138.685343 458.409135 140.377040 462.103905 142.068737 464.576450 143.760434 465.233922 145.452132 465.006336 147.143829 464.702887 148.835526 464.697268 150.527223 464.517446 152.218921 464.750652 153.910618 465.512084 155.602315 464.413487 157.294013 463.815018 158.985710 463.834686 160.677407 462.952437 162.369104 462.323062 164.060802 461.688067 165.752499 460.836725 167.444196 461.974658 169.135894 462.297775 170.827591 462.637750 172.519288 463.789731 174.210985 464.284240 175.902683 464.039795 177.594380 464.764701 179.286077 464.191520 180.977774 464.601737 182.669472 464.655122 184.361169 462.983344 186.052866 463.050777 187.744564 463.820638 189.436261 463.326129 191.127958 462.101095 192.819655 461.525104 194.511353 460.957543 196.203050 461.179510 197.894747 461.168271 199.586444 460.263544 201.278142 460.241066 202.969839 462.235024 204.661536 462.410163 206.353234 461.699306 208.044931 455.775499 209.736628 451.061741 211.428325 443.901662 213.120023 442.748744 214.811720 441.763472 216.503417 442.128735 218.195114 443.250746 219.886812 449.788006 221.578509 453.667280 223.270206 460.537959 224.961904 461.187939 226.653601 460.955669 228.345298 460.744005 230.036995 460.652221 231.728693 458.121608 233.420390 457.080142 235.112087 451.284645 236.803784 445.007751 238.495482 441.791569 240.187179 441.207149 241.878876 441.002977 243.570574 441.450658 245.262271 439.277815 246.953968 445.344917 248.645665 451.057995 250.337363 453.427518 252.029060 453.388182 253.720757 453.215853 255.412455 454.993463 257.104152 456.742977 258.795849 456.240975 260.487546 456.510707 262.179244 456.838507 263.870941 456.609984 265.562638 456.394572 267.254335 454.950381 268.946033 455.369965 270.637730 452.432880 272.329427 451.623684 274.021125 451.237817 275.712822 451.417638 277.404519 451.196608 279.096216 450.595329 280.787914 449.907887 282.479611 450.587837 284.171308 450.190731 285.863005 448.383151 287.554703 447.277998 289.246400 445.843172 290.938097 441.362620 292.629795 439.755466 294.321492 439.865981 296.013189 437.144308 297.704886 434.696113 299.396584 434.922763 301.088281 435.522168 302.779978 437.676280 304.471675 437.760571 306.163373 435.340473 307.855070 437.550779 309.546767 440.609618 311.238465 440.574028 312.930162 440.122601 314.621859 438.187647 316.313556 438.873216 318.005254 440.248102 319.696951 439.586883 321.388648 438.369342 323.080345 438.775813 324.772043 439.974623 326.463740 444.129249 328.155437 445.554708 329.847135 448.038493 331.538832 448.486173 333.230529 449.124914 334.922226 449.347818 336.613924 449.679364 338.305621 450.110186 339.997318 447.107542 341.689016 444.975908 343.380713 444.121756 345.072410 444.295958 346.764107 444.676206 348.455805 444.932826 350.147502 444.575056 351.839199 445.818821 353.530896 446.785362 355.222594 445.030229 356.914291 443.475523 358.605988 440.969261 360.297686 440.639588 361.989383 440.399826 363.681080 441.486247 365.372777 442.016346 367.064475 445.391745 368.756172 446.165352 370.447869 447.189960 372.139566 446.654242 373.831264 448.261396 375.522961 448.930108 377.214658 450.928748 378.906356 453.144674 380.598053 456.019944 382.289750 457.141955 383.981447 456.493849 385.673145 455.598488 387.364842 456.413304 389.056539 456.154810 390.748236 455.576010 392.439934 455.562898 394.131631 454.221729 395.823328 453.957617 397.515026 453.258935 399.206723 451.730453 400.898420 451.262167 402.590117 451.104824 404.281815 450.458590 405.973512 448.632278 407.665209 447.748156 409.356906 446.777869 411.048604 445.195065 412.740301 445.404857 414.431998 445.429208 416.123696 445.944322 417.815393 446.581189 419.507090 445.771993 421.198787 445.846918 422.890485 449.463953 424.582182 448.439345 426.273879 439.995228 427.965577 435.610206 429.657274 432.671248 431.348971 427.694314 433.040668 421.192643 434.732366 418.487829 436.424063 420.068759 438.115760 424.538072 439.807457 426.306317 441.499155 425.809935 443.190852 432.315352 444.882549 441.675435 446.574247 443.940061 448.265944 443.471776 449.957641 445.479783 451.649338 445.294342 453.341036 445.219416 455.032733 440.418557 456.724430 438.787052 458.416127 439.380837 460.107825 439.654316 461.799522 439.247844 463.491219 437.016934 465.182917 437.093733 466.874614 440.795059 468.566311 425.540203 470.258008 421.239472 471.949706 421.035300 473.641403 423.468509 475.333100 426.261362 477.024797 428.750765 478.716495 427.812322 480.408192 442.647594 482.099889 443.462411 483.791587 440.645207 485.483284 419.785915 487.174981 405.523823 488.866678 404.336252 490.558376 397.709081 492.250073 394.693325 493.941770 397.218319 495.633467 400.043014 497.325165 419.881445 499.016862 433.922506 500.708559 432.901645 502.400257 424.423811 504.091954 416.210090 505.783651 408.385982 507.475348 406.171930 509.167046 400.318366 510.858743 400.041141 512.550440 399.415512 514.242138 414.625413 515.933835 427.724284 517.625532 432.154262 519.317229 430.573331 521.008927 412.729795 522.700624 403.096233 524.392321 402.116581 526.084018 395.341432 527.775716 370.406186 529.467413 368.098477 531.159110 370.584134 532.850808 390.937679 534.542505 395.777874 536.234202 384.387306 537.925899 377.061454 539.617597 396.890519 541.309294 399.482945 543.000991 392.681572 544.692688 380.489301 546.384386 361.666112 548.076083 372.210020 549.767780 388.742358 551.459478 387.751467 553.151175 386.241715 554.842872 392.507370 556.534569 398.621301 558.226267 424.330154 559.917964 433.019652 561.609661 426.804572 563.301358 432.944727 564.993056 435.355459 566.684753 426.441183 568.376450 406.537192 570.068148 407.016716 571.759845 403.972863 573.451542 356.288326 575.143239 320.623731 576.834937 298.711734 578.526634 288.647350 580.218331 312.320100 581.910028 307.663473 583.601726 309.926226 585.293423 357.756868 586.985120 376.201682 588.676818 387.017196 590.368515 401.180011 592.060212 407.852137 593.751909 413.636395 595.443607 413.945463 597.135304 420.175528 598.827001 437.327876 600.518699 449.501415 602.210396 455.180777" class="line reactive nofill"/></g><g class="series serie-1 color-1"><path d="M11.808047 327.802542 L13.499744 313.310055 15.191442 306.066620 16.883139 297.665585 18.574836 299.927402 20.266533 295.069413 21.958231 291.068385 23.649928 287.398902 25.341625 281.144486 27.033322 276.219063 28.725020 279.916643 30.416717 277.365425 32.108414 289.129684 33.800112 310.680165 35.491809 334.250828 37.183506 359.720856 38.875203 370.878217 40.566901 364.050620 42.258598 360.038353 43.950295 348.712409 45.641992 324.621950 47.333690 307.168027 49.025387 289.565189 50.717084 284.811159 52.408782 297.013732 54.100479 289.857399 55.792176 294.324839 57.483873 303.981815 59.175571 303.206335 60.867268 297.634678 62.558965 296.429313 64.250662 297.471715 65.942360 303.054610 67.634057 298.623697 69.325754 308.716177 71.017452 312.101879 72.709149 324.307262 74.400846 334.565516 76.092543 342.356844 77.784241 347.436801 79.475938 351.347918 81.167635 338.920568 82.859333 333.778797 84.551030 327.614292 86.242727 323.756559 87.934424 308.707748 89.626122 293.403254 91.317819 286.364929 93.009516 296.336592 94.701213 313.374678 96.392911 322.554003 98.084608 324.860775 99.776305 339.752242 101.468003 365.211031 103.159700 378.852176 104.851397 371.774515 106.543094 365.180124 108.234792 376.177332 109.926489 385.671344 111.618186 381.549499 113.309883 373.561491 115.001581 365.194172 116.693278 361.128521 118.384975 351.145619 120.076673 335.436526 121.768370 329.339454 123.460067 333.191567 125.151764 344.756337 126.843462 354.975255 128.535159 363.098128 130.226856 377.638381 131.918553 390.869309 133.610251 398.795503 135.301948 404.856049 136.993645 404.993725 138.685343 409.163335 140.377040 417.718904 142.068737 420.674720 143.760434 421.054031 145.452132 418.660158 147.143829 413.344185 148.835526 410.520426 150.527223 406.640215 152.218921 408.129362 153.910618 413.442525 155.602315 412.315831 157.294013 410.155163 158.985710 412.105102 160.677407 407.974828 162.369104 404.218245 164.060802 399.781711 165.752499 393.990898 167.444196 395.584003 169.135894 397.764339 170.827591 400.149783 172.519288 407.272400 174.210985 411.113275 175.902683 412.821579 177.594380 418.542150 179.286077 418.755688 180.977774 422.180725 182.669472 424.088519 184.361169 414.889526 186.052866 413.487480 187.744564 417.887487 189.436261 413.125027 191.127958 408.415952 192.819655 405.729869 194.511353 403.751833 196.203050 408.772786 197.894747 412.728858 199.586444 410.843542 201.278142 413.012639 202.969839 422.340879 204.661536 425.991629 206.353234 424.018276 208.044931 416.683058 209.736628 406.524080 211.428325 396.417551 213.120023 392.498005 214.811720 390.581782 216.503417 390.441296 218.195114 395.238409 219.886812 404.686530 221.578509 412.023621 223.270206 420.441514 224.961904 422.612484 226.653601 420.928531 228.345298 420.115588 230.036995 418.128186 231.728693 410.985901 233.420390 402.534291 235.112087 387.657810 236.803784 373.435054 238.495482 363.020393 240.187179 358.783349 241.878876 358.914469 243.570574 360.817580 245.262271 359.098037 246.953968 369.943520 248.645665 384.602717 250.337363 390.394468 252.029060 392.501751 253.720757 390.887104 255.412455 393.923464 257.104152 398.420875 258.795849 400.187246 260.487546 398.111807 262.179244 401.050764 263.870941 399.851954 265.562638 401.342974 267.254335 401.414153 268.946033 402.693508 270.637730 400.325859 272.329427 399.349952 274.021125 399.033392 275.712822 398.201717 277.404519 394.676467 279.096216 390.446916 280.787914 387.592250 282.479611 387.114599 284.171308 387.723370 285.863005 382.986197 287.554703 381.909141 289.246400 378.041106 290.938097 372.434797 292.629795 372.762597 294.321492 373.219643 296.013189 367.036406 297.704886 359.450187 299.396584 358.693438 301.088281 362.823713 302.779978 369.044413 304.471675 372.254975 306.163373 369.235473 307.855070 375.038462 309.546767 387.266323 311.238465 391.087530 312.930162 384.233709 314.621859 377.374268 316.313556 377.542851 318.005254 376.572564 319.696951 371.279069 321.388648 361.064834 323.080345 356.162826 324.772043 362.437846 326.463740 364.397151 328.155437 362.449085 329.847135 366.129806 331.538832 372.226878 333.230529 380.545495 334.922226 383.772916 336.613924 385.376324 338.305621 388.976500 339.997318 386.612597 341.689016 380.996922 343.380713 368.407545 345.072410 359.107402 346.764107 360.377392 348.455805 361.405746 350.147502 360.527243 351.839199 359.751763 353.530896 364.140531 355.222594 364.432741 356.914291 364.172374 358.605988 354.081767 360.297686 354.478872 361.989383 359.320941 363.681080 366.912779 365.372777 370.025938 367.064475 379.726933 368.756172 381.186109 370.447869 382.476703 372.139566 376.703684 373.831264 375.780226 375.522961 373.800316 377.214658 377.415477 378.906356 384.372321 380.598053 394.193197 382.289750 400.535650 383.981447 399.509169 385.673145 397.999418 387.364842 399.953104 389.056539 400.318366 390.748236 397.010400 392.439934 398.460211 394.131631 396.405376 395.823328 397.482431 397.515026 397.592947 399.206723 394.335555 400.898420 392.640363 402.590117 394.824445 404.281815 392.763991 405.973512 386.724986 407.665209 383.027406 409.356906 376.621266 411.048604 370.323768 412.740301 367.868080 414.431998 364.700600 416.123696 365.395535 417.815393 367.598348 419.507090 360.647124 421.198787 359.661852 422.890485 365.607200 424.582182 359.236649 426.273879 339.002986 427.965577 329.545500 429.657274 323.738764 431.348971 319.458638 433.040668 311.145641 434.732366 306.292334 436.424063 316.195627 438.115760 325.432083 439.807457 326.473549 441.499155 326.121399 443.190852 336.494851 444.882549 357.256740 446.574247 368.641688 448.265944 365.432998 449.957641 371.796056 451.649338 368.375702 453.341036 368.860845 455.032733 365.185743 456.724430 354.660567 458.416127 354.295305 460.107825 356.844649 461.799522 358.371258 463.491219 359.343418 465.182917 366.090470 466.874614 369.525810 468.566311 363.533633 470.258008 354.036811 471.949706 353.251965 473.641403 357.258613 475.333100 360.514131 477.024797 360.946826 478.716495 360.819453 480.408192 366.234702 482.099889 360.028988 483.791587 349.069243 485.483284 327.035491 487.174981 321.005852 488.866678 316.133814 490.558376 303.879729 492.250073 303.119234 493.941770 312.127166 495.633467 321.582779 497.325165 342.333430 499.016862 349.878439 500.708559 347.175498 502.400257 347.448976 504.091954 338.579656 505.783651 331.014042 507.475348 326.248772 509.167046 314.022784 510.858743 314.290644 512.550440 319.512959 514.242138 332.280285 515.933835 348.301255 517.625532 356.640476 519.317229 356.526215 521.008927 350.987339 522.700624 340.033213 524.392321 337.189786 526.084018 326.810714 527.775716 307.152105 529.467413 300.590494 531.159110 301.734046 532.850808 313.718399 534.542505 318.045354 536.234202 309.844745 537.925899 311.571780 539.617597 323.385677 541.309294 322.038889 543.000991 308.483908 544.692688 294.457832 546.384386 280.886929 548.076083 287.401712 549.767780 299.507819 551.459478 303.812296 553.151175 306.996635 554.842872 317.261444 556.534569 324.759626 558.226267 348.329352 559.917964 365.180124 561.609661 358.408721 563.301358 363.756537 564.993056 369.091241 566.684753 365.423632 568.376450 359.682457 570.068148 363.316349 571.759845 351.880827 573.451542 333.891185 575.143239 315.487580 576.834937 296.244808 578.526634 288.694179 580.218331 294.227436 581.910028 283.020436 583.601726 288.932068 585.293423 305.741630 586.985120 311.782508 588.676818 317.609848 590.368515 329.060356 592.060212 346.549869 593.751909 358.410594 595.443607 358.811446 597.135304 368.263313 598.827001 381.969082 600.518699 397.126535 602.210396 400.226582" class="line reactive nofill"/></g><g class="series serie-2 color-2"><path d="M11.808047 200.859812 L13.499744 139.063035 15.191442 106.838463 16.883139 103.270130 18.574836 117.197866 20.266533 108.673204 21.958231 103.733733 23.649928 96.616735 25.341625 94.003704 27.033322 98.103072 28.725020 89.036136 30.416717 88.181984 32.108414 110.988406 33.800112 151.493195 35.491809 210.870812 37.183506 285.802987 38.875203 318.387202 40.566901 286.980255 42.258598 277.320470 43.950295 258.265012 45.641992 198.701955 47.333690 134.960858 49.025387 69.899196 50.717084 44.151007 52.408782 79.986058 54.100479 44.260586 55.792176 50.919600 57.483873 86.987857 59.175571 115.301312 60.867268 126.090601 62.558965 149.832656 64.250662 169.475344 65.942360 193.911398 67.634057 175.940488 69.325754 195.198245 71.017452 203.543086 72.709149 222.511443 74.400846 238.282349 76.092543 251.532945 77.784241 270.414201 79.475938 290.267617 81.167635 269.751109 82.859333 261.035387 84.551030 253.643038 86.242727 247.340857 87.934424 222.089987 89.626122 179.958375 91.317819 157.857190 93.009516 173.869731 94.701213 204.978848 96.392911 231.331125 98.084608 233.789622 99.776305 258.599368 101.468003 315.029597 103.159700 346.194909 104.851397 331.533838 106.543094 318.294481 108.234792 337.754538 109.926489 352.350985 111.618186 348.557875 113.309883 336.057472 115.001581 326.164481 116.693278 322.447234 118.384975 297.570055 120.076673 273.089046 121.768370 264.671152 123.460067 268.686229 125.151764 286.606564 126.843462 300.433150 128.535159 312.756541 130.226856 346.439353 131.918553 367.964547 133.610251 379.046046 135.301948 386.337246 136.993645 386.238906 138.685343 390.689487 140.377040 405.055538 142.068737 411.728601 143.760434 413.032307 145.452132 410.073682 147.143829 403.917605 148.835526 400.863450 150.527223 396.643264 152.218921 398.553868 153.910618 405.159498 155.602315 402.445317 157.294013 399.441736 158.985710 401.515303 160.677407 396.075703 162.369104 391.161519 164.060802 385.587053 165.752499 378.399813 167.444196 381.661887 169.135894 384.252440 170.827591 387.295357 172.519288 396.328577 174.210985 401.048891 175.902683 402.279544 177.594380 409.185813 179.286077 408.517102 180.977774 412.779433 182.669472 414.934481 184.361169 403.049405 186.052866 401.734460 187.744564 407.561800 189.436261 401.962047 191.127958 395.412611 192.819655 391.709412 194.511353 388.618731 196.203050 393.898177 197.894747 397.916063 199.586444 394.592176 201.278142 396.744414 202.969839 409.211100 204.661536 413.229923 206.353234 410.107398 208.044931 393.620016 209.736628 376.056514 211.428325 354.935919 213.120023 349.254684 214.811720 345.869919 216.503417 346.533011 218.195114 353.439279 219.886812 373.062299 221.578509 386.483351 223.270206 405.516331 224.961904 408.816804 226.653601 406.795686 228.345298 405.516331 230.036995 403.161793 231.728693 392.108391 233.420390 381.879171 235.112087 357.962914 236.803784 333.836864 238.495482 318.344120 240.187179 313.091834 241.878876 312.840833 243.570574 315.435132 245.262271 310.433847 246.953968 330.562615 248.645665 354.211013 250.337363 363.608559 252.029060 365.528528 253.720757 363.608559 255.412455 369.357227 257.104152 376.542594 258.795849 377.561582 260.487546 375.688442 262.179244 379.103177 263.870941 377.525993 265.562638 378.743534 267.254335 376.606281 268.946033 378.552474 270.637730 371.719257 272.329427 369.550161 274.021125 368.703501 275.712822 368.237089 277.404519 364.249173 279.096216 358.916342 280.787914 354.952777 282.479611 355.407950 284.171308 355.419189 285.863005 347.791761 287.554703 344.978304 289.246400 338.884978 290.938097 326.482915 292.629795 324.360647 294.321492 324.836424 296.013189 314.459226 297.704886 303.182921 299.396584 302.817658 301.088281 307.950063 302.779978 317.486221 304.471675 320.884098 306.163373 314.389920 307.855070 323.557069 309.546767 340.398475 311.238465 344.214063 312.930162 336.644702 314.621859 326.790110 316.313556 327.992666 318.005254 329.217700 319.696951 323.081292 321.388648 311.134402 323.080345 306.906724 324.772043 315.193497 326.463740 323.558943 328.155437 323.935444 329.847135 331.398035 331.538832 338.118863 333.230529 347.389036 334.922226 350.835614 336.613924 352.794919 338.305621 357.095650 339.997318 350.013306 341.689016 340.894858 343.380713 326.934342 345.072410 317.829006 346.764107 319.698400 348.455805 321.189420 350.147502 319.748975 351.839199 320.812919 353.530896 326.838812 355.222594 324.446811 356.914291 321.702660 358.605988 307.706555 360.297686 307.579181 361.989383 311.954837 363.681080 321.221263 365.372777 325.108030 367.064475 339.902093 368.756172 342.612527 370.447869 345.583328 372.139566 339.044195 373.831264 340.730021 375.522961 339.999497 377.214658 346.744675 378.906356 357.331665 380.598053 371.625600 382.289750 379.659500 383.981447 377.529739 385.673145 374.579543 387.364842 377.634635 389.056539 377.703941 390.748236 373.292695 392.439934 374.912962 394.131631 370.617851 395.823328 371.232241 397.515026 370.284432 399.206723 364.578846 400.898420 362.080076 402.590117 364.061859 404.281815 360.886886 405.973512 352.131827 407.665209 347.106191 409.356906 339.210904 411.048604 330.532645 412.740301 328.294242 414.431998 325.121142 416.123696 326.469803 417.815393 329.734687 419.507090 321.494742 421.198787 320.653702 422.890485 332.145419 424.582182 324.237019 426.273879 291.065575 427.965577 274.853544 429.657274 264.495077 431.348971 252.675561 433.040668 234.365613 434.732366 225.282755 436.424063 237.677325 438.115760 253.790079 439.807457 257.626271 441.499155 256.575439 443.190852 276.781006 444.882549 311.986681 446.574247 326.988663 448.265944 323.055068 449.957641 332.465726 451.649338 328.756907 453.341036 329.150267 455.032733 318.218619 456.724430 305.108509 458.416127 305.696675 460.107825 308.710558 461.799522 309.699576 463.491219 307.215792 465.182917 314.009672 466.874614 323.021351 468.566311 293.633650 470.258008 277.483433 471.949706 276.335198 473.641403 284.071268 475.333100 291.681838 477.024797 295.963837 478.716495 294.540250 480.408192 322.672947 482.099889 317.654804 483.791587 302.326895 485.483284 248.292412 487.174981 220.461291 488.866678 213.843486 490.558376 191.345195 492.250073 185.899976 493.941770 198.777817 495.633467 212.708363 497.325165 263.927516 499.016862 292.994910 500.708559 288.632365 502.400257 275.979301 504.091954 254.651724 505.783651 235.126108 507.475348 226.668878 509.167046 205.376891 510.858743 205.092173 512.550440 209.407889 514.242138 245.450858 515.933835 281.731716 517.625532 297.314371 519.317229 295.042252 521.008927 262.254801 522.700624 236.502866 524.392321 232.187150 526.084018 211.502060 527.775716 153.530236 529.467413 143.010679 531.159110 147.982930 532.850808 191.166311 534.542505 203.098215 536.234202 177.374377 537.925899 167.738943 539.617597 209.697289 541.309294 212.188566 543.000991 188.044722 544.692688 155.178599 546.384386 112.707012 548.076083 135.375758 549.767780 172.913493 551.459478 175.811242 553.151175 176.721588 554.842872 196.631198 556.534569 213.506320 558.226267 276.361422 559.917964 306.567685 561.609661 290.278856 563.301358 305.104763 564.993056 314.120188 566.684753 296.823609 568.376450 260.679490 570.068148 265.109467 571.759845 248.923660 573.451542 157.932116 575.143239 84.909607 576.834937 32.122636 578.526634 9.182284 580.218331 50.977668 581.910028 32.596540 583.601726 42.040915 585.293423 131.998486 586.985120 166.188919 588.676818 188.610410 590.368515 221.665720 592.060212 249.397565 593.751909 270.294320 595.443607 271.230890 597.135304 290.222662 598.827001 330.317233 600.518699 364.192979 602.210396 376.068689" class="line reactive nofill"/></g><g class="series serie-3 color-3"><path d="M11.808047 394.766378 L13.499744 385.286414 15.191442 378.936468 16.883139 380.695346 18.574836 383.089220 20.266533 379.352305 21.958231 378.189084 23.649928 376.508877 25.341625 373.159702 27.033322 372.035818 28.725020 364.022523 30.416717 362.370413 32.108414 364.309114 33.800112 367.478467 35.491809 365.618439 37.183506 356.014848 38.875203 337.178547 40.566901 301.315399 42.258598 292.925603 43.950295 291.385882 45.641992 287.323040 47.333690 292.122026 49.025387 303.242861 50.717084 329.170871 52.408782 370.748971 54.100479 368.501202 55.792176 352.266693 57.483873 353.418675 59.175571 349.985208 60.867268 351.092234 62.558965 347.889164 64.250662 341.803331 65.942360 345.388522 67.634057 357.380367 69.325754 360.560960 71.017452 363.370670 72.709149 360.330563 74.400846 359.813576 76.092543 364.511413 77.784241 363.252662 79.475938 369.641945 81.167635 366.096090 82.859333 363.022266 84.551030 364.421502 86.242727 363.005408 87.934424 355.801310 89.626122 350.979846 91.317819 337.347130 93.009516 330.873556 94.701213 330.991564 96.392911 332.160404 98.084608 306.996635 99.776305 308.069944 101.468003 317.847737 103.159700 328.412250 104.851397 333.908044 106.543094 335.914177 108.234792 344.804102 109.926489 377.323694 111.618186 384.022044 113.309883 380.745921 115.001581 373.626114 116.693278 369.012569 118.384975 365.196982 120.076673 359.577561 121.768370 355.447286 123.460067 354.300924 125.151764 355.525958 126.843462 357.121874 128.535159 363.179610 130.226856 371.243480 131.918553 376.447064 133.610251 377.632762 135.301948 374.817432 136.993645 376.621266 138.685343 376.874140 140.377040 379.723187 142.068737 383.392669 143.760434 384.662658 145.452132 387.382458 147.143829 392.973782 148.835526 395.929598 150.527223 403.970990 152.218921 402.470604 153.910618 402.004192 155.602315 401.374817 157.294013 403.454003 158.985710 406.600879 160.677407 408.230511 162.369104 407.775338 164.060802 411.506634 165.752499 410.967170 167.444196 409.719658 169.135894 405.392704 170.827591 401.976095 172.519288 402.959494 174.210985 402.987591 175.902683 397.222065 177.594380 390.945171 179.286077 387.719623 180.977774 386.404679 182.669472 392.024100 184.361169 395.300223 186.052866 402.296402 187.744564 407.769719 189.436261 414.563599 191.127958 418.446620 192.819655 423.919936 194.511353 421.717123 196.203050 416.637166 197.894747 412.422600 199.586444 412.237159 201.278142 411.697694 202.969839 413.762832 204.661536 414.144952 206.353234 414.296677 208.044931 411.155420 209.736628 405.783253 211.428325 399.728327 213.120023 399.270344 214.811720 397.615424 216.503417 392.206731 218.195114 384.547460 219.886812 387.871348 221.578509 392.175824 223.270206 398.747738 224.961904 400.279030 226.653601 402.796531 228.345298 409.820808 230.036995 416.496680 231.728693 411.700504 233.420390 405.322461 235.112087 396.783750 236.803784 385.216171 238.495482 375.792401 240.187179 369.670042 241.878876 365.511670 243.570574 362.763773 245.262271 360.167600 246.953968 363.438103 248.645665 371.074897 250.337363 372.417939 252.029060 375.429949 253.720757 378.697642 255.412455 385.390373 257.104152 391.237381 258.795849 392.577613 260.487546 395.867784 262.179244 401.681076 263.870941 399.641226 265.562638 401.737270 267.254335 404.549790 268.946033 407.480319 270.637730 411.186327 272.329427 410.087730 274.021125 403.001640 275.712822 403.965371 277.404519 399.812618 279.096216 392.083104 280.787914 391.091276 282.479611 389.756663 284.171308 393.499198 285.863005 402.228969 287.554703 401.135992 289.246400 399.141097 290.938097 399.936245 292.629795 387.441462 294.321492 237.296141 296.013189 231.887448 297.704886 225.812853 299.396584 221.117827 301.088281 212.469537 302.779978 207.687410 304.471675 214.846552 306.163373 359.021238 307.855070 355.492241 309.546767 358.220470 311.238465 363.570160 312.930162 372.139777 314.621859 375.331609 316.313556 375.415900 318.005254 375.073115 319.696951 377.048342 321.388648 372.682052 323.080345 367.146921 324.772043 367.396986 326.463740 369.316018 328.155437 368.880513 329.847135 367.897114 331.538832 369.827385 333.230529 373.221516 334.922226 377.466989 336.613924 378.784743 338.305621 379.703519 339.997318 382.069295 341.689016 386.219238 343.380713 381.052180 345.072410 374.882055 346.764107 372.089203 348.455805 371.926239 350.147502 368.622020 351.839199 363.735933 353.530896 361.940527 355.222594 362.426607 356.914291 362.572712 358.605988 359.246015 360.297686 355.601820 361.989383 362.013580 363.681080 367.748199 365.372777 369.877960 367.064475 372.614618 368.756172 375.522669 370.447869 378.495343 372.139566 375.188313 373.831264 361.269007 375.522961 356.512166 377.214658 350.974227 378.906356 350.283038 380.598053 352.263884 382.289750 355.295562 383.981447 358.372195 385.673145 367.728532 387.364842 368.265186 389.056539 374.002616 390.748236 375.960984 392.439934 375.722158 394.131631 369.661612 395.823328 371.083326 397.515026 371.948717 399.206723 374.345400 400.898420 381.476446 402.590117 387.477988 404.281815 394.106096 405.973512 402.448127 407.665209 405.766395 409.356906 406.637405 411.048604 406.229997 412.740301 400.973029 414.431998 395.496902 416.123696 394.212865 417.815393 393.746453 419.507090 393.988088 421.198787 396.991669 422.890485 400.953361 424.582182 398.652208 426.273879 393.673400 427.965577 387.525753 429.657274 378.464436 431.348971 365.014351 433.040668 354.410503 434.732366 349.768861 436.424063 356.759421 438.115760 364.491745 439.807457 369.931345 441.499155 376.331866 443.190852 388.340569 444.882549 392.361265 446.574247 399.919387 448.265944 399.396781 449.957641 396.685410 451.649338 393.001879 453.341036 390.933932 455.032733 387.801105 456.724430 395.165357 458.416127 394.460119 460.107825 393.723975 461.799522 397.106867 463.491219 393.313757 465.182917 393.282850 466.874614 393.117077 468.566311 382.903779 470.258008 378.503772 471.949706 380.091259 473.641403 383.609016 475.333100 391.316053 477.024797 399.857573 478.716495 407.390408 480.408192 416.226948 482.099889 415.445849 483.791587 408.812122 485.483284 397.115296 487.174981 390.532144 488.866678 350.125694 490.558376 312.543003 492.250073 305.358573 493.941770 308.387441 495.633467 310.584635 497.325165 318.623217 499.016862 320.477627 500.708559 349.077672 502.400257 374.204915 504.091954 369.835815 505.783651 361.210003 507.475348 354.090196 509.167046 344.053909 510.858743 342.722106 512.550440 353.227615 514.242138 362.120349 515.933835 372.653954 517.625532 371.288435 519.317229 378.869034 521.008927 380.872358 522.700624 380.251412 524.392321 374.365068 526.084018 369.759952 527.775716 359.791099 529.467413 367.222784 531.159110 361.401063 532.850808 362.412559 534.542505 360.664919 536.234202 354.317782 537.925899 348.709600 539.617597 353.561970 541.309294 348.400532 543.000991 343.469489 544.692688 336.630653 546.384386 331.500122 548.076083 337.942788 549.767780 346.973199 551.459478 353.497347 553.151175 360.729542 554.842872 372.226878 556.534569 383.625875 558.226267 398.750547 559.917964 407.792197 561.609661 411.576877 563.301358 416.097701 564.993056 418.432571 566.684753 416.901279 568.376450 415.142400 570.068148 416.912517 571.759845 411.908423 573.451542 394.550030 575.143239 380.049113 576.834937 370.569149 578.526634 362.392891 580.218331 360.754830 581.910028 352.668482 583.601726 353.972188 585.293423 368.312951 586.985120 373.477200 588.676818 374.297635 590.368515 380.872358 592.060212 391.172758 593.751909 399.458595 595.443607 402.195253 597.135304 403.465242 598.827001 410.582239 600.518699 419.008562 602.210396 422.871914" class="line reactive nofill"/></g><g class="series serie-4 color-4"><path d="M11.808047 466.835457 L13.499744 465.616043 15.191442 464.958571 16.883139 464.981048 18.574836 465.273258 20.266533 465.436221 21.958231 465.492416 23.649928 465.318214 25.341625 465.284497 27.033322 464.913615 28.725020 464.818085 30.416717 464.750652 32.108414 464.801227 33.800112 464.868660 35.491809 465.335072 37.183506 466.565725 38.875203 467.324347 40.566901 466.762405 42.258598 466.829838 43.950295 466.801741 45.641992 466.026261 47.333690 465.492416 49.025387 464.391009 50.717084 464.143755 52.408782 464.548353 54.100479 463.593051 55.792176 463.548096 57.483873 464.228046 59.175571 464.492159 60.867268 465.099056 62.558965 465.453080 64.250662 465.689095 65.942360 466.430859 67.634057 466.284754 69.325754 466.380284 71.017452 466.554486 72.709149 466.582583 74.400846 466.700591 76.092543 466.863554 77.784241 466.773644 79.475938 466.723069 81.167635 466.307232 82.859333 465.958828 84.551030 465.509274 86.242727 465.138392 87.934424 464.598928 89.626122 464.267382 91.317819 464.267382 93.009516 464.683219 94.701213 465.127153 96.392911 466.015022 98.084608 466.430859 99.776305 466.970323 101.468003 462.913101 103.159700 463.205311 104.851397 462.913101 106.543094 462.716421 108.234792 462.671466 109.926489 462.648988 111.618186 462.530981 113.309883 466.537628 115.001581 466.397143 116.693278 466.273515 118.384975 465.784626 120.076673 465.587946 121.768370 465.537371 123.460067 465.655379 125.151764 466.340948 126.843462 466.481434 128.535159 466.846696 130.226856 467.352444 131.918553 467.105190 133.610251 466.548867 135.301948 465.964447 136.993645 465.402505 138.685343 464.840563 140.377040 464.329195 142.068737 463.924597 143.760434 463.688581 145.452132 463.587432 147.143829 463.340177 148.835526 463.317700 150.527223 463.317700 152.218921 463.385133 153.910618 463.733537 155.602315 464.368531 157.294013 464.930474 158.985710 465.548610 160.677407 466.054358 162.369104 466.616300 164.060802 466.987182 165.752499 467.223197 167.444196 467.200720 169.135894 467.369302 170.827591 467.582840 172.519288 467.661512 174.210985 467.661512 175.902683 467.785140 177.594380 467.785140 179.286077 467.948103 180.977774 467.948103 182.669472 467.948103 184.361169 467.948103 186.052866 467.948103 187.744564 467.920006 189.436261 467.920006 191.127958 467.869431 192.819655 467.796378 194.511353 467.751423 196.203050 467.751423 197.894747 467.751423 199.586444 467.779520 201.278142 467.728945 202.969839 467.779520 204.661536 467.852573 206.353234 467.897528 208.044931 467.504169 209.736628 467.436735 211.428325 467.077093 213.120023 466.801741 214.811720 466.357807 216.503417 466.239799 218.195114 466.043119 219.886812 466.088074 221.578509 465.689095 223.270206 466.026261 224.961904 466.352187 226.653601 466.796121 228.345298 466.914129 230.036995 467.110809 231.728693 467.341205 233.420390 467.639035 235.112087 467.245675 236.803784 466.790502 238.495482 466.532009 240.187179 466.414001 241.878876 466.318471 243.570574 466.043119 245.262271 465.767767 246.953968 466.043119 248.645665 466.335329 250.337363 466.312851 252.029060 466.430859 253.720757 466.458956 255.412455 466.807360 257.104152 467.048995 258.795849 466.947846 260.487546 467.088331 262.179244 467.369302 263.870941 467.369302 265.562638 467.436735 267.254335 467.481691 268.946033 467.683990 270.637730 467.925625 272.329427 467.948103 274.021125 467.948103 275.712822 467.948103 277.404519 467.948103 279.096216 467.644654 280.787914 467.481691 282.479611 467.335586 284.171308 467.335586 285.863005 467.335586 287.554703 467.335586 289.246400 467.335586 290.938097 467.639035 292.629795 467.801998 294.321492 467.948103 296.013189 467.948103 297.704886 467.948103 299.396584 467.948103 301.088281 467.948103 302.779978 467.948103 304.471675 467.948103 306.163373 467.824476 307.855070 467.824476 309.546767 467.824476 311.238465 467.504169 312.930162 467.459213 314.621859 467.133287 316.313556 467.133287 318.005254 467.211959 319.696951 467.048995 321.388648 467.048995 323.080345 467.369302 324.772043 467.318728 326.463740 467.622176 328.155437 467.622176 329.847135 467.667132 331.538832 467.830095 333.230529 467.830095 334.922226 467.830095 336.613924 467.925625 338.305621 467.948103 339.997318 467.948103 341.689016 467.948103 343.380713 467.948103 345.072410 467.948103 346.764107 467.948103 348.455805 467.948103 350.147502 467.948103 351.839199 467.948103 353.530896 467.948103 355.222594 467.948103 356.914291 467.948103 358.605988 467.948103 360.297686 467.948103 361.989383 467.948103 363.681080 467.948103 365.372777 467.948103 367.064475 467.948103 368.756172 467.852573 370.447869 467.773901 372.139566 467.773901 373.831264 467.728945 375.522961 467.582840 377.214658 467.560363 378.906356 467.560363 380.598053 467.605318 382.289750 467.661512 383.981447 467.594079 385.673145 467.543504 387.364842 467.689609 389.056539 467.431116 390.748236 467.313108 392.439934 467.363683 394.131631 467.313108 395.823328 467.144526 397.515026 467.060234 399.206723 467.060234 400.898420 467.341205 402.590117 467.459213 404.281815 467.459213 405.973512 467.532266 407.665209 467.768281 409.356906 467.948103 411.048604 467.948103 412.740301 467.948103 414.431998 467.948103 416.123696 467.948103 417.815393 467.948103 419.507090 467.948103 421.198787 467.948103 422.890485 467.734565 424.582182 468.296507 426.273879 468.296507 427.965577 468.296507 429.657274 467.931245 431.348971 467.908767 433.040668 467.886289 434.732366 468.049252 436.424063 467.487310 438.115760 467.487310 439.807457 467.487310 441.499155 467.852573 443.190852 467.875050 444.882549 467.897528 446.574247 467.948103 448.265944 467.948103 449.957641 467.897528 451.649338 467.852573 453.341036 467.689609 455.032733 467.689609 456.724430 467.689609 458.416127 467.689609 460.107825 467.689609 461.799522 467.740184 463.491219 467.667132 465.182917 467.779520 466.874614 467.779520 468.566311 467.582840 470.258008 467.582840 471.949706 467.582840 473.641403 467.582840 475.333100 467.700848 477.024797 467.751423 478.716495 467.751423 480.408192 467.925625 482.099889 467.852573 483.791587 467.830095 485.483284 467.313108 487.174981 466.919749 488.866678 466.919749 490.558376 466.919749 492.250073 466.942226 493.941770 467.015279 495.633467 467.037757 497.325165 467.554743 499.016862 467.925625 500.708559 467.830095 502.400257 467.436735 504.091954 467.251295 505.783651 467.110809 507.475348 467.037757 509.167046 466.942226 510.858743 466.869174 512.550440 466.891652 514.242138 467.234436 515.933835 467.419877 517.625532 467.509788 519.317229 467.487310 521.008927 467.020898 522.700624 466.970323 524.392321 466.992801 526.084018 466.970323 527.775716 466.503912 529.467413 466.200463 531.159110 465.172109 532.850808 464.919235 534.542505 464.110038 536.234202 463.036729 537.925899 462.109524 539.617597 462.013994 541.309294 461.783598 543.000991 462.272487 544.692688 462.328681 546.384386 462.087046 548.076083 462.918721 549.767780 463.918978 551.459478 464.239285 553.151175 464.823705 554.842872 465.138392 556.534569 465.014765 558.226267 465.846439 559.917964 465.919492 561.609661 465.627282 563.301358 465.868917 564.993056 465.868917 566.684753 465.947589 568.376450 466.391523 570.068148 466.756785 571.759845 466.975943 573.451542 466.363426 575.143239 465.801484 576.834937 465.531752 578.526634 465.554229 580.218331 465.880156 581.910028 465.829581 583.601726 465.829581 585.293423 466.661255 586.985120 466.953465 588.676818 467.037757 590.368515 467.133287 592.060212 467.223197 593.751909 467.273772 595.443607 467.273772 597.135304 467.346825 598.827001 467.616557 600.518699 467.751423 602.210396 467.875050" class="line reactive nofill"/></g></g><g class="titles"><text x="400.0" y="26" class="title plot_title">Barcelona Air Quality - 2020 Overview</text><text x="436.60922137642274" y="580.0" class="title">Average over 7 days</text><text x="55.6" y="310.7393957002299" class="title" transform="rotate(-90 55.600000 284.739396)">micrograms per cubic meter air µg/m³</text></g><g transform="translate(129, 46)" class="plot overlay"><g class="series serie-0 color-0"/><g class="series serie-1 color-1"/><g class="series serie-2 color-2"/><g class="series serie-3 color-3"/><g class="series serie-4 color-4"/></g><g transform="translate(129, 46)" class="plot text-overlay"><g class="series serie-0 color-0"/><g class="series serie-1 color-1"/><g class="series serie-2 color-2"/><g class="series serie-3 color-3"/><g class="series serie-4 color-4"/></g><g transform="translate(129, 46)" class="plot tooltip-overlay"><g transform="translate(0 0)" style="opacity: 0" class="tooltip"><rect rx="0" ry="0" width="0" height="0" class="tooltip-box"/><g class="text"/></g></g><g transform="translate(10, 56)" class="legends"><g id="activate-serie-0" class="legend reactive activate-serie"><rect x="0.0" y="1.0" width="12" height="12" class="color-0 reactive"/><text x="17.0" y="11.2">NO</text></g><g id="activate-serie-1" class="legend reactive activate-serie"><rect x="0.0" y="22.0" width="12" height="12" class="color-1 reactive"/><text x="17.0" y="32.2">NO2</text></g><g id="activate-serie-2" class="legend reactive activate-serie"><rect x="0.0" y="43.0" width="12" height="12" class="color-2 reactive"/><text x="17.0" y="53.2">NOx</text></g><g id="activate-serie-3" class="legend reactive activate-serie"><rect x="0.0" y="64.0" width="12" height="12" class="color-3 reactive"/><text x="17.0" y="74.2">PM10</text></g><g id="activate-serie-4" class="legend reactive activate-serie"><rect x="0.0" y="85.0" width="12" height="12" class="color-4 reactive"/><text x="17.0" y="95.2">SO2</text></g></g><g transform="translate(753, 56)" class="legends"/></g></svg>