<?xml version='1.0' encoding='utf-8'?>
<svg xmlns="http://www.w3.org/2000/svg" xmlns:xlink="http://www.w3.org/1999/xlink" id="chart-c8754539-938a-4aff-b483-e6f6aa291002" class="pygal-chart" viewBox="0 0 800 600"><!--Generated with pygal 2.4.0 (lxml) ©Kozea 2012-2016 on 2020-06-12--><!--http://pygal.org--><!--http://github.com/Kozea/pygal--><defs><style type="text/css">#chart-c8754539-938a-4aff-b483-e6f6aa291002{-webkit-user-select:none;-webkit-font-smoothing:antialiased;font-family:Consolas,"Liberation Mono",Menlo,Courier,monospace}#chart-c8754539-938a-4aff-b483-e6f6aa291002 .title{font-family:Consolas,"Liberation Mono",Menlo,Courier,monospace;font-size:16px}#chart-c8754539-938a-4aff-b483-e6f6aa291002 .legends .legend text{font-family:Consolas,"Liberation Mono",Menlo,Courier,monospace;font-size:14px}#chart-c8754539-938a-4aff-b483-e6f6aa291002 .axis text{font-family:Consolas,"Liberation Mono",Menlo,Courier,monospace;font-size:10px}#chart-c8754539-938a-4aff-b483-e6f6aa291002 .axis text.major{font-family:Consolas,"Liberation Mono",Menlo,Courier,monospace;font-size:10px}#chart-c8754539-938a-4aff-b483-e6f6aa291002 .text-overlay text.value{font-family:Consolas,"Liberation Mono",Menlo,Courier,monospace;font-size:16px}#chart-c8754539-938a-4aff-b483-e6f6aa291002 .text-overlay text.label{font-family:Consolas,"Liberation Mono",Menlo,Courier,monospace;font-size:10px}#chart-c8754539-938a-4aff-b483-e6f6aa291002 .tooltip{font-family:Consolas,"Liberation Mono",Menlo,Courier,monospace;font-size:14px}#chart-c8754539-938a-4aff-b483-e6f6aa291002 text.no_data{font-family:Consolas,"Liberation Mono",Menlo,Courier,monospace;font-size:64px}
#chart-c8754539-938a-4aff-b483-e6f6aa291002{background-color:#fdf6e3}#chart-c8754539-938a-4aff-b483-e6f6aa291002 path,#chart-c8754539-938a-4aff-b483-e6f6aa291002 line,#chart-c8754539-938a-4aff-b483-e6f6aa291002 rect,#chart-c8754539-938a-4aff-b483-e6f6aa291002 circle{-webkit-transition:500ms ease-in;-moz-transition:500ms ease-in;transition:500ms ease-in}#chart-c8754539-938a-4aff-b483-e6f6aa291002 .graph &gt; .background{fill:#fdf6e3}#chart-c8754539-938a-4aff-b483-e6f6aa291002 .plot &gt; .background{fill:#eee8d5}#chart-c8754539-938a-4aff-b483-e6f6aa291002 .graph{fill:#657b83}#chart-c8754539-938a-4aff-b483-e6f6aa291002 text.no_data{fill:#073642}#chart-c8754539-938a-4aff-b483-e6f6aa291002 .title{fill:#073642}#chart-c8754539-938a-4aff-b483-e6f6aa291002 .legends .legend text{fill:#657b83}#chart-c8754539-938a-4aff-b483-e6f6aa291002 .legends .legend:hover text{fill:#073642}#chart-c8754539-938a-4aff-b483-e6f6aa291002 .axis .line{stroke:#073642}#chart-c8754539-938a-4aff-b483-e6f6aa291002 .axis .guide.line{stroke:#073642}#chart-c8754539-938a-4aff-b483-e6f6aa291002 .axis .major.line{stroke:#657b83}#chart-c8754539-938a-4aff-b483-e6f6aa291002 .axis text.major{fill:#073642}#chart-c8754539-938a-4aff-b483-e6f6aa291002 .axis.y .guides:hover .guide.line,#chart-c8754539-938a-4aff-b483-e6f6aa291002 .line-graph .axis.x .guides:hover .guide.line,#chart-c8754539-938a-4aff-b483-e6f6aa291002 .stackedline-graph .axis.x .guides:hover .guide.line,#chart-c8754539-938a-4aff-b483-e6f6aa291002 .xy-graph .axis.x .guides:hover .guide.line{stroke:#073642}#chart-c8754539-938a-4aff-b483-e6f6aa291002 .axis .guides:hover text{fill:#073642}#chart-c8754539-938a-4aff-b483-e6f6aa291002 .reactive{fill-opacity:.66;stroke-opacity:.8}#chart-c8754539-938a-4aff-b483-e6f6aa291002 .ci{stroke:#657b83}#chart-c8754539-938a-4aff-b483-e6f6aa291002 .reactive.active,#chart-c8754539-938a-4aff-b483-e6f6aa291002 .active .reactive{fill-opacity:.9;stroke-opacity:.9;stroke-width:4}#chart-c8754539-938a-4aff-b483-e6f6aa291002 .ci .reactive.active{stroke-width:1.5}#chart-c8754539-938a-4aff-b483-e6f6aa291002 .series text{fill:#073642}#chart-c8754539-938a-4aff-b483-e6f6aa291002 .tooltip rect{fill:#eee8d5;stroke:#073642;-webkit-transition:opacity 500ms ease-in;-moz-transition:opacity 500ms ease-in;transition:opacity 500ms ease-in}#chart-c8754539-938a-4aff-b483-e6f6aa291002 .tooltip .label{fill:#657b83}#chart-c8754539-938a-4aff-b483-e6f6aa291002 .tooltip .label{fill:#657b83}#chart-c8754539-938a-4aff-b483-e6f6aa291002 .tooltip .legend{font-size:.8em;fill:#073642}#chart-c8754539-938a-4aff-b483-e6f6aa291002 .tooltip .x_label{font-size:.6em;fill:#073642}#chart-c8754539-938a-4aff-b483-e6f6aa291002 .tooltip .xlink{font-size:.5em;text-decoration:underline}#chart-c8754539-938a-4aff-b483-e6f6aa291002 .tooltip .value{font-size:1.5em}#chart-c8754539-938a-4aff-b483-e6f6aa291002 .bound{font-size:.5em}#chart-c8754539-938a-4aff-b483-e6f6aa291002 .max-value{font-size:.75em;fill:#073642}#chart-c8754539-938a-4aff-b483-e6f6aa291002 .map-element{fill:#eee8d5;stroke:#073642 !important}#chart-c8754539-938a-4aff-b483-e6f6aa291002 .map-element .reactive{fill-opacity:inherit;stroke-opacity:inherit}#chart-c8754539-938a-4aff-b483-e6f6aa291002 .color-0,#chart-c8754539-938a-4aff-b483-e6f6aa291002 .color-0 a:visited{stroke:#e86258;fill:#e86258}#chart-c8754539-938a-4aff-b483-e6f6aa291002 .color-1,#chart-c8754539-938a-4aff-b483-e6f6aa291002 .color-1 a:visited{stroke:#ffec12;fill:#ffec12}#chart-c8754539-938a-4aff-b483-e6f6aa291002 .color-2,#chart-c8754539-938a-4aff-b483-e6f6aa291002 .color-2 a:visited{stroke:#14e35d;fill:#14e35d}#chart-c8754539-938a-4aff-b483-e6f6aa291002 .color-3,#chart-c8754539-938a-4aff-b483-e6f6aa291002 .color-3 a:visited{stroke:#53f5ed;fill:#53f5ed}#chart-c8754539-938a-4aff-b483-e6f6aa291002 .color-4,#chart-c8754539-938a-4aff-b483-e6f6aa291002 .color-4 a:visited{stroke:#b753f5;fill:#b753f5}#chart-c8754539-938a-4aff-b483-e6f6aa291002 .text-overlay .color-0 text{fill:black}#chart-c8754539-938a-4aff-b483-e6f6aa291002 .text-overlay .color-1 text{fill:black}#chart-c8754539-938a-4aff-b483-e6f6aa291002 .text-overlay .color-2 text{fill:black}#chart-c8754539-938a-4aff-b483-e6f6aa291002 .text-overlay .color-3 text{fill:black}#chart-c8754539-938a-4aff-b483-e6f6aa291002 .text-overlay .color-4 text{fill:black}
#chart-c8754539-938a-4aff-b483-e6f6aa291002 text.no_data{text-anchor:middle}#chart-c8754539-938a-4aff-b483-e6f6aa291002 .guide.line{fill:none}#chart-c8754539-938a-4aff-b483-e6f6aa291002 .centered{text-anchor:middle}#chart-c8754539-938a-4aff-b483-e6f6aa291002 .title{text-anchor:middle}#chart-c8754539-938a-4aff-b483-e6f6aa291002 .legends .legend text{fill-opacity:1}#chart-c8754539-938a-4aff-b483-e6f6aa291002 .axis.x text{text-anchor:middle}#chart-c8754539-938a-4aff-b483-e6f6aa291002 .axis.x:not(.web) text[transform]{text-anchor:start}#chart-c8754539-938a-4aff-b483-e6f6aa291002 .axis.x:not(.web) text[transform].backwards{text-anchor:end}#chart-c8754539-938a-4aff-b483-e6f6aa291002 .axis.y text{text-anchor:end}#chart-c8754539-938a-4aff-b483-e6f6aa291002 .axis.y text[transform].backwards{text-anchor:start}#chart-c8754539-938a-4aff-b483-e6f6aa291002 .axis.y2 text{text-anchor:start}#chart-c8754539-938a-4aff-b483-e6f6aa291002 .axis.y2 text[transform].backwards{text-anchor:end}#chart-c8754539-938a-4aff-b483-e6f6aa291002 .axis .guide.line{stroke-dasharray:4,4}#chart-c8754539-938a-4aff-b483-e6f6aa291002 .axis .major.guide.line{stroke-dasharray:6,6}#chart-c8754539-938a-4aff-b483-e6f6aa291002 .horizontal .axis.y .guide.line,#chart-c8754539-938a-4aff-b483-e6f6aa291002 .horizontal .axis.y2 .guide.line,#chart-c8754539-938a-4aff-b483-e6f6aa291002 .vertical .axis.x .guide.line{opacity:0}#chart-c8754539-938a-4aff-b483-e6f6aa291002 .horizontal .axis.always_show .guide.line,#chart-c8754539-938a-4aff-b483-e6f6aa291002 .vertical .axis.always_show .guide.line{opacity:1 !important}#chart-c8754539-938a-4aff-b483-e6f6aa291002 .axis.y .guides:hover .guide.line,#chart-c8754539-938a-4aff-b483-e6f6aa291002 .axis.y2 .guides:hover .guide.line,#chart-c8754539-938a-4aff-b483-e6f6aa291002 .axis.x .guides:hover .guide.line{opacity:1}#chart-c8754539-938a-4aff-b483-e6f6aa291002 .axis .guides:hover text{opacity:1}#chart-c8754539-938a-4aff-b483-e6f6aa291002 .nofill{fill:none}#chart-c8754539-938a-4aff-b483-e6f6aa291002 .subtle-fill{fill-opacity:.2}#chart-c8754539-938a-4aff-b483-e6f6aa291002 .dot{stroke-width:1px;fill-opacity:1}#chart-c8754539-938a-4aff-b483-e6f6aa291002 .dot.active{stroke-width:5px}#chart-c8754539-938a-4aff-b483-e6f6aa291002 .dot.negative{fill:transparent}#chart-c8754539-938a-4aff-b483-e6f6aa291002 text,#chart-c8754539-938a-4aff-b483-e6f6aa291002 tspan{stroke:none !important}#chart-c8754539-938a-4aff-b483-e6f6aa291002 .series text.active{opacity:1}#chart-c8754539-938a-4aff-b483-e6f6aa291002 .tooltip rect{fill-opacity:.95;stroke-width:.5}#chart-c8754539-938a-4aff-b483-e6f6aa291002 .tooltip text{fill-opacity:1}#chart-c8754539-938a-4aff-b483-e6f6aa291002 .showable{visibility:hidden}#chart-c8754539-938a-4aff-b483-e6f6aa291002 .showable.shown{visibility:visible}#chart-c8754539-938a-4aff-b483-e6f6aa291002 .gauge-background{fill:rgba(229,229,229,1);stroke:none}#chart-c8754539-938a-4aff-b483-e6f6aa291002 .bg-lines{stroke:#fdf6e3;stroke-width:2px}</style><script type="text/javascript">window.pygal = window.pygal || {};window.pygal.config = window.pygal.config || {};window.pygal.config['c8754539-938a-4aff-b483-e6f6aa291002'] = {"allow_interruptions": false, "box_mode": "extremes", "classes": ["pygal-chart"], "css": ["file://style.css", "file://graph.css"], "defs": [], "disable_xml_declaration": false, "dots_size": 2.5, "dynamic_print_values": false, "explicit_size": false, "fill": false, "force_uri_protocol": "https", "formatter": null, "half_pie": false, "height": 600, "include_x_axis": false, "inner_radius": 0, "interpolate": null, "interpolation_parameters": {}, "interpolation_precision": 250, "inverse_y_axis": false, "js": ["//kozea.github.io/pygal.js/2.0.x/pygal-tooltips.min.js"], "legend_at_bottom": false, "legend_at_bottom_columns": null, "legend_box_size": 12, "logarithmic": false, "margin": 20, "margin_bottom": null, "margin_left": null, "margin_right": null, "margin_top": null, "max_scale": 16, "min_scale": 4, "missing_value_fill_truncation": "x", "no_data_text": "No data", "no_prefix": false, "order_min": null, "pretty_print": false, "print_labels": false, "print_values": false, "print_values_position": "center", "print_zeroes": true, "range": null, "rounded_bars": null, "secondary_range": null, "show_dots": false, "show_legend": true, "show_minor_x_labels": false, "show_minor_y_labels": true, "show_only_major_dots": false, "show_x_guides": false, "show_x_labels": true, "show_y_guides": true, "show_y_labels": true, "spacing": 10, "stack_from_top": false, "strict": false, "stroke": true, "stroke_style": null, "style": {"background": "#fdf6e3", "ci_colors": [], "colors": ["#e86258", "#ffec12", "#14e35d", "#53f5ed", "#b753f5"], "font_family": "Consolas, \"Liberation Mono\", Menlo, Courier, monospace", "foreground": "#657b83", "foreground_strong": "#073642", "foreground_subtle": "#073642", "guide_stroke_dasharray": "4,4", "label_font_family": "Consolas, \"Liberation Mono\", Menlo, Courier, monospace", "label_font_size": 10, "legend_font_family": "Consolas, \"Liberation Mono\", Menlo, Courier, monospace", "legend_font_size": 14, "major_guide_stroke_dasharray": "6,6", "major_label_font_family": "Consolas, \"Liberation Mono\", Menlo, Courier, monospace", "major_label_font_size": 10, "no_data_font_family": "Consolas, \"Liberation Mono\", Menlo, Courier, monospace", "no_data_font_size": 64, "opacity": ".66", "opacity_hover": ".9", "plot_background": "#eee8d5", "stroke_opacity": ".8", "stroke_opacity_hover": ".9", "title_font_family": "Consolas, \"Liberation Mono\", Menlo, Courier, monospace", "title_font_size": 16, "tooltip_font_family": "Consolas, \"Liberation Mono\", Menlo, Courier, monospace", "tooltip_font_size": 14, "transition": "500ms ease-in", "value_background": "rgba(229, 229, 229, 1)", "value_colors": [], "value_font_family": "Consolas, \"Liberation Mono\", Menlo, Courier, monospace", "value_font_size": 16, "value_label_font_family": "Consolas, \"Liberation Mono\", Menlo, Courier, monospace", "value_label_font_size": 10}, "title": "Barcelona Air Quality - 2020 Overview", "tooltip_border_radius": 0, "tooltip_fancy_mode": true, "truncate_label": null, "truncate_legend": null, "width": 800, "x_label_rotation": 20, "x_labels": ["2020-01-07", "2020-01-08", "2020-01-09", "2020-01-10", "2020-01-11", "2020-01-12", "2020-01-13", "2020-01-14", "2020-01-15", "2020-01-16", "2020-01-17", "2020-01-18", "2020-01-19", "2020-01-20", "2020-01-21", "2020-01-22", "2020-01-23", "2020-01-24", "2020-01-27", "2020-01-28", "2020-01-29", "2020-01-30", "2020-01-31", "2020-02-01", "2020-02-02", "2020-02-03", "2020-02-04", "2020-02-05", "2020-02-06", "2020-02-07", "2020-02-08", "2020-02-09", "2020-02-10", "2020-02-11", "2020-02-12", "2020-02-13", "2020-02-14", "2020-02-15", "2020-02-16", "2020-02-17", "2020-02-18", "2020-02-19", "2020-02-20", "2020-02-21", "2020-02-22", "2020-02-23", "2020-02-24", "2020-02-25", "2020-02-26", "2020-02-27", "2020-02-28", "2020-02-29", "2020-03-01", "2020-03-02", "2020-03-03", "2020-03-04", "2020-03-05", "2020-03-06", "2020-03-07", "2020-03-08", "2020-03-09", "2020-03-10", "2020-03-11", "2020-03-12", "2020-03-13", "2020-03-14", "2020-03-15", "2020-03-16", "2020-03-17", "2020-03-18", "2020-03-19", "2020-03-20", "2020-03-21", "2020-03-22", "2020-03-23", "2020-03-24", "2020-03-25", "2020-03-26", "2020-03-27", "2020-03-28", "2020-03-29", "2020-03-30", "2020-03-31", "2020-04-01", "2020-04-02", "2020-04-03", "2020-04-04", "2020-04-05", "2020-04-06", "2020-04-07", "2020-04-08", "2020-04-09", "2020-04-10", "2020-04-11", "2020-04-12", "2020-04-13", "2020-04-14", "2020-04-15", "2020-04-16", "2020-04-17", "2020-04-18", "2020-04-19", "2020-04-20", "2020-04-21", "2020-04-22", "2020-04-23", "2020-04-24", "2020-04-25", "2020-04-26", "2020-04-27", "2020-04-28", "2020-04-29", "2020-04-30", "2020-05-01", "2020-05-02", "2020-05-03", "2020-05-04", "2020-05-05", "2020-05-06", "2020-05-07", "2020-05-08", "2020-05-09", "2020-05-10", "2020-05-11", "2020-05-12", "2020-05-13", "2020-05-14", "2020-05-15", "2020-05-16", "2020-05-17", "2020-05-18", "2020-05-19", "2020-05-20", "2020-05-21", "2020-05-22", "2020-05-23", "2020-05-24", "2020-05-25", "2020-05-26", "2020-05-27", "2020-05-28", "2020-05-29", "2020-05-30", "2020-05-31"], "x_labels_major": ["2020-01-07", "2020-01-14", "2020-01-21", "2020-01-30", "2020-02-06", "2020-02-13", "2020-02-20", "2020-02-27", "2020-03-05", "2020-03-12", "2020-03-19", "2020-03-26", "2020-04-02", "2020-04-09", "2020-04-16", "2020-04-23", "2020-04-30", "2020-05-07", "2020-05-14", "2020-05-21", "2020-05-28"], "x_labels_major_count": null, "x_labels_major_every": null, "x_title": "Average over 7 days", "xrange": null, "y_label_rotation": 0, "y_labels": null, "y_labels_major": null, "y_labels_major_count": null, "y_labels_major_every": null, "y_title": "micrograms per cubic meter air \u00b5g/m\u00b3", "zero": 0, "legends": ["NO", "NO2", "NOx", "PM10", "SO2"]}</script><script type="text/javascript" xlink:href="https://kozea.github.io/pygal.js/2.0.x/pygal-tooltips.min.js"/></defs><title>Barcelona Air Quality - 2020 Overview</title><g class="graph line-graph vertical"><rect x="0" y="0" width="800" height="600" class="background"/><g transform="translate(129, 46)" class="plot"><rect x="0" y="0" width="614.0184427528454" height="477.47879140045984" class="background"/><g class="axis y always_show"><path d="M0.000000 477.478791 h614.018443" class="line"/><g class="guides"><path d="M0.000000 429.943897 h614.018443" class="guide line"/><text x="-5" y="433.44389708718785" class="">10</text><title>10</title></g><g class="guides"><path d="M0.000000 387.329886 h614.018443" class="guide line"/><text x="-5" y="390.8298861280066" class="">20</text><title>20</title></g><g class="guides"><path d="M0.000000 344.715875 h614.018443" class="guide line"/><text x="-5" y="348.21587516882533" class="">30</text><title>30</title></g><g class="guides"><path d="M0.000000 302.101864 h614.018443" class="guide line"/><text x="-5" y="305.6018642096441" class="">40</text><title>40</title></g><g class="guides"><path d="M0.000000 259.487853 h614.018443" class="major guide line"/><text x="-5" y="262.98785325046276" class="major">50</text><title>50</title></g><g class="guides"><path d="M0.000000 216.873842 h614.018443" class="guide line"/><text x="-5" y="220.3738422912815" class="">60</text><title>60</title></g><g class="guides"><path d="M0.000000 174.259831 h614.018443" class="guide line"/><text x="-5" y="177.7598313321003" class="">70</text><title>70</title></g><g class="guides"><path d="M0.000000 131.645820 h614.018443" class="guide line"/><text x="-5" y="135.14582037291905" class="">80</text><title>80</title></g><g class="guides"><path d="M0.000000 89.031809 h614.018443" class="guide line"/><text x="-5" y="92.53180941373779" class="">90</text><title>90</title></g><g class="guides"><path d="M0.000000 46.417798 h614.018443" class="major guide line"/><text x="-5" y="49.917798454556475" class="major">100</text><title>100</title></g></g><g class="axis x"><g class="guides"><path d="M11.808047 0.000000 v477.478791" class="major line"/><text x="11.808046976016257" y="492.47879140045984" class="major" transform="rotate(20 11.808047 492.478791)">2020-01-07</text></g><g class="guides"><path d="M40.708861 0.000000 v477.478791" class="major guide line"/><text x="40.708861252979126" y="492.47879140045984" class="major" transform="rotate(20 40.708861 492.478791)">2020-01-14</text></g><g class="guides"><path d="M69.609676 0.000000 v477.478791" class="major guide line"/><text x="69.609675529942" y="492.47879140045984" class="major" transform="rotate(20 69.609676 492.478791)">2020-01-21</text></g><g class="guides"><path d="M98.510490 0.000000 v477.478791" class="major guide line"/><text x="98.51048980690486" y="492.47879140045984" class="major" transform="rotate(20 98.510490 492.478791)">2020-01-30</text></g><g class="guides"><path d="M127.411304 0.000000 v477.478791" class="major guide line"/><text x="127.41130408386772" y="492.47879140045984" class="major" transform="rotate(20 127.411304 492.478791)">2020-02-06</text></g><g class="guides"><path d="M156.312118 0.000000 v477.478791" class="major guide line"/><text x="156.3121183608306" y="492.47879140045984" class="major" transform="rotate(20 156.312118 492.478791)">2020-02-13</text></g><g class="guides"><path d="M185.212933 0.000000 v477.478791" class="major guide line"/><text x="185.21293263779347" y="492.47879140045984" class="major" transform="rotate(20 185.212933 492.478791)">2020-02-20</text></g><g class="guides"><path d="M214.113747 0.000000 v477.478791" class="major guide line"/><text x="214.11374691475635" y="492.47879140045984" class="major" transform="rotate(20 214.113747 492.478791)">2020-02-27</text></g><g class="guides"><path d="M243.014561 0.000000 v477.478791" class="major guide line"/><text x="243.01456119171922" y="492.47879140045984" class="major" transform="rotate(20 243.014561 492.478791)">2020-03-05</text></g><g class="guides"><path d="M271.915375 0.000000 v477.478791" class="major guide line"/><text x="271.9153754686821" y="492.47879140045984" class="major" transform="rotate(20 271.915375 492.478791)">2020-03-12</text></g><g class="guides"><path d="M300.816190 0.000000 v477.478791" class="major guide line"/><text x="300.816189745645" y="492.47879140045984" class="major" transform="rotate(20 300.816190 492.478791)">2020-03-19</text></g><g class="guides"><path d="M329.717004 0.000000 v477.478791" class="major guide line"/><text x="329.7170040226078" y="492.47879140045984" class="major" transform="rotate(20 329.717004 492.478791)">2020-03-26</text></g><g class="guides"><path d="M358.617818 0.000000 v477.478791" class="major guide line"/><text x="358.6178182995707" y="492.47879140045984" class="major" transform="rotate(20 358.617818 492.478791)">2020-04-02</text></g><g class="guides"><path d="M387.518633 0.000000 v477.478791" class="major guide line"/><text x="387.51863257653355" y="492.47879140045984" class="major" transform="rotate(20 387.518633 492.478791)">2020-04-09</text></g><g class="guides"><path d="M416.419447 0.000000 v477.478791" class="major guide line"/><text x="416.4194468534964" y="492.47879140045984" class="major" transform="rotate(20 416.419447 492.478791)">2020-04-16</text></g><g class="guides"><path d="M445.320261 0.000000 v477.478791" class="major guide line"/><text x="445.32026113045936" y="492.47879140045984" class="major" transform="rotate(20 445.320261 492.478791)">2020-04-23</text></g><g class="guides"><path d="M474.221075 0.000000 v477.478791" class="major guide line"/><text x="474.2210754074222" y="492.47879140045984" class="major" transform="rotate(20 474.221075 492.478791)">2020-04-30</text></g><g class="guides"><path d="M503.121890 0.000000 v477.478791" class="major guide line"/><text x="503.1218896843851" y="492.47879140045984" class="major" transform="rotate(20 503.121890 492.478791)">2020-05-07</text></g><g class="guides"><path d="M532.022704 0.000000 v477.478791" class="major guide line"/><text x="532.0227039613479" y="492.47879140045984" class="major" transform="rotate(20 532.022704 492.478791)">2020-05-14</text></g><g class="guides"><path d="M560.923518 0.000000 v477.478791" class="major guide line"/><text x="560.9235182383107" y="492.47879140045984" class="major" transform="rotate(20 560.923518 492.478791)">2020-05-21</text></g><g class="guides"><path d="M589.824333 0.000000 v477.478791" class="major guide line"/><text x="589.8243325152737" y="492.47879140045984" class="major" transform="rotate(20 589.824333 492.478791)">2020-05-28</text></g></g><g class="series serie-0 color-0"><path d="M11.808047 382.389705 L15.936735 348.818996 20.065422 331.170707 24.194110 334.558521 28.322798 342.697797 32.451486 340.101387 36.580173 339.379992 40.708861 336.972301 44.837549 339.541317 48.966237 345.909067 53.094925 336.814020 57.223612 338.062002 61.352300 345.860366 65.480988 359.195507 69.609676 384.523449 73.738363 419.543035 77.867051 434.582737 81.995739 417.196220 86.124427 413.223986 90.253114 407.729822 94.381802 382.611906 98.510490 349.887390 102.639178 316.298418 106.767865 301.563101 110.896553 318.307364 115.025241 298.032226 119.153929 299.593725 123.282616 318.289101 127.411304 338.877756 131.539992 350.511381 135.668680 368.165757 139.797367 381.354793 143.926055 394.689935 148.054743 385.266150 152.183431 391.786094 156.312118 395.292618 160.440806 399.934502 164.569494 403.839772 168.698182 407.732866 172.826869 417.540176 176.955557 428.775056 181.084245 423.076954 185.212933 420.535332 189.341620 419.765236 193.470308 417.993711 197.598996 410.715847 201.727684 391.594331 205.856371 380.876907 209.985059 385.214405 214.113747 395.155645 218.242435 407.306726 222.371122 407.416305 226.499810 414.441529 230.628498 436.515586 234.757186 448.809729 238.885873 443.409925 243.014561 438.710208 247.143249 444.533108 251.271937 448.076159 255.400624 448.216176 259.529312 445.029257 263.658000 443.976082 267.786688 444.164801 271.915375 433.553913 276.044063 427.469241 280.172751 425.962531 284.301439 426.126899 288.430126 430.376125 292.558814 432.911659 296.687502 435.922034 300.816190 449.445895 304.944877 455.280970 309.073565 457.353838 313.202253 458.041750 317.330941 457.874337 321.459629 457.962609 325.588316 461.965282 329.717004 464.643877 333.845692 465.356140 337.974380 465.109588 342.103067 464.780851 346.231755 464.774763 350.360443 464.579956 354.489131 464.832597 358.617818 465.657482 362.746506 464.467334 366.875194 463.818992 371.003882 463.840299 375.132569 462.884528 379.261257 462.202703 383.389945 461.514791 387.518633 460.592503 391.647320 461.825265 395.776008 462.175309 399.904696 462.543615 404.033384 463.791597 408.162071 464.327316 412.290759 464.062501 416.419447 464.847816 420.548135 464.226869 424.676822 464.671272 428.805510 464.729105 432.934198 462.918010 437.062886 462.991063 441.191573 463.825080 445.320261 463.289361 449.448949 461.962239 453.577637 461.338248 457.706324 460.723388 461.835012 460.963853 465.963700 460.951678 470.092388 459.971556 474.221075 459.947205 478.349763 462.107329 482.478451 462.297063 486.607139 461.526967 490.735826 455.109500 494.864514 450.002921 498.993202 442.246156 503.121890 440.997160 507.250577 439.929780 511.379265 440.325482 515.507953 441.540996 519.636641 448.623039 523.765328 452.825592 527.894016 460.268839 532.022704 460.972985 536.151392 460.721359 540.280079 460.492055 544.408767 460.392623 548.537455 457.651121 552.666143 456.522864 556.794830 450.244400 560.923518 443.444422 565.052206 439.960219 569.180894 439.327096 573.309581 439.105909 577.438269 439.590897 581.566957 437.236981 585.695645 443.809685 589.824333 449.998862 593.953020 452.565849 598.081708 452.523235 602.210396 452.336545" class="line reactive nofill"/></g><g class="series serie-1 color-1"><path d="M11.808047 316.471917 L15.936735 300.771698 20.065422 292.924633 24.194110 283.823497 28.322798 286.273803 32.451486 281.010973 36.580173 276.676519 40.708861 272.701241 44.837549 265.925613 48.966237 260.589730 53.094925 264.595447 57.223612 261.831624 61.352300 274.576257 65.480988 297.922647 69.609676 323.457571 73.738363 351.050144 77.867051 363.137303 81.995739 355.740729 86.124427 351.394099 90.253114 339.124308 94.381802 313.026270 98.510490 294.117825 102.639178 275.048055 106.767865 269.897847 110.896553 283.117322 115.025241 275.364616 119.153929 280.204350 123.282616 290.666090 127.411304 289.825985 131.539992 283.790015 135.668680 282.484200 139.797367 283.613471 143.926055 289.661617 148.054743 284.861453 152.183431 295.794991 156.312118 299.462839 160.440806 312.685358 164.569494 323.798484 168.698182 332.239102 172.826869 337.742397 176.955557 341.979447 181.084245 328.516463 185.212933 322.946203 189.341620 316.267979 193.470308 312.088762 197.598996 295.785859 201.727684 279.205965 205.856371 271.581101 209.985059 282.383753 214.113747 300.841707 218.242435 310.785991 222.371122 313.284998 226.499810 329.417445 230.628498 356.997842 234.757186 371.775772 238.885873 364.108294 243.014561 356.964359 247.143249 368.878019 251.271937 379.163215 255.400624 374.697876 259.529312 366.044188 263.658000 356.979579 267.786688 352.575116 271.915375 341.760289 276.044063 324.742079 280.172751 318.136908 284.301439 322.310037 288.430126 334.838556 292.558814 345.909067 296.687502 354.708861 300.816190 370.460826 304.944877 384.794352 309.073565 393.381076 313.202253 399.946677 317.330941 400.095826 321.459629 404.612911 325.588316 413.881459 329.717004 417.083597 333.845692 417.494518 337.974380 414.901151 342.103067 409.142172 346.231755 406.083095 350.360443 401.879527 354.489131 403.492772 358.617818 409.248707 362.746506 408.028120 366.875194 405.687393 371.003882 407.799831 375.132569 403.325360 379.261257 399.255721 383.389945 394.449470 387.518633 388.176079 391.647320 389.901946 395.776008 392.263980 399.904696 394.848215 404.033384 402.564395 408.162071 406.725349 412.290759 408.576014 416.419447 414.773309 420.548135 415.004642 424.676822 418.715105 428.805510 420.781885 432.934198 410.816294 437.062886 409.297409 441.191573 414.064090 445.320261 408.904751 449.448949 403.803245 453.577637 400.893317 457.706324 398.750441 461.835012 404.189815 465.963700 408.475567 470.092388 406.433138 474.221075 408.782997 478.349763 418.888605 482.478451 422.843591 486.607139 420.705788 490.735826 412.759290 494.864514 401.753714 498.993202 390.804957 503.121890 386.558775 507.250577 384.482864 511.379265 384.330671 515.507953 389.527552 519.636641 399.763031 523.765328 407.711559 527.894016 416.830957 532.022704 419.182845 536.151392 417.358559 540.280079 416.477870 544.408767 414.324847 548.537455 406.587361 552.666143 397.431436 556.794830 381.315223 560.923518 365.907214 565.052206 354.624647 569.180894 350.034510 573.309581 350.176556 577.438269 352.238263 581.566957 350.375422 585.695645 362.124713 589.824333 378.005535 593.953020 384.279940 598.081708 386.562834 602.210396 384.813630" class="line reactive nofill"/></g><g class="series serie-2 color-2"><path d="M11.808047 178.950416 L15.936735 112.003805 20.065422 77.093799 24.194110 73.228099 28.322798 88.316503 32.451486 79.081438 36.580173 73.730336 40.708861 66.020243 44.837549 63.189456 48.966237 67.630444 53.094925 57.807915 57.223612 56.882582 61.352300 81.589577 65.480988 125.469833 69.609676 189.795682 73.738363 270.972329 77.867051 306.271950 81.995739 272.247706 86.124427 261.782922 90.253114 241.139478 94.381802 176.612734 98.510490 107.559773 102.639178 37.076198 106.767865 9.182284 110.896553 48.003648 115.025241 9.300995 119.153929 16.514938 123.282616 55.588942 127.411304 86.261899 131.539992 97.950313 135.668680 123.670913 139.797367 144.950523 143.926055 171.422956 148.054743 151.954440 152.183431 172.817043 156.312118 181.857301 160.440806 202.406386 164.569494 219.491560 168.698182 233.846394 172.826869 254.301119 176.955557 275.809019 181.084245 253.582769 185.212933 244.140722 189.341620 236.132331 193.470308 229.304958 197.598996 201.949807 201.727684 156.307157 205.856371 132.364171 209.985059 149.711117 214.113747 183.412712 218.242435 211.961056 222.371122 214.624431 226.499810 241.501697 230.628498 302.634539 234.757186 336.397011 238.885873 320.514161 243.014561 306.171502 247.143249 327.253262 251.271937 343.066104 255.400624 338.956896 259.529312 325.414772 263.658000 314.697348 267.786688 310.670324 271.915375 283.720006 276.044063 257.198872 280.172751 248.079474 284.301439 252.429147 288.430126 271.842873 292.558814 286.821697 296.687502 300.172058 300.816190 336.661827 304.944877 359.980823 309.073565 371.985798 313.202253 379.884610 317.330941 379.778075 321.459629 384.599546 325.588316 400.162791 329.717004 407.391954 333.845692 408.804304 337.974380 405.599121 342.103067 398.930029 346.231755 395.621355 350.360443 391.049481 354.489131 393.119304 358.617818 400.275414 362.746506 397.335047 366.875194 394.081163 371.003882 396.327530 375.132569 390.434621 379.261257 385.110914 383.389945 379.071900 387.518633 371.285711 391.647320 374.819630 395.776008 377.626067 399.904696 380.922565 404.033384 390.708568 408.162071 395.822250 412.290759 397.155460 416.419447 404.637262 420.548135 403.912824 424.676822 408.530357 428.805510 410.864996 432.934198 397.989477 437.062886 396.564951 441.191573 402.877912 445.320261 396.811504 449.448949 389.716271 453.577637 385.704466 457.706324 382.356222 461.835012 388.075631 465.963700 392.428348 470.092388 388.827464 474.221075 391.159059 478.349763 404.664657 482.478451 409.018388 486.607139 405.635648 490.735826 387.774289 494.864514 368.747133 498.993202 345.866453 503.121890 339.711773 507.250577 336.044939 511.379265 336.763289 515.507953 344.245092 519.636641 365.503396 523.765328 380.042890 527.894016 400.661984 532.022704 404.237502 536.151392 402.047954 540.280079 400.661984 544.408767 398.111231 548.537455 386.136694 552.666143 375.055022 556.794830 349.145703 560.923518 323.009110 565.052206 306.225277 569.180894 300.535292 573.309581 300.263374 577.438269 303.073870 581.566957 297.655802 585.695645 319.462001 589.824333 345.081138 593.953020 355.261828 598.081708 357.341798 602.210396 355.261828" class="line reactive nofill"/></g><g class="series serie-3 color-3"><path d="M11.808047 389.016183 L15.936735 378.746207 20.065422 371.867088 24.194110 373.772543 28.322798 376.365910 32.451486 372.317579 36.580173 371.057422 40.708861 369.237195 44.837549 365.608916 48.966237 364.391373 53.094925 355.710290 57.223612 353.920502 61.352300 356.020764 65.480988 359.454235 69.609676 357.439201 73.738363 347.035295 77.867051 326.629271 81.995739 287.777469 86.124427 278.688509 90.253114 277.020475 94.381802 272.619056 98.510490 277.817966 102.639178 289.865555 106.767865 317.954276 110.896553 362.997286 115.025241 360.562200 119.153929 342.974788 123.282616 344.222770 127.411304 340.503176 131.539992 341.702456 135.668680 338.232458 139.797367 331.639462 143.926055 335.523424 148.054743 348.514610 152.183431 351.960257 156.312118 355.004115 160.440806 351.710661 164.569494 351.150591 168.698182 356.239921 172.826869 354.876273 176.955557 361.798006 181.084245 357.956657 185.212933 354.626677 189.341620 356.142518 193.470308 354.608413 197.598996 346.803962 201.727684 341.580702 205.856371 326.811903 209.985059 319.798854 214.113747 319.926696 218.242435 321.192941 222.371122 293.932150 226.499810 295.094903 230.628498 305.687529 234.757186 317.132435 238.885873 323.086221 243.014561 325.259535 247.143249 334.890302 251.271937 370.119913 255.400624 377.376471 259.529312 373.827332 263.658000 366.114196 267.786688 361.116182 271.915375 356.982623 276.044063 350.894907 280.172751 346.420436 284.301439 345.178542 288.430126 346.505664 292.558814 348.234575 296.687502 354.797133 300.816190 363.533005 304.944877 369.170230 309.073565 370.454738 313.202253 367.404792 317.330941 369.358949 321.459629 369.632896 325.588316 372.719368 329.717004 376.694647 333.845692 378.070470 337.974380 381.016925 342.103067 387.074202 346.231755 390.276341 350.360443 398.987862 354.489131 397.362442 358.617818 396.857161 362.746506 396.175337 366.875194 398.427792 371.003882 401.836913 375.132569 403.602351 379.261257 403.109246 383.389945 407.151489 387.518633 406.567068 391.647320 405.215595 395.776008 400.528054 399.904696 396.826723 404.033384 397.892073 408.162071 397.922512 412.290759 391.676515 416.419447 384.876537 420.548135 381.382188 424.676822 379.957662 428.805510 386.045378 432.934198 389.594516 437.062886 397.173723 441.191573 403.103158 445.320261 410.463206 449.448949 414.669818 453.577637 420.599253 457.706324 418.212869 461.835012 412.709574 465.963700 408.143787 470.092388 407.942892 474.221075 407.358471 478.349763 409.595707 482.478451 410.009672 486.607139 410.174040 490.735826 406.771007 494.864514 400.951150 498.993202 394.391637 503.121890 393.895488 507.250577 392.102655 511.379265 386.243229 515.507953 377.945672 519.636641 381.546556 523.765328 386.209746 527.894016 393.329330 532.022704 394.988233 536.151392 397.715529 540.280079 405.325174 544.408767 412.557381 548.537455 407.361515 552.666143 400.451958 556.794830 391.201673 560.923518 378.670110 565.052206 368.461011 569.180894 361.828444 573.309581 357.323535 577.438269 354.346642 581.566957 351.534117 585.695645 355.077168 589.824333 363.350373 593.953020 364.805337 598.081708 368.068353 602.210396 371.608360" class="line reactive nofill"/></g><g class="series serie-4 color-4"><path d="M11.808047 467.091139 L15.936735 465.770105 20.065422 465.057842 24.194110 465.082193 28.322798 465.398754 32.451486 465.575298 36.580173 465.636175 40.708861 465.447456 44.837549 465.410930 48.966237 465.009140 53.094925 464.905649 57.223612 464.832597 61.352300 464.887386 65.480988 464.960439 69.609676 465.465719 73.738363 466.798929 77.867051 467.620770 81.995739 467.011999 86.124427 467.085051 90.253114 467.054613 94.381802 466.214508 98.510490 465.636175 102.639178 464.442983 106.767865 464.175123 110.896553 464.613439 115.025241 463.578527 119.153929 463.529825 123.282616 464.266439 127.411304 464.552562 131.539992 465.210035 135.668680 465.593561 139.797367 465.849245 143.926055 466.652824 148.054743 466.494543 152.183431 466.598034 156.312118 466.786753 160.440806 466.817192 164.569494 466.945034 168.698182 467.121578 172.826869 467.024174 176.955557 466.969385 181.084245 466.518894 185.212933 466.141456 189.341620 465.654438 193.470308 465.252649 197.598996 464.668228 201.727684 464.309053 205.856371 464.309053 209.985059 464.759544 214.113747 465.240474 218.242435 466.202333 222.371122 466.652824 226.499810 467.237244 230.628498 462.841914 234.757186 463.158475 238.885873 462.841914 243.014561 462.628843 247.143249 462.580142 251.271937 462.555791 255.400624 462.427949 259.529312 466.768490 263.658000 466.616297 267.786688 466.482368 271.915375 465.952736 276.044063 465.739666 280.172751 465.684877 284.301439 465.812719 288.430126 466.555420 292.558814 466.707613 296.687502 467.103315 300.816190 467.651209 304.944877 467.383350 309.073565 466.780666 313.202253 466.147543 317.330941 465.538772 321.459629 464.930000 325.588316 464.376018 329.717004 463.937702 333.845692 463.682018 337.974380 463.572439 342.103067 463.304580 346.231755 463.280229 350.360443 463.280229 354.489131 463.353282 358.617818 463.730720 362.746506 464.418632 366.875194 465.027404 371.003882 465.697052 375.132569 466.244947 379.261257 466.853718 383.389945 467.255508 387.518633 467.511192 391.647320 467.486841 395.776008 467.669472 399.904696 467.900805 404.033384 467.986033 408.162071 467.986033 412.290759 468.119963 416.419447 468.119963 420.548135 468.296507 424.676822 468.296507 428.805510 468.296507 432.934198 468.296507 437.062886 468.296507 441.191573 468.266068 445.320261 468.266068 449.448949 468.211279 453.577637 468.132139 457.706324 468.083437 461.835012 468.083437 465.963700 468.083437 470.092388 468.113875 474.221075 468.059086 478.349763 468.113875 482.478451 468.193016 486.607139 468.241718 490.735826 467.815577 494.864514 467.742525 498.993202 467.352911 503.121890 467.054613 507.250577 466.573683 511.379265 466.445841 515.507953 466.232771 519.636641 466.281473 523.765328 465.849245 527.894016 466.214508 532.022704 466.567596 536.151392 467.048525 540.280079 467.176367 544.408767 467.389437 548.537455 467.639034 552.666143 467.961683 556.794830 467.535542 560.923518 467.042437 565.052206 466.762403 569.180894 466.634561 573.309581 466.531069 577.438269 466.232771 581.566957 465.934473 585.695645 466.232771 589.824333 466.549333 593.953020 466.524982 598.081708 466.652824 602.210396 466.683262" class="line reactive nofill"/></g></g><g class="titles"><text x="400.0" y="26" class="title plot_title">Barcelona Air Quality - 2020 Overview</text><text x="436.60922137642274" y="580.0" class="title">Average over 7 days</text><text x="55.6" y="310.7393957002299" class="title" transform="rotate(-90 55.600000 284.739396)">micrograms per cubic meter air µg/m³</text></g><g transform="translate(129, 46)" class="plot overlay"><g class="series serie-0 color-0"/><g class="series serie-1 color-1"/><g class="series serie-2 color-2"/><g class="series serie-3 color-3"/><g class="series serie-4 color-4"/></g><g transform="translate(129, 46)" class="plot text-overlay"><g class="series serie-0 color-0"/><g class="series serie-1 color-1"/><g class="series serie-2 color-2"/><g class="series serie-3 color-3"/><g class="series serie-4 color-4"/></g><g transform="translate(129, 46)" class="plot tooltip-overlay"><g transform="translate(0 0)" style="opacity: 0" class="tooltip"><rect rx="0" ry="0" width="0" height="0" class="tooltip-box"/><g class="text"/></g></g><g transform="translate(10, 56)" class="legends"><g id="activate-serie-0" class="legend reactive activate-serie"><rect x="0.0" y="1.0" width="12" height="12" class="color-0 reactive"/><text x="17.0" y="11.2">NO</text></g><g id="activate-serie-1" class="legend reactive activate-serie"><rect x="0.0" y="22.0" width="12" height="12" class="color-1 reactive"/><text x="17.0" y="32.2">NO2</text></g><g id="activate-serie-2" class="legend reactive activate-serie"><rect x="0.0" y="43.0" width="12" height="12" class="color-2 reactive"/><text x="17.0" y="53.2">NOx</text></g><g id="activate-serie-3" class="legend reactive activate-serie"><rect x="0.0" y="64.0" width="12" height="12" class="color-3 reactive"/><text x="17.0" y="74.2">PM10</text></g><g id="activate-serie-4" class="legend reactive activate-serie"><rect x="0.0" y="85.0" width="12" height="12" class="color-4 reactive"/><text x="17.0" y="95.2">SO2</text></g></g><g transform="translate(753, 56)" class="legends"/></g></svg>