<?xml version='1.0' encoding='utf-8'?>
<svg xmlns="http://www.w3.org/2000/svg" xmlns:xlink="http://www.w3.org/1999/xlink" id="chart-3025aa68-18f4-471d-92da-0adca50485f8" class="pygal-chart" viewBox="0 0 800 600"><!--Generated with pygal 2.4.0 (lxml) ©Kozea 2012-2016 on 2020-07-09--><!--http://pygal.org--><!--http://github.com/Kozea/pygal--><defs><style type="text/css">#chart-3025aa68-18f4-471d-92da-0adca50485f8{-webkit-user-select:none;-webkit-font-smoothing:antialiased;font-family:Consolas,"Liberation Mono",Menlo,Courier,monospace}#chart-3025aa68-18f4-471d-92da-0adca50485f8 .title{font-family:Consolas,"Liberation Mono",Menlo,Courier,monospace;font-size:16px}#chart-3025aa68-18f4-471d-92da-0adca50485f8 .legends .legend text{font-family:Consolas,"Liberation Mono",Menlo,Courier,monospace;font-size:14px}#chart-3025aa68-18f4-471d-92da-0adca50485f8 .axis text{font-family:Consolas,"Liberation Mono",Menlo,Courier,monospace;font-size:10px}#chart-3025aa68-18f4-471d-92da-0adca50485f8 .axis text.major{font-family:Consolas,"Liberation Mono",Menlo,Courier,monospace;font-size:10px}#chart-3025aa68-18f4-471d-92da-0adca50485f8 .text-overlay text.value{font-family:Consolas,"Liberation Mono",Menlo,Courier,monospace;font-size:16px}#chart-3025aa68-18f4-471d-92da-0adca50485f8 .text-overlay text.label{font-family:Consolas,"Liberation Mono",Menlo,Courier,monospace;font-size:10px}#chart-3025aa68-18f4-471d-92da-0adca50485f8 .tooltip{font-family:Consolas,"Liberation Mono",Menlo,Courier,monospace;font-size:14px}#chart-3025aa68-18f4-471d-92da-0adca50485f8 text.no_data{font-family:Consolas,"Liberation Mono",Menlo,Courier,monospace;font-size:64px}
#chart-3025aa68-18f4-471d-92da-0adca50485f8{background-color:#fdf6e3}#chart-3025aa68-18f4-471d-92da-0adca50485f8 path,#chart-3025aa68-18f4-471d-92da-0adca50485f8 line,#chart-3025aa68-18f4-471d-92da-0adca50485f8 rect,#chart-3025aa68-18f4-471d-92da-0adca50485f8 circle{-webkit-transition:500ms ease-in;-moz-transition:500ms ease-in;transition:500ms ease-in}#chart-3025aa68-18f4-471d-92da-0adca50485f8 .graph &gt; .background{fill:#fdf6e3}#chart-3025aa68-18f4-471d-92da-0adca50485f8 .plot &gt; .background{fill:#eee8d5}#chart-3025aa68-18f4-471d-92da-0adca50485f8 .graph{fill:#657b83}#chart-3025aa68-18f4-471d-92da-0adca50485f8 text.no_data{fill:#073642}#chart-3025aa68-18f4-471d-92da-0adca50485f8 .title{fill:#073642}#chart-3025aa68-18f4-471d-92da-0adca50485f8 .legends .legend text{fill:#657b83}#chart-3025aa68-18f4-471d-92da-0adca50485f8 .legends .legend:hover text{fill:#073642}#chart-3025aa68-18f4-471d-92da-0adca50485f8 .axis .line{stroke:#073642}#chart-3025aa68-18f4-471d-92da-0adca50485f8 .axis .guide.line{stroke:#073642}#chart-3025aa68-18f4-471d-92da-0adca50485f8 .axis .major.line{stroke:#657b83}#chart-3025aa68-18f4-471d-92da-0adca50485f8 .axis text.major{fill:#073642}#chart-3025aa68-18f4-471d-92da-0adca50485f8 .axis.y .guides:hover .guide.line,#chart-3025aa68-18f4-471d-92da-0adca50485f8 .line-graph .axis.x .guides:hover .guide.line,#chart-3025aa68-18f4-471d-92da-0adca50485f8 .stackedline-graph .axis.x .guides:hover .guide.line,#chart-3025aa68-18f4-471d-92da-0adca50485f8 .xy-graph .axis.x .guides:hover .guide.line{stroke:#073642}#chart-3025aa68-18f4-471d-92da-0adca50485f8 .axis .guides:hover text{fill:#073642}#chart-3025aa68-18f4-471d-92da-0adca50485f8 .reactive{fill-opacity:.66;stroke-opacity:.8}#chart-3025aa68-18f4-471d-92da-0adca50485f8 .ci{stroke:#657b83}#chart-3025aa68-18f4-471d-92da-0adca50485f8 .reactive.active,#chart-3025aa68-18f4-471d-92da-0adca50485f8 .active .reactive{fill-opacity:.9;stroke-opacity:.9;stroke-width:4}#chart-3025aa68-18f4-471d-92da-0adca50485f8 .ci .reactive.active{stroke-width:1.5}#chart-3025aa68-18f4-471d-92da-0adca50485f8 .series text{fill:#073642}#chart-3025aa68-18f4-471d-92da-0adca50485f8 .tooltip rect{fill:#eee8d5;stroke:#073642;-webkit-transition:opacity 500ms ease-in;-moz-transition:opacity 500ms ease-in;transition:opacity 500ms ease-in}#chart-3025aa68-18f4-471d-92da-0adca50485f8 .tooltip .label{fill:#657b83}#chart-3025aa68-18f4-471d-92da-0adca50485f8 .tooltip .label{fill:#657b83}#chart-3025aa68-18f4-471d-92da-0adca50485f8 .tooltip .legend{font-size:.8em;fill:#073642}#chart-3025aa68-18f4-471d-92da-0adca50485f8 .tooltip .x_label{font-size:.6em;fill:#073642}#chart-3025aa68-18f4-471d-92da-0adca50485f8 .tooltip .xlink{font-size:.5em;text-decoration:underline}#chart-3025aa68-18f4-471d-92da-0adca50485f8 .tooltip .value{font-size:1.5em}#chart-3025aa68-18f4-471d-92da-0adca50485f8 .bound{font-size:.5em}#chart-3025aa68-18f4-471d-92da-0adca50485f8 .max-value{font-size:.75em;fill:#073642}#chart-3025aa68-18f4-471d-92da-0adca50485f8 .map-element{fill:#eee8d5;stroke:#073642 !important}#chart-3025aa68-18f4-471d-92da-0adca50485f8 .map-element .reactive{fill-opacity:inherit;stroke-opacity:inherit}#chart-3025aa68-18f4-471d-92da-0adca50485f8 .color-0,#chart-3025aa68-18f4-471d-92da-0adca50485f8 .color-0 a:visited{stroke:#e86258;fill:#e86258}#chart-3025aa68-18f4-471d-92da-0adca50485f8 .color-1,#chart-3025aa68-18f4-471d-92da-0adca50485f8 .color-1 a:visited{stroke:#ffec12;fill:#ffec12}#chart-3025aa68-18f4-471d-92da-0adca50485f8 .color-2,#chart-3025aa68-18f4-471d-92da-0adca50485f8 .color-2 a:visited{stroke:#14e35d;fill:#14e35d}#chart-3025aa68-18f4-471d-92da-0adca50485f8 .color-3,#chart-3025aa68-18f4-471d-92da-0adca50485f8 .color-3 a:visited{stroke:#53f5ed;fill:#53f5ed}#chart-3025aa68-18f4-471d-92da-0adca50485f8 .color-4,#chart-3025aa68-18f4-471d-92da-0adca50485f8 .color-4 a:visited{stroke:#b753f5;fill:#b753f5}#chart-3025aa68-18f4-471d-92da-0adca50485f8 .text-overlay .color-0 text{fill:black}#chart-3025aa68-18f4-471d-92da-0adca50485f8 .text-overlay .color-1 text{fill:black}#chart-3025aa68-18f4-471d-92da-0adca50485f8 .text-overlay .color-2 text{fill:black}#chart-3025aa68-18f4-471d-92da-0adca50485f8 .text-overlay .color-3 text{fill:black}#chart-3025aa68-18f4-471d-92da-0adca50485f8 .text-overlay .color-4 text{fill:black}
#chart-3025aa68-18f4-471d-92da-0adca50485f8 text.no_data{text-anchor:middle}#chart-3025aa68-18f4-471d-92da-0adca50485f8 .guide.line{fill:none}#chart-3025aa68-18f4-471d-92da-0adca50485f8 .centered{text-anchor:middle}#chart-3025aa68-18f4-471d-92da-0adca50485f8 .title{text-anchor:middle}#chart-3025aa68-18f4-471d-92da-0adca50485f8 .legends .legend text{fill-opacity:1}#chart-3025aa68-18f4-471d-92da-0adca50485f8 .axis.x text{text-anchor:middle}#chart-3025aa68-18f4-471d-92da-0adca50485f8 .axis.x:not(.web) text[transform]{text-anchor:start}#chart-3025aa68-18f4-471d-92da-0adca50485f8 .axis.x:not(.web) text[transform].backwards{text-anchor:end}#chart-3025aa68-18f4-471d-92da-0adca50485f8 .axis.y text{text-anchor:end}#chart-3025aa68-18f4-471d-92da-0adca50485f8 .axis.y text[transform].backwards{text-anchor:start}#chart-3025aa68-18f4-471d-92da-0adca50485f8 .axis.y2 text{text-anchor:start}#chart-3025aa68-18f4-471d-92da-0adca50485f8 .axis.y2 text[transform].backwards{text-anchor:end}#chart-3025aa68-18f4-471d-92da-0adca50485f8 .axis .guide.line{stroke-dasharray:4,4}#chart-3025aa68-18f4-471d-92da-0adca50485f8 .axis .major.guide.line{stroke-dasharray:6,6}#chart-3025aa68-18f4-471d-92da-0adca50485f8 .horizontal .axis.y .guide.line,#chart-3025aa68-18f4-471d-92da-0adca50485f8 .horizontal .axis.y2 .guide.line,#chart-3025aa68-18f4-471d-92da-0adca50485f8 .vertical .axis.x .guide.line{opacity:0}#chart-3025aa68-18f4-471d-92da-0adca50485f8 .horizontal .axis.always_show .guide.line,#chart-3025aa68-18f4-471d-92da-0adca50485f8 .vertical .axis.always_show .guide.line{opacity:1 !important}#chart-3025aa68-18f4-471d-92da-0adca50485f8 .axis.y .guides:hover .guide.line,#chart-3025aa68-18f4-471d-92da-0adca50485f8 .axis.y2 .guides:hover .guide.line,#chart-3025aa68-18f4-471d-92da-0adca50485f8 .axis.x .guides:hover .guide.line{opacity:1}#chart-3025aa68-18f4-471d-92da-0adca50485f8 .axis .guides:hover text{opacity:1}#chart-3025aa68-18f4-471d-92da-0adca50485f8 .nofill{fill:none}#chart-3025aa68-18f4-471d-92da-0adca50485f8 .subtle-fill{fill-opacity:.2}#chart-3025aa68-18f4-471d-92da-0adca50485f8 .dot{stroke-width:1px;fill-opacity:1}#chart-3025aa68-18f4-471d-92da-0adca50485f8 .dot.active{stroke-width:5px}#chart-3025aa68-18f4-471d-92da-0adca50485f8 .dot.negative{fill:transparent}#chart-3025aa68-18f4-471d-92da-0adca50485f8 text,#chart-3025aa68-18f4-471d-92da-0adca50485f8 tspan{stroke:none !important}#chart-3025aa68-18f4-471d-92da-0adca50485f8 .series text.active{opacity:1}#chart-3025aa68-18f4-471d-92da-0adca50485f8 .tooltip rect{fill-opacity:.95;stroke-width:.5}#chart-3025aa68-18f4-471d-92da-0adca50485f8 .tooltip text{fill-opacity:1}#chart-3025aa68-18f4-471d-92da-0adca50485f8 .showable{visibility:hidden}#chart-3025aa68-18f4-471d-92da-0adca50485f8 .showable.shown{visibility:visible}#chart-3025aa68-18f4-471d-92da-0adca50485f8 .gauge-background{fill:rgba(229,229,229,1);stroke:none}#chart-3025aa68-18f4-471d-92da-0adca50485f8 .bg-lines{stroke:#fdf6e3;stroke-width:2px}</style><script type="text/javascript">window.pygal = window.pygal || {};window.pygal.config = window.pygal.config || {};window.pygal.config['3025aa68-18f4-471d-92da-0adca50485f8'] = {"allow_interruptions": false, "box_mode": "extremes", "classes": ["pygal-chart"], "css": ["file://style.css", "file://graph.css"], "defs": [], "disable_xml_declaration": false, "dots_size": 2.5, "dynamic_print_values": false, "explicit_size": false, "fill": false, "force_uri_protocol": "https", "formatter": null, "half_pie": false, "height": 600, "include_x_axis": false, "inner_radius": 0, "interpolate": null, "interpolation_parameters": {}, "interpolation_precision": 250, "inverse_y_axis": false, "js": ["//kozea.github.io/pygal.js/2.0.x/pygal-tooltips.min.js"], "legend_at_bottom": false, "legend_at_bottom_columns": null, "legend_box_size": 12, "logarithmic": false, "margin": 20, "margin_bottom": null, "margin_left": null, "margin_right": null, "margin_top": null, "max_scale": 16, "min_scale": 4, "missing_value_fill_truncation": "x", "no_data_text": "No data", "no_prefix": false, "order_min": null, "pretty_print": false, "print_labels": false, "print_values": false, "print_values_position": "center", "print_zeroes": true, "range": null, "rounded_bars": null, "secondary_range": null, "show_dots": false, "show_legend": true, "show_minor_x_labels": false, "show_minor_y_labels": true, "show_only_major_dots": false, "show_x_guides": false, "show_x_labels": true, "show_y_guides": true, "show_y_labels": true, "spacing": 10, "stack_from_top": false, "strict": false, "stroke": true, "stroke_style": null, "style": {"background": "#fdf6e3", "ci_colors": [], "colors": ["#e86258", "#ffec12", "#14e35d", "#53f5ed", "#b753f5"], "font_family": "Consolas, \"Liberation Mono\", Menlo, Courier, monospace", "foreground": "#657b83", "foreground_strong": "#073642", "foreground_subtle": "#073642", "guide_stroke_dasharray": "4,4", "label_font_family": "Consolas, \"Liberation Mono\", Menlo, Courier, monospace", "label_font_size": 10, "legend_font_family": "Consolas, \"Liberation Mono\", Menlo, Courier, monospace", "legend_font_size": 14, "major_guide_stroke_dasharray": "6,6", "major_label_font_family": "Consolas, \"Liberation Mono\", Menlo, Courier, monospace", "major_label_font_size": 10, "no_data_font_family": "Consolas, \"Liberation Mono\", Menlo, Courier, monospace", "no_data_font_size": 64, "opacity": ".66", "opacity_hover": ".9", "plot_background": "#eee8d5", "stroke_opacity": ".8", "stroke_opacity_hover": ".9", "title_font_family": "Consolas, \"Liberation Mono\", Menlo, Courier, monospace", "title_font_size": 16, "tooltip_font_family": "Consolas, \"Liberation Mono\", Menlo, Courier, monospace", "tooltip_font_size": 14, "transition": "500ms ease-in", "value_background": "rgba(229, 229, 229, 1)", "value_colors": [], "value_font_family": "Consolas, \"Liberation Mono\", Menlo, Courier, monospace", "value_font_size": 16, "value_label_font_family": "Consolas, \"Liberation Mono\", Menlo, Courier, monospace", "value_label_font_size": 10}, "title": "Barcelona Air Quality - 2020 Overview", "tooltip_border_radius": 0, "tooltip_fancy_mode": true, "truncate_label": null, "truncate_legend": null, "width": 800, "x_label_rotation": 20, "x_labels": ["2020-01-07", "2020-01-08", "2020-01-09", "2020-01-10", "2020-01-11", "2020-01-12", "2020-01-13", "2020-01-14", "2020-01-15", "2020-01-16", "2020-01-17", "2020-01-18", "2020-01-19", "2020-01-20", "2020-01-21", "2020-01-22", "2020-01-23", "2020-01-24", "2020-01-27", "2020-01-28", "2020-01-29", "2020-01-30", "2020-01-31", "2020-02-01", "2020-02-02", "2020-02-03", "2020-02-04", "2020-02-05", "2020-02-06", "2020-02-07", "2020-02-08", "2020-02-09", "2020-02-10", "2020-02-11", "2020-02-12", "2020-02-13", "2020-02-14", "2020-02-15", "2020-02-16", "2020-02-17", "2020-02-18", "2020-02-19", "2020-02-20", "2020-02-21", "2020-02-22", "2020-02-23", "2020-02-24", "2020-02-25", "2020-02-26", "2020-02-27", "2020-02-28", "2020-02-29", "2020-03-01", "2020-03-02", "2020-03-03", "2020-03-04", "2020-03-05", "2020-03-06", "2020-03-07", "2020-03-08", "2020-03-09", "2020-03-10", "2020-03-11", "2020-03-12", "2020-03-13", "2020-03-14", "2020-03-15", "2020-03-16", "2020-03-17", "2020-03-18", "2020-03-19", "2020-03-20", "2020-03-21", "2020-03-22", "2020-03-23", "2020-03-24", "2020-03-25", "2020-03-26", "2020-03-27", "2020-03-28", "2020-03-29", "2020-03-30", "2020-03-31", "2020-04-01", "2020-04-02", "2020-04-03", "2020-04-04", "2020-04-05", "2020-04-06", "2020-04-07", "2020-04-08", "2020-04-09", "2020-04-10", "2020-04-11", "2020-04-12", "2020-04-13", "2020-04-14", "2020-04-15", "2020-04-16", "2020-04-17", "2020-04-18", "2020-04-19", "2020-04-20", "2020-04-21", "2020-04-22", "2020-04-23", "2020-04-24", "2020-04-25", "2020-04-26", "2020-04-27", "2020-04-28", "2020-04-29", "2020-04-30", "2020-05-01", "2020-05-02", "2020-05-03", "2020-05-04", "2020-05-05", "2020-05-06", "2020-05-07", "2020-05-08", "2020-05-09", "2020-05-10", "2020-05-11", "2020-05-12", "2020-05-13", "2020-05-14", "2020-05-15", "2020-05-16", "2020-05-17", "2020-05-18", "2020-05-19", "2020-05-20", "2020-05-21", "2020-05-22", "2020-05-23", "2020-05-24", "2020-05-25", "2020-05-26", "2020-05-27", "2020-05-28", "2020-05-29", "2020-05-30", "2020-05-31", "2020-06-01", "2020-06-02", "2020-06-03", "2020-06-04", "2020-06-05", "2020-06-06", "2020-06-07", "2020-06-08", "2020-06-09", "2020-06-10", "2020-06-11", "2020-06-12", "2020-06-13", "2020-06-14", "2020-06-15", "2020-06-16", "2020-06-17", "2020-06-18", "2020-06-19", "2020-06-20", "2020-06-21", "2020-06-22", "2020-06-23", "2020-06-24", "2020-06-25", "2020-06-26", "2020-06-27", "2020-06-28", "2020-06-29", "2020-06-30"], "x_labels_major": ["2020-01-07", "2020-01-14", "2020-01-21", "2020-01-30", "2020-02-06", "2020-02-13", "2020-02-20", "2020-02-27", "2020-03-05", "2020-03-12", "2020-03-19", "2020-03-26", "2020-04-02", "2020-04-09", "2020-04-16", "2020-04-23", "2020-04-30", "2020-05-07", "2020-05-14", "2020-05-21", "2020-05-28", "2020-06-04", "2020-06-11", "2020-06-18", "2020-06-25"], "x_labels_major_count": null, "x_labels_major_every": null, "x_title": "Average over 7 days", "xrange": null, "y_label_rotation": 0, "y_labels": null, "y_labels_major": null, "y_labels_major_count": null, "y_labels_major_every": null, "y_title": "micrograms per cubic meter air \u00b5g/m\u00b3", "zero": 0, "legends": ["NO", "NO2", "NOx", "PM10", "SO2"]}</script><script type="text/javascript" xlink:href="https://kozea.github.io/pygal.js/2.0.x/pygal-tooltips.min.js"/></defs><title>Barcelona Air Quality - 2020 Overview</title><g class="graph line-graph vertical"><rect x="0" y="0" width="800" height="600" class="background"/><g transform="translate(129, 46)" class="plot"><rect x="0" y="0" width="614.0184427528454" height="477.47879140045984" class="background"/><g class="axis y always_show"><path d="M0.000000 477.478791 h614.018443" class="line"/><g class="guides"><path d="M0.000000 429.943897 h614.018443" class="guide line"/><text x="-5" y="433.44389708718785" class="">10</text><title>10</title></g><g class="guides"><path d="M0.000000 387.329886 h614.018443" class="guide line"/><text x="-5" y="390.8298861280066" class="">20</text><title>20</title></g><g class="guides"><path d="M0.000000 344.715875 h614.018443" class="guide line"/><text x="-5" y="348.21587516882533" class="">30</text><title>30</title></g><g class="guides"><path d="M0.000000 302.101864 h614.018443" class="guide line"/><text x="-5" y="305.6018642096441" class="">40</text><title>40</title></g><g class="guides"><path d="M0.000000 259.487853 h614.018443" class="major guide line"/><text x="-5" y="262.98785325046276" class="major">50</text><title>50</title></g><g class="guides"><path d="M0.000000 216.873842 h614.018443" class="guide line"/><text x="-5" y="220.3738422912815" class="">60</text><title>60</title></g><g class="guides"><path d="M0.000000 174.259831 h614.018443" class="guide line"/><text x="-5" y="177.75983133210025" class="">70</text><title>70</title></g><g class="guides"><path d="M0.000000 131.645820 h614.018443" class="guide line"/><text x="-5" y="135.145820372919" class="">80</text><title>80</title></g><g class="guides"><path d="M0.000000 89.031809 h614.018443" class="guide line"/><text x="-5" y="92.53180941373768" class="">90</text><title>90</title></g><g class="guides"><path d="M0.000000 46.417798 h614.018443" class="major guide line"/><text x="-5" y="49.91779845455642" class="major">100</text><title>100</title></g></g><g class="axis x"><g class="guides"><path d="M11.808047 0.000000 v477.478791" class="major line"/><text x="11.808046976016257" y="492.47879140045984" class="major" transform="rotate(20 11.808047 492.478791)">2020-01-07</text></g><g class="guides"><path d="M35.697159 0.000000 v477.478791" class="major guide line"/><text x="35.6971593552399" y="492.47879140045984" class="major" transform="rotate(20 35.697159 492.478791)">2020-01-14</text></g><g class="guides"><path d="M59.586272 0.000000 v477.478791" class="major guide line"/><text x="59.58627173446355" y="492.47879140045984" class="major" transform="rotate(20 59.586272 492.478791)">2020-01-21</text></g><g class="guides"><path d="M83.475384 0.000000 v477.478791" class="major guide line"/><text x="83.47538411368717" y="492.47879140045984" class="major" transform="rotate(20 83.475384 492.478791)">2020-01-30</text></g><g class="guides"><path d="M107.364496 0.000000 v477.478791" class="major guide line"/><text x="107.36449649291083" y="492.47879140045984" class="major" transform="rotate(20 107.364496 492.478791)">2020-02-06</text></g><g class="guides"><path d="M131.253609 0.000000 v477.478791" class="major guide line"/><text x="131.2536088721345" y="492.47879140045984" class="major" transform="rotate(20 131.253609 492.478791)">2020-02-13</text></g><g class="guides"><path d="M155.142721 0.000000 v477.478791" class="major guide line"/><text x="155.14272125135813" y="492.47879140045984" class="major" transform="rotate(20 155.142721 492.478791)">2020-02-20</text></g><g class="guides"><path d="M179.031834 0.000000 v477.478791" class="major guide line"/><text x="179.0318336305818" y="492.47879140045984" class="major" transform="rotate(20 179.031834 492.478791)">2020-02-27</text></g><g class="guides"><path d="M202.920946 0.000000 v477.478791" class="major guide line"/><text x="202.9209460098054" y="492.47879140045984" class="major" transform="rotate(20 202.920946 492.478791)">2020-03-05</text></g><g class="guides"><path d="M226.810058 0.000000 v477.478791" class="major guide line"/><text x="226.81005838902905" y="492.47879140045984" class="major" transform="rotate(20 226.810058 492.478791)">2020-03-12</text></g><g class="guides"><path d="M250.699171 0.000000 v477.478791" class="major guide line"/><text x="250.6991707682527" y="492.47879140045984" class="major" transform="rotate(20 250.699171 492.478791)">2020-03-19</text></g><g class="guides"><path d="M274.588283 0.000000 v477.478791" class="major guide line"/><text x="274.5882831474764" y="492.47879140045984" class="major" transform="rotate(20 274.588283 492.478791)">2020-03-26</text></g><g class="guides"><path d="M298.477396 0.000000 v477.478791" class="major guide line"/><text x="298.4773955267" y="492.47879140045984" class="major" transform="rotate(20 298.477396 492.478791)">2020-04-02</text></g><g class="guides"><path d="M322.366508 0.000000 v477.478791" class="major guide line"/><text x="322.36650790592364" y="492.47879140045984" class="major" transform="rotate(20 322.366508 492.478791)">2020-04-09</text></g><g class="guides"><path d="M346.255620 0.000000 v477.478791" class="major guide line"/><text x="346.2556202851473" y="492.47879140045984" class="major" transform="rotate(20 346.255620 492.478791)">2020-04-16</text></g><g class="guides"><path d="M370.144733 0.000000 v477.478791" class="major guide line"/><text x="370.1447326643709" y="492.47879140045984" class="major" transform="rotate(20 370.144733 492.478791)">2020-04-23</text></g><g class="guides"><path d="M394.033845 0.000000 v477.478791" class="major guide line"/><text x="394.03384504359457" y="492.47879140045984" class="major" transform="rotate(20 394.033845 492.478791)">2020-04-30</text></g><g class="guides"><path d="M417.922957 0.000000 v477.478791" class="major guide line"/><text x="417.92295742281823" y="492.47879140045984" class="major" transform="rotate(20 417.922957 492.478791)">2020-05-07</text></g><g class="guides"><path d="M441.812070 0.000000 v477.478791" class="major guide line"/><text x="441.81206980204183" y="492.47879140045984" class="major" transform="rotate(20 441.812070 492.478791)">2020-05-14</text></g><g class="guides"><path d="M465.701182 0.000000 v477.478791" class="major guide line"/><text x="465.7011821812655" y="492.47879140045984" class="major" transform="rotate(20 465.701182 492.478791)">2020-05-21</text></g><g class="guides"><path d="M489.590295 0.000000 v477.478791" class="major guide line"/><text x="489.59029456048916" y="492.47879140045984" class="major" transform="rotate(20 489.590295 492.478791)">2020-05-28</text></g><g class="guides"><path d="M513.479407 0.000000 v477.478791" class="major guide line"/><text x="513.4794069397127" y="492.47879140045984" class="major" transform="rotate(20 513.479407 492.478791)">2020-06-04</text></g><g class="guides"><path d="M537.368519 0.000000 v477.478791" class="major guide line"/><text x="537.3685193189364" y="492.47879140045984" class="major" transform="rotate(20 537.368519 492.478791)">2020-06-11</text></g><g class="guides"><path d="M561.257632 0.000000 v477.478791" class="major guide line"/><text x="561.2576316981601" y="492.47879140045984" class="major" transform="rotate(20 561.257632 492.478791)">2020-06-18</text></g><g class="guides"><path d="M585.146744 0.000000 v477.478791" class="major guide line"/><text x="585.1467440773837" y="492.47879140045984" class="major" transform="rotate(20 585.146744 492.478791)">2020-06-25</text></g></g><g class="series serie-0 color-0"><path d="M11.808047 382.389705 L15.220777 348.818996 18.633508 331.170707 22.046238 334.558521 25.458968 342.697797 28.871699 340.101387 32.284429 339.379992 35.697159 336.972301 39.109890 339.541317 42.522620 345.909067 45.935350 336.814020 49.348081 338.062002 52.760811 345.860366 56.173541 359.195507 59.586272 384.523449 62.999002 419.543035 66.411732 434.582737 69.824463 417.196220 73.237193 413.223986 76.649923 407.729822 80.062654 382.611906 83.475384 349.887390 86.888114 316.298418 90.300845 301.563101 93.713575 318.307364 97.126305 298.032226 100.539036 299.593725 103.951766 318.289101 107.364496 338.877756 110.777227 350.511381 114.189957 368.165757 117.602688 381.354793 121.015418 394.689935 124.428148 385.266150 127.840879 391.786094 131.253609 395.292618 134.666339 399.934502 138.079070 403.839772 141.491800 407.732866 144.904530 417.540176 148.317261 428.775056 151.729991 423.076954 155.142721 420.535332 158.555452 419.765236 161.968182 417.993711 165.380912 410.715847 168.793643 391.594331 172.206373 380.876907 175.619103 385.214405 179.031834 395.155645 182.444564 407.306726 185.857294 407.416305 189.270025 414.441529 192.682755 436.515586 196.095485 448.809729 199.508216 443.409925 202.920946 438.710208 206.333676 444.533108 209.746407 448.076159 213.159137 448.216176 216.571867 445.029257 219.984598 443.976082 223.397328 444.164801 226.810058 433.553913 230.222789 427.469241 233.635519 425.962531 237.048249 426.126899 240.460980 430.376125 243.873710 432.911659 247.286440 435.922034 250.699171 449.445895 254.111901 455.280970 257.524631 457.353838 260.937362 458.041750 264.350092 457.874337 267.762822 457.962609 271.175553 461.965282 274.588283 464.643877 278.001013 465.356140 281.413744 465.109588 284.826474 464.780851 288.239205 464.774763 291.651935 464.579956 295.064665 464.832597 298.477396 465.657482 301.890126 464.467334 305.302856 463.818992 308.715587 463.840299 312.128317 462.884528 315.541047 462.202703 318.953778 461.514791 322.366508 460.592503 325.779238 461.825265 329.191969 462.175309 332.604699 462.543615 336.017429 463.791597 339.430160 464.327316 342.842890 464.062501 346.255620 464.847816 349.668351 464.226869 353.081081 464.671272 356.493811 464.729105 359.906542 462.918010 363.319272 462.991063 366.732002 463.825080 370.144733 463.289361 373.557463 461.962239 376.970193 461.338248 380.382924 460.723388 383.795654 460.963853 387.208384 460.951678 390.621115 459.971556 394.033845 459.947205 397.446575 462.107329 400.859306 462.297063 404.272036 461.526967 407.684766 455.109500 411.097497 450.002921 414.510227 442.246156 417.922957 440.997160 421.335688 439.929780 424.748418 440.325482 428.161148 441.540996 431.573879 448.623039 434.986609 452.825592 438.399339 460.268839 441.812070 460.972985 445.224800 460.721359 448.637530 460.492055 452.050261 460.392623 455.462991 457.651121 458.875722 456.522864 462.288452 450.244400 465.701182 443.444422 469.113913 439.960219 472.526643 439.327096 475.939373 439.105909 479.352104 439.590897 482.764834 437.236981 486.177564 443.809685 489.590295 449.998862 493.003025 452.565849 496.415755 452.523235 499.828486 452.336545 503.241216 454.262293 506.653946 456.157602 510.066677 455.613766 513.479407 455.905976 516.892137 456.261093 520.304868 456.013526 523.717598 455.780163 527.130328 454.215620 530.543059 454.670170 533.955789 451.488323 537.368519 450.611692 540.781250 450.193669 544.193980 450.388476 547.606710 450.149026 551.019441 449.497640 554.432171 448.752910 557.844901 449.489523 561.257632 449.059325 564.670362 447.101110 568.083092 445.903859 571.495823 444.349462 574.908553 439.495523 578.321283 437.754437 581.734014 437.874162 585.146744 434.925678 588.559474 432.273463 591.972205 432.519001 595.384935 433.168357 598.797665 435.501982 602.210396 435.593297" class="line reactive nofill"/></g><g class="series serie-1 color-1"><path d="M11.808047 316.471917 L15.220777 300.771698 18.633508 292.924633 22.046238 283.823497 25.458968 286.273803 28.871699 281.010973 32.284429 276.676519 35.697159 272.701241 39.109890 265.925613 42.522620 260.589730 45.935350 264.595447 49.348081 261.831624 52.760811 274.576257 56.173541 297.922647 59.586272 323.457571 62.999002 351.050144 66.411732 363.137303 69.824463 355.740729 73.237193 351.394099 76.649923 339.124308 80.062654 313.026270 83.475384 294.117825 86.888114 275.048055 90.300845 269.897847 93.713575 283.117322 97.126305 275.364616 100.539036 280.204350 103.951766 290.666090 107.364496 289.825985 110.777227 283.790015 114.189957 282.484200 117.602688 283.613471 121.015418 289.661617 124.428148 284.861453 127.840879 295.794991 131.253609 299.462839 134.666339 312.685358 138.079070 323.798484 141.491800 332.239102 144.904530 337.742397 148.317261 341.979447 151.729991 328.516463 155.142721 322.946203 158.555452 316.267979 161.968182 312.088762 165.380912 295.785859 168.793643 279.205965 172.206373 271.581101 175.619103 282.383753 179.031834 300.841707 182.444564 310.785991 185.857294 313.284998 189.270025 329.417445 192.682755 356.997842 196.095485 371.775772 199.508216 364.108294 202.920946 356.964359 206.333676 368.878019 209.746407 379.163215 213.159137 374.697876 216.571867 366.044188 219.984598 356.979579 223.397328 352.575116 226.810058 341.760289 230.222789 324.742079 233.635519 318.136908 237.048249 322.310037 240.460980 334.838556 243.873710 345.909067 247.286440 354.708861 250.699171 370.460826 254.111901 384.794352 257.524631 393.381076 260.937362 399.946677 264.350092 400.095826 267.762822 404.612911 271.175553 413.881459 274.588283 417.083597 278.001013 417.494518 281.413744 414.901151 284.826474 409.142172 288.239205 406.083095 291.651935 401.879527 295.064665 403.492772 298.477396 409.248707 301.890126 408.028120 305.302856 405.687393 308.715587 407.799831 312.128317 403.325360 315.541047 399.255721 318.953778 394.449470 322.366508 388.176079 325.779238 389.901946 329.191969 392.263980 332.604699 394.848215 336.017429 402.564395 339.430160 406.725349 342.842890 408.576014 346.255620 414.773309 349.668351 415.004642 353.081081 418.715105 356.493811 420.781885 359.906542 410.816294 363.319272 409.297409 366.732002 414.064090 370.144733 408.904751 373.557463 403.803245 376.970193 400.893317 380.382924 398.750441 383.795654 404.189815 387.208384 408.475567 390.621115 406.433138 394.033845 408.782997 397.446575 418.888605 400.859306 422.843591 404.272036 420.705788 407.684766 412.759290 411.097497 401.753714 414.510227 390.804957 417.922957 386.558775 421.335688 384.482864 424.748418 384.330671 428.161148 389.527552 431.573879 399.763031 434.986609 407.711559 438.399339 416.830957 441.812070 419.182845 445.224800 417.358559 448.637530 416.477870 452.050261 414.324847 455.462991 406.587361 458.875722 397.431436 462.288452 381.315223 465.701182 365.907214 469.113913 354.624647 472.526643 350.034510 475.939373 350.176556 479.352104 352.238263 482.764834 350.375422 486.177564 362.124713 489.590295 378.005535 493.003025 384.279940 496.415755 386.562834 499.828486 384.813630 503.241216 388.103026 506.653946 392.975228 510.066677 394.888800 513.479407 392.640404 516.892137 395.824279 520.304868 394.525566 523.717598 396.140840 527.130328 396.217951 530.543059 397.603921 533.955789 395.038964 537.368519 393.981730 540.781250 393.638789 544.193980 392.737807 547.606710 388.918780 551.019441 384.336759 554.432171 381.244200 557.844901 380.726744 561.257632 381.386246 564.670362 376.254302 568.083092 375.087490 571.495823 370.897112 574.908553 364.823601 578.321283 365.178717 581.734014 365.673852 585.146744 358.975335 588.559474 350.756919 591.972205 349.937106 595.384935 354.411577 598.797665 361.150679 602.210396 364.628794" class="line reactive nofill"/></g><g class="series serie-2 color-2"><path d="M11.808047 178.950416 L15.220777 112.003805 18.633508 77.093799 22.046238 73.228099 25.458968 88.316503 28.871699 79.081438 32.284429 73.730336 35.697159 66.020243 39.109890 63.189456 42.522620 67.630444 45.935350 57.807915 49.348081 56.882582 52.760811 81.589577 56.173541 125.469833 59.586272 189.795682 62.999002 270.972329 66.411732 306.271950 69.824463 272.247706 73.237193 261.782922 76.649923 241.139478 80.062654 176.612734 83.475384 107.559773 86.888114 37.076198 90.300845 9.182284 93.713575 48.003648 97.126305 9.300995 100.539036 16.514938 103.951766 55.588942 107.364496 86.261899 110.777227 97.950313 114.189957 123.670913 117.602688 144.950523 121.015418 171.422956 124.428148 151.954440 127.840879 172.817043 131.253609 181.857301 134.666339 202.406386 138.079070 219.491560 141.491800 233.846394 144.904530 254.301119 148.317261 275.809019 151.729991 253.582769 155.142721 244.140722 158.555452 236.132331 161.968182 229.304958 165.380912 201.949807 168.793643 156.307157 172.206373 132.364171 175.619103 149.711117 179.031834 183.412712 182.444564 211.961056 185.857294 214.624431 189.270025 241.501697 192.682755 302.634539 196.095485 336.397011 199.508216 320.514161 202.920946 306.171502 206.333676 327.253262 209.746407 343.066104 213.159137 338.956896 216.571867 325.414772 219.984598 314.697348 223.397328 310.670324 226.810058 283.720006 230.222789 257.198872 233.635519 248.079474 237.048249 252.429147 240.460980 271.842873 243.873710 286.821697 247.286440 300.172058 250.699171 336.661827 254.111901 359.980823 257.524631 371.985798 260.937362 379.884610 264.350092 379.778075 267.762822 384.599546 271.175553 400.162791 274.588283 407.391954 278.001013 408.804304 281.413744 405.599121 284.826474 398.930029 288.239205 395.621355 291.651935 391.049481 295.064665 393.119304 298.477396 400.275414 301.890126 397.335047 305.302856 394.081163 308.715587 396.327530 312.128317 390.434621 315.541047 385.110914 318.953778 379.071900 322.366508 371.285711 325.779238 374.819630 329.191969 377.626067 332.604699 380.922565 336.017429 390.708568 339.430160 395.822250 342.842890 397.155460 346.255620 404.637262 349.668351 403.912824 353.081081 408.530357 356.493811 410.864996 359.906542 397.989477 363.319272 396.564951 366.732002 402.877912 370.144733 396.811504 373.557463 389.716271 376.970193 385.704466 380.382924 382.356222 383.795654 388.075631 387.208384 392.428348 390.621115 388.827464 394.033845 391.159059 397.446575 404.664657 400.859306 409.018388 404.272036 405.635648 407.684766 387.774289 411.097497 368.747133 414.510227 345.866453 417.922957 339.711773 421.335688 336.044939 424.748418 336.763289 428.161148 344.245092 431.573879 365.503396 434.986609 380.042890 438.399339 400.661984 441.812070 404.237502 445.224800 402.047954 448.637530 400.661984 452.050261 398.111231 455.462991 386.136694 458.875722 375.055022 462.288452 349.145703 465.701182 323.009110 469.113913 306.225277 472.526643 300.535292 475.939373 300.263374 479.352104 303.073870 482.764834 297.655802 486.177564 319.462001 489.590295 345.081138 493.003025 355.261828 496.415755 357.341798 499.828486 355.261828 503.241216 361.489562 506.653946 369.273721 510.066677 370.377627 513.479407 368.348388 516.892137 372.047690 520.304868 370.339071 523.717598 371.658076 527.130328 369.342715 530.543059 371.451094 533.955789 364.048431 537.368519 361.698573 540.781250 360.781357 544.193980 360.276077 547.606710 355.955828 551.019441 350.178586 554.432171 345.884717 557.844901 346.377822 561.257632 346.389997 564.670362 338.126937 568.083092 335.079021 571.495823 328.477908 574.908553 315.042319 578.321283 312.743192 581.734014 313.258618 585.146744 302.016636 588.559474 289.800620 591.972205 289.404918 595.384935 294.965032 598.797665 305.295886 602.210396 308.976925" class="line reactive nofill"/></g><g class="series serie-3 color-3"><path d="M11.808047 389.016183 L15.220777 378.746207 18.633508 371.867088 22.046238 373.772543 25.458968 376.365910 28.871699 372.317579 32.284429 371.057422 35.697159 369.237195 39.109890 365.608916 42.522620 364.391373 45.935350 355.710290 49.348081 353.920502 52.760811 356.020764 56.173541 359.454235 59.586272 357.439201 62.999002 347.035295 66.411732 326.629271 69.824463 287.777469 73.237193 278.688509 76.649923 277.020475 80.062654 272.619056 83.475384 277.817966 86.888114 289.865555 90.300845 317.954276 93.713575 362.997286 97.126305 360.562200 100.539036 342.974788 103.951766 344.222770 107.364496 340.503176 110.777227 341.702456 114.189957 338.232458 117.602688 331.639462 121.015418 335.523424 124.428148 348.514610 127.840879 351.960257 131.253609 355.004115 134.666339 351.710661 138.079070 351.150591 141.491800 356.239921 144.904530 354.876273 148.317261 361.798006 151.729991 357.956657 155.142721 354.626677 158.555452 356.142518 161.968182 354.608413 165.380912 346.803962 168.793643 341.580702 172.206373 326.811903 175.619103 319.798854 179.031834 319.926696 182.444564 321.192941 185.857294 293.932150 189.270025 295.094903 192.682755 305.687529 196.095485 317.132435 199.508216 323.086221 202.920946 325.259535 206.333676 334.890302 209.746407 370.119913 213.159137 377.376471 216.571867 373.827332 219.984598 366.114196 223.397328 361.116182 226.810058 356.982623 230.222789 350.894907 233.635519 346.420436 237.048249 345.178542 240.460980 346.505664 243.873710 348.234575 247.286440 354.797133 250.699171 363.533005 254.111901 369.170230 257.524631 370.454738 260.937362 367.404792 264.350092 369.358949 267.762822 369.632896 271.175553 372.719368 274.588283 376.694647 278.001013 378.070470 281.413744 381.016925 284.826474 387.074202 288.239205 390.276341 291.651935 398.987862 295.064665 397.362442 298.477396 396.857161 301.890126 396.175337 305.302856 398.427792 308.715587 401.836913 312.128317 403.602351 315.541047 403.109246 318.953778 407.151489 322.366508 406.567068 325.779238 405.215595 329.191969 400.528054 332.604699 396.826723 336.017429 397.892073 339.430160 397.922512 342.842890 391.676515 346.255620 384.876537 349.668351 381.382188 353.081081 379.957662 356.493811 386.045378 359.906542 389.594516 363.319272 397.173723 366.732002 403.103158 370.144733 410.463206 373.557463 414.669818 376.970193 420.599253 380.382924 418.212869 383.795654 412.709574 387.208384 408.143787 390.621115 407.942892 394.033845 407.358471 397.446575 409.595707 400.859306 410.009672 404.272036 410.174040 407.684766 406.771007 411.097497 400.951150 414.510227 394.391637 417.922957 393.895488 421.335688 392.102655 424.748418 386.243229 428.161148 377.945672 431.573879 381.546556 434.986609 386.209746 438.399339 393.329330 441.812070 394.988233 445.224800 397.715529 448.637530 405.325174 452.050261 412.557381 455.462991 407.361515 458.875722 400.451958 462.288452 391.201673 465.701182 378.670110 469.113913 368.461011 472.526643 361.828444 475.939373 357.323535 479.352104 354.346642 482.764834 351.534117 486.177564 355.077168 489.590295 363.350373 493.003025 364.805337 496.415755 368.068353 499.828486 371.608360 503.241216 378.858830 506.653946 385.193098 510.066677 386.645018 513.479407 390.209376 516.892137 396.507118 520.304868 394.297277 523.717598 396.567995 527.130328 399.614897 530.543059 402.789641 533.955789 406.804489 537.368519 405.614341 540.781250 397.937731 544.193980 398.981774 547.606710 394.482952 551.019441 386.109299 554.432171 385.034817 557.844901 383.588985 561.257632 387.643403 564.670362 397.100670 568.083092 395.916609 571.495823 393.755470 574.908553 394.616882 578.321283 381.080846 581.734014 218.423166 585.146744 212.563739 588.559474 205.982919 591.972205 200.896632 595.384935 191.527637 598.797665 186.346991 602.210396 194.102741" class="line reactive nofill"/></g><g class="series serie-4 color-4"><path d="M11.808047 467.091139 L15.220777 465.770105 18.633508 465.057842 22.046238 465.082193 25.458968 465.398754 28.871699 465.575298 32.284429 465.636175 35.697159 465.447456 39.109890 465.410930 42.522620 465.009140 45.935350 464.905649 49.348081 464.832597 52.760811 464.887386 56.173541 464.960439 59.586272 465.465719 62.999002 466.798929 66.411732 467.620770 69.824463 467.011999 73.237193 467.085051 76.649923 467.054613 80.062654 466.214508 83.475384 465.636175 86.888114 464.442983 90.300845 464.175123 93.713575 464.613439 97.126305 463.578527 100.539036 463.529825 103.951766 464.266439 107.364496 464.552562 110.777227 465.210035 114.189957 465.593561 117.602688 465.849245 121.015418 466.652824 124.428148 466.494543 127.840879 466.598034 131.253609 466.786753 134.666339 466.817192 138.079070 466.945034 141.491800 467.121578 144.904530 467.024174 148.317261 466.969385 151.729991 466.518894 155.142721 466.141456 158.555452 465.654438 161.968182 465.252649 165.380912 464.668228 168.793643 464.309053 172.206373 464.309053 175.619103 464.759544 179.031834 465.240474 182.444564 466.202333 185.857294 466.652824 189.270025 467.237244 192.682755 462.841914 196.095485 463.158475 199.508216 462.841914 202.920946 462.628843 206.333676 462.580142 209.746407 462.555791 213.159137 462.427949 216.571867 466.768490 219.984598 466.616297 223.397328 466.482368 226.810058 465.952736 230.222789 465.739666 233.635519 465.684877 237.048249 465.812719 240.460980 466.555420 243.873710 466.707613 247.286440 467.103315 250.699171 467.651209 254.111901 467.383350 257.524631 466.780666 260.937362 466.147543 264.350092 465.538772 267.762822 464.930000 271.175553 464.376018 274.588283 463.937702 278.001013 463.682018 281.413744 463.572439 284.826474 463.304580 288.239205 463.280229 291.651935 463.280229 295.064665 463.353282 298.477396 463.730720 301.890126 464.418632 305.302856 465.027404 308.715587 465.697052 312.128317 466.244947 315.541047 466.853718 318.953778 467.255508 322.366508 467.511192 325.779238 467.486841 329.191969 467.669472 332.604699 467.900805 336.017429 467.986033 339.430160 467.986033 342.842890 468.119963 346.255620 468.119963 349.668351 468.296507 353.081081 468.296507 356.493811 468.296507 359.906542 468.296507 363.319272 468.296507 366.732002 468.266068 370.144733 468.266068 373.557463 468.211279 376.970193 468.132139 380.382924 468.083437 383.795654 468.083437 387.208384 468.083437 390.621115 468.113875 394.033845 468.059086 397.446575 468.113875 400.859306 468.193016 404.272036 468.241718 407.684766 467.815577 411.097497 467.742525 414.510227 467.352911 417.922957 467.054613 421.335688 466.573683 424.748418 466.445841 428.161148 466.232771 431.573879 466.281473 434.986609 465.849245 438.399339 466.214508 441.812070 466.567596 445.224800 467.048525 448.637530 467.176367 452.050261 467.389437 455.462991 467.639034 458.875722 467.961683 462.288452 467.535542 465.701182 467.042437 469.113913 466.762403 472.526643 466.634561 475.939373 466.531069 479.352104 466.232771 482.764834 465.934473 486.177564 466.232771 489.590295 466.549333 493.003025 466.524982 496.415755 466.652824 499.828486 466.683262 503.241216 467.060701 506.653946 467.322472 510.066677 467.212894 513.479407 467.365086 516.892137 467.669472 520.304868 467.669472 523.717598 467.742525 527.130328 467.791227 530.543059 468.010384 533.955789 468.272156 537.368519 468.296507 540.781250 468.296507 544.193980 468.296507 547.606710 468.296507 551.019441 467.967770 554.432171 467.791227 557.844901 467.632946 561.257632 467.632946 564.670362 467.632946 568.083092 467.632946 571.495823 467.632946 574.908553 467.961683 578.321283 468.138226 581.734014 468.296507 585.146744 468.296507 588.559474 468.296507 591.972205 468.296507 595.384935 468.296507 598.797665 468.296507 602.210396 468.296507" class="line reactive nofill"/></g></g><g class="titles"><text x="400.0" y="26" class="title plot_title">Barcelona Air Quality - 2020 Overview</text><text x="436.60922137642274" y="580.0" class="title">Average over 7 days</text><text x="55.6" y="310.7393957002299" class="title" transform="rotate(-90 55.600000 284.739396)">micrograms per cubic meter air µg/m³</text></g><g transform="translate(129, 46)" class="plot overlay"><g class="series serie-0 color-0"/><g class="series serie-1 color-1"/><g class="series serie-2 color-2"/><g class="series serie-3 color-3"/><g class="series serie-4 color-4"/></g><g transform="translate(129, 46)" class="plot text-overlay"><g class="series serie-0 color-0"/><g class="series serie-1 color-1"/><g class="series serie-2 color-2"/><g class="series serie-3 color-3"/><g class="series serie-4 color-4"/></g><g transform="translate(129, 46)" class="plot tooltip-overlay"><g transform="translate(0 0)" style="opacity: 0" class="tooltip"><rect rx="0" ry="0" width="0" height="0" class="tooltip-box"/><g class="text"/></g></g><g transform="translate(10, 56)" class="legends"><g id="activate-serie-0" class="legend reactive activate-serie"><rect x="0.0" y="1.0" width="12" height="12" class="color-0 reactive"/><text x="17.0" y="11.2">NO</text></g><g id="activate-serie-1" class="legend reactive activate-serie"><rect x="0.0" y="22.0" width="12" height="12" class="color-1 reactive"/><text x="17.0" y="32.2">NO2</text></g><g id="activate-serie-2" class="legend reactive activate-serie"><rect x="0.0" y="43.0" width="12" height="12" class="color-2 reactive"/><text x="17.0" y="53.2">NOx</text></g><g id="activate-serie-3" class="legend reactive activate-serie"><rect x="0.0" y="64.0" width="12" height="12" class="color-3 reactive"/><text x="17.0" y="74.2">PM10</text></g><g id="activate-serie-4" class="legend reactive activate-serie"><rect x="0.0" y="85.0" width="12" height="12" class="color-4 reactive"/><text x="17.0" y="95.2">SO2</text></g></g><g transform="translate(753, 56)" class="legends"/></g></svg>