<?xml version='1.0' encoding='utf-8'?>
<svg xmlns="http://www.w3.org/2000/svg" xmlns:xlink="http://www.w3.org/1999/xlink" id="chart-01182da3-bbb3-4cc8-b18d-94f413caee2b" class="pygal-chart" viewBox="0 0 800 600"><!--Generated with pygal 2.4.0 (lxml) ©Kozea 2012-2016 on 2020-05-16--><!--http://pygal.org--><!--http://github.com/Kozea/pygal--><defs><style type="text/css">#chart-01182da3-bbb3-4cc8-b18d-94f413caee2b{-webkit-user-select:none;-webkit-font-smoothing:antialiased;font-family:Consolas,"Liberation Mono",Menlo,Courier,monospace}#chart-01182da3-bbb3-4cc8-b18d-94f413caee2b .title{font-family:Consolas,"Liberation Mono",Menlo,Courier,monospace;font-size:16px}#chart-01182da3-bbb3-4cc8-b18d-94f413caee2b .legends .legend text{font-family:Consolas,"Liberation Mono",Menlo,Courier,monospace;font-size:14px}#chart-01182da3-bbb3-4cc8-b18d-94f413caee2b .axis text{font-family:Consolas,"Liberation Mono",Menlo,Courier,monospace;font-size:10px}#chart-01182da3-bbb3-4cc8-b18d-94f413caee2b .axis text.major{font-family:Consolas,"Liberation Mono",Menlo,Courier,monospace;font-size:10px}#chart-01182da3-bbb3-4cc8-b18d-94f413caee2b .text-overlay text.value{font-family:Consolas,"Liberation Mono",Menlo,Courier,monospace;font-size:16px}#chart-01182da3-bbb3-4cc8-b18d-94f413caee2b .text-overlay text.label{font-family:Consolas,"Liberation Mono",Menlo,Courier,monospace;font-size:10px}#chart-01182da3-bbb3-4cc8-b18d-94f413caee2b .tooltip{font-family:Consolas,"Liberation Mono",Menlo,Courier,monospace;font-size:14px}#chart-01182da3-bbb3-4cc8-b18d-94f413caee2b text.no_data{font-family:Consolas,"Liberation Mono",Menlo,Courier,monospace;font-size:64px}
#chart-01182da3-bbb3-4cc8-b18d-94f413caee2b{background-color:#fdf6e3}#chart-01182da3-bbb3-4cc8-b18d-94f413caee2b path,#chart-01182da3-bbb3-4cc8-b18d-94f413caee2b line,#chart-01182da3-bbb3-4cc8-b18d-94f413caee2b rect,#chart-01182da3-bbb3-4cc8-b18d-94f413caee2b circle{-webkit-transition:500ms ease-in;-moz-transition:500ms ease-in;transition:500ms ease-in}#chart-01182da3-bbb3-4cc8-b18d-94f413caee2b .graph &gt; .background{fill:#fdf6e3}#chart-01182da3-bbb3-4cc8-b18d-94f413caee2b .plot &gt; .background{fill:#eee8d5}#chart-01182da3-bbb3-4cc8-b18d-94f413caee2b .graph{fill:#657b83}#chart-01182da3-bbb3-4cc8-b18d-94f413caee2b text.no_data{fill:#073642}#chart-01182da3-bbb3-4cc8-b18d-94f413caee2b .title{fill:#073642}#chart-01182da3-bbb3-4cc8-b18d-94f413caee2b .legends .legend text{fill:#657b83}#chart-01182da3-bbb3-4cc8-b18d-94f413caee2b .legends .legend:hover text{fill:#073642}#chart-01182da3-bbb3-4cc8-b18d-94f413caee2b .axis .line{stroke:#073642}#chart-01182da3-bbb3-4cc8-b18d-94f413caee2b .axis .guide.line{stroke:#073642}#chart-01182da3-bbb3-4cc8-b18d-94f413caee2b .axis .major.line{stroke:#657b83}#chart-01182da3-bbb3-4cc8-b18d-94f413caee2b .axis text.major{fill:#073642}#chart-01182da3-bbb3-4cc8-b18d-94f413caee2b .axis.y .guides:hover .guide.line,#chart-01182da3-bbb3-4cc8-b18d-94f413caee2b .line-graph .axis.x .guides:hover .guide.line,#chart-01182da3-bbb3-4cc8-b18d-94f413caee2b .stackedline-graph .axis.x .guides:hover .guide.line,#chart-01182da3-bbb3-4cc8-b18d-94f413caee2b .xy-graph .axis.x .guides:hover .guide.line{stroke:#073642}#chart-01182da3-bbb3-4cc8-b18d-94f413caee2b .axis .guides:hover text{fill:#073642}#chart-01182da3-bbb3-4cc8-b18d-94f413caee2b .reactive{fill-opacity:.66;stroke-opacity:.8}#chart-01182da3-bbb3-4cc8-b18d-94f413caee2b .ci{stroke:#657b83}#chart-01182da3-bbb3-4cc8-b18d-94f413caee2b .reactive.active,#chart-01182da3-bbb3-4cc8-b18d-94f413caee2b .active .reactive{fill-opacity:.9;stroke-opacity:.9;stroke-width:4}#chart-01182da3-bbb3-4cc8-b18d-94f413caee2b .ci .reactive.active{stroke-width:1.5}#chart-01182da3-bbb3-4cc8-b18d-94f413caee2b .series text{fill:#073642}#chart-01182da3-bbb3-4cc8-b18d-94f413caee2b .tooltip rect{fill:#eee8d5;stroke:#073642;-webkit-transition:opacity 500ms ease-in;-moz-transition:opacity 500ms ease-in;transition:opacity 500ms ease-in}#chart-01182da3-bbb3-4cc8-b18d-94f413caee2b .tooltip .label{fill:#657b83}#chart-01182da3-bbb3-4cc8-b18d-94f413caee2b .tooltip .label{fill:#657b83}#chart-01182da3-bbb3-4cc8-b18d-94f413caee2b .tooltip .legend{font-size:.8em;fill:#073642}#chart-01182da3-bbb3-4cc8-b18d-94f413caee2b .tooltip .x_label{font-size:.6em;fill:#073642}#chart-01182da3-bbb3-4cc8-b18d-94f413caee2b .tooltip .xlink{font-size:.5em;text-decoration:underline}#chart-01182da3-bbb3-4cc8-b18d-94f413caee2b .tooltip .value{font-size:1.5em}#chart-01182da3-bbb3-4cc8-b18d-94f413caee2b .bound{font-size:.5em}#chart-01182da3-bbb3-4cc8-b18d-94f413caee2b .max-value{font-size:.75em;fill:#073642}#chart-01182da3-bbb3-4cc8-b18d-94f413caee2b .map-element{fill:#eee8d5;stroke:#073642 !important}#chart-01182da3-bbb3-4cc8-b18d-94f413caee2b .map-element .reactive{fill-opacity:inherit;stroke-opacity:inherit}#chart-01182da3-bbb3-4cc8-b18d-94f413caee2b .color-0,#chart-01182da3-bbb3-4cc8-b18d-94f413caee2b .color-0 a:visited{stroke:#e86258;fill:#e86258}#chart-01182da3-bbb3-4cc8-b18d-94f413caee2b .color-1,#chart-01182da3-bbb3-4cc8-b18d-94f413caee2b .color-1 a:visited{stroke:#ffec12;fill:#ffec12}#chart-01182da3-bbb3-4cc8-b18d-94f413caee2b .color-2,#chart-01182da3-bbb3-4cc8-b18d-94f413caee2b .color-2 a:visited{stroke:#14e35d;fill:#14e35d}#chart-01182da3-bbb3-4cc8-b18d-94f413caee2b .color-3,#chart-01182da3-bbb3-4cc8-b18d-94f413caee2b .color-3 a:visited{stroke:#53f5ed;fill:#53f5ed}#chart-01182da3-bbb3-4cc8-b18d-94f413caee2b .color-4,#chart-01182da3-bbb3-4cc8-b18d-94f413caee2b .color-4 a:visited{stroke:#b753f5;fill:#b753f5}#chart-01182da3-bbb3-4cc8-b18d-94f413caee2b .text-overlay .color-0 text{fill:black}#chart-01182da3-bbb3-4cc8-b18d-94f413caee2b .text-overlay .color-1 text{fill:black}#chart-01182da3-bbb3-4cc8-b18d-94f413caee2b .text-overlay .color-2 text{fill:black}#chart-01182da3-bbb3-4cc8-b18d-94f413caee2b .text-overlay .color-3 text{fill:black}#chart-01182da3-bbb3-4cc8-b18d-94f413caee2b .text-overlay .color-4 text{fill:black}
#chart-01182da3-bbb3-4cc8-b18d-94f413caee2b text.no_data{text-anchor:middle}#chart-01182da3-bbb3-4cc8-b18d-94f413caee2b .guide.line{fill:none}#chart-01182da3-bbb3-4cc8-b18d-94f413caee2b .centered{text-anchor:middle}#chart-01182da3-bbb3-4cc8-b18d-94f413caee2b .title{text-anchor:middle}#chart-01182da3-bbb3-4cc8-b18d-94f413caee2b .legends .legend text{fill-opacity:1}#chart-01182da3-bbb3-4cc8-b18d-94f413caee2b .axis.x text{text-anchor:middle}#chart-01182da3-bbb3-4cc8-b18d-94f413caee2b .axis.x:not(.web) text[transform]{text-anchor:start}#chart-01182da3-bbb3-4cc8-b18d-94f413caee2b .axis.x:not(.web) text[transform].backwards{text-anchor:end}#chart-01182da3-bbb3-4cc8-b18d-94f413caee2b .axis.y text{text-anchor:end}#chart-01182da3-bbb3-4cc8-b18d-94f413caee2b .axis.y text[transform].backwards{text-anchor:start}#chart-01182da3-bbb3-4cc8-b18d-94f413caee2b .axis.y2 text{text-anchor:start}#chart-01182da3-bbb3-4cc8-b18d-94f413caee2b .axis.y2 text[transform].backwards{text-anchor:end}#chart-01182da3-bbb3-4cc8-b18d-94f413caee2b .axis .guide.line{stroke-dasharray:4,4}#chart-01182da3-bbb3-4cc8-b18d-94f413caee2b .axis .major.guide.line{stroke-dasharray:6,6}#chart-01182da3-bbb3-4cc8-b18d-94f413caee2b .horizontal .axis.y .guide.line,#chart-01182da3-bbb3-4cc8-b18d-94f413caee2b .horizontal .axis.y2 .guide.line,#chart-01182da3-bbb3-4cc8-b18d-94f413caee2b .vertical .axis.x .guide.line{opacity:0}#chart-01182da3-bbb3-4cc8-b18d-94f413caee2b .horizontal .axis.always_show .guide.line,#chart-01182da3-bbb3-4cc8-b18d-94f413caee2b .vertical .axis.always_show .guide.line{opacity:1 !important}#chart-01182da3-bbb3-4cc8-b18d-94f413caee2b .axis.y .guides:hover .guide.line,#chart-01182da3-bbb3-4cc8-b18d-94f413caee2b .axis.y2 .guides:hover .guide.line,#chart-01182da3-bbb3-4cc8-b18d-94f413caee2b .axis.x .guides:hover .guide.line{opacity:1}#chart-01182da3-bbb3-4cc8-b18d-94f413caee2b .axis .guides:hover text{opacity:1}#chart-01182da3-bbb3-4cc8-b18d-94f413caee2b .nofill{fill:none}#chart-01182da3-bbb3-4cc8-b18d-94f413caee2b .subtle-fill{fill-opacity:.2}#chart-01182da3-bbb3-4cc8-b18d-94f413caee2b .dot{stroke-width:1px;fill-opacity:1}#chart-01182da3-bbb3-4cc8-b18d-94f413caee2b .dot.active{stroke-width:5px}#chart-01182da3-bbb3-4cc8-b18d-94f413caee2b .dot.negative{fill:transparent}#chart-01182da3-bbb3-4cc8-b18d-94f413caee2b text,#chart-01182da3-bbb3-4cc8-b18d-94f413caee2b tspan{stroke:none !important}#chart-01182da3-bbb3-4cc8-b18d-94f413caee2b .series text.active{opacity:1}#chart-01182da3-bbb3-4cc8-b18d-94f413caee2b .tooltip rect{fill-opacity:.95;stroke-width:.5}#chart-01182da3-bbb3-4cc8-b18d-94f413caee2b .tooltip text{fill-opacity:1}#chart-01182da3-bbb3-4cc8-b18d-94f413caee2b .showable{visibility:hidden}#chart-01182da3-bbb3-4cc8-b18d-94f413caee2b .showable.shown{visibility:visible}#chart-01182da3-bbb3-4cc8-b18d-94f413caee2b .gauge-background{fill:rgba(229,229,229,1);stroke:none}#chart-01182da3-bbb3-4cc8-b18d-94f413caee2b .bg-lines{stroke:#fdf6e3;stroke-width:2px}</style><script type="text/javascript">window.pygal = window.pygal || {};window.pygal.config = window.pygal.config || {};window.pygal.config['01182da3-bbb3-4cc8-b18d-94f413caee2b'] = {"allow_interruptions": false, "box_mode": "extremes", "classes": ["pygal-chart"], "css": ["file://style.css", "file://graph.css"], "defs": [], "disable_xml_declaration": false, "dots_size": 2.5, "dynamic_print_values": false, "explicit_size": false, "fill": false, "force_uri_protocol": "https", "formatter": null, "half_pie": false, "height": 600, "include_x_axis": false, "inner_radius": 0, "interpolate": null, "interpolation_parameters": {}, "interpolation_precision": 250, "inverse_y_axis": false, "js": ["//kozea.github.io/pygal.js/2.0.x/pygal-tooltips.min.js"], "legend_at_bottom": false, "legend_at_bottom_columns": null, "legend_box_size": 12, "logarithmic": false, "margin": 20, "margin_bottom": null, "margin_left": null, "margin_right": null, "margin_top": null, "max_scale": 16, "min_scale": 4, "missing_value_fill_truncation": "x", "no_data_text": "No data", "no_prefix": false, "order_min": null, "pretty_print": false, "print_labels": false, "print_values": false, "print_values_position": "center", "print_zeroes": true, "range": null, "rounded_bars": null, "secondary_range": null, "show_dots": false, "show_legend": true, "show_minor_x_labels": false, "show_minor_y_labels": true, "show_only_major_dots": false, "show_x_guides": false, "show_x_labels": true, "show_y_guides": true, "show_y_labels": true, "spacing": 10, "stack_from_top": false, "strict": false, "stroke": true, "stroke_style": null, "style": {"background": "#fdf6e3", "ci_colors": [], "colors": ["#e86258", "#ffec12", "#14e35d", "#53f5ed", "#b753f5"], "font_family": "Consolas, \"Liberation Mono\", Menlo, Courier, monospace", "foreground": "#657b83", "foreground_strong": "#073642", "foreground_subtle": "#073642", "guide_stroke_dasharray": "4,4", "label_font_family": "Consolas, \"Liberation Mono\", Menlo, Courier, monospace", "label_font_size": 10, "legend_font_family": "Consolas, \"Liberation Mono\", Menlo, Courier, monospace", "legend_font_size": 14, "major_guide_stroke_dasharray": "6,6", "major_label_font_family": "Consolas, \"Liberation Mono\", Menlo, Courier, monospace", "major_label_font_size": 10, "no_data_font_family": "Consolas, \"Liberation Mono\", Menlo, Courier, monospace", "no_data_font_size": 64, "opacity": ".66", "opacity_hover": ".9", "plot_background": "#eee8d5", "stroke_opacity": ".8", "stroke_opacity_hover": ".9", "title_font_family": "Consolas, \"Liberation Mono\", Menlo, Courier, monospace", "title_font_size": 16, "tooltip_font_family": "Consolas, \"Liberation Mono\", Menlo, Courier, monospace", "tooltip_font_size": 14, "transition": "500ms ease-in", "value_background": "rgba(229, 229, 229, 1)", "value_colors": [], "value_font_family": "Consolas, \"Liberation Mono\", Menlo, Courier, monospace", "value_font_size": 16, "value_label_font_family": "Consolas, \"Liberation Mono\", Menlo, Courier, monospace", "value_label_font_size": 10}, "title": "Barcelona Air Quality - 2020 Overview", "tooltip_border_radius": 0, "tooltip_fancy_mode": true, "truncate_label": null, "truncate_legend": null, "width": 800, "x_label_rotation": 20, "x_labels": ["2020-01-07", "2020-01-08", "2020-01-09", "2020-01-10", "2020-01-11", "2020-01-12", "2020-01-13", "2020-01-14", "2020-01-15", "2020-01-16", "2020-01-17", "2020-01-18", "2020-01-19", "2020-01-20", "2020-01-21", "2020-01-22", "2020-01-23", "2020-01-24", "2020-01-27", "2020-01-28", "2020-01-29", "2020-01-30", "2020-01-31", "2020-02-01", "2020-02-02", "2020-02-03", "2020-02-04", "2020-02-05", "2020-02-06", "2020-02-07", "2020-02-08", "2020-02-09", "2020-02-10", "2020-02-11", "2020-02-12", "2020-02-13", "2020-02-14", "2020-02-15", "2020-02-16", "2020-02-17", "2020-02-18", "2020-02-19", "2020-02-20", "2020-02-21", "2020-02-22", "2020-02-23", "2020-02-24", "2020-02-25", "2020-02-26", "2020-02-27", "2020-02-28", "2020-02-29", "2020-03-01", "2020-03-02", "2020-03-03", "2020-03-04", "2020-03-05", "2020-03-06", "2020-03-07", "2020-03-08", "2020-03-09", "2020-03-10", "2020-03-11", "2020-03-12", "2020-03-13", "2020-03-14", "2020-03-15", "2020-03-16", "2020-03-17", "2020-03-18", "2020-03-19", "2020-03-20", "2020-03-21", "2020-03-22", "2020-03-23", "2020-03-24", "2020-03-25", "2020-03-26", "2020-03-27", "2020-03-28", "2020-03-29", "2020-03-30", "2020-03-31", "2020-04-01", "2020-04-02", "2020-04-03", "2020-04-04", "2020-04-05", "2020-04-06", "2020-04-07", "2020-04-08", "2020-04-09", "2020-04-10", "2020-04-11", "2020-04-12", "2020-04-13", "2020-04-14", "2020-04-15", "2020-04-16", "2020-04-17", "2020-04-18", "2020-04-19", "2020-04-20", "2020-04-21", "2020-04-22", "2020-04-23", "2020-04-24", "2020-04-25", "2020-04-26", "2020-04-27", "2020-04-28", "2020-04-29", "2020-04-30"], "x_labels_major": ["2020-01-07", "2020-01-14", "2020-01-21", "2020-01-30", "2020-02-06", "2020-02-13", "2020-02-20", "2020-02-27", "2020-03-05", "2020-03-12", "2020-03-19", "2020-03-26", "2020-04-02", "2020-04-09", "2020-04-16", "2020-04-23", "2020-04-30"], "x_labels_major_count": null, "x_labels_major_every": null, "x_title": "Average over 7 days", "xrange": null, "y_label_rotation": 0, "y_labels": null, "y_labels_major": null, "y_labels_major_count": null, "y_labels_major_every": null, "y_title": "micrograms per cubic meter air \u00b5g/m\u00b3", "zero": 0, "legends": ["NO", "NO2", "NOx", "PM10", "SO2"]}</script><script type="text/javascript" xlink:href="https://kozea.github.io/pygal.js/2.0.x/pygal-tooltips.min.js"/></defs><title>Barcelona Air Quality - 2020 Overview</title><g class="graph line-graph vertical"><rect x="0" y="0" width="800" height="600" class="background"/><g transform="translate(129, 46)" class="plot"><rect x="0" y="0" width="614.0184427528454" height="477.47879140045984" class="background"/><g class="axis y always_show"><path d="M0.000000 477.478791 h614.018443" class="line"/><g class="guides"><path d="M0.000000 429.943897 h614.018443" class="guide line"/><text x="-5" y="433.44389708718785" class="">10</text><title>10</title></g><g class="guides"><path d="M0.000000 387.329886 h614.018443" class="guide line"/><text x="-5" y="390.8298861280066" class="">20</text><title>20</title></g><g class="guides"><path d="M0.000000 344.715875 h614.018443" class="guide line"/><text x="-5" y="348.21587516882533" class="">30</text><title>30</title></g><g class="guides"><path d="M0.000000 302.101864 h614.018443" class="guide line"/><text x="-5" y="305.6018642096441" class="">40</text><title>40</title></g><g class="guides"><path d="M0.000000 259.487853 h614.018443" class="major guide line"/><text x="-5" y="262.98785325046276" class="major">50</text><title>50</title></g><g class="guides"><path d="M0.000000 216.873842 h614.018443" class="guide line"/><text x="-5" y="220.3738422912815" class="">60</text><title>60</title></g><g class="guides"><path d="M0.000000 174.259831 h614.018443" class="guide line"/><text x="-5" y="177.7598313321003" class="">70</text><title>70</title></g><g class="guides"><path d="M0.000000 131.645820 h614.018443" class="guide line"/><text x="-5" y="135.14582037291905" class="">80</text><title>80</title></g><g class="guides"><path d="M0.000000 89.031809 h614.018443" class="guide line"/><text x="-5" y="92.53180941373779" class="">90</text><title>90</title></g><g class="guides"><path d="M0.000000 46.417798 h614.018443" class="major guide line"/><text x="-5" y="49.917798454556475" class="major">100</text><title>100</title></g></g><g class="axis x"><g class="guides"><path d="M11.808047 0.000000 v477.478791" class="major line"/><text x="11.808046976016257" y="492.47879140045984" class="major" transform="rotate(20 11.808047 492.478791)">2020-01-07</text></g><g class="guides"><path d="M48.708194 0.000000 v477.478791" class="major guide line"/><text x="48.70819377606707" y="492.47879140045984" class="major" transform="rotate(20 48.708194 492.478791)">2020-01-14</text></g><g class="guides"><path d="M85.608341 0.000000 v477.478791" class="major guide line"/><text x="85.60834057611787" y="492.47879140045984" class="major" transform="rotate(20 85.608341 492.478791)">2020-01-21</text></g><g class="guides"><path d="M122.508487 0.000000 v477.478791" class="major guide line"/><text x="122.50848737616867" y="492.47879140045984" class="major" transform="rotate(20 122.508487 492.478791)">2020-01-30</text></g><g class="guides"><path d="M159.408634 0.000000 v477.478791" class="major guide line"/><text x="159.4086341762195" y="492.47879140045984" class="major" transform="rotate(20 159.408634 492.478791)">2020-02-06</text></g><g class="guides"><path d="M196.308781 0.000000 v477.478791" class="major guide line"/><text x="196.3087809762703" y="492.47879140045984" class="major" transform="rotate(20 196.308781 492.478791)">2020-02-13</text></g><g class="guides"><path d="M233.208928 0.000000 v477.478791" class="major guide line"/><text x="233.2089277763211" y="492.47879140045984" class="major" transform="rotate(20 233.208928 492.478791)">2020-02-20</text></g><g class="guides"><path d="M270.109075 0.000000 v477.478791" class="major guide line"/><text x="270.1090745763719" y="492.47879140045984" class="major" transform="rotate(20 270.109075 492.478791)">2020-02-27</text></g><g class="guides"><path d="M307.009221 0.000000 v477.478791" class="major guide line"/><text x="307.0092213764227" y="492.47879140045984" class="major" transform="rotate(20 307.009221 492.478791)">2020-03-05</text></g><g class="guides"><path d="M343.909368 0.000000 v477.478791" class="major guide line"/><text x="343.90936817647355" y="492.47879140045984" class="major" transform="rotate(20 343.909368 492.478791)">2020-03-12</text></g><g class="guides"><path d="M380.809515 0.000000 v477.478791" class="major guide line"/><text x="380.8095149765243" y="492.47879140045984" class="major" transform="rotate(20 380.809515 492.478791)">2020-03-19</text></g><g class="guides"><path d="M417.709662 0.000000 v477.478791" class="major guide line"/><text x="417.7096617765751" y="492.47879140045984" class="major" transform="rotate(20 417.709662 492.478791)">2020-03-26</text></g><g class="guides"><path d="M454.609809 0.000000 v477.478791" class="major guide line"/><text x="454.60980857662594" y="492.47879140045984" class="major" transform="rotate(20 454.609809 492.478791)">2020-04-02</text></g><g class="guides"><path d="M491.509955 0.000000 v477.478791" class="major guide line"/><text x="491.50995537667677" y="492.47879140045984" class="major" transform="rotate(20 491.509955 492.478791)">2020-04-09</text></g><g class="guides"><path d="M528.410102 0.000000 v477.478791" class="major guide line"/><text x="528.4101021767276" y="492.47879140045984" class="major" transform="rotate(20 528.410102 492.478791)">2020-04-16</text></g><g class="guides"><path d="M565.310249 0.000000 v477.478791" class="major guide line"/><text x="565.3102489767784" y="492.47879140045984" class="major" transform="rotate(20 565.310249 492.478791)">2020-04-23</text></g><g class="guides"><path d="M602.210396 0.000000 v477.478791" class="major guide line"/><text x="602.2103957768292" y="492.47879140045984" class="major" transform="rotate(20 602.210396 492.478791)">2020-04-30</text></g></g><g class="series serie-0 color-0"><path d="M11.808047 382.389705 L17.079497 348.818996 22.350946 331.170707 27.622396 334.558521 32.893845 342.697797 38.165295 340.101387 43.436744 339.379992 48.708194 336.972301 53.979643 339.541317 59.251093 345.909067 64.522542 336.814020 69.793992 338.062002 75.065441 345.860366 80.336891 359.195507 85.608341 384.523449 90.879790 419.543035 96.151240 434.582737 101.422689 417.196220 106.694139 413.223986 111.965588 407.729822 117.237038 382.611906 122.508487 349.887390 127.779937 316.298418 133.051386 301.563101 138.322836 318.307364 143.594286 298.032226 148.865735 299.593725 154.137185 318.289101 159.408634 338.877756 164.680084 350.511381 169.951533 368.165757 175.222983 381.354793 180.494432 394.689935 185.765882 385.266150 191.037331 391.786094 196.308781 395.292618 201.580231 399.934502 206.851680 403.839772 212.123130 407.732866 217.394579 417.540176 222.666029 428.775056 227.937478 423.076954 233.208928 420.535332 238.480377 419.765236 243.751827 417.993711 249.023276 410.715847 254.294726 391.594331 259.566175 380.876907 264.837625 385.214405 270.109075 395.155645 275.380524 407.306726 280.651974 407.416305 285.923423 414.441529 291.194873 436.515586 296.466322 448.809729 301.737772 443.409925 307.009221 438.710208 312.280671 444.533108 317.552120 448.076159 322.823570 448.216176 328.095020 445.029257 333.366469 443.976082 338.637919 444.164801 343.909368 433.553913 349.180818 427.469241 354.452267 425.962531 359.723717 426.126899 364.995166 430.376125 370.266616 432.911659 375.538065 435.922034 380.809515 449.445895 386.080965 455.280970 391.352414 457.353838 396.623864 458.041750 401.895313 457.874337 407.166763 457.962609 412.438212 461.965282 417.709662 464.643877 422.981111 465.356140 428.252561 465.109588 433.524010 464.780851 438.795460 464.774763 444.066909 464.579956 449.338359 464.832597 454.609809 465.657482 459.881258 464.467334 465.152708 463.818992 470.424157 463.840299 475.695607 462.884528 480.967056 462.202703 486.238506 461.514791 491.509955 460.592503 496.781405 461.825265 502.052854 462.175309 507.324304 462.543615 512.595754 463.791597 517.867203 464.327316 523.138653 464.062501 528.410102 464.847816 533.681552 464.226869 538.953001 464.671272 544.224451 464.729105 549.495900 462.918010 554.767350 462.991063 560.038799 463.825080 565.310249 463.289361 570.581699 461.962239 575.853148 461.338248 581.124598 460.723388 586.396047 460.963853 591.667497 460.951678 596.938946 459.971556 602.210396 459.947205" class="line reactive nofill"/></g><g class="series serie-1 color-1"><path d="M11.808047 316.471917 L17.079497 300.771698 22.350946 292.924633 27.622396 283.823497 32.893845 286.273803 38.165295 281.010973 43.436744 276.676519 48.708194 272.701241 53.979643 265.925613 59.251093 260.589730 64.522542 264.595447 69.793992 261.831624 75.065441 274.576257 80.336891 297.922647 85.608341 323.457571 90.879790 351.050144 96.151240 363.137303 101.422689 355.740729 106.694139 351.394099 111.965588 339.124308 117.237038 313.026270 122.508487 294.117825 127.779937 275.048055 133.051386 269.897847 138.322836 283.117322 143.594286 275.364616 148.865735 280.204350 154.137185 290.666090 159.408634 289.825985 164.680084 283.790015 169.951533 282.484200 175.222983 283.613471 180.494432 289.661617 185.765882 284.861453 191.037331 295.794991 196.308781 299.462839 201.580231 312.685358 206.851680 323.798484 212.123130 332.239102 217.394579 337.742397 222.666029 341.979447 227.937478 328.516463 233.208928 322.946203 238.480377 316.267979 243.751827 312.088762 249.023276 295.785859 254.294726 279.205965 259.566175 271.581101 264.837625 282.383753 270.109075 300.841707 275.380524 310.785991 280.651974 313.284998 285.923423 329.417445 291.194873 356.997842 296.466322 371.775772 301.737772 364.108294 307.009221 356.964359 312.280671 368.878019 317.552120 379.163215 322.823570 374.697876 328.095020 366.044188 333.366469 356.979579 338.637919 352.575116 343.909368 341.760289 349.180818 324.742079 354.452267 318.136908 359.723717 322.310037 364.995166 334.838556 370.266616 345.909067 375.538065 354.708861 380.809515 370.460826 386.080965 384.794352 391.352414 393.381076 396.623864 399.946677 401.895313 400.095826 407.166763 404.612911 412.438212 413.881459 417.709662 417.083597 422.981111 417.494518 428.252561 414.901151 433.524010 409.142172 438.795460 406.083095 444.066909 401.879527 449.338359 403.492772 454.609809 409.248707 459.881258 408.028120 465.152708 405.687393 470.424157 407.799831 475.695607 403.325360 480.967056 399.255721 486.238506 394.449470 491.509955 388.176079 496.781405 389.901946 502.052854 392.263980 507.324304 394.848215 512.595754 402.564395 517.867203 406.725349 523.138653 408.576014 528.410102 414.773309 533.681552 415.004642 538.953001 418.715105 544.224451 420.781885 549.495900 410.816294 554.767350 409.297409 560.038799 414.064090 565.310249 408.904751 570.581699 403.803245 575.853148 400.893317 581.124598 398.750441 586.396047 404.189815 591.667497 408.475567 596.938946 406.433138 602.210396 408.782997" class="line reactive nofill"/></g><g class="series serie-2 color-2"><path d="M11.808047 178.950416 L17.079497 112.003805 22.350946 77.093799 27.622396 73.228099 32.893845 88.316503 38.165295 79.081438 43.436744 73.730336 48.708194 66.020243 53.979643 63.189456 59.251093 67.630444 64.522542 57.807915 69.793992 56.882582 75.065441 81.589577 80.336891 125.469833 85.608341 189.795682 90.879790 270.972329 96.151240 306.271950 101.422689 272.247706 106.694139 261.782922 111.965588 241.139478 117.237038 176.612734 122.508487 107.559773 127.779937 37.076198 133.051386 9.182284 138.322836 48.003648 143.594286 9.300995 148.865735 16.514938 154.137185 55.588942 159.408634 86.261899 164.680084 97.950313 169.951533 123.670913 175.222983 144.950523 180.494432 171.422956 185.765882 151.954440 191.037331 172.817043 196.308781 181.857301 201.580231 202.406386 206.851680 219.491560 212.123130 233.846394 217.394579 254.301119 222.666029 275.809019 227.937478 253.582769 233.208928 244.140722 238.480377 236.132331 243.751827 229.304958 249.023276 201.949807 254.294726 156.307157 259.566175 132.364171 264.837625 149.711117 270.109075 183.412712 275.380524 211.961056 280.651974 214.624431 285.923423 241.501697 291.194873 302.634539 296.466322 336.397011 301.737772 320.514161 307.009221 306.171502 312.280671 327.253262 317.552120 343.066104 322.823570 338.956896 328.095020 325.414772 333.366469 314.697348 338.637919 310.670324 343.909368 283.720006 349.180818 257.198872 354.452267 248.079474 359.723717 252.429147 364.995166 271.842873 370.266616 286.821697 375.538065 300.172058 380.809515 336.661827 386.080965 359.980823 391.352414 371.985798 396.623864 379.884610 401.895313 379.778075 407.166763 384.599546 412.438212 400.162791 417.709662 407.391954 422.981111 408.804304 428.252561 405.599121 433.524010 398.930029 438.795460 395.621355 444.066909 391.049481 449.338359 393.119304 454.609809 400.275414 459.881258 397.335047 465.152708 394.081163 470.424157 396.327530 475.695607 390.434621 480.967056 385.110914 486.238506 379.071900 491.509955 371.285711 496.781405 374.819630 502.052854 377.626067 507.324304 380.922565 512.595754 390.708568 517.867203 395.822250 523.138653 397.155460 528.410102 404.637262 533.681552 403.912824 538.953001 408.530357 544.224451 410.864996 549.495900 397.989477 554.767350 396.564951 560.038799 402.877912 565.310249 396.811504 570.581699 389.716271 575.853148 385.704466 581.124598 382.356222 586.396047 388.075631 591.667497 392.428348 596.938946 388.827464 602.210396 391.159059" class="line reactive nofill"/></g><g class="series serie-3 color-3"><path d="M11.808047 389.016183 L17.079497 378.746207 22.350946 371.867088 27.622396 373.772543 32.893845 376.365910 38.165295 372.317579 43.436744 371.057422 48.708194 369.237195 53.979643 365.608916 59.251093 364.391373 64.522542 355.710290 69.793992 353.920502 75.065441 356.020764 80.336891 359.454235 85.608341 357.439201 90.879790 347.035295 96.151240 326.629271 101.422689 287.777469 106.694139 278.688509 111.965588 277.020475 117.237038 272.619056 122.508487 277.817966 127.779937 289.865555 133.051386 317.954276 138.322836 362.997286 143.594286 360.562200 148.865735 342.974788 154.137185 344.222770 159.408634 340.503176 164.680084 341.702456 169.951533 338.232458 175.222983 331.639462 180.494432 335.523424 185.765882 348.514610 191.037331 351.960257 196.308781 355.004115 201.580231 351.710661 206.851680 351.150591 212.123130 356.239921 217.394579 354.876273 222.666029 361.798006 227.937478 357.956657 233.208928 354.626677 238.480377 356.142518 243.751827 354.608413 249.023276 346.803962 254.294726 341.580702 259.566175 326.811903 264.837625 319.798854 270.109075 319.926696 275.380524 321.192941 280.651974 293.932150 285.923423 295.094903 291.194873 305.687529 296.466322 317.132435 301.737772 323.086221 307.009221 325.259535 312.280671 334.890302 317.552120 370.119913 322.823570 377.376471 328.095020 373.827332 333.366469 366.114196 338.637919 361.116182 343.909368 356.982623 349.180818 350.894907 354.452267 346.420436 359.723717 345.178542 364.995166 346.505664 370.266616 348.234575 375.538065 354.797133 380.809515 363.533005 386.080965 369.170230 391.352414 370.454738 396.623864 367.404792 401.895313 369.358949 407.166763 369.632896 412.438212 372.719368 417.709662 376.694647 422.981111 378.070470 428.252561 381.016925 433.524010 387.074202 438.795460 390.276341 444.066909 398.987862 449.338359 397.362442 454.609809 396.857161 459.881258 396.175337 465.152708 398.427792 470.424157 401.836913 475.695607 403.602351 480.967056 403.109246 486.238506 407.151489 491.509955 406.567068 496.781405 405.215595 502.052854 400.528054 507.324304 396.826723 512.595754 397.892073 517.867203 397.922512 523.138653 391.676515 528.410102 384.876537 533.681552 381.382188 538.953001 379.957662 544.224451 386.045378 549.495900 389.594516 554.767350 397.173723 560.038799 403.103158 565.310249 410.463206 570.581699 414.669818 575.853148 420.599253 581.124598 418.212869 586.396047 412.709574 591.667497 408.143787 596.938946 407.942892 602.210396 407.358471" class="line reactive nofill"/></g><g class="series serie-4 color-4"><path d="M11.808047 467.091139 L17.079497 465.770105 22.350946 465.057842 27.622396 465.082193 32.893845 465.398754 38.165295 465.575298 43.436744 465.636175 48.708194 465.447456 53.979643 465.410930 59.251093 465.009140 64.522542 464.905649 69.793992 464.832597 75.065441 464.887386 80.336891 464.960439 85.608341 465.465719 90.879790 466.798929 96.151240 467.620770 101.422689 467.011999 106.694139 467.085051 111.965588 467.054613 117.237038 466.214508 122.508487 465.636175 127.779937 464.442983 133.051386 464.175123 138.322836 464.613439 143.594286 463.578527 148.865735 463.529825 154.137185 464.266439 159.408634 464.552562 164.680084 465.210035 169.951533 465.593561 175.222983 465.849245 180.494432 466.652824 185.765882 466.494543 191.037331 466.598034 196.308781 466.786753 201.580231 466.817192 206.851680 466.945034 212.123130 467.121578 217.394579 467.024174 222.666029 466.969385 227.937478 466.518894 233.208928 466.141456 238.480377 465.654438 243.751827 465.252649 249.023276 464.668228 254.294726 464.309053 259.566175 464.309053 264.837625 464.759544 270.109075 465.240474 275.380524 466.202333 280.651974 466.652824 285.923423 467.237244 291.194873 462.841914 296.466322 463.158475 301.737772 462.841914 307.009221 462.628843 312.280671 462.580142 317.552120 462.555791 322.823570 462.427949 328.095020 466.768490 333.366469 466.616297 338.637919 466.482368 343.909368 465.952736 349.180818 465.739666 354.452267 465.684877 359.723717 465.812719 364.995166 466.555420 370.266616 466.707613 375.538065 467.103315 380.809515 467.651209 386.080965 467.383350 391.352414 466.780666 396.623864 466.147543 401.895313 465.538772 407.166763 464.930000 412.438212 464.376018 417.709662 463.937702 422.981111 463.682018 428.252561 463.572439 433.524010 463.304580 438.795460 463.280229 444.066909 463.280229 449.338359 463.353282 454.609809 463.730720 459.881258 464.418632 465.152708 465.027404 470.424157 465.697052 475.695607 466.244947 480.967056 466.853718 486.238506 467.255508 491.509955 467.511192 496.781405 467.486841 502.052854 467.669472 507.324304 467.900805 512.595754 467.986033 517.867203 467.986033 523.138653 468.119963 528.410102 468.119963 533.681552 468.296507 538.953001 468.296507 544.224451 468.296507 549.495900 468.296507 554.767350 468.296507 560.038799 468.266068 565.310249 468.266068 570.581699 468.211279 575.853148 468.132139 581.124598 468.083437 586.396047 468.083437 591.667497 468.083437 596.938946 468.113875 602.210396 468.059086" class="line reactive nofill"/></g></g><g class="titles"><text x="400.0" y="26" class="title plot_title">Barcelona Air Quality - 2020 Overview</text><text x="436.60922137642274" y="580.0" class="title">Average over 7 days</text><text x="55.6" y="310.7393957002299" class="title" transform="rotate(-90 55.600000 284.739396)">micrograms per cubic meter air µg/m³</text></g><g transform="translate(129, 46)" class="plot overlay"><g class="series serie-0 color-0"/><g class="series serie-1 color-1"/><g class="series serie-2 color-2"/><g class="series serie-3 color-3"/><g class="series serie-4 color-4"/></g><g transform="translate(129, 46)" class="plot text-overlay"><g class="series serie-0 color-0"/><g class="series serie-1 color-1"/><g class="series serie-2 color-2"/><g class="series serie-3 color-3"/><g class="series serie-4 color-4"/></g><g transform="translate(129, 46)" class="plot tooltip-overlay"><g transform="translate(0 0)" style="opacity: 0" class="tooltip"><rect rx="0" ry="0" width="0" height="0" class="tooltip-box"/><g class="text"/></g></g><g transform="translate(10, 56)" class="legends"><g id="activate-serie-0" class="legend reactive activate-serie"><rect x="0.0" y="1.0" width="12" height="12" class="color-0 reactive"/><text x="17.0" y="11.2">NO</text></g><g id="activate-serie-1" class="legend reactive activate-serie"><rect x="0.0" y="22.0" width="12" height="12" class="color-1 reactive"/><text x="17.0" y="32.2">NO2</text></g><g id="activate-serie-2" class="legend reactive activate-serie"><rect x="0.0" y="43.0" width="12" height="12" class="color-2 reactive"/><text x="17.0" y="53.2">NOx</text></g><g id="activate-serie-3" class="legend reactive activate-serie"><rect x="0.0" y="64.0" width="12" height="12" class="color-3 reactive"/><text x="17.0" y="74.2">PM10</text></g><g id="activate-serie-4" class="legend reactive activate-serie"><rect x="0.0" y="85.0" width="12" height="12" class="color-4 reactive"/><text x="17.0" y="95.2">SO2</text></g></g><g transform="translate(753, 56)" class="legends"/></g></svg>