<?xml version='1.0' encoding='utf-8'?>
<svg xmlns="http://www.w3.org/2000/svg" xmlns:xlink="http://www.w3.org/1999/xlink" id="chart-40f43346-7d5c-4c9b-818e-bc1b017252b5" class="pygal-chart" viewBox="0 0 800 600"><!--Generated with pygal 2.4.0 (lxml) ©Kozea 2012-2016 on 2020-05-16--><!--http://pygal.org--><!--http://github.com/Kozea/pygal--><defs><style type="text/css">#chart-40f43346-7d5c-4c9b-818e-bc1b017252b5{-webkit-user-select:none;-webkit-font-smoothing:antialiased;font-family:Consolas,"Liberation Mono",Menlo,Courier,monospace}#chart-40f43346-7d5c-4c9b-818e-bc1b017252b5 .title{font-family:Consolas,"Liberation Mono",Menlo,Courier,monospace;font-size:16px}#chart-40f43346-7d5c-4c9b-818e-bc1b017252b5 .legends .legend text{font-family:Consolas,"Liberation Mono",Menlo,Courier,monospace;font-size:14px}#chart-40f43346-7d5c-4c9b-818e-bc1b017252b5 .axis text{font-family:Consolas,"Liberation Mono",Menlo,Courier,monospace;font-size:10px}#chart-40f43346-7d5c-4c9b-818e-bc1b017252b5 .axis text.major{font-family:Consolas,"Liberation Mono",Menlo,Courier,monospace;font-size:10px}#chart-40f43346-7d5c-4c9b-818e-bc1b017252b5 .text-overlay text.value{font-family:Consolas,"Liberation Mono",Menlo,Courier,monospace;font-size:16px}#chart-40f43346-7d5c-4c9b-818e-bc1b017252b5 .text-overlay text.label{font-family:Consolas,"Liberation Mono",Menlo,Courier,monospace;font-size:10px}#chart-40f43346-7d5c-4c9b-818e-bc1b017252b5 .tooltip{font-family:Consolas,"Liberation Mono",Menlo,Courier,monospace;font-size:14px}#chart-40f43346-7d5c-4c9b-818e-bc1b017252b5 text.no_data{font-family:Consolas,"Liberation Mono",Menlo,Courier,monospace;font-size:64px}
#chart-40f43346-7d5c-4c9b-818e-bc1b017252b5{background-color:rgba(249,249,249,1)}#chart-40f43346-7d5c-4c9b-818e-bc1b017252b5 path,#chart-40f43346-7d5c-4c9b-818e-bc1b017252b5 line,#chart-40f43346-7d5c-4c9b-818e-bc1b017252b5 rect,#chart-40f43346-7d5c-4c9b-818e-bc1b017252b5 circle{-webkit-transition:150ms;-moz-transition:150ms;transition:150ms}#chart-40f43346-7d5c-4c9b-818e-bc1b017252b5 .graph &gt; .background{fill:rgba(249,249,249,1)}#chart-40f43346-7d5c-4c9b-818e-bc1b017252b5 .plot &gt; .background{fill:rgba(255,255,255,1)}#chart-40f43346-7d5c-4c9b-818e-bc1b017252b5 .graph{fill:rgba(0,0,0,.87)}#chart-40f43346-7d5c-4c9b-818e-bc1b017252b5 text.no_data{fill:rgba(0,0,0,1)}#chart-40f43346-7d5c-4c9b-818e-bc1b017252b5 .title{fill:rgba(0,0,0,1)}#chart-40f43346-7d5c-4c9b-818e-bc1b017252b5 .legends .legend text{fill:rgba(0,0,0,.87)}#chart-40f43346-7d5c-4c9b-818e-bc1b017252b5 .legends .legend:hover text{fill:rgba(0,0,0,1)}#chart-40f43346-7d5c-4c9b-818e-bc1b017252b5 .axis .line{stroke:rgba(0,0,0,1)}#chart-40f43346-7d5c-4c9b-818e-bc1b017252b5 .axis .guide.line{stroke:rgba(0,0,0,.54)}#chart-40f43346-7d5c-4c9b-818e-bc1b017252b5 .axis .major.line{stroke:rgba(0,0,0,.87)}#chart-40f43346-7d5c-4c9b-818e-bc1b017252b5 .axis text.major{fill:rgba(0,0,0,1)}#chart-40f43346-7d5c-4c9b-818e-bc1b017252b5 .axis.y .guides:hover .guide.line,#chart-40f43346-7d5c-4c9b-818e-bc1b017252b5 .line-graph .axis.x .guides:hover .guide.line,#chart-40f43346-7d5c-4c9b-818e-bc1b017252b5 .stackedline-graph .axis.x .guides:hover .guide.line,#chart-40f43346-7d5c-4c9b-818e-bc1b017252b5 .xy-graph .axis.x .guides:hover .guide.line{stroke:rgba(0,0,0,1)}#chart-40f43346-7d5c-4c9b-818e-bc1b017252b5 .axis .guides:hover text{fill:rgba(0,0,0,1)}#chart-40f43346-7d5c-4c9b-818e-bc1b017252b5 .reactive{fill-opacity:.7;stroke-opacity:.8}#chart-40f43346-7d5c-4c9b-818e-bc1b017252b5 .ci{stroke:rgba(0,0,0,.87)}#chart-40f43346-7d5c-4c9b-818e-bc1b017252b5 .reactive.active,#chart-40f43346-7d5c-4c9b-818e-bc1b017252b5 .active .reactive{fill-opacity:.8;stroke-opacity:.9;stroke-width:4}#chart-40f43346-7d5c-4c9b-818e-bc1b017252b5 .ci .reactive.active{stroke-width:1.5}#chart-40f43346-7d5c-4c9b-818e-bc1b017252b5 .series text{fill:rgba(0,0,0,1)}#chart-40f43346-7d5c-4c9b-818e-bc1b017252b5 .tooltip rect{fill:rgba(255,255,255,1);stroke:rgba(0,0,0,1);-webkit-transition:opacity 150ms;-moz-transition:opacity 150ms;transition:opacity 150ms}#chart-40f43346-7d5c-4c9b-818e-bc1b017252b5 .tooltip .label{fill:rgba(0,0,0,.87)}#chart-40f43346-7d5c-4c9b-818e-bc1b017252b5 .tooltip .label{fill:rgba(0,0,0,.87)}#chart-40f43346-7d5c-4c9b-818e-bc1b017252b5 .tooltip .legend{font-size:.8em;fill:rgba(0,0,0,.54)}#chart-40f43346-7d5c-4c9b-818e-bc1b017252b5 .tooltip .x_label{font-size:.6em;fill:rgba(0,0,0,1)}#chart-40f43346-7d5c-4c9b-818e-bc1b017252b5 .tooltip .xlink{font-size:.5em;text-decoration:underline}#chart-40f43346-7d5c-4c9b-818e-bc1b017252b5 .tooltip .value{font-size:1.5em}#chart-40f43346-7d5c-4c9b-818e-bc1b017252b5 .bound{font-size:.5em}#chart-40f43346-7d5c-4c9b-818e-bc1b017252b5 .max-value{font-size:.75em;fill:rgba(0,0,0,.54)}#chart-40f43346-7d5c-4c9b-818e-bc1b017252b5 .map-element{fill:rgba(255,255,255,1);stroke:rgba(0,0,0,.54) !important}#chart-40f43346-7d5c-4c9b-818e-bc1b017252b5 .map-element .reactive{fill-opacity:inherit;stroke-opacity:inherit}#chart-40f43346-7d5c-4c9b-818e-bc1b017252b5 .color-0,#chart-40f43346-7d5c-4c9b-818e-bc1b017252b5 .color-0 a:visited{stroke:#F44336;fill:#F44336}#chart-40f43346-7d5c-4c9b-818e-bc1b017252b5 .color-1,#chart-40f43346-7d5c-4c9b-818e-bc1b017252b5 .color-1 a:visited{stroke:#3F51B5;fill:#3F51B5}#chart-40f43346-7d5c-4c9b-818e-bc1b017252b5 .color-2,#chart-40f43346-7d5c-4c9b-818e-bc1b017252b5 .color-2 a:visited{stroke:#009688;fill:#009688}#chart-40f43346-7d5c-4c9b-818e-bc1b017252b5 .color-3,#chart-40f43346-7d5c-4c9b-818e-bc1b017252b5 .color-3 a:visited{stroke:#FFC107;fill:#FFC107}#chart-40f43346-7d5c-4c9b-818e-bc1b017252b5 .color-4,#chart-40f43346-7d5c-4c9b-818e-bc1b017252b5 .color-4 a:visited{stroke:#FF5722;fill:#FF5722}#chart-40f43346-7d5c-4c9b-818e-bc1b017252b5 .text-overlay .color-0 text{fill:black}#chart-40f43346-7d5c-4c9b-818e-bc1b017252b5 .text-overlay .color-1 text{fill:black}#chart-40f43346-7d5c-4c9b-818e-bc1b017252b5 .text-overlay .color-2 text{fill:black}#chart-40f43346-7d5c-4c9b-818e-bc1b017252b5 .text-overlay .color-3 text{fill:black}#chart-40f43346-7d5c-4c9b-818e-bc1b017252b5 .text-overlay .color-4 text{fill:black}
#chart-40f43346-7d5c-4c9b-818e-bc1b017252b5 text.no_data{text-anchor:middle}#chart-40f43346-7d5c-4c9b-818e-bc1b017252b5 .guide.line{fill:none}#chart-40f43346-7d5c-4c9b-818e-bc1b017252b5 .centered{text-anchor:middle}#chart-40f43346-7d5c-4c9b-818e-bc1b017252b5 .title{text-anchor:middle}#chart-40f43346-7d5c-4c9b-818e-bc1b017252b5 .legends .legend text{fill-opacity:1}#chart-40f43346-7d5c-4c9b-818e-bc1b017252b5 .axis.x text{text-anchor:middle}#chart-40f43346-7d5c-4c9b-818e-bc1b017252b5 .axis.x:not(.web) text[transform]{text-anchor:start}#chart-40f43346-7d5c-4c9b-818e-bc1b017252b5 .axis.x:not(.web) text[transform].backwards{text-anchor:end}#chart-40f43346-7d5c-4c9b-818e-bc1b017252b5 .axis.y text{text-anchor:end}#chart-40f43346-7d5c-4c9b-818e-bc1b017252b5 .axis.y text[transform].backwards{text-anchor:start}#chart-40f43346-7d5c-4c9b-818e-bc1b017252b5 .axis.y2 text{text-anchor:start}#chart-40f43346-7d5c-4c9b-818e-bc1b017252b5 .axis.y2 text[transform].backwards{text-anchor:end}#chart-40f43346-7d5c-4c9b-818e-bc1b017252b5 .axis .guide.line{stroke-dasharray:4,4}#chart-40f43346-7d5c-4c9b-818e-bc1b017252b5 .axis .major.guide.line{stroke-dasharray:6,6}#chart-40f43346-7d5c-4c9b-818e-bc1b017252b5 .horizontal .axis.y .guide.line,#chart-40f43346-7d5c-4c9b-818e-bc1b017252b5 .horizontal .axis.y2 .guide.line,#chart-40f43346-7d5c-4c9b-818e-bc1b017252b5 .vertical .axis.x .guide.line{opacity:0}#chart-40f43346-7d5c-4c9b-818e-bc1b017252b5 .horizontal .axis.always_show .guide.line,#chart-40f43346-7d5c-4c9b-818e-bc1b017252b5 .vertical .axis.always_show .guide.line{opacity:1 !important}#chart-40f43346-7d5c-4c9b-818e-bc1b017252b5 .axis.y .guides:hover .guide.line,#chart-40f43346-7d5c-4c9b-818e-bc1b017252b5 .axis.y2 .guides:hover .guide.line,#chart-40f43346-7d5c-4c9b-818e-bc1b017252b5 .axis.x .guides:hover .guide.line{opacity:1}#chart-40f43346-7d5c-4c9b-818e-bc1b017252b5 .axis .guides:hover text{opacity:1}#chart-40f43346-7d5c-4c9b-818e-bc1b017252b5 .nofill{fill:none}#chart-40f43346-7d5c-4c9b-818e-bc1b017252b5 .subtle-fill{fill-opacity:.2}#chart-40f43346-7d5c-4c9b-818e-bc1b017252b5 .dot{stroke-width:1px;fill-opacity:1}#chart-40f43346-7d5c-4c9b-818e-bc1b017252b5 .dot.active{stroke-width:5px}#chart-40f43346-7d5c-4c9b-818e-bc1b017252b5 .dot.negative{fill:transparent}#chart-40f43346-7d5c-4c9b-818e-bc1b017252b5 text,#chart-40f43346-7d5c-4c9b-818e-bc1b017252b5 tspan{stroke:none !important}#chart-40f43346-7d5c-4c9b-818e-bc1b017252b5 .series text.active{opacity:1}#chart-40f43346-7d5c-4c9b-818e-bc1b017252b5 .tooltip rect{fill-opacity:.95;stroke-width:.5}#chart-40f43346-7d5c-4c9b-818e-bc1b017252b5 .tooltip text{fill-opacity:1}#chart-40f43346-7d5c-4c9b-818e-bc1b017252b5 .showable{visibility:hidden}#chart-40f43346-7d5c-4c9b-818e-bc1b017252b5 .showable.shown{visibility:visible}#chart-40f43346-7d5c-4c9b-818e-bc1b017252b5 .gauge-background{fill:rgba(229,229,229,1);stroke:none}#chart-40f43346-7d5c-4c9b-818e-bc1b017252b5 .bg-lines{stroke:rgba(249,249,249,1);stroke-width:2px}</style><script type="text/javascript">window.pygal = window.pygal || {};window.pygal.config = window.pygal.config || {};window.pygal.config['40f43346-7d5c-4c9b-818e-bc1b017252b5'] = {"allow_interruptions": false, "box_mode": "extremes", "classes": ["pygal-chart"], "css": ["file://style.css", "file://graph.css"], "defs": [], "disable_xml_declaration": false, "dots_size": 2.5, "dynamic_print_values": false, "explicit_size": false, "fill": true, "force_uri_protocol": "https", "formatter": null, "half_pie": false, "height": 600, "include_x_axis": false, "inner_radius": 0, "interpolate": null, "interpolation_parameters": {}, "interpolation_precision": 250, "inverse_y_axis": false, "js": ["//kozea.github.io/pygal.js/2.0.x/pygal-tooltips.min.js"], "legend_at_bottom": false, "legend_at_bottom_columns": null, "legend_box_size": 12, "logarithmic": false, "margin": 20, "margin_bottom": null, "margin_left": null, "margin_right": null, "margin_top": null, "max_scale": 16, "min_scale": 4, "missing_value_fill_truncation": "x", "no_data_text": "No data", "no_prefix": false, "order_min": null, "pretty_print": false, "print_labels": false, "print_values": false, "print_values_position": "center", "print_zeroes": true, "range": null, "rounded_bars": null, "secondary_range": null, "show_dots": false, "show_legend": true, "show_minor_x_labels": false, "show_minor_y_labels": true, "show_only_major_dots": false, "show_x_guides": false, "show_x_labels": true, "show_y_guides": true, "show_y_labels": true, "spacing": 10, "stack_from_top": false, "strict": false, "stroke": true, "stroke_style": null, "style": {"background": "rgba(249, 249, 249, 1)", "ci_colors": [], "colors": ["#F44336", "#3F51B5", "#009688", "#FFC107", "#FF5722", "#9C27B0", "#03A9F4", "#8BC34A", "#FF9800", "#E91E63", "#2196F3", "#4CAF50", "#FFEB3B", "#673AB7", "#00BCD4", "#CDDC39", "#9E9E9E", "#607D8B"], "font_family": "Consolas, \"Liberation Mono\", Menlo, Courier, monospace", "foreground": "rgba(0, 0, 0, .87)", "foreground_strong": "rgba(0, 0, 0, 1)", "foreground_subtle": "rgba(0, 0, 0, .54)", "guide_stroke_dasharray": "4,4", "label_font_family": "Consolas, \"Liberation Mono\", Menlo, Courier, monospace", "label_font_size": 10, "legend_font_family": "Consolas, \"Liberation Mono\", Menlo, Courier, monospace", "legend_font_size": 14, "major_guide_stroke_dasharray": "6,6", "major_label_font_family": "Consolas, \"Liberation Mono\", Menlo, Courier, monospace", "major_label_font_size": 10, "no_data_font_family": "Consolas, \"Liberation Mono\", Menlo, Courier, monospace", "no_data_font_size": 64, "opacity": ".7", "opacity_hover": ".8", "plot_background": "rgba(255, 255, 255, 1)", "stroke_opacity": ".8", "stroke_opacity_hover": ".9", "title_font_family": "Consolas, \"Liberation Mono\", Menlo, Courier, monospace", "title_font_size": 16, "tooltip_font_family": "Consolas, \"Liberation Mono\", Menlo, Courier, monospace", "tooltip_font_size": 14, "transition": "150ms", "value_background": "rgba(229, 229, 229, 1)", "value_colors": [], "value_font_family": "Consolas, \"Liberation Mono\", Menlo, Courier, monospace", "value_font_size": 16, "value_label_font_family": "Consolas, \"Liberation Mono\", Menlo, Courier, monospace", "value_label_font_size": 10}, "title": "Barcelona Air Quality - 2020 Overview", "tooltip_border_radius": 0, "tooltip_fancy_mode": true, "truncate_label": null, "truncate_legend": null, "width": 800, "x_label_rotation": 20, "x_labels": ["2020-01-07", "2020-01-08", "2020-01-09", "2020-01-10", "2020-01-11", "2020-01-12", "2020-01-13", "2020-01-14", "2020-01-15", "2020-01-16", "2020-01-17", "2020-01-18", "2020-01-19", "2020-01-20", "2020-01-21", "2020-01-22", "2020-01-23", "2020-01-24", "2020-01-27", "2020-01-28", "2020-01-29", "2020-01-30", "2020-01-31", "2020-02-01", "2020-02-02", "2020-02-03", "2020-02-04", "2020-02-05", "2020-02-06", "2020-02-07", "2020-02-08", "2020-02-09", "2020-02-10", "2020-02-11", "2020-02-12", "2020-02-13", "2020-02-14", "2020-02-15", "2020-02-16", "2020-02-17", "2020-02-18", "2020-02-19", "2020-02-20", "2020-02-21", "2020-02-22", "2020-02-23", "2020-02-24", "2020-02-25", "2020-02-26", "2020-02-27", "2020-02-28", "2020-02-29", "2020-03-01", "2020-03-02", "2020-03-03", "2020-03-04", "2020-03-05", "2020-03-06", "2020-03-07", "2020-03-08", "2020-03-09", "2020-03-10", "2020-03-11", "2020-03-12", "2020-03-13", "2020-03-14", "2020-03-15", "2020-03-16", "2020-03-17", "2020-03-18", "2020-03-19", "2020-03-20", "2020-03-21", "2020-03-22", "2020-03-23", "2020-03-24", "2020-03-25", "2020-03-26", "2020-03-27", "2020-03-28", "2020-03-29", "2020-03-30", "2020-03-31", "2020-04-01", "2020-04-02", "2020-04-03", "2020-04-04", "2020-04-05", "2020-04-06", "2020-04-07", "2020-04-08", "2020-04-09", "2020-04-10", "2020-04-11", "2020-04-12", "2020-04-13", "2020-04-14", "2020-04-15", "2020-04-16", "2020-04-17", "2020-04-18", "2020-04-19", "2020-04-20", "2020-04-21", "2020-04-22", "2020-04-23", "2020-04-24", "2020-04-25", "2020-04-26", "2020-04-27", "2020-04-28", "2020-04-29", "2020-04-30"], "x_labels_major": ["2020-01-07", "2020-01-14", "2020-01-21", "2020-01-30", "2020-02-06", "2020-02-13", "2020-02-20", "2020-02-27", "2020-03-05", "2020-03-12", "2020-03-19", "2020-03-26", "2020-04-02", "2020-04-09", "2020-04-16", "2020-04-23", "2020-04-30"], "x_labels_major_count": null, "x_labels_major_every": null, "x_title": "Average over 7 days", "xrange": null, "y_label_rotation": 0, "y_labels": null, "y_labels_major": null, "y_labels_major_count": null, "y_labels_major_every": null, "y_title": "micrograms per cubic meter air \u00b5g/m\u00b3", "zero": 0, "legends": ["NO", "NO2", "NOx", "PM10", "SO2"]}</script><script type="text/javascript" xlink:href="https://kozea.github.io/pygal.js/2.0.x/pygal-tooltips.min.js"/></defs><title>Barcelona Air Quality - 2020 Overview</title><g class="graph stackedline-graph vertical"><rect x="0" y="0" width="800" height="600" class="background"/><g transform="translate(129, 46)" class="plot"><rect x="0" y="0" width="614.0184427528454" height="477.47879140045984" class="background"/><g class="axis y always_show"><path d="M0.000000 477.478791 h614.018443" class="line"/><g class="guides"><path d="M0.000000 432.085937 h614.018443" class="guide line"/><text x="-5" y="435.5859374890438" class="">20</text><title>20</title></g><g class="guides"><path d="M0.000000 392.685326 h614.018443" class="guide line"/><text x="-5" y="396.1853256319186" class="">40</text><title>40</title></g><g class="guides"><path d="M0.000000 353.284714 h614.018443" class="guide line"/><text x="-5" y="356.78471377479343" class="">60</text><title>60</title></g><g class="guides"><path d="M0.000000 313.884102 h614.018443" class="guide line"/><text x="-5" y="317.3841019176682" class="">80</text><title>80</title></g><g class="guides"><path d="M0.000000 274.483490 h614.018443" class="major guide line"/><text x="-5" y="277.983490060543" class="major">100</text><title>100</title></g><g class="guides"><path d="M0.000000 235.082878 h614.018443" class="guide line"/><text x="-5" y="238.58287820341783" class="">120</text><title>120</title></g><g class="guides"><path d="M0.000000 195.682266 h614.018443" class="guide line"/><text x="-5" y="199.18226634629264" class="">140</text><title>140</title></g><g class="guides"><path d="M0.000000 156.281654 h614.018443" class="guide line"/><text x="-5" y="159.78165448916747" class="">160</text><title>160</title></g><g class="guides"><path d="M0.000000 116.881043 h614.018443" class="guide line"/><text x="-5" y="120.38104263204224" class="">180</text><title>180</title></g><g class="guides"><path d="M0.000000 77.480431 h614.018443" class="major guide line"/><text x="-5" y="80.98043077491707" class="major">200</text><title>200</title></g><g class="guides"><path d="M0.000000 38.079819 h614.018443" class="guide line"/><text x="-5" y="41.57981891779184" class="">220</text><title>220</title></g></g><g class="axis x"><g class="guides"><path d="M11.808047 0.000000 v477.478791" class="major line"/><text x="11.808046976016257" y="492.47879140045984" class="major" transform="rotate(20 11.808047 492.478791)">2020-01-07</text></g><g class="guides"><path d="M48.708194 0.000000 v477.478791" class="major guide line"/><text x="48.70819377606707" y="492.47879140045984" class="major" transform="rotate(20 48.708194 492.478791)">2020-01-14</text></g><g class="guides"><path d="M85.608341 0.000000 v477.478791" class="major guide line"/><text x="85.60834057611787" y="492.47879140045984" class="major" transform="rotate(20 85.608341 492.478791)">2020-01-21</text></g><g class="guides"><path d="M122.508487 0.000000 v477.478791" class="major guide line"/><text x="122.50848737616867" y="492.47879140045984" class="major" transform="rotate(20 122.508487 492.478791)">2020-01-30</text></g><g class="guides"><path d="M159.408634 0.000000 v477.478791" class="major guide line"/><text x="159.4086341762195" y="492.47879140045984" class="major" transform="rotate(20 159.408634 492.478791)">2020-02-06</text></g><g class="guides"><path d="M196.308781 0.000000 v477.478791" class="major guide line"/><text x="196.3087809762703" y="492.47879140045984" class="major" transform="rotate(20 196.308781 492.478791)">2020-02-13</text></g><g class="guides"><path d="M233.208928 0.000000 v477.478791" class="major guide line"/><text x="233.2089277763211" y="492.47879140045984" class="major" transform="rotate(20 233.208928 492.478791)">2020-02-20</text></g><g class="guides"><path d="M270.109075 0.000000 v477.478791" class="major guide line"/><text x="270.1090745763719" y="492.47879140045984" class="major" transform="rotate(20 270.109075 492.478791)">2020-02-27</text></g><g class="guides"><path d="M307.009221 0.000000 v477.478791" class="major guide line"/><text x="307.0092213764227" y="492.47879140045984" class="major" transform="rotate(20 307.009221 492.478791)">2020-03-05</text></g><g class="guides"><path d="M343.909368 0.000000 v477.478791" class="major guide line"/><text x="343.90936817647355" y="492.47879140045984" class="major" transform="rotate(20 343.909368 492.478791)">2020-03-12</text></g><g class="guides"><path d="M380.809515 0.000000 v477.478791" class="major guide line"/><text x="380.8095149765243" y="492.47879140045984" class="major" transform="rotate(20 380.809515 492.478791)">2020-03-19</text></g><g class="guides"><path d="M417.709662 0.000000 v477.478791" class="major guide line"/><text x="417.7096617765751" y="492.47879140045984" class="major" transform="rotate(20 417.709662 492.478791)">2020-03-26</text></g><g class="guides"><path d="M454.609809 0.000000 v477.478791" class="major guide line"/><text x="454.60980857662594" y="492.47879140045984" class="major" transform="rotate(20 454.609809 492.478791)">2020-04-02</text></g><g class="guides"><path d="M491.509955 0.000000 v477.478791" class="major guide line"/><text x="491.50995537667677" y="492.47879140045984" class="major" transform="rotate(20 491.509955 492.478791)">2020-04-09</text></g><g class="guides"><path d="M528.410102 0.000000 v477.478791" class="major guide line"/><text x="528.4101021767276" y="492.47879140045984" class="major" transform="rotate(20 528.410102 492.478791)">2020-04-16</text></g><g class="guides"><path d="M565.310249 0.000000 v477.478791" class="major guide line"/><text x="565.3102489767784" y="492.47879140045984" class="major" transform="rotate(20 565.310249 492.478791)">2020-04-23</text></g><g class="guides"><path d="M602.210396 0.000000 v477.478791" class="major guide line"/><text x="602.2103957768292" y="492.47879140045984" class="major" transform="rotate(20 602.210396 492.478791)">2020-04-30</text></g></g><g class="series serie-0 color-0"><path d="M11.808047 471.486549 L11.808047 429.802109 17.079497 414.282490 22.350946 406.123749 27.622396 407.689923 32.893845 411.452681 38.165295 410.252370 43.436744 409.918872 48.708194 408.805805 53.979643 409.993452 59.251093 412.937240 64.522542 408.732632 69.793992 409.309570 75.065441 412.914725 80.336891 419.079514 85.608341 430.788532 90.879790 446.977962 96.151240 453.930762 101.422689 445.893038 106.694139 444.056688 111.965588 441.516755 117.237038 429.904832 122.508487 414.776404 127.779937 399.248342 133.051386 392.436257 138.322836 400.177071 143.594286 390.803946 148.865735 391.525822 154.137185 400.168628 159.408634 409.686690 164.680084 415.064873 169.951533 423.226428 175.222983 429.323673 180.494432 435.488462 185.765882 431.131880 191.037331 434.146027 196.308781 435.767080 201.580231 437.913007 206.851680 439.718399 212.123130 441.518163 217.394579 446.052047 222.666029 451.245892 227.937478 448.611680 233.208928 447.436697 238.480377 447.080685 243.751827 446.261715 249.023276 442.897184 254.294726 434.057375 259.566175 429.102748 264.837625 431.107958 270.109075 435.703758 275.380524 441.321159 280.651974 441.371817 285.923423 444.619554 291.194873 454.824312 296.466322 460.507850 301.737772 458.011540 307.009221 455.838878 312.280671 458.530784 317.552120 460.168724 322.823570 460.233453 328.095020 458.760152 333.366469 458.273273 338.637919 458.360517 343.909368 453.455141 349.180818 450.642219 354.452267 449.945672 359.723717 450.021659 364.995166 451.986061 370.266616 453.158229 375.538065 454.549915 380.809515 460.801948 386.080965 463.499482 391.352414 464.457762 396.623864 464.775781 401.895313 464.698387 407.166763 464.739195 412.438212 466.589616 417.709662 467.827921 422.981111 468.157198 428.252561 468.043217 433.524010 467.891244 438.795460 467.888429 444.066909 467.798371 449.338359 467.915165 454.609809 468.296507 459.881258 467.746306 465.152708 467.446579 470.424157 467.456430 475.695607 467.014580 480.967056 466.699375 486.238506 466.381356 491.509955 465.954985 496.781405 466.524887 502.052854 466.686711 507.324304 466.856977 512.595754 467.433915 517.867203 467.681576 523.138653 467.559153 528.410102 467.922201 533.681552 467.635140 538.953001 467.840586 544.224451 467.867322 549.495900 467.030059 554.767350 467.063831 560.038799 467.449394 565.310249 467.201733 570.581699 466.588209 575.853148 466.299740 581.124598 466.015493 586.396047 466.126659 591.667497 466.121030 596.938946 465.667923 602.210396 465.656666 602.210396 471.486549" class="line reactive"/></g><g class="series serie-1 color-1"><path d="M11.808047 357.644110 L17.079497 334.866335 22.350946 323.079923 27.622396 320.438675 32.893845 325.334201 38.165295 321.700902 43.436744 319.363601 48.708194 316.412777 53.979643 314.468075 59.251093 314.945104 64.522542 312.592325 69.793992 311.891557 75.065441 321.388511 80.336891 338.346253 85.608341 361.859976 90.879790 390.805354 96.151240 403.346005 101.422689 391.888870 106.694139 388.043089 111.965588 379.830876 117.237038 356.153923 122.508487 332.284188 127.779937 307.940238 133.051386 298.747231 138.322836 312.599361 143.594286 299.642188 148.865735 302.601455 154.137185 316.080686 159.408634 325.210371 164.680084 327.798147 169.951533 335.356028 175.222983 341.975331 180.494432 350.936156 185.765882 344.360475 191.037331 352.429158 196.308781 355.745845 201.580231 364.004495 206.851680 370.947445 212.123130 376.649277 217.394579 383.727315 222.666029 390.879933 227.937478 382.021831 233.208928 378.271738 238.480377 374.828405 243.751827 372.077398 249.023276 361.176093 254.294726 344.671459 259.566175 336.191884 264.837625 343.191121 270.109075 356.319968 275.380524 366.534577 280.651974 367.740517 285.923423 378.446226 291.194873 401.401304 296.466322 413.916627 301.737772 407.875669 307.009221 402.400391 312.280671 410.599940 317.552120 416.992689 322.823570 414.993108 328.095020 409.519237 333.366469 404.841822 338.637919 402.892898 343.909368 392.987866 349.180818 382.307486 354.452267 378.557392 359.723717 380.562602 364.995166 388.318894 370.266616 394.608920 375.538065 400.068719 380.809515 413.602829 386.080965 422.926702 391.352414 427.854593 396.623864 431.207867 401.895313 431.199424 407.166763 433.328464 412.438212 439.463702 417.709662 442.182344 422.981111 442.701588 428.252561 441.388703 433.524010 438.574374 438.795460 437.157359 444.066909 435.124006 449.338359 435.986598 454.609809 439.028888 459.881258 437.914414 465.152708 436.532578 470.424157 437.519000 475.695607 435.008619 480.967056 432.812034 486.238506 430.272102 491.509955 426.945565 496.781405 428.313329 502.052854 429.567113 507.324304 430.932062 512.595754 435.076162 517.867203 437.247418 523.138653 437.980550 528.410102 441.208586 533.681552 441.028469 538.953001 442.949249 544.224451 443.931450 549.495900 438.487130 554.767350 437.818727 560.038799 440.407910 565.310249 437.775104 570.581699 434.803173 575.853148 433.169454 581.124598 431.894563 586.396047 434.520332 591.667497 436.495992 596.938946 435.098677 602.210396 436.173751 602.210396 465.656666 596.938946 465.667923 591.667497 466.121030 586.396047 466.126659 581.124598 466.015493 575.853148 466.299740 570.581699 466.588209 565.310249 467.201733 560.038799 467.449394 554.767350 467.063831 549.495900 467.030059 544.224451 467.867322 538.953001 467.840586 533.681552 467.635140 528.410102 467.922201 523.138653 467.559153 517.867203 467.681576 512.595754 467.433915 507.324304 466.856977 502.052854 466.686711 496.781405 466.524887 491.509955 465.954985 486.238506 466.381356 480.967056 466.699375 475.695607 467.014580 470.424157 467.456430 465.152708 467.446579 459.881258 467.746306 454.609809 468.296507 449.338359 467.915165 444.066909 467.798371 438.795460 467.888429 433.524010 467.891244 428.252561 468.043217 422.981111 468.157198 417.709662 467.827921 412.438212 466.589616 407.166763 464.739195 401.895313 464.698387 396.623864 464.775781 391.352414 464.457762 386.080965 463.499482 380.809515 460.801948 375.538065 454.549915 370.266616 453.158229 364.995166 451.986061 359.723717 450.021659 354.452267 449.945672 349.180818 450.642219 343.909368 453.455141 338.637919 458.360517 333.366469 458.273273 328.095020 458.760152 322.823570 460.233453 317.552120 460.168724 312.280671 458.530784 307.009221 455.838878 301.737772 458.011540 296.466322 460.507850 291.194873 454.824312 285.923423 444.619554 280.651974 441.371817 275.380524 441.321159 270.109075 435.703758 264.837625 431.107958 259.566175 429.102748 254.294726 434.057375 249.023276 442.897184 243.751827 446.261715 238.480377 447.080685 233.208928 447.436697 227.937478 448.611680 222.666029 451.245892 217.394579 446.052047 212.123130 441.518163 206.851680 439.718399 201.580231 437.913007 196.308781 435.767080 191.037331 434.146027 185.765882 431.131880 180.494432 435.488462 175.222983 429.323673 169.951533 423.226428 164.680084 415.064873 159.408634 409.686690 154.137185 400.168628 148.865735 391.525822 143.594286 390.803946 138.322836 400.177071 133.051386 392.436257 127.779937 399.248342 122.508487 414.776404 117.237038 429.904832 111.965588 441.516755 106.694139 444.056688 101.422689 445.893038 96.151240 453.930762 90.879790 446.977962 85.608341 430.788532 80.336891 419.079514 75.065441 412.914725 69.793992 409.309570 64.522542 408.732632 59.251093 412.937240 53.979643 409.993452 48.708194 408.805805 43.436744 409.918872 38.165295 410.252370 32.893845 411.452681 27.622396 407.689923 22.350946 406.123749 17.079497 414.282490 11.808047 429.802109" class="line reactive"/></g><g class="series serie-2 color-2"><path d="M11.808047 221.910409 L17.079497 168.183454 22.350946 140.258270 27.622396 135.829923 32.893845 147.700764 38.165295 139.798127 43.436744 134.987031 48.708194 128.471858 53.979643 125.218494 59.251093 127.748576 64.522542 120.854876 69.793992 119.726330 75.065441 140.645240 80.336891 177.888669 85.608341 231.140003 90.879790 297.613056 96.151240 326.472597 101.422689 299.286175 106.694139 290.602562 111.965588 272.846958 117.237038 219.339519 122.508487 163.546846 127.779937 106.618590 133.051386 84.530326 138.322836 116.329434 143.594286 85.480162 148.865735 91.774410 154.137185 123.317414 159.408634 146.627097 164.680084 154.618386 169.951533 174.066809 175.222983 190.523601 180.494432 211.722537 185.765882 196.146631 191.037331 213.860020 196.308781 221.355986 201.580231 239.114405 206.851680 253.955771 212.123130 266.293791 217.394579 282.827977 222.666029 299.923621 227.937478 280.790402 233.208928 272.675283 238.480377 265.529701 243.751827 259.622424 249.023276 236.074929 254.294726 198.469860 259.566175 178.921527 264.837625 193.940196 270.109075 222.649171 275.380524 246.061577 280.651974 248.498787 285.923423 271.629760 291.194873 322.846334 296.466322 350.969928 301.737772 337.586384 307.009221 325.480546 312.280671 343.426118 317.552120 357.129088 322.823570 353.229834 328.095020 341.495488 333.366469 331.863445 338.637919 328.052843 343.909368 305.688775 349.180818 282.747768 354.452267 274.781809 359.723717 278.797857 364.995166 295.529045 370.266616 308.743729 375.538065 320.375353 380.809515 350.778553 386.080965 370.882716 391.352414 381.360464 396.623864 388.365330 401.895313 388.307636 407.166763 392.665625 412.438212 405.995697 417.709662 412.056355 422.981111 413.228523 428.252561 410.433894 433.524010 404.536467 438.795460 401.589864 444.066909 397.442950 449.338359 399.262413 454.609809 405.612948 459.881258 403.139152 465.152708 400.253057 470.424157 402.277967 475.695607 397.043315 480.967056 392.385600 486.238506 387.053852 491.509955 380.127788 496.781405 383.129270 502.052854 385.680460 507.324304 388.569369 512.595754 397.237503 517.867203 401.772795 523.138653 403.122266 528.410102 409.809113 533.681552 409.294091 538.953001 413.349539 544.224451 415.411036 549.495900 404.014409 554.767350 402.687452 560.038799 408.195095 565.310249 402.757811 570.581699 396.505778 575.853148 393.017417 581.124598 390.194644 586.396047 395.464476 591.667497 399.452381 596.938946 396.390390 602.210396 398.543352 602.210396 436.173751 596.938946 435.098677 591.667497 436.495992 586.396047 434.520332 581.124598 431.894563 575.853148 433.169454 570.581699 434.803173 565.310249 437.775104 560.038799 440.407910 554.767350 437.818727 549.495900 438.487130 544.224451 443.931450 538.953001 442.949249 533.681552 441.028469 528.410102 441.208586 523.138653 437.980550 517.867203 437.247418 512.595754 435.076162 507.324304 430.932062 502.052854 429.567113 496.781405 428.313329 491.509955 426.945565 486.238506 430.272102 480.967056 432.812034 475.695607 435.008619 470.424157 437.519000 465.152708 436.532578 459.881258 437.914414 454.609809 439.028888 449.338359 435.986598 444.066909 435.124006 438.795460 437.157359 433.524010 438.574374 428.252561 441.388703 422.981111 442.701588 417.709662 442.182344 412.438212 439.463702 407.166763 433.328464 401.895313 431.199424 396.623864 431.207867 391.352414 427.854593 386.080965 422.926702 380.809515 413.602829 375.538065 400.068719 370.266616 394.608920 364.995166 388.318894 359.723717 380.562602 354.452267 378.557392 349.180818 382.307486 343.909368 392.987866 338.637919 402.892898 333.366469 404.841822 328.095020 409.519237 322.823570 414.993108 317.552120 416.992689 312.280671 410.599940 307.009221 402.400391 301.737772 407.875669 296.466322 413.916627 291.194873 401.401304 285.923423 378.446226 280.651974 367.740517 275.380524 366.534577 270.109075 356.319968 264.837625 343.191121 259.566175 336.191884 254.294726 344.671459 249.023276 361.176093 243.751827 372.077398 238.480377 374.828405 233.208928 378.271738 227.937478 382.021831 222.666029 390.879933 217.394579 383.727315 212.123130 376.649277 206.851680 370.947445 201.580231 364.004495 196.308781 355.745845 191.037331 352.429158 185.765882 344.360475 180.494432 350.936156 175.222983 341.975331 169.951533 335.356028 164.680084 327.798147 159.408634 325.210371 154.137185 316.080686 148.865735 302.601455 143.594286 299.642188 138.322836 312.599361 133.051386 298.747231 127.779937 307.940238 122.508487 332.284188 117.237038 356.153923 111.965588 379.830876 106.694139 388.043089 101.422689 391.888870 96.151240 403.346005 90.879790 390.805354 85.608341 361.859976 80.336891 338.346253 75.065441 321.388511 69.793992 311.891557 64.522542 312.592325 59.251093 314.945104 53.979643 314.468075 48.708194 316.412777 43.436744 319.363601 38.165295 321.700902 32.893845 325.334201 27.622396 320.438675 22.350946 323.079923 17.079497 334.866335 11.808047 357.644110" class="line reactive"/></g><g class="series serie-3 color-3"><path d="M11.808047 183.289367 L17.079497 124.814637 22.350946 93.709261 27.622396 90.161799 32.893845 103.231545 38.165295 93.457379 43.436744 88.063717 48.708194 80.707059 53.979643 75.776354 59.251093 77.743571 64.522542 66.836637 69.793992 64.880678 75.065441 86.770532 80.336891 125.601242 85.608341 177.921033 90.879790 239.584398 96.151240 259.010307 101.422689 213.862834 106.694139 200.977427 111.965588 182.450697 117.237038 126.908498 122.508487 73.519262 127.779937 22.160565 133.051386 13.057616 138.322836 65.679948 143.594286 33.704944 148.865735 31.868594 154.137185 63.988536 159.408634 85.578664 164.680084 94.124375 169.951533 111.968631 175.222983 125.377503 180.494432 148.371982 185.765882 138.801854 191.037331 158.108154 196.308781 167.011285 201.580231 183.247152 206.851680 197.829600 212.123130 212.520399 217.394579 228.424175 222.666029 248.719711 227.937478 227.810651 233.208928 218.156094 238.480377 211.711280 243.751827 205.094791 249.023276 177.939327 254.294726 137.919562 259.566175 111.543667 264.837625 123.320228 270.109075 152.088304 275.380524 176.086091 280.651974 165.920733 285.923423 189.589243 291.194873 245.702750 296.466322 279.117283 301.737772 268.486154 307.009221 257.385032 312.280671 279.782872 317.552120 309.772367 322.823570 309.227794 328.095020 295.852693 333.366469 282.654896 338.637919 276.533729 343.909368 252.258731 349.180818 226.503395 354.452267 216.468903 359.723717 219.910828 364.995166 237.255541 370.266616 251.269494 375.538065 265.934964 380.809515 300.376728 386.080965 323.086959 391.352414 334.158531 396.623864 339.753418 401.895313 340.599124 407.166763 345.083758 412.438212 359.840694 417.709662 367.739110 422.981111 369.547316 428.252561 368.114823 433.524010 365.017653 438.795460 363.551387 444.066909 363.431778 449.338359 364.499817 454.609809 370.616761 459.881258 367.827761 465.152708 365.982968 470.424157 369.583903 475.695607 365.165405 480.967056 360.279730 486.238506 356.816697 491.509955 349.620457 496.781405 351.997158 502.052854 352.381314 507.324304 353.559111 512.595754 362.719753 517.867203 367.269117 523.138653 365.731086 528.410102 369.274326 533.681552 367.143879 538.953001 370.540775 544.224451 375.416600 549.495900 365.660727 554.767350 367.837611 560.038799 376.086411 565.310249 374.051651 570.581699 369.744319 575.853148 368.997115 581.124598 365.071125 586.396047 367.796803 591.667497 369.673961 596.938946 366.519098 602.210396 368.401884 602.210396 398.543352 596.938946 396.390390 591.667497 399.452381 586.396047 395.464476 581.124598 390.194644 575.853148 393.017417 570.581699 396.505778 565.310249 402.757811 560.038799 408.195095 554.767350 402.687452 549.495900 404.014409 544.224451 415.411036 538.953001 413.349539 533.681552 409.294091 528.410102 409.809113 523.138653 403.122266 517.867203 401.772795 512.595754 397.237503 507.324304 388.569369 502.052854 385.680460 496.781405 383.129270 491.509955 380.127788 486.238506 387.053852 480.967056 392.385600 475.695607 397.043315 470.424157 402.277967 465.152708 400.253057 459.881258 403.139152 454.609809 405.612948 449.338359 399.262413 444.066909 397.442950 438.795460 401.589864 433.524010 404.536467 428.252561 410.433894 422.981111 413.228523 417.709662 412.056355 412.438212 405.995697 407.166763 392.665625 401.895313 388.307636 396.623864 388.365330 391.352414 381.360464 386.080965 370.882716 380.809515 350.778553 375.538065 320.375353 370.266616 308.743729 364.995166 295.529045 359.723717 278.797857 354.452267 274.781809 349.180818 282.747768 343.909368 305.688775 338.637919 328.052843 333.366469 331.863445 328.095020 341.495488 322.823570 353.229834 317.552120 357.129088 312.280671 343.426118 307.009221 325.480546 301.737772 337.586384 296.466322 350.969928 291.194873 322.846334 285.923423 271.629760 280.651974 248.498787 275.380524 246.061577 270.109075 222.649171 264.837625 193.940196 259.566175 178.921527 254.294726 198.469860 249.023276 236.074929 243.751827 259.622424 238.480377 265.529701 233.208928 272.675283 227.937478 280.790402 222.666029 299.923621 217.394579 282.827977 212.123130 266.293791 206.851680 253.955771 201.580231 239.114405 196.308781 221.355986 191.037331 213.860020 185.765882 196.146631 180.494432 211.722537 175.222983 190.523601 169.951533 174.066809 164.680084 154.618386 159.408634 146.627097 154.137185 123.317414 148.865735 91.774410 143.594286 85.480162 138.322836 116.329434 133.051386 84.530326 127.779937 106.618590 122.508487 163.546846 117.237038 219.339519 111.965588 272.846958 106.694139 290.602562 101.422689 299.286175 96.151240 326.472597 90.879790 297.613056 85.608341 231.140003 80.336891 177.888669 75.065441 140.645240 69.793992 119.726330 64.522542 120.854876 59.251093 127.748576 53.979643 125.218494 48.708194 128.471858 43.436744 134.987031 38.165295 139.798127 32.893845 147.700764 27.622396 135.829923 22.350946 140.258270 17.079497 168.183454 11.808047 221.910409" class="line reactive"/></g><g class="series serie-4 color-4"><path d="M11.808047 180.762099 L17.079497 121.676660 22.350946 90.242008 27.622396 86.705803 32.893845 99.921894 38.165295 90.229343 43.436744 84.863824 48.708194 77.419923 53.979643 72.472332 59.251093 74.253802 64.522542 63.299025 69.793992 61.309294 75.065441 83.224477 80.336891 122.088959 85.608341 174.642340 90.879790 236.922042 96.151240 256.727886 101.422689 211.298980 106.694139 198.447345 111.965588 179.906543 117.237038 123.975967 122.508487 70.319370 127.779937 18.409063 133.051386 9.182284 138.322836 62.007248 143.594286 29.553808 148.865735 27.694943 154.137185 60.155419 159.408634 81.877820 164.680084 90.727479 169.951533 108.749038 175.222983 122.276112 180.494432 145.642082 185.765882 135.998782 191.037331 155.352926 196.308781 164.343301 201.580231 180.593239 206.851680 195.234788 212.123130 210.007203 217.394579 225.865949 222.666029 246.136157 227.937478 225.018836 233.208928 215.189791 238.480377 208.519830 243.751827 201.717596 249.023276 174.291956 254.294726 134.106146 259.566175 107.730251 264.837625 119.715072 270.109075 148.705480 275.380524 173.147931 280.651974 163.190833 285.923423 187.129519 291.194873 241.211081 296.466322 274.771959 301.737772 263.994484 307.009221 252.794860 312.280671 275.170186 317.552120 305.148423 322.823570 304.544750 328.095020 293.176266 333.366469 279.908110 338.637919 273.725028 343.909368 249.205183 349.180818 223.351346 354.452267 213.291526 359.723717 216.792551 364.995166 234.480612 370.266616 248.564923 375.538065 263.413325 380.809515 298.108378 386.080965 320.694779 391.352414 331.487732 396.623864 336.789929 401.895313 337.354202 407.166763 341.557403 412.438212 356.058235 417.709662 363.754019 422.981111 365.444024 428.252561 363.960872 433.524010 360.739872 438.795460 359.262349 444.066909 359.142740 449.338359 360.244550 454.609809 366.535984 459.881258 364.065003 465.152708 362.501643 470.424157 366.412153 475.695607 362.246946 480.967056 357.642703 486.238506 354.365416 491.509955 347.287378 496.781405 349.652822 502.052854 350.121408 507.324304 351.406149 512.595754 360.606192 517.867203 365.155555 523.138653 363.679439 528.410102 367.222680 533.681552 365.173848 538.953001 368.570744 544.224451 373.446570 549.495900 363.690697 554.767350 365.867581 560.038799 374.102308 565.310249 372.067548 570.581699 367.734888 575.853148 366.951097 581.124598 363.002593 586.396047 365.728271 591.667497 367.605429 596.938946 364.464637 602.210396 366.322095 602.210396 368.401884 596.938946 366.519098 591.667497 369.673961 586.396047 367.796803 581.124598 365.071125 575.853148 368.997115 570.581699 369.744319 565.310249 374.051651 560.038799 376.086411 554.767350 367.837611 549.495900 365.660727 544.224451 375.416600 538.953001 370.540775 533.681552 367.143879 528.410102 369.274326 523.138653 365.731086 517.867203 367.269117 512.595754 362.719753 507.324304 353.559111 502.052854 352.381314 496.781405 351.997158 491.509955 349.620457 486.238506 356.816697 480.967056 360.279730 475.695607 365.165405 470.424157 369.583903 465.152708 365.982968 459.881258 367.827761 454.609809 370.616761 449.338359 364.499817 444.066909 363.431778 438.795460 363.551387 433.524010 365.017653 428.252561 368.114823 422.981111 369.547316 417.709662 367.739110 412.438212 359.840694 407.166763 345.083758 401.895313 340.599124 396.623864 339.753418 391.352414 334.158531 386.080965 323.086959 380.809515 300.376728 375.538065 265.934964 370.266616 251.269494 364.995166 237.255541 359.723717 219.910828 354.452267 216.468903 349.180818 226.503395 343.909368 252.258731 338.637919 276.533729 333.366469 282.654896 328.095020 295.852693 322.823570 309.227794 317.552120 309.772367 312.280671 279.782872 307.009221 257.385032 301.737772 268.486154 296.466322 279.117283 291.194873 245.702750 285.923423 189.589243 280.651974 165.920733 275.380524 176.086091 270.109075 152.088304 264.837625 123.320228 259.566175 111.543667 254.294726 137.919562 249.023276 177.939327 243.751827 205.094791 238.480377 211.711280 233.208928 218.156094 227.937478 227.810651 222.666029 248.719711 217.394579 228.424175 212.123130 212.520399 206.851680 197.829600 201.580231 183.247152 196.308781 167.011285 191.037331 158.108154 185.765882 138.801854 180.494432 148.371982 175.222983 125.377503 169.951533 111.968631 164.680084 94.124375 159.408634 85.578664 154.137185 63.988536 148.865735 31.868594 143.594286 33.704944 138.322836 65.679948 133.051386 13.057616 127.779937 22.160565 122.508487 73.519262 117.237038 126.908498 111.965588 182.450697 106.694139 200.977427 101.422689 213.862834 96.151240 259.010307 90.879790 239.584398 85.608341 177.921033 80.336891 125.601242 75.065441 86.770532 69.793992 64.880678 64.522542 66.836637 59.251093 77.743571 53.979643 75.776354 48.708194 80.707059 43.436744 88.063717 38.165295 93.457379 32.893845 103.231545 27.622396 90.161799 22.350946 93.709261 17.079497 124.814637 11.808047 183.289367" class="line reactive"/></g></g><g class="titles"><text x="400.0" y="26" class="title plot_title">Barcelona Air Quality - 2020 Overview</text><text x="436.60922137642274" y="580.0" class="title">Average over 7 days</text><text x="55.6" y="310.7393957002299" class="title" transform="rotate(-90 55.600000 284.739396)">micrograms per cubic meter air µg/m³</text></g><g transform="translate(129, 46)" class="plot overlay"><g class="series serie-0 color-0"/><g class="series serie-1 color-1"/><g class="series serie-2 color-2"/><g class="series serie-3 color-3"/><g class="series serie-4 color-4"/></g><g transform="translate(129, 46)" class="plot text-overlay"><g class="series serie-0 color-0"/><g class="series serie-1 color-1"/><g class="series serie-2 color-2"/><g class="series serie-3 color-3"/><g class="series serie-4 color-4"/></g><g transform="translate(129, 46)" class="plot tooltip-overlay"><g transform="translate(0 0)" style="opacity: 0" class="tooltip"><rect rx="0" ry="0" width="0" height="0" class="tooltip-box"/><g class="text"/></g></g><g transform="translate(10, 56)" class="legends"><g id="activate-serie-0" class="legend reactive activate-serie"><rect x="0.0" y="1.0" width="12" height="12" class="color-0 reactive"/><text x="17.0" y="11.2">NO</text></g><g id="activate-serie-1" class="legend reactive activate-serie"><rect x="0.0" y="22.0" width="12" height="12" class="color-1 reactive"/><text x="17.0" y="32.2">NO2</text></g><g id="activate-serie-2" class="legend reactive activate-serie"><rect x="0.0" y="43.0" width="12" height="12" class="color-2 reactive"/><text x="17.0" y="53.2">NOx</text></g><g id="activate-serie-3" class="legend reactive activate-serie"><rect x="0.0" y="64.0" width="12" height="12" class="color-3 reactive"/><text x="17.0" y="74.2">PM10</text></g><g id="activate-serie-4" class="legend reactive activate-serie"><rect x="0.0" y="85.0" width="12" height="12" class="color-4 reactive"/><text x="17.0" y="95.2">SO2</text></g></g><g transform="translate(753, 56)" class="legends"/></g></svg>