<?xml version='1.0' encoding='utf-8'?>
<svg xmlns="http://www.w3.org/2000/svg" xmlns:xlink="http://www.w3.org/1999/xlink" id="chart-a73c51a5-c86e-4cb5-b757-034157339d32" class="pygal-chart" viewBox="0 0 800 600"><!--Generated with pygal 2.4.0 (lxml) ©Kozea 2012-2016 on 2021-01-21--><!--http://pygal.org--><!--http://github.com/Kozea/pygal--><defs><style type="text/css">#chart-a73c51a5-c86e-4cb5-b757-034157339d32{-webkit-user-select:none;-webkit-font-smoothing:antialiased;font-family:Consolas,"Liberation Mono",Menlo,Courier,monospace}#chart-a73c51a5-c86e-4cb5-b757-034157339d32 .title{font-family:Consolas,"Liberation Mono",Menlo,Courier,monospace;font-size:16px}#chart-a73c51a5-c86e-4cb5-b757-034157339d32 .legends .legend text{font-family:Consolas,"Liberation Mono",Menlo,Courier,monospace;font-size:14px}#chart-a73c51a5-c86e-4cb5-b757-034157339d32 .axis text{font-family:Consolas,"Liberation Mono",Menlo,Courier,monospace;font-size:10px}#chart-a73c51a5-c86e-4cb5-b757-034157339d32 .axis text.major{font-family:Consolas,"Liberation Mono",Menlo,Courier,monospace;font-size:10px}#chart-a73c51a5-c86e-4cb5-b757-034157339d32 .text-overlay text.value{font-family:Consolas,"Liberation Mono",Menlo,Courier,monospace;font-size:16px}#chart-a73c51a5-c86e-4cb5-b757-034157339d32 .text-overlay text.label{font-family:Consolas,"Liberation Mono",Menlo,Courier,monospace;font-size:10px}#chart-a73c51a5-c86e-4cb5-b757-034157339d32 .tooltip{font-family:Consolas,"Liberation Mono",Menlo,Courier,monospace;font-size:14px}#chart-a73c51a5-c86e-4cb5-b757-034157339d32 text.no_data{font-family:Consolas,"Liberation Mono",Menlo,Courier,monospace;font-size:64px}
#chart-a73c51a5-c86e-4cb5-b757-034157339d32{background-color:#fdf6e3}#chart-a73c51a5-c86e-4cb5-b757-034157339d32 path,#chart-a73c51a5-c86e-4cb5-b757-034157339d32 line,#chart-a73c51a5-c86e-4cb5-b757-034157339d32 rect,#chart-a73c51a5-c86e-4cb5-b757-034157339d32 circle{-webkit-transition:500ms ease-in;-moz-transition:500ms ease-in;transition:500ms ease-in}#chart-a73c51a5-c86e-4cb5-b757-034157339d32 .graph &gt; .background{fill:#fdf6e3}#chart-a73c51a5-c86e-4cb5-b757-034157339d32 .plot &gt; .background{fill:#eee8d5}#chart-a73c51a5-c86e-4cb5-b757-034157339d32 .graph{fill:#657b83}#chart-a73c51a5-c86e-4cb5-b757-034157339d32 text.no_data{fill:#073642}#chart-a73c51a5-c86e-4cb5-b757-034157339d32 .title{fill:#073642}#chart-a73c51a5-c86e-4cb5-b757-034157339d32 .legends .legend text{fill:#657b83}#chart-a73c51a5-c86e-4cb5-b757-034157339d32 .legends .legend:hover text{fill:#073642}#chart-a73c51a5-c86e-4cb5-b757-034157339d32 .axis .line{stroke:#073642}#chart-a73c51a5-c86e-4cb5-b757-034157339d32 .axis .guide.line{stroke:#073642}#chart-a73c51a5-c86e-4cb5-b757-034157339d32 .axis .major.line{stroke:#657b83}#chart-a73c51a5-c86e-4cb5-b757-034157339d32 .axis text.major{fill:#073642}#chart-a73c51a5-c86e-4cb5-b757-034157339d32 .axis.y .guides:hover .guide.line,#chart-a73c51a5-c86e-4cb5-b757-034157339d32 .line-graph .axis.x .guides:hover .guide.line,#chart-a73c51a5-c86e-4cb5-b757-034157339d32 .stackedline-graph .axis.x .guides:hover .guide.line,#chart-a73c51a5-c86e-4cb5-b757-034157339d32 .xy-graph .axis.x .guides:hover .guide.line{stroke:#073642}#chart-a73c51a5-c86e-4cb5-b757-034157339d32 .axis .guides:hover text{fill:#073642}#chart-a73c51a5-c86e-4cb5-b757-034157339d32 .reactive{fill-opacity:.66;stroke-opacity:.8}#chart-a73c51a5-c86e-4cb5-b757-034157339d32 .ci{stroke:#657b83}#chart-a73c51a5-c86e-4cb5-b757-034157339d32 .reactive.active,#chart-a73c51a5-c86e-4cb5-b757-034157339d32 .active .reactive{fill-opacity:.9;stroke-opacity:.9;stroke-width:4}#chart-a73c51a5-c86e-4cb5-b757-034157339d32 .ci .reactive.active{stroke-width:1.5}#chart-a73c51a5-c86e-4cb5-b757-034157339d32 .series text{fill:#073642}#chart-a73c51a5-c86e-4cb5-b757-034157339d32 .tooltip rect{fill:#eee8d5;stroke:#073642;-webkit-transition:opacity 500ms ease-in;-moz-transition:opacity 500ms ease-in;transition:opacity 500ms ease-in}#chart-a73c51a5-c86e-4cb5-b757-034157339d32 .tooltip .label{fill:#657b83}#chart-a73c51a5-c86e-4cb5-b757-034157339d32 .tooltip .label{fill:#657b83}#chart-a73c51a5-c86e-4cb5-b757-034157339d32 .tooltip .legend{font-size:.8em;fill:#073642}#chart-a73c51a5-c86e-4cb5-b757-034157339d32 .tooltip .x_label{font-size:.6em;fill:#073642}#chart-a73c51a5-c86e-4cb5-b757-034157339d32 .tooltip .xlink{font-size:.5em;text-decoration:underline}#chart-a73c51a5-c86e-4cb5-b757-034157339d32 .tooltip .value{font-size:1.5em}#chart-a73c51a5-c86e-4cb5-b757-034157339d32 .bound{font-size:.5em}#chart-a73c51a5-c86e-4cb5-b757-034157339d32 .max-value{font-size:.75em;fill:#073642}#chart-a73c51a5-c86e-4cb5-b757-034157339d32 .map-element{fill:#eee8d5;stroke:#073642 !important}#chart-a73c51a5-c86e-4cb5-b757-034157339d32 .map-element .reactive{fill-opacity:inherit;stroke-opacity:inherit}#chart-a73c51a5-c86e-4cb5-b757-034157339d32 .color-0,#chart-a73c51a5-c86e-4cb5-b757-034157339d32 .color-0 a:visited{stroke:#e86258;fill:#e86258}#chart-a73c51a5-c86e-4cb5-b757-034157339d32 .text-overlay .color-0 text{fill:black}
#chart-a73c51a5-c86e-4cb5-b757-034157339d32 text.no_data{text-anchor:middle}#chart-a73c51a5-c86e-4cb5-b757-034157339d32 .guide.line{fill:none}#chart-a73c51a5-c86e-4cb5-b757-034157339d32 .centered{text-anchor:middle}#chart-a73c51a5-c86e-4cb5-b757-034157339d32 .title{text-anchor:middle}#chart-a73c51a5-c86e-4cb5-b757-034157339d32 .legends .legend text{fill-opacity:1}#chart-a73c51a5-c86e-4cb5-b757-034157339d32 .axis.x text{text-anchor:middle}#chart-a73c51a5-c86e-4cb5-b757-034157339d32 .axis.x:not(.web) text[transform]{text-anchor:start}#chart-a73c51a5-c86e-4cb5-b757-034157339d32 .axis.x:not(.web) text[transform].backwards{text-anchor:end}#chart-a73c51a5-c86e-4cb5-b757-034157339d32 .axis.y text{text-anchor:end}#chart-a73c51a5-c86e-4cb5-b757-034157339d32 .axis.y text[transform].backwards{text-anchor:start}#chart-a73c51a5-c86e-4cb5-b757-034157339d32 .axis.y2 text{text-anchor:start}#chart-a73c51a5-c86e-4cb5-b757-034157339d32 .axis.y2 text[transform].backwards{text-anchor:end}#chart-a73c51a5-c86e-4cb5-b757-034157339d32 .axis .guide.line{stroke-dasharray:4,4}#chart-a73c51a5-c86e-4cb5-b757-034157339d32 .axis .major.guide.line{stroke-dasharray:6,6}#chart-a73c51a5-c86e-4cb5-b757-034157339d32 .horizontal .axis.y .guide.line,#chart-a73c51a5-c86e-4cb5-b757-034157339d32 .horizontal .axis.y2 .guide.line,#chart-a73c51a5-c86e-4cb5-b757-034157339d32 .vertical .axis.x .guide.line{opacity:0}#chart-a73c51a5-c86e-4cb5-b757-034157339d32 .horizontal .axis.always_show .guide.line,#chart-a73c51a5-c86e-4cb5-b757-034157339d32 .vertical .axis.always_show .guide.line{opacity:1 !important}#chart-a73c51a5-c86e-4cb5-b757-034157339d32 .axis.y .guides:hover .guide.line,#chart-a73c51a5-c86e-4cb5-b757-034157339d32 .axis.y2 .guides:hover .guide.line,#chart-a73c51a5-c86e-4cb5-b757-034157339d32 .axis.x .guides:hover .guide.line{opacity:1}#chart-a73c51a5-c86e-4cb5-b757-034157339d32 .axis .guides:hover text{opacity:1}#chart-a73c51a5-c86e-4cb5-b757-034157339d32 .nofill{fill:none}#chart-a73c51a5-c86e-4cb5-b757-034157339d32 .subtle-fill{fill-opacity:.2}#chart-a73c51a5-c86e-4cb5-b757-034157339d32 .dot{stroke-width:1px;fill-opacity:1}#chart-a73c51a5-c86e-4cb5-b757-034157339d32 .dot.active{stroke-width:5px}#chart-a73c51a5-c86e-4cb5-b757-034157339d32 .dot.negative{fill:transparent}#chart-a73c51a5-c86e-4cb5-b757-034157339d32 text,#chart-a73c51a5-c86e-4cb5-b757-034157339d32 tspan{stroke:none !important}#chart-a73c51a5-c86e-4cb5-b757-034157339d32 .series text.active{opacity:1}#chart-a73c51a5-c86e-4cb5-b757-034157339d32 .tooltip rect{fill-opacity:.95;stroke-width:.5}#chart-a73c51a5-c86e-4cb5-b757-034157339d32 .tooltip text{fill-opacity:1}#chart-a73c51a5-c86e-4cb5-b757-034157339d32 .showable{visibility:hidden}#chart-a73c51a5-c86e-4cb5-b757-034157339d32 .showable.shown{visibility:visible}#chart-a73c51a5-c86e-4cb5-b757-034157339d32 .gauge-background{fill:rgba(229,229,229,1);stroke:none}#chart-a73c51a5-c86e-4cb5-b757-034157339d32 .bg-lines{stroke:#fdf6e3;stroke-width:2px}</style><script type="text/javascript">window.pygal = window.pygal || {};window.pygal.config = window.pygal.config || {};window.pygal.config['a73c51a5-c86e-4cb5-b757-034157339d32'] = {"allow_interruptions": false, "box_mode": "extremes", "classes": ["pygal-chart"], "css": ["file://style.css", "file://graph.css"], "defs": [], "disable_xml_declaration": false, "dots_size": 2.5, "dynamic_print_values": false, "explicit_size": false, "fill": true, "force_uri_protocol": "https", "formatter": null, "half_pie": false, "height": 600, "include_x_axis": false, "inner_radius": 0, "interpolate": null, "interpolation_parameters": {}, "interpolation_precision": 250, "inverse_y_axis": false, "js": ["//kozea.github.io/pygal.js/2.0.x/pygal-tooltips.min.js"], "legend_at_bottom": false, "legend_at_bottom_columns": null, "legend_box_size": 12, "logarithmic": false, "margin": 20, "margin_bottom": null, "margin_left": null, "margin_right": null, "margin_top": null, "max_scale": 16, "min_scale": 4, "missing_value_fill_truncation": "x", "no_data_text": "No data", "no_prefix": false, "order_min": null, "pretty_print": false, "print_labels": false, "print_values": false, "print_values_position": "center", "print_zeroes": true, "range": null, "rounded_bars": null, "secondary_range": null, "show_dots": false, "show_legend": true, "show_minor_x_labels": false, "show_minor_y_labels": true, "show_only_major_dots": false, "show_x_guides": false, "show_x_labels": true, "show_y_guides": true, "show_y_labels": true, "spacing": 10, "stack_from_top": false, "strict": false, "stroke": true, "stroke_style": null, "style": {"background": "#fdf6e3", "ci_colors": [], "colors": ["#e86258", "#ffec12", "#14e35d", "#53f5ed", "#b753f5"], "font_family": "Consolas, \"Liberation Mono\", Menlo, Courier, monospace", "foreground": "#657b83", "foreground_strong": "#073642", "foreground_subtle": "#073642", "guide_stroke_dasharray": "4,4", "label_font_family": "Consolas, \"Liberation Mono\", Menlo, Courier, monospace", "label_font_size": 10, "legend_font_family": "Consolas, \"Liberation Mono\", Menlo, Courier, monospace", "legend_font_size": 14, "major_guide_stroke_dasharray": "6,6", "major_label_font_family": "Consolas, \"Liberation Mono\", Menlo, Courier, monospace", "major_label_font_size": 10, "no_data_font_family": "Consolas, \"Liberation Mono\", Menlo, Courier, monospace", "no_data_font_size": 64, "opacity": ".66", "opacity_hover": ".9", "plot_background": "#eee8d5", "stroke_opacity": ".8", "stroke_opacity_hover": ".9", "title_font_family": "Consolas, \"Liberation Mono\", Menlo, Courier, monospace", "title_font_size": 16, "tooltip_font_family": "Consolas, \"Liberation Mono\", Menlo, Courier, monospace", "tooltip_font_size": 14, "transition": "500ms ease-in", "value_background": "rgba(229, 229, 229, 1)", "value_colors": [], "value_font_family": "Consolas, \"Liberation Mono\", Menlo, Courier, monospace", "value_font_size": 16, "value_label_font_family": "Consolas, \"Liberation Mono\", Menlo, Courier, monospace", "value_label_font_size": 10}, "title": "Barcelona Air Quality - 2020 NO2 Overview", "tooltip_border_radius": 0, "tooltip_fancy_mode": true, "truncate_label": null, "truncate_legend": null, "width": 800, "x_label_rotation": 20, "x_labels": ["2020-01-14", "2020-01-15", "2020-01-16", "2020-01-17", "2020-01-18", "2020-01-19", "2020-01-20", "2020-01-21", "2020-01-22", "2020-01-23", "2020-01-24", "2020-01-27", "2020-01-28", "2020-01-29", "2020-01-30", "2020-01-31", "2020-02-01", "2020-02-02", "2020-02-03", "2020-02-04", "2020-02-05", "2020-02-06", "2020-02-07", "2020-02-08", "2020-02-09", "2020-02-10", "2020-02-11", "2020-02-12", "2020-02-13", "2020-02-14", "2020-02-15", "2020-02-16", "2020-02-17", "2020-02-18", "2020-02-19", "2020-02-20", "2020-02-21", "2020-02-22", "2020-02-23", "2020-02-24", "2020-02-25", "2020-02-26", "2020-02-27", "2020-02-28", "2020-02-29", "2020-03-01", "2020-03-02", "2020-03-03", "2020-03-04", "2020-03-05", "2020-03-06", "2020-03-07", "2020-03-08", "2020-03-09", "2020-03-10", "2020-03-11", "2020-03-12", "2020-03-13", "2020-03-14", "2020-03-15", "2020-03-16", "2020-03-17", "2020-03-18", "2020-03-19", "2020-03-20", "2020-03-21", "2020-03-22", "2020-03-23", "2020-03-24", "2020-03-25", "2020-03-26", "2020-03-27", "2020-03-28", "2020-03-29", "2020-03-30", "2020-03-31", "2020-04-01", "2020-04-02", "2020-04-03", "2020-04-04", "2020-04-05", "2020-04-06", "2020-04-07", "2020-04-08", "2020-04-09", "2020-04-10", "2020-04-11", "2020-04-12", "2020-04-13", "2020-04-14", "2020-04-15", "2020-04-16", "2020-04-17", "2020-04-18", "2020-04-19", "2020-04-20", "2020-04-21", "2020-04-22", "2020-04-23", "2020-04-24", "2020-04-25", "2020-04-26", "2020-04-27", "2020-04-28", "2020-04-29", "2020-04-30", "2020-05-01", "2020-05-02", "2020-05-03", "2020-05-04", "2020-05-05", "2020-05-06", "2020-05-07", "2020-05-08", "2020-05-09", "2020-05-10", "2020-05-11", "2020-05-12", "2020-05-13", "2020-05-14", "2020-05-15", "2020-05-16", "2020-05-17", "2020-05-18", "2020-05-19", "2020-05-20", "2020-05-21", "2020-05-22", "2020-05-23", "2020-05-24", "2020-05-25", "2020-05-26", "2020-05-27", "2020-05-28", "2020-05-29", "2020-05-30", "2020-05-31", "2020-06-01", "2020-06-02", "2020-06-03", "2020-06-04", "2020-06-05", "2020-06-06", "2020-06-07", "2020-06-08", "2020-06-09", "2020-06-10", "2020-06-11", "2020-06-12", "2020-06-13", "2020-06-14", "2020-06-15", "2020-06-16", "2020-06-17", "2020-06-18", "2020-06-19", "2020-06-20", "2020-06-21", "2020-06-22", "2020-06-23", "2020-06-24", "2020-06-25", "2020-06-26", "2020-06-27", "2020-06-28", "2020-06-29", "2020-06-30", "2020-07-01", "2020-07-02", "2020-07-03", "2020-07-04", "2020-07-05", "2020-07-06", "2020-07-07", "2020-07-08", "2020-07-09", "2020-07-10", "2020-07-11", "2020-07-12", "2020-07-13", "2020-07-14", "2020-07-15", "2020-07-16", "2020-07-17", "2020-07-18", "2020-07-19", "2020-07-20", "2020-07-21", "2020-07-22", "2020-07-23", "2020-07-24", "2020-07-25", "2020-07-26", "2020-07-27", "2020-07-28", "2020-07-29", "2020-07-30", "2020-07-31", "2020-08-01", "2020-08-02", "2020-08-03", "2020-08-04", "2020-08-05", "2020-08-06", "2020-08-10", "2020-08-11", "2020-08-12", "2020-08-13", "2020-08-14", "2020-08-15", "2020-08-16", "2020-08-17", "2020-08-18", "2020-08-19", "2020-08-20", "2020-08-21", "2020-08-22", "2020-08-23", "2020-08-24", "2020-08-25", "2020-08-26", "2020-08-27", "2020-08-28", "2020-08-29", "2020-08-30", "2020-08-31", "2020-09-01", "2020-09-02", "2020-09-03", "2020-09-04", "2020-09-05", "2020-09-06", "2020-09-07", "2020-09-08", "2020-09-09", "2020-09-10", "2020-09-11", "2020-09-13", "2020-09-14", "2020-09-15", "2020-09-16", "2020-09-17", "2020-09-18", "2020-09-19", "2020-09-20", "2020-09-21", "2020-09-22", "2020-09-23", "2020-09-24", "2020-09-25", "2020-09-26", "2020-09-27", "2020-09-28", "2020-09-29", "2020-09-30", "2020-10-01", "2020-10-02", "2020-10-03", "2020-10-04", "2020-10-05", "2020-10-06", "2020-10-07", "2020-10-08", "2020-10-09", "2020-10-10", "2020-10-11", "2020-10-12", "2020-10-13", "2020-10-14", "2020-10-15", "2020-10-16", "2020-10-17", "2020-10-18", "2020-10-19", "2020-10-20", "2020-10-21", "2020-10-22", "2020-10-23", "2020-10-24", "2020-10-25", "2020-10-26", "2020-10-27", "2020-10-28", "2020-10-29", "2020-10-30", "2020-10-31", "2020-11-01", "2020-11-02", "2020-11-03", "2020-11-04", "2020-11-05", "2020-11-06", "2020-11-07", "2020-11-08", "2020-11-09", "2020-11-10", "2020-11-11", "2020-11-12", "2020-11-13", "2020-11-14", "2020-11-15", "2020-11-16", "2020-11-17", "2020-11-18", "2020-11-19", "2020-11-21", "2020-11-22", "2020-11-23", "2020-11-24", "2020-11-25", "2020-11-26", "2020-11-27", "2020-12-01", "2020-12-02", "2020-12-03", "2020-12-04", "2020-12-05", "2020-12-06", "2020-12-07", "2020-12-08", "2020-12-09", "2020-12-10", "2020-12-11", "2020-12-12", "2020-12-13", "2020-12-14", "2020-12-15", "2020-12-16", "2020-12-17", "2020-12-18", "2020-12-19", "2020-12-20", "2020-12-21", "2020-12-22", "2020-12-23", "2020-12-24", "2020-12-25", "2020-12-26", "2020-12-27", "2020-12-28", "2020-12-29", "2020-12-30", "2020-12-31"], "x_labels_major": ["2020-01-14", "2020-01-30", "2020-02-13", "2020-02-27", "2020-03-12", "2020-03-26", "2020-04-09", "2020-04-23", "2020-05-07", "2020-05-21", "2020-06-04", "2020-06-18", "2020-07-02", "2020-07-16", "2020-07-30", "2020-08-16", "2020-08-30", "2020-09-14", "2020-09-28", "2020-10-12", "2020-10-26", "2020-11-09", "2020-11-24", "2020-12-11", "2020-12-25"], "x_labels_major_count": null, "x_labels_major_every": null, "x_title": "Average over 14 days", "xrange": null, "y_label_rotation": 0, "y_labels": null, "y_labels_major": null, "y_labels_major_count": null, "y_labels_major_every": null, "y_title": "micrograms per cubic meter air \u00b5g/m\u00b3", "zero": 0, "legends": ["NO2"]}</script><script type="text/javascript" xlink:href="https://kozea.github.io/pygal.js/2.0.x/pygal-tooltips.min.js"/></defs><title>Barcelona Air Quality - 2020 NO2 Overview</title><g class="graph line-graph vertical"><rect x="0" y="0" width="800" height="600" class="background"/><g transform="translate(115, 46)" class="plot"><rect x="0" y="0" width="645.3329099269919" height="483.6351539803219" class="background"/><g class="axis y always_show"><path d="M0.000000 483.635154 h645.332910" class="line"/><g class="guides"><path d="M0.000000 444.948713 h645.332910" class="guide line"/><text x="-5" y="448.4487128961978" class="">16</text><title>16</title></g><g class="guides"><path d="M0.000000 387.968005 h645.332910" class="major guide line"/><text x="-5" y="391.4680050506894" class="major">20</text><title>20</title></g><g class="guides"><path d="M0.000000 330.987297 h645.332910" class="guide line"/><text x="-5" y="334.487297205181" class="">24</text><title>24</title></g><g class="guides"><path d="M0.000000 274.006589 h645.332910" class="guide line"/><text x="-5" y="277.5065893596726" class="">28</text><title>28</title></g><g class="guides"><path d="M0.000000 217.025882 h645.332910" class="guide line"/><text x="-5" y="220.52588151416427" class="">32</text><title>32</title></g><g class="guides"><path d="M0.000000 160.045174 h645.332910" class="guide line"/><text x="-5" y="163.54517366865588" class="">36</text><title>36</title></g><g class="guides"><path d="M0.000000 103.064466 h645.332910" class="major guide line"/><text x="-5" y="106.56446582314749" class="major">40</text><title>40</title></g><g class="guides"><path d="M0.000000 46.083758 h645.332910" class="guide line"/><text x="-5" y="49.58375797763915" class="">44</text><title>44</title></g></g><g class="axis x"><g class="guides"><path d="M12.410248 0.000000 v483.635154" class="major line"/><text x="12.410248267826766" y="498.6351539803219" class="major" transform="rotate(20 12.410248 498.635154)">14, Jan</text></g><g class="guides"><path d="M37.811341 0.000000 v483.635154" class="major guide line"/><text x="37.81134121367102" y="498.6351539803219" class="major" transform="rotate(20 37.811341 498.635154)">30, Jan</text></g><g class="guides"><path d="M63.212434 0.000000 v483.635154" class="major guide line"/><text x="63.21243415951529" y="498.6351539803219" class="major" transform="rotate(20 63.212434 498.635154)">13, Feb</text></g><g class="guides"><path d="M88.613527 0.000000 v483.635154" class="major guide line"/><text x="88.61352710535952" y="498.6351539803219" class="major" transform="rotate(20 88.613527 498.635154)">27, Feb</text></g><g class="guides"><path d="M114.014620 0.000000 v483.635154" class="major guide line"/><text x="114.01462005120379" y="498.6351539803219" class="major" transform="rotate(20 114.014620 498.635154)">12, Mar</text></g><g class="guides"><path d="M139.415713 0.000000 v483.635154" class="major guide line"/><text x="139.41571299704805" y="498.6351539803219" class="major" transform="rotate(20 139.415713 498.635154)">26, Mar</text></g><g class="guides"><path d="M164.816806 0.000000 v483.635154" class="major guide line"/><text x="164.81680594289233" y="498.6351539803219" class="major" transform="rotate(20 164.816806 498.635154)">09, Apr</text></g><g class="guides"><path d="M190.217899 0.000000 v483.635154" class="major guide line"/><text x="190.21789888873658" y="498.6351539803219" class="major" transform="rotate(20 190.217899 498.635154)">23, Apr</text></g><g class="guides"><path d="M215.618992 0.000000 v483.635154" class="major guide line"/><text x="215.61899183458084" y="498.6351539803219" class="major" transform="rotate(20 215.618992 498.635154)">07, May</text></g><g class="guides"><path d="M241.020085 0.000000 v483.635154" class="major guide line"/><text x="241.0200847804251" y="498.6351539803219" class="major" transform="rotate(20 241.020085 498.635154)">21, May</text></g><g class="guides"><path d="M266.421178 0.000000 v483.635154" class="major guide line"/><text x="266.4211777262694" y="498.6351539803219" class="major" transform="rotate(20 266.421178 498.635154)">04, Jun</text></g><g class="guides"><path d="M291.822271 0.000000 v483.635154" class="major guide line"/><text x="291.82227067211363" y="498.6351539803219" class="major" transform="rotate(20 291.822271 498.635154)">18, Jun</text></g><g class="guides"><path d="M317.223364 0.000000 v483.635154" class="major guide line"/><text x="317.22336361795783" y="498.6351539803219" class="major" transform="rotate(20 317.223364 498.635154)">02, Jul</text></g><g class="guides"><path d="M342.624457 0.000000 v483.635154" class="major guide line"/><text x="342.62445656380214" y="498.6351539803219" class="major" transform="rotate(20 342.624457 498.635154)">16, Jul</text></g><g class="guides"><path d="M368.025550 0.000000 v483.635154" class="major guide line"/><text x="368.0255495096464" y="498.6351539803219" class="major" transform="rotate(20 368.025550 498.635154)">30, Jul</text></g><g class="guides"><path d="M393.426642 0.000000 v483.635154" class="major guide line"/><text x="393.4266424554907" y="498.6351539803219" class="major" transform="rotate(20 393.426642 498.635154)">16, Aug</text></g><g class="guides"><path d="M418.827735 0.000000 v483.635154" class="major guide line"/><text x="418.8277354013349" y="498.6351539803219" class="major" transform="rotate(20 418.827735 498.635154)">30, Aug</text></g><g class="guides"><path d="M444.228828 0.000000 v483.635154" class="major guide line"/><text x="444.22882834717916" y="498.6351539803219" class="major" transform="rotate(20 444.228828 498.635154)">14, Sep</text></g><g class="guides"><path d="M469.629921 0.000000 v483.635154" class="major guide line"/><text x="469.6299212930234" y="498.6351539803219" class="major" transform="rotate(20 469.629921 498.635154)">28, Sep</text></g><g class="guides"><path d="M495.031014 0.000000 v483.635154" class="major guide line"/><text x="495.0310142388677" y="498.6351539803219" class="major" transform="rotate(20 495.031014 498.635154)">12, Oct</text></g><g class="guides"><path d="M520.432107 0.000000 v483.635154" class="major guide line"/><text x="520.432107184712" y="498.6351539803219" class="major" transform="rotate(20 520.432107 498.635154)">26, Oct</text></g><g class="guides"><path d="M545.833200 0.000000 v483.635154" class="major guide line"/><text x="545.8332001305562" y="498.6351539803219" class="major" transform="rotate(20 545.833200 498.635154)">09, Nov</text></g><g class="guides"><path d="M571.234293 0.000000 v483.635154" class="major guide line"/><text x="571.2342930764005" y="498.6351539803219" class="major" transform="rotate(20 571.234293 498.635154)">24, Nov</text></g><g class="guides"><path d="M596.635386 0.000000 v483.635154" class="major guide line"/><text x="596.6353860222447" y="498.6351539803219" class="major" transform="rotate(20 596.635386 498.635154)">11, Dec</text></g><g class="guides"><path d="M622.036479 0.000000 v483.635154" class="major guide line"/><text x="622.0364789680889" y="498.6351539803219" class="major" transform="rotate(20 622.036479 498.635154)">25, Dec</text></g></g><g class="series serie-0 color-0"><path d="M12.410248 483.635154 L12.410248 77.942079 14.224612 40.375512 16.038976 18.341276 17.853340 9.824695 19.667703 9.300676 21.482067 21.805906 23.296431 53.582826 25.110795 89.618036 26.925159 124.411881 28.739522 135.696096 30.553886 130.028551 32.368250 118.144003 34.182614 118.937663 35.996977 114.338506 37.811341 125.414131 39.625705 139.659308 41.440069 151.253864 43.254433 160.986373 45.068796 140.763309 46.883160 128.344567 48.697524 102.209755 50.511888 69.201645 52.326251 27.239424 54.140615 16.448702 55.954979 40.431475 57.769343 37.582440 59.583707 37.648578 61.398070 73.409060 63.212434 78.135406 65.026798 90.147143 66.841162 106.539271 68.655526 122.534570 70.469889 141.841873 72.284253 140.900673 74.098617 136.672908 75.912981 133.493181 77.727344 144.431442 79.541708 156.020911 81.356072 142.879735 83.170436 124.366093 84.984800 118.703635 86.799163 114.257105 88.613527 135.797847 90.427891 141.256803 92.242255 138.448468 94.056618 138.163564 95.870982 156.550018 97.685346 168.505791 99.499710 173.745981 101.314074 192.656454 103.128437 229.190245 104.942801 250.558011 106.757165 270.058640 108.571529 301.693108 110.385892 311.242464 112.200256 291.065189 114.014620 261.048566 115.828984 252.516722 117.643348 258.667586 119.457711 258.179180 121.272075 264.655648 123.086439 268.008352 124.900803 275.354794 126.715167 283.606821 128.529530 279.119590 130.343894 282.431594 132.158258 300.380517 133.972622 321.570218 135.786985 347.623629 137.601349 377.823404 139.415713 409.503660 141.230077 434.147816 143.044441 444.165228 144.858804 445.513432 146.673168 440.649722 148.487532 441.173741 150.301896 459.361779 152.116259 474.334478 153.930623 472.981186 155.744987 464.734246 157.559351 458.639345 159.373715 446.047627 161.188078 432.219630 163.002442 426.882776 164.816806 426.017890 166.631170 426.862426 168.445534 426.898039 170.259897 434.748149 172.074261 440.166403 173.888625 440.319030 175.702989 435.379007 177.517352 435.251817 179.331716 438.523121 181.146080 448.672809 182.960444 456.446606 184.774808 452.686897 186.589171 457.102901 188.403535 468.163264 190.217899 469.898123 192.032263 461.758022 193.846626 463.096051 195.660990 462.968862 197.475354 455.403655 199.289718 460.028250 201.104082 464.581619 202.918445 459.885798 204.732809 468.249752 206.547173 469.996482 208.361537 462.841673 210.175900 458.651216 211.990264 447.419573 213.804628 425.705853 215.618992 422.536301 217.433356 435.957293 219.247719 442.313355 221.062083 447.426356 222.876447 451.252204 224.690811 446.142594 226.505175 443.084969 228.319538 439.918809 230.133902 433.399944 231.948266 431.673565 233.762630 436.761128 235.576993 440.936321 237.391357 438.918255 239.205721 427.223643 241.020085 405.401388 242.834449 383.494341 244.648812 374.350294 246.463176 370.989111 248.277540 361.502501 250.091904 343.085522 251.906267 335.786565 253.720631 336.576833 255.534995 328.206096 257.349359 324.349723 259.163723 321.663490 260.978086 330.607426 262.792450 335.637330 264.606814 358.473705 266.421178 381.259205 268.235542 397.067960 270.049905 398.712939 271.864269 398.489086 273.678633 404.115931 275.492997 414.575961 277.307360 413.487222 279.121724 407.962128 280.936088 412.710521 282.750452 409.033908 284.564816 405.350513 286.379179 397.820919 288.193543 394.968492 290.007907 389.816486 291.822271 389.151711 293.636634 380.000881 295.450998 376.544730 297.265362 363.157655 299.079726 345.347792 300.894090 340.772377 302.708453 340.735068 304.522817 330.641343 306.337181 308.327291 308.151545 305.006808 309.965908 305.481647 311.780272 306.594128 313.594636 313.001065 315.409000 308.361208 317.223364 307.672691 319.037727 316.077345 320.852091 321.626181 322.666455 316.694636 324.480819 315.538064 326.295183 321.656706 328.109546 314.432367 329.923910 315.354911 331.738274 319.000998 333.552638 317.043982 335.367001 315.995944 337.181365 307.123234 338.995729 303.901111 340.810093 308.808913 342.624457 310.263956 344.438820 306.831547 346.253184 303.799359 348.067548 318.064887 349.881912 328.131478 351.696275 320.323765 353.510639 316.820130 355.325003 305.064467 357.139367 303.287211 358.953731 311.430704 360.768094 316.196055 362.582458 321.124208 364.396822 315.439704 366.211186 313.218135 368.025550 290.951567 369.839913 273.640285 371.654277 257.668728 373.468641 260.249818 375.283005 267.426674 377.097368 279.769103 378.911732 293.352896 380.726096 311.447663 382.540460 313.618356 384.354824 297.684108 386.169187 287.949904 387.983551 295.045359 389.797915 305.206919 391.612279 317.389937 393.426642 347.552403 395.241006 367.977273 397.055370 381.798487 398.869734 369.486584 400.684098 365.080754 402.498461 365.033270 404.312825 372.240651 406.127189 378.847700 407.941553 399.255612 409.755916 407.019233 411.570280 407.110810 413.384644 404.577203 415.199008 402.216574 417.013372 399.808460 418.827735 397.773435 420.642099 396.667738 422.456463 382.012164 424.270827 377.267164 426.085191 365.867631 427.899554 348.566524 429.713918 341.050497 431.528282 339.269850 433.342646 336.797294 435.157009 329.851075 436.971373 310.569210 438.785737 297.185527 440.600101 296.547886 442.414465 280.566154 444.228828 238.193536 446.043192 222.327122 447.857556 215.801475 449.671920 195.464789 451.486283 178.628346 453.300647 180.605712 455.115011 187.002475 456.929375 167.089753 458.743739 151.850805 460.558102 140.698867 462.372466 151.732095 464.186830 174.273392 466.001194 186.100281 467.815558 198.222248 469.629921 226.468399 471.444285 222.160929 473.258649 222.401740 475.073013 234.530491 476.887376 253.066179 478.701740 273.019602 480.516104 271.825721 482.330468 286.111598 484.144832 281.678635 485.959195 294.774022 487.773559 294.339884 489.587923 264.431795 491.402287 246.574449 493.216650 249.769438 495.031014 259.788546 496.845378 267.443633 498.659742 280.444053 500.474106 286.433810 502.288469 285.389164 504.102833 256.956469 505.917197 235.690455 507.731561 203.048650 509.545924 198.025529 511.360288 189.987179 513.174652 167.567984 514.989016 175.996380 516.803380 181.070377 518.617743 178.346834 520.432107 176.023514 522.246471 178.767406 524.060835 165.051336 525.875199 143.357966 527.689562 125.921191 529.503926 128.532807 531.318290 137.025646 533.132654 152.461313 534.947017 166.608130 536.761381 171.169979 538.575745 194.783055 540.390109 207.732599 542.204473 209.133375 544.018836 200.297974 545.833200 168.131007 547.647564 148.781309 549.461928 153.088779 551.276291 157.413208 553.090655 150.826509 554.905019 154.045241 556.719383 155.908985 558.533747 167.579855 560.348110 155.579989 562.162474 135.582474 563.976838 119.916171 565.791202 105.711695 567.605566 91.391900 569.419929 68.918437 571.234293 65.221475 573.048657 48.483392 574.863021 45.430854 576.677384 70.478624 578.491748 99.664278 580.306112 102.991544 582.120476 97.034008 583.934840 85.213902 585.749203 103.318844 587.563567 145.627020 589.377931 155.286606 591.192295 172.764082 593.006658 188.189573 594.821022 200.135172 596.635386 203.316595 598.449750 252.574381 600.264114 262.379812 602.078477 217.544813 603.892841 193.904603 605.707205 168.721165 607.521569 148.408221 609.335932 148.031741 611.150296 134.319062 612.964660 124.316913 614.779024 122.180137 616.593388 99.794859 618.407751 75.503440 620.222115 82.564978 622.036479 124.252471 623.850843 125.436177 625.665207 136.866236 627.479570 184.417993 629.293934 220.173387 631.108298 258.170701 632.922662 284.517495 632.922662 483.635154" class="line reactive"/></g></g><g class="titles"><text x="400.0" y="26" class="title plot_title">Barcelona Air Quality - 2020 NO2 Overview</text><text x="437.8664549634959" y="580.0" class="title">Average over 14 days</text><text x="47.199999999999996" y="313.81757699016094" class="title" transform="rotate(-90 47.200000 287.817577)">micrograms per cubic meter air µg/m³</text></g><g transform="translate(115, 46)" class="plot overlay"><g class="series serie-0 color-0"/></g><g transform="translate(115, 46)" class="plot text-overlay"><g class="series serie-0 color-0"/></g><g transform="translate(115, 46)" class="plot tooltip-overlay"><g transform="translate(0 0)" style="opacity: 0" class="tooltip"><rect rx="0" ry="0" width="0" height="0" class="tooltip-box"/><g class="text"/></g></g><g transform="translate(10, 56)" class="legends"><g id="activate-serie-0" class="legend reactive activate-serie"><rect x="0.0" y="1.0" width="12" height="12" class="color-0 reactive"/><text x="17.0" y="11.2">NO2</text></g></g><g transform="translate(770, 56)" class="legends"/></g></svg>