<?xml version='1.0' encoding='utf-8'?>
<svg xmlns="http://www.w3.org/2000/svg" xmlns:xlink="http://www.w3.org/1999/xlink" id="chart-56d592c0-25c1-4820-91eb-fb58395035e1" class="pygal-chart" viewBox="0 0 800 600"><!--Generated with pygal 2.4.0 (lxml) ©Kozea 2012-2016 on 2021-01-21--><!--http://pygal.org--><!--http://github.com/Kozea/pygal--><defs><style type="text/css">#chart-56d592c0-25c1-4820-91eb-fb58395035e1{-webkit-user-select:none;-webkit-font-smoothing:antialiased;font-family:Consolas,"Liberation Mono",Menlo,Courier,monospace}#chart-56d592c0-25c1-4820-91eb-fb58395035e1 .title{font-family:Consolas,"Liberation Mono",Menlo,Courier,monospace;font-size:16px}#chart-56d592c0-25c1-4820-91eb-fb58395035e1 .legends .legend text{font-family:Consolas,"Liberation Mono",Menlo,Courier,monospace;font-size:14px}#chart-56d592c0-25c1-4820-91eb-fb58395035e1 .axis text{font-family:Consolas,"Liberation Mono",Menlo,Courier,monospace;font-size:10px}#chart-56d592c0-25c1-4820-91eb-fb58395035e1 .axis text.major{font-family:Consolas,"Liberation Mono",Menlo,Courier,monospace;font-size:10px}#chart-56d592c0-25c1-4820-91eb-fb58395035e1 .text-overlay text.value{font-family:Consolas,"Liberation Mono",Menlo,Courier,monospace;font-size:16px}#chart-56d592c0-25c1-4820-91eb-fb58395035e1 .text-overlay text.label{font-family:Consolas,"Liberation Mono",Menlo,Courier,monospace;font-size:10px}#chart-56d592c0-25c1-4820-91eb-fb58395035e1 .tooltip{font-family:Consolas,"Liberation Mono",Menlo,Courier,monospace;font-size:14px}#chart-56d592c0-25c1-4820-91eb-fb58395035e1 text.no_data{font-family:Consolas,"Liberation Mono",Menlo,Courier,monospace;font-size:64px}
#chart-56d592c0-25c1-4820-91eb-fb58395035e1{background-color:#fdf6e3}#chart-56d592c0-25c1-4820-91eb-fb58395035e1 path,#chart-56d592c0-25c1-4820-91eb-fb58395035e1 line,#chart-56d592c0-25c1-4820-91eb-fb58395035e1 rect,#chart-56d592c0-25c1-4820-91eb-fb58395035e1 circle{-webkit-transition:500ms ease-in;-moz-transition:500ms ease-in;transition:500ms ease-in}#chart-56d592c0-25c1-4820-91eb-fb58395035e1 .graph &gt; .background{fill:#fdf6e3}#chart-56d592c0-25c1-4820-91eb-fb58395035e1 .plot &gt; .background{fill:#eee8d5}#chart-56d592c0-25c1-4820-91eb-fb58395035e1 .graph{fill:#657b83}#chart-56d592c0-25c1-4820-91eb-fb58395035e1 text.no_data{fill:#073642}#chart-56d592c0-25c1-4820-91eb-fb58395035e1 .title{fill:#073642}#chart-56d592c0-25c1-4820-91eb-fb58395035e1 .legends .legend text{fill:#657b83}#chart-56d592c0-25c1-4820-91eb-fb58395035e1 .legends .legend:hover text{fill:#073642}#chart-56d592c0-25c1-4820-91eb-fb58395035e1 .axis .line{stroke:#073642}#chart-56d592c0-25c1-4820-91eb-fb58395035e1 .axis .guide.line{stroke:#073642}#chart-56d592c0-25c1-4820-91eb-fb58395035e1 .axis .major.line{stroke:#657b83}#chart-56d592c0-25c1-4820-91eb-fb58395035e1 .axis text.major{fill:#073642}#chart-56d592c0-25c1-4820-91eb-fb58395035e1 .axis.y .guides:hover .guide.line,#chart-56d592c0-25c1-4820-91eb-fb58395035e1 .line-graph .axis.x .guides:hover .guide.line,#chart-56d592c0-25c1-4820-91eb-fb58395035e1 .stackedline-graph .axis.x .guides:hover .guide.line,#chart-56d592c0-25c1-4820-91eb-fb58395035e1 .xy-graph .axis.x .guides:hover .guide.line{stroke:#073642}#chart-56d592c0-25c1-4820-91eb-fb58395035e1 .axis .guides:hover text{fill:#073642}#chart-56d592c0-25c1-4820-91eb-fb58395035e1 .reactive{fill-opacity:.66;stroke-opacity:.8}#chart-56d592c0-25c1-4820-91eb-fb58395035e1 .ci{stroke:#657b83}#chart-56d592c0-25c1-4820-91eb-fb58395035e1 .reactive.active,#chart-56d592c0-25c1-4820-91eb-fb58395035e1 .active .reactive{fill-opacity:.9;stroke-opacity:.9;stroke-width:4}#chart-56d592c0-25c1-4820-91eb-fb58395035e1 .ci .reactive.active{stroke-width:1.5}#chart-56d592c0-25c1-4820-91eb-fb58395035e1 .series text{fill:#073642}#chart-56d592c0-25c1-4820-91eb-fb58395035e1 .tooltip rect{fill:#eee8d5;stroke:#073642;-webkit-transition:opacity 500ms ease-in;-moz-transition:opacity 500ms ease-in;transition:opacity 500ms ease-in}#chart-56d592c0-25c1-4820-91eb-fb58395035e1 .tooltip .label{fill:#657b83}#chart-56d592c0-25c1-4820-91eb-fb58395035e1 .tooltip .label{fill:#657b83}#chart-56d592c0-25c1-4820-91eb-fb58395035e1 .tooltip .legend{font-size:.8em;fill:#073642}#chart-56d592c0-25c1-4820-91eb-fb58395035e1 .tooltip .x_label{font-size:.6em;fill:#073642}#chart-56d592c0-25c1-4820-91eb-fb58395035e1 .tooltip .xlink{font-size:.5em;text-decoration:underline}#chart-56d592c0-25c1-4820-91eb-fb58395035e1 .tooltip .value{font-size:1.5em}#chart-56d592c0-25c1-4820-91eb-fb58395035e1 .bound{font-size:.5em}#chart-56d592c0-25c1-4820-91eb-fb58395035e1 .max-value{font-size:.75em;fill:#073642}#chart-56d592c0-25c1-4820-91eb-fb58395035e1 .map-element{fill:#eee8d5;stroke:#073642 !important}#chart-56d592c0-25c1-4820-91eb-fb58395035e1 .map-element .reactive{fill-opacity:inherit;stroke-opacity:inherit}#chart-56d592c0-25c1-4820-91eb-fb58395035e1 .color-0,#chart-56d592c0-25c1-4820-91eb-fb58395035e1 .color-0 a:visited{stroke:#e86258;fill:#e86258}#chart-56d592c0-25c1-4820-91eb-fb58395035e1 .color-1,#chart-56d592c0-25c1-4820-91eb-fb58395035e1 .color-1 a:visited{stroke:#ffec12;fill:#ffec12}#chart-56d592c0-25c1-4820-91eb-fb58395035e1 .color-2,#chart-56d592c0-25c1-4820-91eb-fb58395035e1 .color-2 a:visited{stroke:#14e35d;fill:#14e35d}#chart-56d592c0-25c1-4820-91eb-fb58395035e1 .color-3,#chart-56d592c0-25c1-4820-91eb-fb58395035e1 .color-3 a:visited{stroke:#53f5ed;fill:#53f5ed}#chart-56d592c0-25c1-4820-91eb-fb58395035e1 .color-4,#chart-56d592c0-25c1-4820-91eb-fb58395035e1 .color-4 a:visited{stroke:#b753f5;fill:#b753f5}#chart-56d592c0-25c1-4820-91eb-fb58395035e1 .text-overlay .color-0 text{fill:black}#chart-56d592c0-25c1-4820-91eb-fb58395035e1 .text-overlay .color-1 text{fill:black}#chart-56d592c0-25c1-4820-91eb-fb58395035e1 .text-overlay .color-2 text{fill:black}#chart-56d592c0-25c1-4820-91eb-fb58395035e1 .text-overlay .color-3 text{fill:black}#chart-56d592c0-25c1-4820-91eb-fb58395035e1 .text-overlay .color-4 text{fill:black}
#chart-56d592c0-25c1-4820-91eb-fb58395035e1 text.no_data{text-anchor:middle}#chart-56d592c0-25c1-4820-91eb-fb58395035e1 .guide.line{fill:none}#chart-56d592c0-25c1-4820-91eb-fb58395035e1 .centered{text-anchor:middle}#chart-56d592c0-25c1-4820-91eb-fb58395035e1 .title{text-anchor:middle}#chart-56d592c0-25c1-4820-91eb-fb58395035e1 .legends .legend text{fill-opacity:1}#chart-56d592c0-25c1-4820-91eb-fb58395035e1 .axis.x text{text-anchor:middle}#chart-56d592c0-25c1-4820-91eb-fb58395035e1 .axis.x:not(.web) text[transform]{text-anchor:start}#chart-56d592c0-25c1-4820-91eb-fb58395035e1 .axis.x:not(.web) text[transform].backwards{text-anchor:end}#chart-56d592c0-25c1-4820-91eb-fb58395035e1 .axis.y text{text-anchor:end}#chart-56d592c0-25c1-4820-91eb-fb58395035e1 .axis.y text[transform].backwards{text-anchor:start}#chart-56d592c0-25c1-4820-91eb-fb58395035e1 .axis.y2 text{text-anchor:start}#chart-56d592c0-25c1-4820-91eb-fb58395035e1 .axis.y2 text[transform].backwards{text-anchor:end}#chart-56d592c0-25c1-4820-91eb-fb58395035e1 .axis .guide.line{stroke-dasharray:4,4}#chart-56d592c0-25c1-4820-91eb-fb58395035e1 .axis .major.guide.line{stroke-dasharray:6,6}#chart-56d592c0-25c1-4820-91eb-fb58395035e1 .horizontal .axis.y .guide.line,#chart-56d592c0-25c1-4820-91eb-fb58395035e1 .horizontal .axis.y2 .guide.line,#chart-56d592c0-25c1-4820-91eb-fb58395035e1 .vertical .axis.x .guide.line{opacity:0}#chart-56d592c0-25c1-4820-91eb-fb58395035e1 .horizontal .axis.always_show .guide.line,#chart-56d592c0-25c1-4820-91eb-fb58395035e1 .vertical .axis.always_show .guide.line{opacity:1 !important}#chart-56d592c0-25c1-4820-91eb-fb58395035e1 .axis.y .guides:hover .guide.line,#chart-56d592c0-25c1-4820-91eb-fb58395035e1 .axis.y2 .guides:hover .guide.line,#chart-56d592c0-25c1-4820-91eb-fb58395035e1 .axis.x .guides:hover .guide.line{opacity:1}#chart-56d592c0-25c1-4820-91eb-fb58395035e1 .axis .guides:hover text{opacity:1}#chart-56d592c0-25c1-4820-91eb-fb58395035e1 .nofill{fill:none}#chart-56d592c0-25c1-4820-91eb-fb58395035e1 .subtle-fill{fill-opacity:.2}#chart-56d592c0-25c1-4820-91eb-fb58395035e1 .dot{stroke-width:1px;fill-opacity:1}#chart-56d592c0-25c1-4820-91eb-fb58395035e1 .dot.active{stroke-width:5px}#chart-56d592c0-25c1-4820-91eb-fb58395035e1 .dot.negative{fill:transparent}#chart-56d592c0-25c1-4820-91eb-fb58395035e1 text,#chart-56d592c0-25c1-4820-91eb-fb58395035e1 tspan{stroke:none !important}#chart-56d592c0-25c1-4820-91eb-fb58395035e1 .series text.active{opacity:1}#chart-56d592c0-25c1-4820-91eb-fb58395035e1 .tooltip rect{fill-opacity:.95;stroke-width:.5}#chart-56d592c0-25c1-4820-91eb-fb58395035e1 .tooltip text{fill-opacity:1}#chart-56d592c0-25c1-4820-91eb-fb58395035e1 .showable{visibility:hidden}#chart-56d592c0-25c1-4820-91eb-fb58395035e1 .showable.shown{visibility:visible}#chart-56d592c0-25c1-4820-91eb-fb58395035e1 .gauge-background{fill:rgba(229,229,229,1);stroke:none}#chart-56d592c0-25c1-4820-91eb-fb58395035e1 .bg-lines{stroke:#fdf6e3;stroke-width:2px}</style><script type="text/javascript">window.pygal = window.pygal || {};window.pygal.config = window.pygal.config || {};window.pygal.config['56d592c0-25c1-4820-91eb-fb58395035e1'] = {"allow_interruptions": false, "box_mode": "extremes", "classes": ["pygal-chart"], "css": ["file://style.css", "file://graph.css"], "defs": [], "disable_xml_declaration": false, "dots_size": 2.5, "dynamic_print_values": false, "explicit_size": false, "fill": false, "force_uri_protocol": "https", "formatter": null, "half_pie": false, "height": 600, "include_x_axis": false, "inner_radius": 0, "interpolate": null, "interpolation_parameters": {}, "interpolation_precision": 250, "inverse_y_axis": false, "js": ["//kozea.github.io/pygal.js/2.0.x/pygal-tooltips.min.js"], "legend_at_bottom": false, "legend_at_bottom_columns": null, "legend_box_size": 12, "logarithmic": false, "margin": 20, "margin_bottom": null, "margin_left": null, "margin_right": null, "margin_top": null, "max_scale": 16, "min_scale": 4, "missing_value_fill_truncation": "x", "no_data_text": "No data", "no_prefix": false, "order_min": null, "pretty_print": false, "print_labels": false, "print_values": false, "print_values_position": "center", "print_zeroes": true, "range": null, "rounded_bars": null, "secondary_range": null, "show_dots": false, "show_legend": true, "show_minor_x_labels": false, "show_minor_y_labels": true, "show_only_major_dots": false, "show_x_guides": false, "show_x_labels": true, "show_y_guides": true, "show_y_labels": true, "spacing": 10, "stack_from_top": false, "strict": false, "stroke": true, "stroke_style": null, "style": {"background": "#fdf6e3", "ci_colors": [], "colors": ["#e86258", "#ffec12", "#14e35d", "#53f5ed", "#b753f5"], "font_family": "Consolas, \"Liberation Mono\", Menlo, Courier, monospace", "foreground": "#657b83", "foreground_strong": "#073642", "foreground_subtle": "#073642", "guide_stroke_dasharray": "4,4", "label_font_family": "Consolas, \"Liberation Mono\", Menlo, Courier, monospace", "label_font_size": 10, "legend_font_family": "Consolas, \"Liberation Mono\", Menlo, Courier, monospace", "legend_font_size": 14, "major_guide_stroke_dasharray": "6,6", "major_label_font_family": "Consolas, \"Liberation Mono\", Menlo, Courier, monospace", "major_label_font_size": 10, "no_data_font_family": "Consolas, \"Liberation Mono\", Menlo, Courier, monospace", "no_data_font_size": 64, "opacity": ".66", "opacity_hover": ".9", "plot_background": "#eee8d5", "stroke_opacity": ".8", "stroke_opacity_hover": ".9", "title_font_family": "Consolas, \"Liberation Mono\", Menlo, Courier, monospace", "title_font_size": 16, "tooltip_font_family": "Consolas, \"Liberation Mono\", Menlo, Courier, monospace", "tooltip_font_size": 14, "transition": "500ms ease-in", "value_background": "rgba(229, 229, 229, 1)", "value_colors": [], "value_font_family": "Consolas, \"Liberation Mono\", Menlo, Courier, monospace", "value_font_size": 16, "value_label_font_family": "Consolas, \"Liberation Mono\", Menlo, Courier, monospace", "value_label_font_size": 10}, "title": "Barcelona Air Quality - 2020 Overview", "tooltip_border_radius": 0, "tooltip_fancy_mode": true, "truncate_label": null, "truncate_legend": null, "width": 800, "x_label_rotation": 20, "x_labels": ["2020-01-14", "2020-01-15", "2020-01-16", "2020-01-17", "2020-01-18", "2020-01-19", "2020-01-20", "2020-01-21", "2020-01-22", "2020-01-23", "2020-01-24", "2020-01-27", "2020-01-28", "2020-01-29", "2020-01-30", "2020-01-31", "2020-02-01", "2020-02-02", "2020-02-03", "2020-02-04", "2020-02-05", "2020-02-06", "2020-02-07", "2020-02-08", "2020-02-09", "2020-02-10", "2020-02-11", "2020-02-12", "2020-02-13", "2020-02-14", "2020-02-15", "2020-02-16", "2020-02-17", "2020-02-18", "2020-02-19", "2020-02-20", "2020-02-21", "2020-02-22", "2020-02-23", "2020-02-24", "2020-02-25", "2020-02-26", "2020-02-27", "2020-02-28", "2020-02-29", "2020-03-01", "2020-03-02", "2020-03-03", "2020-03-04", "2020-03-05", "2020-03-06", "2020-03-07", "2020-03-08", "2020-03-09", "2020-03-10", "2020-03-11", "2020-03-12", "2020-03-13", "2020-03-14", "2020-03-15", "2020-03-16", "2020-03-17", "2020-03-18", "2020-03-19", "2020-03-20", "2020-03-21", "2020-03-22", "2020-03-23", "2020-03-24", "2020-03-25", "2020-03-26", "2020-03-27", "2020-03-28", "2020-03-29", "2020-03-30", "2020-03-31", "2020-04-01", "2020-04-02", "2020-04-03", "2020-04-04", "2020-04-05", "2020-04-06", "2020-04-07", "2020-04-08", "2020-04-09", "2020-04-10", "2020-04-11", "2020-04-12", "2020-04-13", "2020-04-14", "2020-04-15", "2020-04-16", "2020-04-17", "2020-04-18", "2020-04-19", "2020-04-20", "2020-04-21", "2020-04-22", "2020-04-23", "2020-04-24", "2020-04-25", "2020-04-26", "2020-04-27", "2020-04-28", "2020-04-29", "2020-04-30", "2020-05-01", "2020-05-02", "2020-05-03", "2020-05-04", "2020-05-05", "2020-05-06", "2020-05-07", "2020-05-08", "2020-05-09", "2020-05-10", "2020-05-11", "2020-05-12", "2020-05-13", "2020-05-14", "2020-05-15", "2020-05-16", "2020-05-17", "2020-05-18", "2020-05-19", "2020-05-20", "2020-05-21", "2020-05-22", "2020-05-23", "2020-05-24", "2020-05-25", "2020-05-26", "2020-05-27", "2020-05-28", "2020-05-29", "2020-05-30", "2020-05-31", "2020-06-01", "2020-06-02", "2020-06-03", "2020-06-04", "2020-06-05", "2020-06-06", "2020-06-07", "2020-06-08", "2020-06-09", "2020-06-10", "2020-06-11", "2020-06-12", "2020-06-13", "2020-06-14", "2020-06-15", "2020-06-16", "2020-06-17", "2020-06-18", "2020-06-19", "2020-06-20", "2020-06-21", "2020-06-22", "2020-06-23", "2020-06-24", "2020-06-25", "2020-06-26", "2020-06-27", "2020-06-28", "2020-06-29", "2020-06-30", "2020-07-01", "2020-07-02", "2020-07-03", "2020-07-04", "2020-07-05", "2020-07-06", "2020-07-07", "2020-07-08", "2020-07-09", "2020-07-10", "2020-07-11", "2020-07-12", "2020-07-13", "2020-07-14", "2020-07-15", "2020-07-16", "2020-07-17", "2020-07-18", "2020-07-19", "2020-07-20", "2020-07-21", "2020-07-22", "2020-07-23", "2020-07-24", "2020-07-25", "2020-07-26", "2020-07-27", "2020-07-28", "2020-07-29", "2020-07-30", "2020-07-31", "2020-08-01", "2020-08-02", "2020-08-03", "2020-08-04", "2020-08-05", "2020-08-06", "2020-08-10", "2020-08-11", "2020-08-12", "2020-08-13", "2020-08-14", "2020-08-15", "2020-08-16", "2020-08-17", "2020-08-18", "2020-08-19", "2020-08-20", "2020-08-21", "2020-08-22", "2020-08-23", "2020-08-24", "2020-08-25", "2020-08-26", "2020-08-27", "2020-08-28", "2020-08-29", "2020-08-30", "2020-08-31", "2020-09-01", "2020-09-02", "2020-09-03", "2020-09-04", "2020-09-05", "2020-09-06", "2020-09-07", "2020-09-08", "2020-09-09", "2020-09-10", "2020-09-11", "2020-09-13", "2020-09-14", "2020-09-15", "2020-09-16", "2020-09-17", "2020-09-18", "2020-09-19", "2020-09-20", "2020-09-21", "2020-09-22", "2020-09-23", "2020-09-24", "2020-09-25", "2020-09-26", "2020-09-27", "2020-09-28", "2020-09-29", "2020-09-30", "2020-10-01", "2020-10-02", "2020-10-03", "2020-10-04", "2020-10-05", "2020-10-06", "2020-10-07", "2020-10-08", "2020-10-09", "2020-10-10", "2020-10-11", "2020-10-12", "2020-10-13", "2020-10-14", "2020-10-15", "2020-10-16", "2020-10-17", "2020-10-18", "2020-10-19", "2020-10-20", "2020-10-21", "2020-10-22", "2020-10-23", "2020-10-24", "2020-10-25", "2020-10-26", "2020-10-27", "2020-10-28", "2020-10-29", "2020-10-30", "2020-10-31", "2020-11-01", "2020-11-02", "2020-11-03", "2020-11-04", "2020-11-05", "2020-11-06", "2020-11-07", "2020-11-08", "2020-11-09", "2020-11-10", "2020-11-11", "2020-11-12", "2020-11-13", "2020-11-14", "2020-11-15", "2020-11-16", "2020-11-17", "2020-11-18", "2020-11-19", "2020-11-21", "2020-11-22", "2020-11-23", "2020-11-24", "2020-11-25", "2020-11-26", "2020-11-27", "2020-12-01", "2020-12-02", "2020-12-03", "2020-12-04", "2020-12-05", "2020-12-06", "2020-12-07", "2020-12-08", "2020-12-09", "2020-12-10", "2020-12-11", "2020-12-12", "2020-12-13", "2020-12-14", "2020-12-15", "2020-12-16", "2020-12-17", "2020-12-18", "2020-12-19", "2020-12-20", "2020-12-21", "2020-12-22", "2020-12-23", "2020-12-24", "2020-12-25", "2020-12-26", "2020-12-27", "2020-12-28", "2020-12-29", "2020-12-30", "2020-12-31"], "x_labels_major": ["2020-01-14", "2020-01-30", "2020-02-13", "2020-02-27", "2020-03-12", "2020-03-26", "2020-04-09", "2020-04-23", "2020-05-07", "2020-05-21", "2020-06-04", "2020-06-18", "2020-07-02", "2020-07-16", "2020-07-30", "2020-08-16", "2020-08-30", "2020-09-14", "2020-09-28", "2020-10-12", "2020-10-26", "2020-11-09", "2020-11-24", "2020-12-11", "2020-12-25"], "x_labels_major_count": null, "x_labels_major_every": null, "x_title": "Average over 14 days", "xrange": null, "y_label_rotation": 0, "y_labels": null, "y_labels_major": null, "y_labels_major_count": null, "y_labels_major_every": null, "y_title": "micrograms per cubic meter air \u00b5g/m\u00b3", "zero": 0, "legends": ["NO", "NO2", "NOx", "PM10", "SO2"]}</script><script type="text/javascript" xlink:href="https://kozea.github.io/pygal.js/2.0.x/pygal-tooltips.min.js"/></defs><title>Barcelona Air Quality - 2020 Overview</title><g class="graph line-graph vertical"><rect x="0" y="0" width="800" height="600" class="background"/><g transform="translate(123, 46)" class="plot"><rect x="0" y="0" width="620.0184427528454" height="477.47879140045984" class="background"/><g class="axis y always_show"><path d="M0.000000 477.478791 h620.018443" class="line"/><g class="guides"><path d="M0.000000 424.385063 h620.018443" class="guide line"/><text x="-5" y="427.885063339669" class="">10</text><title>10</title></g><g class="guides"><path d="M0.000000 375.833475 h620.018443" class="guide line"/><text x="-5" y="379.33347507944563" class="">20</text><title>20</title></g><g class="guides"><path d="M0.000000 327.281887 h620.018443" class="guide line"/><text x="-5" y="330.7818868192222" class="">30</text><title>30</title></g><g class="guides"><path d="M0.000000 278.730299 h620.018443" class="guide line"/><text x="-5" y="282.2302985589989" class="">40</text><title>40</title></g><g class="guides"><path d="M0.000000 230.178710 h620.018443" class="major guide line"/><text x="-5" y="233.67871029877554" class="major">50</text><title>50</title></g><g class="guides"><path d="M0.000000 181.627122 h620.018443" class="guide line"/><text x="-5" y="185.12712203855222" class="">60</text><title>60</title></g><g class="guides"><path d="M0.000000 133.075534 h620.018443" class="guide line"/><text x="-5" y="136.57553377832886" class="">70</text><title>70</title></g><g class="guides"><path d="M0.000000 84.523946 h620.018443" class="guide line"/><text x="-5" y="88.02394551810545" class="">80</text><title>80</title></g><g class="guides"><path d="M0.000000 35.972357 h620.018443" class="guide line"/><text x="-5" y="39.472357257882095" class="">90</text><title>90</title></g></g><g class="axis x"><g class="guides"><path d="M11.923432 0.000000 v477.478791" class="major line"/><text x="11.923431591400874" y="492.47879140045984" class="major" transform="rotate(20 11.923432 492.478791)">2020-01-14</text></g><g class="guides"><path d="M36.328116 0.000000 v477.478791" class="major guide line"/><text x="36.328116135203835" y="492.47879140045984" class="major" transform="rotate(20 36.328116 492.478791)">2020-01-30</text></g><g class="guides"><path d="M60.732801 0.000000 v477.478791" class="major guide line"/><text x="60.732800679006786" y="492.47879140045984" class="major" transform="rotate(20 60.732801 492.478791)">2020-02-13</text></g><g class="guides"><path d="M85.137485 0.000000 v477.478791" class="major guide line"/><text x="85.13748522280973" y="492.47879140045984" class="major" transform="rotate(20 85.137485 492.478791)">2020-02-27</text></g><g class="guides"><path d="M109.542170 0.000000 v477.478791" class="major guide line"/><text x="109.54216976661269" y="492.47879140045984" class="major" transform="rotate(20 109.542170 492.478791)">2020-03-12</text></g><g class="guides"><path d="M133.946854 0.000000 v477.478791" class="major guide line"/><text x="133.94685431041563" y="492.47879140045984" class="major" transform="rotate(20 133.946854 492.478791)">2020-03-26</text></g><g class="guides"><path d="M158.351539 0.000000 v477.478791" class="major guide line"/><text x="158.3515388542186" y="492.47879140045984" class="major" transform="rotate(20 158.351539 492.478791)">2020-04-09</text></g><g class="guides"><path d="M182.756223 0.000000 v477.478791" class="major guide line"/><text x="182.75622339802158" y="492.47879140045984" class="major" transform="rotate(20 182.756223 492.478791)">2020-04-23</text></g><g class="guides"><path d="M207.160908 0.000000 v477.478791" class="major guide line"/><text x="207.16090794182455" y="492.47879140045984" class="major" transform="rotate(20 207.160908 492.478791)">2020-05-07</text></g><g class="guides"><path d="M231.565592 0.000000 v477.478791" class="major guide line"/><text x="231.56559248562746" y="492.47879140045984" class="major" transform="rotate(20 231.565592 492.478791)">2020-05-21</text></g><g class="guides"><path d="M255.970277 0.000000 v477.478791" class="major guide line"/><text x="255.97027702943046" y="492.47879140045984" class="major" transform="rotate(20 255.970277 492.478791)">2020-06-04</text></g><g class="guides"><path d="M280.374962 0.000000 v477.478791" class="major guide line"/><text x="280.37496157323335" y="492.47879140045984" class="major" transform="rotate(20 280.374962 492.478791)">2020-06-18</text></g><g class="guides"><path d="M304.779646 0.000000 v477.478791" class="major guide line"/><text x="304.77964611703635" y="492.47879140045984" class="major" transform="rotate(20 304.779646 492.478791)">2020-07-02</text></g><g class="guides"><path d="M329.184331 0.000000 v477.478791" class="major guide line"/><text x="329.18433066083935" y="492.47879140045984" class="major" transform="rotate(20 329.184331 492.478791)">2020-07-16</text></g><g class="guides"><path d="M353.589015 0.000000 v477.478791" class="major guide line"/><text x="353.5890152046423" y="492.47879140045984" class="major" transform="rotate(20 353.589015 492.478791)">2020-07-30</text></g><g class="guides"><path d="M377.993700 0.000000 v477.478791" class="major guide line"/><text x="377.99369974844524" y="492.47879140045984" class="major" transform="rotate(20 377.993700 492.478791)">2020-08-16</text></g><g class="guides"><path d="M402.398384 0.000000 v477.478791" class="major guide line"/><text x="402.3983842922482" y="492.47879140045984" class="major" transform="rotate(20 402.398384 492.478791)">2020-08-30</text></g><g class="guides"><path d="M426.803069 0.000000 v477.478791" class="major guide line"/><text x="426.8030688360512" y="492.47879140045984" class="major" transform="rotate(20 426.803069 492.478791)">2020-09-14</text></g><g class="guides"><path d="M451.207753 0.000000 v477.478791" class="major guide line"/><text x="451.20775337985407" y="492.47879140045984" class="major" transform="rotate(20 451.207753 492.478791)">2020-09-28</text></g><g class="guides"><path d="M475.612438 0.000000 v477.478791" class="major guide line"/><text x="475.61243792365707" y="492.47879140045984" class="major" transform="rotate(20 475.612438 492.478791)">2020-10-12</text></g><g class="guides"><path d="M500.017122 0.000000 v477.478791" class="major guide line"/><text x="500.01712246746" y="492.47879140045984" class="major" transform="rotate(20 500.017122 492.478791)">2020-10-26</text></g><g class="guides"><path d="M524.421807 0.000000 v477.478791" class="major guide line"/><text x="524.421807011263" y="492.47879140045984" class="major" transform="rotate(20 524.421807 492.478791)">2020-11-09</text></g><g class="guides"><path d="M548.826492 0.000000 v477.478791" class="major guide line"/><text x="548.8264915550659" y="492.47879140045984" class="major" transform="rotate(20 548.826492 492.478791)">2020-11-24</text></g><g class="guides"><path d="M573.231176 0.000000 v477.478791" class="major guide line"/><text x="573.2311760988689" y="492.47879140045984" class="major" transform="rotate(20 573.231176 492.478791)">2020-12-11</text></g><g class="guides"><path d="M597.635861 0.000000 v477.478791" class="major guide line"/><text x="597.6358606426719" y="492.47879140045984" class="major" transform="rotate(20 597.635861 492.478791)">2020-12-25</text></g></g><g class="series serie-0 color-0"><path d="M11.923432 344.332164 L13.666623 326.671524 15.409815 320.245374 17.153007 316.994152 18.896199 322.341763 20.639390 325.305144 22.382582 332.490779 24.125774 345.547688 25.868966 366.960672 27.612157 379.155791 29.355349 364.070119 31.098541 362.518202 32.841733 363.830829 34.584924 357.118572 36.328116 352.904988 38.071308 353.719961 39.814500 353.893359 41.557691 353.527488 43.300883 339.714561 45.044075 337.474252 46.787267 333.815543 48.530458 326.902144 50.273650 314.394908 52.016842 316.057800 53.760034 333.109811 55.503225 329.156325 57.246417 324.677441 58.989609 339.041775 60.732801 352.768003 62.475992 362.039622 64.219184 374.321440 65.962376 384.052565 67.705568 397.236056 69.448759 398.267777 71.191951 398.735953 72.935143 399.285626 74.678335 401.491255 76.421526 402.706779 78.164718 400.778588 79.907910 395.472593 81.651102 395.767370 83.394293 394.992279 85.137485 399.207597 86.880677 405.690968 88.623869 404.744212 90.367060 404.600291 92.110252 406.282257 93.853444 407.180461 95.596636 406.575300 97.339827 409.561223 99.083019 419.800406 100.826211 421.881189 102.569403 425.962990 104.312595 436.722369 106.055786 443.125976 107.798978 440.157394 109.542170 431.435448 111.285362 431.286325 113.028553 432.446361 114.771745 432.619760 116.514937 433.224920 118.258129 434.069371 120.001320 435.891790 121.744512 437.551214 123.487704 437.409027 125.230896 437.731548 126.974087 438.217064 128.717279 440.542338 130.460471 442.037034 132.203663 446.032136 133.946854 455.262139 135.690046 458.991942 137.433238 460.032333 139.176430 460.236943 140.919621 460.138106 142.662813 460.077417 144.406005 462.501528 146.149197 464.497345 147.892388 464.225109 149.635580 463.715318 151.378772 463.540185 153.121964 462.992246 154.865155 462.492858 156.608347 462.244898 158.351539 462.189411 160.094731 462.213687 161.837922 462.043756 163.581114 462.265706 165.324306 462.432169 167.067498 462.348937 168.810689 461.806200 170.553881 461.728171 172.297073 462.076702 174.040265 462.529272 175.783456 462.772030 177.526648 462.451243 179.269840 462.798040 181.013032 463.122295 182.756223 463.264482 184.499415 462.154731 186.242607 462.052426 187.985799 461.735107 189.728990 460.840370 191.472182 460.875050 193.215374 460.791819 194.958566 460.472765 196.701757 460.947299 198.444949 460.699917 200.188141 459.910954 201.931333 456.392120 203.674524 453.476135 205.417716 448.499019 207.160908 447.773635 208.904100 448.396136 210.647291 448.729639 212.390483 448.983379 214.133675 449.361966 215.876867 448.846972 217.620058 448.668371 219.363250 448.357988 221.106442 447.606594 222.849634 447.701386 224.592825 448.337180 226.336017 450.809843 228.079209 452.561168 229.822401 453.224707 231.565592 449.752112 233.308784 447.623934 235.051976 447.132638 236.795168 446.949992 238.538359 445.664531 240.281551 443.680852 242.024743 443.848470 243.767935 443.500517 245.511127 442.978010 247.254318 442.593065 248.997510 442.360711 250.740702 443.734027 252.483894 443.472773 254.227085 446.907220 255.970277 450.599453 257.713469 452.264079 259.456661 452.098772 261.199852 451.859482 262.943044 452.065249 264.686236 453.403885 266.429428 451.281487 268.172619 450.948562 269.915811 450.912726 271.659003 450.882671 273.402195 450.613325 275.145386 449.350984 276.888578 449.185677 278.631770 447.792709 280.374962 447.048251 282.118153 445.694587 283.861345 445.123527 285.604537 444.101632 287.347729 440.965431 289.090920 439.549343 290.834112 440.037171 292.577304 438.112447 294.320496 435.486037 296.063687 434.943878 297.806879 434.428306 299.550071 432.992566 301.293263 432.052746 303.036454 430.627410 304.779646 430.311825 306.522838 430.688678 308.266030 430.806589 310.009221 430.897912 311.752413 431.033163 313.495605 431.508275 315.238797 430.863232 316.981988 431.819236 318.725180 432.955575 320.468372 433.184461 322.211564 433.645701 323.954755 435.015549 325.697947 436.318350 327.441139 438.699690 329.184331 438.567907 330.927522 438.210706 332.670714 438.599119 334.413906 439.543563 336.157098 442.373427 337.900289 441.400083 339.643481 441.617409 341.386673 441.366559 343.129865 441.868259 344.873056 442.240488 346.616248 442.603469 348.359440 442.648552 350.102632 441.563078 351.845823 440.844052 353.589015 439.233757 355.332207 438.381793 357.075399 437.069744 358.818590 437.024660 360.561782 436.655899 362.304974 438.093951 364.048166 439.017587 365.791357 440.017519 367.534549 439.535471 369.277741 438.621083 371.020933 438.087015 372.764124 438.930888 374.507316 440.014051 376.250508 441.574638 377.993700 445.025268 379.736892 447.277137 381.480083 448.601902 383.223275 447.871316 384.966467 448.310592 386.709659 449.226137 388.452850 450.300052 390.196042 451.310387 391.939234 453.076740 393.682426 452.941489 395.425617 452.378522 397.168809 451.394774 398.912001 450.954342 400.655193 450.505818 402.398384 450.051514 404.141576 449.644605 405.884768 447.689826 407.627960 446.981204 409.371151 445.951216 411.114343 444.031117 412.857535 443.871590 414.600727 443.789515 416.343918 443.708595 418.087110 442.974542 419.830302 441.929527 421.573494 441.376963 423.316685 442.632369 425.059877 442.129513 426.803069 436.933337 428.546261 434.545061 430.289452 433.124349 432.032644 429.553496 433.775836 425.587293 435.519028 426.150260 437.262219 426.493589 439.005411 424.040578 440.748603 422.425660 442.491795 420.305574 444.234986 421.248862 445.978178 423.012903 447.721370 422.741245 449.464562 423.427903 451.207753 427.425318 452.950945 428.402129 454.694137 428.049552 456.437329 429.101503 458.180520 433.871119 459.923712 435.635160 461.666904 435.514937 463.410096 436.503309 465.153287 435.012081 466.896479 435.013237 468.639671 434.334671 470.382863 423.913419 472.126054 421.625715 473.869246 421.668486 475.612438 422.919268 477.355630 423.266065 479.098821 424.849771 480.842013 426.554857 482.585205 426.295915 484.328397 424.144617 486.071588 422.280005 487.814780 410.908530 489.557972 403.830402 491.301164 404.633815 493.044355 399.964770 494.787547 407.259069 496.530739 409.320199 498.273931 409.324823 500.017122 408.694808 501.760314 408.558402 503.503506 407.195489 505.246698 397.873584 506.989889 390.943423 508.733081 387.673127 510.476273 388.049979 512.219465 396.680602 513.962656 405.174818 515.705848 404.158703 517.449040 408.313332 519.192232 411.328154 520.935424 409.233500 522.678615 406.891464 524.421807 392.267032 526.164999 386.150688 527.908191 385.160004 529.651382 390.365428 531.394574 383.060726 533.137766 384.370463 534.880958 384.928806 536.624149 386.477833 538.367341 383.519654 540.110533 375.885495 541.853725 367.183200 543.596916 364.031971 545.340108 364.207682 547.083300 361.544280 548.826492 366.580930 550.569683 357.951463 552.312875 357.428955 554.056067 363.110647 555.799259 374.736440 557.542450 375.404603 559.285642 375.073990 561.028834 371.322801 562.772026 375.572221 564.515217 387.441929 566.258409 393.809123 568.001601 396.986940 569.744793 397.542971 571.487984 395.908401 573.231176 387.398001 574.974368 403.559900 576.717560 407.044054 578.460751 373.780436 580.203943 355.559719 581.947135 343.524705 583.690327 331.812212 585.433518 334.138065 587.176710 331.560207 588.919902 331.078159 590.663094 331.168326 592.406285 320.541308 594.149477 313.693222 595.892669 316.222529 597.635861 334.949570 599.379052 335.645476 601.122244 337.232650 602.865436 370.595683 604.608628 392.564121 606.351819 406.751589 608.095011 418.996993" class="line reactive nofill"/></g><g class="series serie-1 color-1"><path d="M11.923432 270.167879 L13.666623 257.364132 15.409815 249.854241 17.153007 246.951550 18.896199 246.772950 20.639390 251.035085 22.382582 261.865558 24.125774 274.147375 25.868966 286.006101 27.612157 289.852080 29.355349 287.920421 31.098541 283.869831 32.841733 284.140333 34.584924 282.572810 36.328116 286.347696 38.071308 291.202855 39.814500 295.154607 41.557691 298.471721 43.300883 291.579130 45.044075 287.346471 46.787267 278.438989 48.530458 267.188892 50.273650 252.886982 52.016842 249.209199 53.760034 257.383206 55.503225 256.412174 57.246417 256.434716 58.989609 268.622898 60.732801 270.233771 62.475992 274.327710 64.219184 279.914611 65.962376 285.366260 67.705568 291.946734 69.448759 291.625947 71.191951 290.185005 72.935143 289.101265 74.678335 292.829333 76.421526 296.779351 78.164718 292.300467 79.907910 285.990495 81.651102 284.060569 83.394293 282.545066 85.137485 289.886760 86.880677 291.747326 88.623869 290.790166 90.367060 290.693063 92.110252 296.959686 93.853444 301.034551 95.596636 302.820556 97.339827 309.265780 99.083019 321.717528 100.826211 329.000266 102.569403 335.646632 104.312595 346.428552 106.055786 349.683243 107.798978 342.806257 109.542170 332.575744 111.285362 329.667851 113.028553 331.764239 114.771745 331.597776 116.514937 333.805139 118.258129 334.947836 120.001320 337.451711 121.744512 340.264235 123.487704 338.734860 125.230896 339.863684 126.974087 345.981184 128.717279 353.203233 130.460471 362.082972 132.203663 372.375908 133.946854 383.173435 135.690046 391.572860 137.433238 394.987077 139.176430 395.446583 140.919621 393.788893 142.662813 393.967493 144.406005 400.166491 146.149197 405.269609 147.892388 404.808369 149.635580 401.997579 151.378772 399.920265 153.121964 395.628651 154.865155 390.915679 156.608347 389.096729 158.351539 388.801951 160.094731 389.089793 161.837922 389.101931 163.581114 391.777470 165.324306 393.624164 167.067498 393.676184 168.810689 391.992484 170.553881 391.949134 172.297073 393.064087 174.040265 396.523388 175.783456 399.172917 177.526648 397.891502 179.269840 399.396601 181.013032 403.166285 182.756223 403.757574 184.499415 400.983198 186.242607 401.439236 187.985799 401.395886 189.728990 398.817450 191.472182 400.393643 193.215374 401.945560 194.958566 400.345091 196.701757 403.195763 198.444949 403.791098 200.188141 401.352537 201.931333 399.924311 203.674524 396.096249 205.417716 388.695600 207.160908 387.615327 208.904100 392.189580 210.647291 394.355906 212.390483 396.098561 214.133675 397.402518 215.876867 395.661019 217.620058 394.618894 219.363250 393.539777 221.106442 391.317964 222.849634 390.729565 224.592825 392.463550 226.336017 393.886574 228.079209 393.198760 229.822401 389.212906 231.565592 381.775265 233.308784 374.308724 235.051976 371.192174 236.795168 370.046588 238.538359 366.813284 240.281551 360.536257 242.024743 358.048566 243.767935 358.317912 245.511127 355.464928 247.254318 354.150567 248.997510 353.235023 250.740702 356.283369 252.483894 357.997702 254.227085 365.780984 255.970277 373.546926 257.713469 378.934997 259.456661 379.495652 261.199852 379.419357 262.943044 381.337144 264.686236 384.902218 266.429428 384.531145 268.172619 382.648037 269.915811 384.266424 271.659003 383.013330 273.402195 381.757925 275.145386 379.191627 276.888578 378.219439 278.631770 376.463490 280.374962 376.236916 282.118153 373.118054 283.861345 371.940100 285.604537 367.377407 287.347729 361.307302 289.090920 359.747871 290.834112 359.735156 292.577304 356.294929 294.320496 348.689669 296.063687 347.557955 297.806879 347.719793 299.550071 348.098958 301.293263 350.282624 303.036454 348.701229 304.779646 348.466563 306.522838 351.331107 308.266030 353.222307 310.009221 351.541497 311.752413 351.147304 313.495605 353.232711 315.238797 350.770452 316.981988 351.084881 318.725180 352.327570 320.468372 351.660564 322.211564 351.303363 323.954755 348.279293 325.697947 347.181102 327.441139 348.853820 329.184331 349.349740 330.927522 348.179878 332.670714 347.146422 334.413906 352.008517 336.157098 355.439496 337.900289 352.778407 339.643481 351.584269 341.386673 347.577607 343.129865 346.971868 344.873056 349.747400 346.616248 351.371567 348.359440 353.051220 350.102632 351.113781 351.845823 350.356607 353.589015 342.767531 355.332207 336.867358 357.075399 331.423800 358.818590 332.303508 360.561782 334.749583 362.304974 338.956232 364.048166 343.585973 365.791357 349.753180 367.534549 350.493014 369.277741 345.062172 371.020933 341.744480 372.764124 344.162812 374.507316 347.626158 376.250508 351.778475 377.993700 362.058696 379.736892 369.020069 381.480083 373.730729 383.223275 369.534484 384.966467 368.032853 386.709659 368.016669 388.452850 370.473149 390.196042 372.725017 391.939234 379.680610 393.682426 382.326672 395.425617 382.357884 397.168809 381.494359 398.912001 380.689790 400.655193 379.869037 402.398384 379.175443 404.141576 378.798590 405.884768 373.803556 407.627960 372.186326 409.371151 368.301043 411.114343 362.404337 412.857535 359.842663 414.600727 359.235768 416.343918 358.393051 418.087110 356.025583 419.830302 349.453779 421.573494 344.892241 423.316685 344.674915 425.059877 339.227890 426.803069 324.786104 428.546261 319.378382 430.289452 317.154257 432.032644 310.222939 433.775836 304.484604 435.519028 305.158546 437.262219 307.338744 439.005411 300.551926 440.748603 295.358062 442.491795 291.557166 444.234986 295.317602 445.978178 303.000313 447.721370 307.031251 449.464562 311.162760 451.207753 320.789846 452.950945 319.321738 454.694137 319.403814 456.437329 323.537635 458.180520 329.855121 459.923712 336.655811 461.666904 336.248903 463.410096 341.117933 465.153287 339.607054 466.896479 344.070332 468.639671 343.922366 470.382863 333.728844 472.126054 327.642556 473.869246 328.731499 475.612438 332.146294 477.355630 334.755363 479.098821 339.186274 480.842013 341.227753 482.585205 340.871708 484.328397 331.181042 486.071588 323.932983 487.814780 312.807734 489.557972 311.095712 491.301164 308.356015 493.044355 300.714920 494.787547 303.587556 496.530739 305.316917 498.273931 304.388657 500.017122 303.596804 501.760314 304.532000 503.503506 299.857175 505.246698 292.463462 506.989889 286.520516 508.733081 287.410629 510.476273 290.305228 512.219465 295.566140 513.962656 300.387775 515.705848 301.942582 517.449040 309.990585 519.192232 314.404156 520.935424 314.881580 522.678615 311.870226 524.421807 300.906814 526.164999 294.311890 527.908191 295.779998 529.651382 297.253885 531.394574 295.008953 533.137766 296.105987 534.880958 296.741204 536.624149 300.718966 538.367341 296.629073 540.110533 289.813355 541.853725 284.473836 543.596916 279.632549 545.340108 274.751958 547.083300 267.092367 548.826492 265.832338 550.569683 260.127526 552.312875 259.087135 554.056067 267.624123 555.799259 277.571418 557.542450 278.705445 559.285642 276.674948 561.028834 272.646322 562.772026 278.816998 564.515217 293.236820 566.258409 296.529080 568.001601 302.485897 569.744793 307.743341 571.487984 311.814738 573.231176 312.899057 574.974368 329.687502 576.717560 333.029470 578.460751 317.748436 580.203943 309.691184 581.947135 301.107957 583.690327 294.184731 585.433518 294.056417 587.176710 289.382748 588.919902 285.973733 590.663094 285.245459 592.406285 277.615924 594.149477 269.336722 595.892669 271.743494 597.635861 285.951769 599.379052 286.355210 601.122244 290.250897 602.865436 306.457879 604.608628 318.644328 606.351819 331.594886 608.095011 340.574618" class="line reactive nofill"/></g><g class="series serie-2 color-2"><path d="M11.923432 74.087088 L13.666623 34.337209 15.409815 16.980016 17.153007 9.182284 18.896199 17.250518 20.639390 26.064365 22.382582 48.013151 24.125774 80.265278 25.868966 124.896325 27.612157 147.535237 29.355349 122.557179 31.098541 116.068606 32.841733 118.383476 34.584924 106.621854 36.328116 103.928975 38.071308 110.020465 39.814500 114.239252 41.557691 116.972012 43.300883 88.962948 45.044075 81.312605 46.787267 66.813020 48.530458 44.949199 50.273650 11.455539 52.016842 10.217474 53.760034 44.455013 55.503225 37.487860 57.246417 30.506836 58.989609 64.650740 60.732801 87.274046 62.475992 105.638684 64.219184 130.023720 65.962376 150.323486 67.705568 177.056337 69.448759 178.218107 71.191951 177.441282 72.935143 177.212395 74.678335 184.356415 76.421526 190.199945 78.164718 182.794094 79.907910 168.445366 81.651102 167.058178 83.394293 164.278599 85.137485 178.098462 86.880677 189.799395 88.623869 187.427303 90.367060 187.155067 92.110252 195.979318 93.853444 201.573155 95.596636 202.407202 97.339827 213.435348 99.083019 241.707979 100.826211 252.233269 102.569403 265.203479 104.312595 292.314339 106.055786 305.442342 107.798978 294.100344 109.542170 270.577100 111.285362 267.478468 113.028553 271.291502 114.771745 271.428486 116.514937 274.773344 118.258129 277.200924 120.001320 282.512120 121.744512 287.946430 123.487704 286.122278 125.230896 287.766096 126.974087 294.743653 128.717279 305.742321 130.460471 317.021896 132.203663 333.493022 133.946854 358.398253 135.690046 372.486883 137.433238 377.499835 139.176430 378.200365 140.919621 376.254834 142.662813 376.397020 144.406005 386.441997 146.149197 394.636812 147.892388 393.766351 149.635580 390.086834 151.378772 387.567354 153.121964 382.325516 154.865155 376.688330 156.608347 374.427213 158.351539 374.068278 160.094731 374.406405 161.837922 374.151509 163.581114 377.309097 165.324306 379.526864 167.067498 379.407219 168.810689 376.726478 170.553881 376.553079 172.297073 378.153547 174.040265 382.382738 175.783456 385.590610 177.526648 383.830615 179.269840 385.932205 181.013032 390.287976 182.756223 391.094280 184.499415 386.639671 186.242607 386.984735 187.985799 386.407317 189.728990 382.330718 191.472182 383.998812 193.215374 385.543793 194.958566 383.416193 196.701757 387.067966 198.444949 387.262750 200.188141 383.428331 201.931333 376.511463 203.674524 368.151920 205.417716 353.066248 207.160908 350.888363 208.904100 356.493181 210.647291 359.382579 212.390483 361.717679 214.133675 363.652806 215.876867 361.096334 217.620058 359.807983 219.363250 358.338719 221.106442 355.002532 222.849634 354.622211 224.592825 357.431267 226.336017 362.719922 228.079209 364.689730 229.822401 361.676063 231.565592 348.823764 233.308784 338.015256 235.051976 333.984318 236.795168 332.376336 238.538359 327.155884 240.281551 317.756528 242.024743 315.419115 243.767935 315.124338 245.511127 311.362746 247.254318 309.306239 248.997510 307.966447 250.740702 313.115227 252.483894 314.463112 254.227085 327.514241 255.970277 340.952627 257.713469 348.859600 259.456661 349.071146 261.199852 348.637650 262.943044 350.866399 264.686236 356.501851 266.429428 352.913657 268.172619 350.419031 269.915811 352.003893 271.659003 350.742708 273.402195 349.032998 275.145386 344.422909 276.888578 343.177908 278.631770 339.241761 280.374962 337.910061 282.118153 332.680361 283.861345 330.656222 285.604537 324.434683 287.347729 313.489768 289.090920 309.733956 290.834112 310.308483 292.577304 303.911233 294.320496 292.244980 296.063687 290.283265 297.806879 289.690242 299.550071 287.921577 301.293263 288.708806 303.036454 284.994609 304.779646 284.247840 306.522838 287.682287 308.266030 289.811621 310.009221 288.307677 311.752413 288.111159 313.495605 290.950271 315.238797 287.698471 316.981988 289.568863 318.725180 292.589465 320.468372 292.335147 322.211564 292.777891 323.954755 291.858879 325.697947 292.833379 327.441139 298.194861 329.184331 298.555530 330.927522 296.903620 332.670714 296.421573 334.413906 302.744839 336.157098 310.561645 337.900289 306.423200 339.643481 305.401304 341.386673 300.933402 343.129865 301.035129 344.873056 304.315830 346.616248 306.445164 348.359440 308.210361 350.102632 304.496164 351.845823 302.587624 353.589015 292.495830 355.332207 285.183036 357.075399 277.699155 358.818590 278.540716 360.561782 280.352153 362.304974 286.727439 364.048166 292.844939 365.791357 300.498750 367.534549 300.477942 369.277741 293.673784 371.020933 289.559615 372.764124 293.300399 374.507316 298.568246 376.250508 305.129647 377.993700 320.793314 379.736892 331.287393 381.480083 338.078835 383.223275 332.728913 384.966467 331.948619 386.709659 333.383203 388.452850 337.588695 390.196042 341.399995 391.939234 351.221288 393.682426 353.528644 395.425617 352.593448 397.168809 350.187833 398.912001 348.552106 400.655193 347.052787 402.398384 345.553468 404.141576 344.593996 405.884768 336.540212 407.627960 333.817855 409.371151 328.360426 411.114343 319.483577 412.857535 316.560078 414.600727 315.824868 416.343918 314.697778 418.087110 311.309570 419.830302 303.122848 421.573494 297.731309 423.316685 299.467607 425.059877 293.205608 426.803069 270.775930 428.546261 261.603148 430.289452 257.225413 432.032644 244.845914 433.775836 233.027070 435.519028 234.513674 437.262219 237.282270 439.005411 226.754667 440.748603 219.117040 442.491795 212.075904 444.234986 217.251272 445.978178 227.678304 447.721370 231.331233 449.464562 236.552840 451.207753 252.304363 452.950945 252.382970 454.694137 251.977217 456.437329 257.700525 458.180520 271.336585 459.923712 280.957892 461.666904 280.390300 463.410096 286.808358 465.153287 282.986654 466.896479 287.422189 468.639671 286.237299 470.382863 260.010193 472.126054 250.406227 473.869246 251.557593 475.612438 256.942195 477.355630 260.106141 479.098821 266.941511 480.842013 271.624427 482.585205 270.849913 484.328397 257.786068 486.071588 247.617978 487.814780 219.045369 489.557972 206.566455 491.301164 205.124935 493.044355 190.361784 494.787547 204.363137 496.530739 209.213672 498.273931 208.351303 500.017122 206.613850 501.760314 207.376804 503.503506 200.600389 505.246698 178.907077 506.989889 162.384509 508.733081 158.281900 510.476273 161.659703 512.219465 180.128959 513.962656 197.891904 515.705848 197.863004 517.449040 212.297854 519.192232 221.526124 520.935424 219.092764 522.678615 212.471252 524.421807 179.096659 526.164999 163.028396 527.908191 163.028396 529.651382 172.506359 531.394574 159.119993 533.137766 162.244634 534.880958 163.910994 536.624149 170.326740 538.367341 161.797844 540.110533 143.259229 541.853725 124.547216 543.596916 114.664656 545.340108 109.710082 547.083300 97.878522 548.826492 104.245716 550.569683 85.398452 552.312875 83.513032 554.056067 100.732662 555.799259 128.415159 557.542450 130.514437 559.285642 127.901322 561.028834 118.032633 562.772026 130.612119 564.515217 163.243410 566.258409 176.356963 568.001601 187.294942 569.744793 193.420534 571.487984 195.033140 573.231176 183.141469 574.974368 224.665793 576.717560 233.318380 578.460751 167.111353 580.203943 131.195894 581.947135 104.182715 583.690327 79.350889 585.433518 82.838512 587.176710 74.228697 588.919902 70.068288 590.663094 69.430182 592.406285 45.465349 594.149477 26.725592 595.892669 32.967939 597.635861 75.875983 599.379052 77.428478 601.122244 83.834975 602.865436 151.071989 604.608628 196.916248 606.351819 231.659534 608.095011 259.388271" class="line reactive nofill"/></g><g class="series serie-3 color-3"><path d="M11.923432 366.487294 L13.666623 358.569917 15.409815 353.957517 17.153007 350.097665 18.896199 350.555437 20.639390 349.445687 22.382582 350.683752 24.125774 348.498931 25.868966 340.505259 27.612157 328.187027 29.355349 301.109113 31.098541 294.911849 32.841733 295.158075 34.584924 294.606668 36.328116 296.420417 38.071308 297.356769 39.814500 301.733347 41.557691 305.260274 43.300883 298.695405 45.044075 287.726214 46.787267 285.929806 48.530458 286.772522 50.273650 294.318826 52.016842 308.343299 53.760034 330.247002 55.503225 331.072379 57.246417 328.454061 58.989609 331.127866 60.732801 330.742921 62.475992 329.549940 64.219184 327.254143 65.962376 326.397554 67.705568 327.833294 69.448759 339.177026 71.191951 338.951608 72.935143 338.788613 74.678335 337.775966 76.421526 336.582984 78.164718 335.036269 79.907910 331.283925 81.651102 326.813711 83.394293 320.630319 85.137485 318.806167 86.880677 320.391029 88.623869 303.987528 90.367060 300.203972 92.110252 303.262723 93.853444 301.369211 95.596636 300.765784 97.339827 302.076677 99.083019 308.284344 100.826211 312.823917 102.569403 317.620121 104.312595 321.632563 106.055786 323.758429 107.798978 324.302900 109.542170 323.186214 111.285362 325.204572 113.028553 342.724760 114.771745 346.151115 116.514937 344.885306 118.258129 341.476290 120.001320 342.367559 121.744512 344.989345 123.487704 344.732715 125.230896 342.915498 126.974087 340.470579 128.717279 342.339815 130.460471 343.480777 132.203663 348.977511 133.946854 356.218633 135.690046 360.213736 137.433238 362.623975 139.176430 364.337153 140.919621 367.274524 142.662813 372.393248 144.406005 373.225561 146.149197 375.202304 147.892388 375.597653 149.635580 378.559300 151.378772 383.951994 153.121964 386.781858 154.865155 391.463619 156.608347 392.840403 158.351539 392.219636 160.094731 391.061334 161.837922 389.674146 163.581114 389.507683 165.324306 391.120289 167.067498 390.856724 168.810689 389.601318 170.553881 385.394670 172.297073 382.634165 174.040265 379.152323 175.783456 380.511767 177.526648 383.140489 179.269840 387.475452 181.013032 387.295118 182.756223 387.614171 184.499415 388.019924 186.242607 390.586222 187.985799 392.694748 189.728990 391.581530 191.472182 393.298175 193.215374 396.561535 194.958566 400.421387 196.701757 404.092233 198.444949 407.705859 200.188141 406.440050 201.931333 401.366409 203.674524 395.450051 205.417716 391.598869 207.160908 390.983305 208.904100 391.236466 210.647291 388.134367 212.390483 383.501158 214.133675 383.613867 215.876867 382.954953 217.620058 383.274006 219.363250 383.936388 221.106442 384.468722 222.849634 385.465763 224.592825 384.858869 226.336017 383.950260 228.079209 382.670579 229.822401 381.456789 231.565592 375.262994 233.308784 371.000858 235.051976 371.557467 236.795168 373.111118 238.538359 368.455368 240.281551 362.917019 242.024743 359.665796 243.767935 357.239951 245.511127 352.253009 247.254318 350.333487 248.997510 349.783814 250.740702 352.218329 252.483894 354.224550 254.227085 357.070020 255.970277 363.813489 257.713469 368.229950 259.456661 368.829908 261.199852 372.140086 262.943044 378.006159 264.686236 383.423129 266.429428 386.537366 268.172619 387.889875 269.915811 387.104379 271.659003 386.440263 273.402195 385.170986 275.145386 382.136512 276.888578 383.332961 278.631770 384.796445 280.374962 386.428125 282.118153 387.442507 283.861345 387.362743 285.604537 383.568783 287.347729 379.289308 289.090920 370.966178 290.834112 277.481829 292.577304 276.453576 294.320496 278.092192 296.063687 274.520182 297.806879 267.951846 299.550071 265.491321 301.293263 262.198483 303.036454 258.513764 304.779646 252.997957 306.522838 250.932780 308.266030 251.336799 310.009221 251.288247 311.752413 250.306812 313.495605 254.777026 315.238797 343.541467 316.981988 342.582573 318.725180 341.571660 320.468372 341.457217 322.211564 346.900196 323.954755 350.054316 325.697947 349.837568 327.441139 349.019126 329.184331 351.429366 330.927522 350.829407 332.670714 350.033508 334.413906 351.001072 336.157098 352.752397 337.900289 353.943645 339.643481 355.897846 341.386673 353.900295 343.129865 352.187118 344.873056 353.083588 346.616248 353.796256 348.359440 352.324102 350.102632 350.768718 351.845823 352.221797 353.589015 349.332978 355.332207 345.615313 357.075399 341.838693 358.818590 339.489143 360.561782 341.406931 362.304974 341.930595 364.048166 342.136939 365.791357 344.125820 367.534549 346.010662 369.277741 345.792180 371.020933 341.502300 372.764124 336.869092 374.507316 337.472518 376.250508 335.369194 377.993700 336.631536 379.736892 339.648670 381.480083 343.354197 383.223275 343.212010 384.966467 340.396018 386.709659 337.791572 388.452850 337.914685 390.196042 338.696712 391.939234 339.771783 393.682426 337.902547 395.425617 340.678657 397.168809 346.986896 398.912001 348.797176 400.655193 356.738829 402.398384 361.651209 404.141576 365.594292 405.884768 367.002288 407.627960 369.927521 409.371151 370.999124 411.114343 372.226786 412.857535 373.383354 414.600727 373.707609 416.343918 377.005649 418.087110 381.866010 419.830302 384.062969 421.573494 386.454135 423.316685 388.647626 425.059877 383.983206 426.803069 377.531047 428.546261 372.944656 430.289452 367.064711 432.032644 358.913247 433.775836 354.222816 435.519028 353.803192 437.262219 356.697213 439.005411 358.396519 440.748603 357.959555 442.491795 356.317471 444.234986 355.427936 445.978178 351.365209 447.721370 353.165085 449.464562 357.156719 451.207753 360.255351 452.950945 361.339092 454.694137 364.012897 456.437329 369.490557 458.180520 376.516665 459.923712 380.745855 461.666904 379.969030 463.410096 380.383452 465.153287 375.769318 466.896479 374.474031 468.639671 372.438332 470.382863 370.680071 472.126054 367.529420 473.869246 368.054817 475.612438 372.313485 477.355630 374.728926 479.098821 379.981168 480.842013 384.527677 482.585205 383.678025 484.328397 380.480556 486.071588 377.366318 487.814780 372.318687 489.557972 373.012281 491.301164 353.347154 493.044355 334.802181 494.787547 335.821764 496.530739 337.208953 498.273931 334.470990 500.017122 332.213341 501.760314 329.295044 503.503506 322.008838 505.246698 314.322081 506.989889 307.191933 508.733081 303.737834 510.476273 300.699892 512.219465 299.467029 513.962656 299.789550 515.705848 323.923157 517.449040 344.918251 519.192232 348.722615 520.935424 342.556563 522.678615 342.840937 524.421807 337.883473 526.164999 336.678353 527.908191 339.529025 529.651382 342.175087 531.394574 342.523618 533.137766 346.267292 534.880958 347.352767 536.624149 349.213333 538.367341 347.751583 540.110533 340.201811 541.853725 333.898775 543.596916 330.741187 545.340108 332.142248 547.083300 325.506286 548.826492 321.910000 550.569683 317.665204 552.312875 317.724160 554.056067 319.836154 555.799259 326.857060 557.542450 328.135008 559.285642 332.187331 561.028834 335.001589 562.772026 341.169375 564.515217 350.725368 566.258409 358.634075 568.001601 365.450371 569.744793 371.354591 571.487984 377.505037 573.231176 383.454340 574.974368 393.880794 576.717560 396.372531 578.460751 387.995648 580.203943 381.836532 581.947135 377.427008 583.690327 371.436088 585.433518 369.339700 587.176710 365.441701 588.919902 363.158043 590.663094 361.295742 592.406285 355.533709 594.149477 350.189567 595.892669 349.201195 597.635861 354.547072 599.379052 354.670185 601.122244 357.163655 602.865436 366.797678 604.608628 374.376927 606.351819 380.083473 608.095011 386.525228" class="line reactive nofill"/></g><g class="series serie-4 color-4"><path d="M11.923432 465.771824 L13.666623 464.998467 15.409815 464.363828 17.153007 464.318745 18.896199 464.457464 20.639390 464.589246 22.382582 464.665542 24.125774 464.845876 25.868966 465.584554 27.612157 465.823844 29.355349 465.418091 31.098541 465.418091 32.841733 465.431963 34.584924 464.994999 36.328116 464.953383 38.071308 465.033147 39.814500 465.348732 41.557691 465.251629 43.300883 464.703689 45.044075 464.658606 46.787267 464.599650 48.530458 464.433188 50.273650 464.128006 52.016842 464.193898 53.760034 464.589246 55.503225 464.457464 57.246417 464.339553 58.989609 464.818132 60.732801 465.088634 62.475992 465.480515 64.219184 465.771824 65.962376 466.018050 67.705568 466.420335 69.448759 466.298956 71.191951 466.101282 72.935143 465.993774 74.678335 465.733677 76.421526 465.577618 78.164718 465.345264 79.907910 465.085166 81.651102 465.053954 83.394293 465.053954 85.137485 465.112910 86.880677 465.383412 88.623869 465.411155 90.367060 465.411155 92.110252 462.702670 93.853444 462.883005 95.596636 462.959300 97.339827 463.111891 99.083019 463.632087 100.826211 463.874844 102.569403 464.134942 104.312595 464.103731 106.055786 464.197366 107.798978 463.940736 109.542170 463.517643 111.285362 463.368521 113.028553 463.323437 114.771745 463.323437 116.514937 466.219193 118.258129 466.219193 120.001320 466.368315 121.744512 466.378719 123.487704 466.104750 125.230896 465.730209 126.974087 465.442367 128.717279 465.518663 130.460471 465.258565 132.203663 465.168397 133.946854 465.230821 135.690046 464.932575 137.433238 464.526823 139.176430 464.013563 140.919621 463.652894 142.662813 463.306097 144.406005 463.032128 146.149197 462.997448 147.892388 463.243674 149.635580 463.528047 151.378772 463.756933 153.121964 464.055179 154.865155 464.401976 156.608347 464.672478 158.351539 465.033147 160.094731 465.411155 161.837922 465.861992 163.581114 466.375251 165.324306 466.735920 167.067498 467.082717 168.810689 467.387899 170.553881 467.533553 172.297073 467.620253 174.040265 467.724292 175.783456 467.856075 177.526648 467.904626 179.269840 467.904626 181.013032 467.963582 182.756223 467.963582 184.499415 468.032941 186.242607 467.987858 187.985799 467.960114 189.728990 467.960114 191.472182 467.960114 193.215374 467.960114 194.958566 467.928902 196.701757 467.928902 198.444949 467.928902 200.188141 467.928902 201.931333 467.686144 203.674524 467.644528 205.417716 467.439918 207.160908 467.238776 208.904100 466.996018 210.647291 466.968274 212.390483 466.874639 214.133675 466.659625 215.876867 466.371783 217.620058 466.357911 219.363250 466.389123 221.106442 466.389123 222.849634 466.389123 224.592825 466.389123 226.336017 466.559054 228.079209 466.496630 229.822401 466.461951 231.565592 466.382187 233.308784 466.496630 235.051976 466.496630 236.795168 466.559054 238.538359 466.531310 240.281551 466.545182 242.024743 466.472354 243.767935 466.371783 245.511127 466.198385 247.254318 466.198385 248.997510 466.156769 250.740702 466.201853 252.483894 466.181045 254.227085 466.288552 255.970277 466.555586 257.713469 466.715112 259.456661 466.787940 261.199852 466.846895 262.943044 467.089653 264.686236 467.363623 266.429428 467.450322 268.172619 467.550893 269.915811 467.724292 271.659003 467.724292 273.402195 467.765907 275.145386 467.606381 276.888578 467.630657 278.631770 467.689612 280.374962 467.703484 282.118153 467.703484 283.861345 467.703484 285.604537 467.703484 287.347729 467.703484 289.090920 467.703484 290.834112 467.703484 292.577304 467.703484 294.320496 467.703484 296.063687 467.703484 297.806879 467.703484 299.550071 467.890754 301.293263 467.991326 303.036454 468.005197 304.779646 468.005197 306.522838 468.005197 308.266030 467.807523 310.009221 467.779779 311.752413 467.578637 313.495605 467.578637 315.238797 467.550893 316.981988 467.450322 318.725180 467.450322 320.468372 467.450322 322.211564 467.391367 323.954755 467.377495 325.697947 467.377495 327.441139 467.453790 329.184331 467.453790 330.927522 467.453790 332.670714 467.651464 334.413906 467.679208 336.157098 467.880350 337.900289 467.880350 339.643481 467.908094 341.386673 468.008665 343.129865 468.008665 344.873056 468.008665 346.616248 468.067621 348.359440 468.081493 350.102632 468.081493 351.845823 468.081493 353.589015 468.081493 355.332207 468.081493 357.075399 468.081493 358.818590 468.081493 360.561782 468.081493 362.304974 468.081493 364.048166 468.081493 365.791357 468.081493 367.534549 468.022537 369.277741 467.973986 371.020933 467.973986 372.764124 467.946242 374.507316 467.856075 376.250508 467.842203 377.993700 467.842203 379.736892 467.810991 381.480083 467.797119 383.223275 467.755504 384.966467 467.696548 386.709659 467.696548 388.452850 467.523150 390.196042 467.450322 391.939234 467.509278 393.682426 467.512746 395.425617 467.367091 397.168809 467.283860 398.912001 467.374027 400.655193 467.387899 402.398384 467.387899 404.141576 467.419110 405.884768 467.432982 407.627960 467.474598 409.371151 467.533553 411.114343 467.533553 412.857535 467.706952 414.600727 467.779779 416.343918 467.779779 418.087110 467.824863 419.830302 467.970518 421.573494 468.081493 423.316685 467.949710 425.059877 468.296507 426.803069 468.296507 428.546261 468.296507 430.289452 468.071089 432.032644 468.057217 433.775836 468.043345 435.519028 468.012133 437.262219 468.012133 439.005411 468.012133 440.748603 468.012133 442.491795 468.012133 444.234986 468.012133 445.978178 468.012133 447.721370 468.143916 449.464562 467.797119 451.207753 467.765907 452.950945 467.738164 454.694137 467.863011 456.437329 467.876883 458.180520 467.890754 459.923712 467.921966 461.666904 467.921966 463.410096 467.921966 465.153287 467.849139 466.896479 467.817927 468.639671 467.817927 470.382863 467.696548 472.126054 467.696548 473.869246 467.696548 475.612438 467.727760 477.355630 467.755504 479.098821 467.856075 480.842013 467.856075 482.585205 467.842203 484.328397 467.797119 486.071588 467.783247 487.814780 467.464194 489.557972 467.294263 491.301164 467.325475 493.044355 467.325475 494.787547 467.446854 496.530739 467.446854 498.273931 467.446854 500.017122 467.446854 501.760314 467.432982 503.503506 467.374027 505.246698 467.131269 506.989889 467.030698 508.733081 466.989082 510.476273 466.957870 512.219465 467.217968 513.962656 467.401771 515.705848 467.356687 517.449040 467.325475 519.192232 467.325475 520.935424 467.294263 522.678615 467.235308 524.421807 466.888511 526.164999 466.812216 527.908191 466.839959 529.651382 467.037634 531.394574 466.864235 533.137766 466.732452 534.880958 466.083942 536.624149 465.640041 538.367341 465.109442 540.110533 464.460931 541.853725 463.874844 543.596916 463.528047 545.340108 463.198590 547.083300 462.865665 548.826492 462.744286 550.569683 462.095776 552.312875 461.946653 554.056067 461.991736 555.799259 462.130455 557.542450 462.348937 559.285642 462.844857 561.028834 462.803242 562.772026 463.167378 564.515217 463.725722 566.258409 464.162686 568.001601 464.509483 569.744793 464.870152 571.487984 465.112910 573.231176 465.310584 574.974368 466.049262 576.717560 466.229596 578.460751 465.671253 580.203943 465.473579 581.947135 465.307116 583.690327 465.369540 585.433518 465.844652 587.176710 466.038858 588.919902 466.174109 590.663094 466.309360 592.406285 466.142897 594.149477 466.028454 595.892669 466.101282 597.635861 466.357911 599.379052 466.357911 601.122244 466.357911 602.865436 466.916255 604.608628 467.263052 606.351819 467.398303 608.095011 467.533553" class="line reactive nofill"/></g></g><g class="titles"><text x="400.0" y="26" class="title plot_title">Barcelona Air Quality - 2020 Overview</text><text x="433.60922137642274" y="580.0" class="title">Average over 14 days</text><text x="55.6" y="310.7393957002299" class="title" transform="rotate(-90 55.600000 284.739396)">micrograms per cubic meter air µg/m³</text></g><g transform="translate(123, 46)" class="plot overlay"><g class="series serie-0 color-0"/><g class="series serie-1 color-1"/><g class="series serie-2 color-2"/><g class="series serie-3 color-3"/><g class="series serie-4 color-4"/></g><g transform="translate(123, 46)" class="plot text-overlay"><g class="series serie-0 color-0"/><g class="series serie-1 color-1"/><g class="series serie-2 color-2"/><g class="series serie-3 color-3"/><g class="series serie-4 color-4"/></g><g transform="translate(123, 46)" class="plot tooltip-overlay"><g transform="translate(0 0)" style="opacity: 0" class="tooltip"><rect rx="0" ry="0" width="0" height="0" class="tooltip-box"/><g class="text"/></g></g><g transform="translate(10, 56)" class="legends"><g id="activate-serie-0" class="legend reactive activate-serie"><rect x="0.0" y="1.0" width="12" height="12" class="color-0 reactive"/><text x="17.0" y="11.2">NO</text></g><g id="activate-serie-1" class="legend reactive activate-serie"><rect x="0.0" y="22.0" width="12" height="12" class="color-1 reactive"/><text x="17.0" y="32.2">NO2</text></g><g id="activate-serie-2" class="legend reactive activate-serie"><rect x="0.0" y="43.0" width="12" height="12" class="color-2 reactive"/><text x="17.0" y="53.2">NOx</text></g><g id="activate-serie-3" class="legend reactive activate-serie"><rect x="0.0" y="64.0" width="12" height="12" class="color-3 reactive"/><text x="17.0" y="74.2">PM10</text></g><g id="activate-serie-4" class="legend reactive activate-serie"><rect x="0.0" y="85.0" width="12" height="12" class="color-4 reactive"/><text x="17.0" y="95.2">SO2</text></g></g><g transform="translate(753, 56)" class="legends"/></g></svg>